<svg width="16" height="16" viewBox="0 0 16 16" fill="none" xmlns="http://www.w3.org/2000/svg">
<path d="M8 14C11.3137 14 14 11.3137 14 8C14 4.68629 11.3137 2 8 2C4.68629 2 2 4.68629 2 8C2 11.3137 4.68629 14 8 14Z" stroke="#1B1F3D" stroke-width="2" stroke-linecap="round" stroke-linejoin="round"/>
<path d="M8 10C9.10457 10 10 9.10457 10 8C10 6.89543 9.10457 6 8 6C6.89543 6 6 6.89543 6 8C6 9.10457 6.89543 10 8 10Z" stroke="#1B1F3D" stroke-width="2" stroke-linecap="round" stroke-linejoin="round"/>
<path d="M14 8H10" stroke="#1B1F3D" stroke-width="2" stroke-linecap="round" stroke-linejoin="round"/>
<path d="M12.2438 3.75623L9.41251 6.58748" stroke="#1B1F3D" stroke-width="2" stroke-linecap="round" stroke-linejoin="round"/>
</svg>
