<svg width="16" height="16" viewBox="0 0 16 16" fill="none" xmlns="http://www.w3.org/2000/svg">
<path d="M5.5 1.5V3.5" stroke="white" stroke-width="2" stroke-linecap="round" stroke-linejoin="round"/>
<path d="M7.5 1.5V3.5" stroke="white" stroke-width="2" stroke-linecap="round" stroke-linejoin="round"/>
<path d="M9.5 1.5V3.5" stroke="white" stroke-width="2" stroke-linecap="round" stroke-linejoin="round"/>
<path d="M2 13.5H13" stroke="white" stroke-width="2" stroke-linecap="round" stroke-linejoin="round"/>
<path d="M5.20625 13.5C4.24929 13.0609 3.43849 12.3563 2.87014 11.47C2.30179 10.5837 1.99978 9.55289 2 8.5V5.5H13V8.5C13.0002 9.55289 12.6982 10.5837 12.1299 11.47C11.5615 12.3563 10.7507 13.0609 9.79375 13.5" stroke="white" stroke-width="2" stroke-linecap="round" stroke-linejoin="round"/>
<path d="M13 5.5C13.5304 5.5 14.0391 5.71071 14.4142 6.08579C14.7893 6.46086 15 6.96957 15 7.5V8C15 8.53043 14.7893 9.03914 14.4142 9.41421C14.0391 9.78929 13.5304 10 13 10H12.7875" stroke="white" stroke-width="2" stroke-linecap="round" stroke-linejoin="round"/>
</svg>
