<svg width="24" height="24" viewBox="0 0 24 24" fill="none" xmlns="http://www.w3.org/2000/svg">
<path d="M18.75 4.05939V19.5C18.75 19.6989 18.671 19.8897 18.5303 20.0303C18.3897 20.171 18.1989 20.25 18 20.25H2.55939C2.41067 20.2498 2.26538 20.2053 2.14199 20.1223C2.0186 20.0393 1.92267 19.9214 1.8664 19.7838C1.81013 19.6461 1.79605 19.4948 1.82597 19.3492C1.85588 19.2035 1.92842 19.07 2.03439 18.9656L17.4656 3.53439C17.57 3.42842 17.7035 3.35588 17.8492 3.32597C17.9948 3.29605 18.1461 3.31013 18.2838 3.3664C18.4215 3.42267 18.5393 3.5186 18.6223 3.64199C18.7053 3.76538 18.7498 3.91067 18.75 4.05939Z" stroke="#434495" stroke-width="2" stroke-linecap="round" stroke-linejoin="round"/>
<path d="M11.25 9.75V20.25" stroke="#434495" stroke-width="2" stroke-linecap="round" stroke-linejoin="round"/>
</svg>
