<svg width="14" height="14" viewBox="0 0 14 14" fill="none" xmlns="http://www.w3.org/2000/svg">
<path d="M13 6.96248C13.0058 7.75746 12.8529 8.54561 12.5503 9.28075C12.2476 10.0159 11.8013 10.6833 11.2375 11.2437C8.93125 13.55 5.15625 13.575 2.81875 11.3C1.96118 10.4655 1.37271 9.39363 1.12896 8.22213C0.885202 7.05064 0.997294 5.83302 1.45083 4.72572C1.90437 3.61842 2.67863 2.67202 3.67414 2.00811C4.66966 1.34421 5.84094 0.993125 7.0375 0.999976C7.11237 1.00108 7.18606 1.01878 7.25327 1.05179C7.32047 1.08481 7.37951 1.13232 7.42614 1.19091C7.47277 1.24949 7.50582 1.31769 7.52292 1.39059C7.54001 1.46349 7.54073 1.53927 7.525 1.61248C7.45988 1.90285 7.46038 2.20409 7.52645 2.49425C7.59253 2.78441 7.72253 3.05616 7.90697 3.2897C8.0914 3.52324 8.32563 3.71268 8.59257 3.84421C8.85951 3.97573 9.15244 4.04603 9.45 4.04998C9.58261 4.04998 9.70979 4.10265 9.80356 4.19642C9.89732 4.29019 9.95 4.41737 9.95 4.54998C9.95395 4.84754 10.0242 5.14046 10.1558 5.40741C10.2873 5.67435 10.4767 5.90858 10.7103 6.09301C10.9438 6.27745 11.2156 6.40745 11.5057 6.47352C11.7959 6.5396 12.0971 6.5401 12.3875 6.47498C12.4607 6.45925 12.5365 6.45997 12.6094 6.47706C12.6823 6.49416 12.7505 6.52721 12.8091 6.57384C12.8677 6.62047 12.9152 6.67951 12.9482 6.74671C12.9812 6.81392 12.9989 6.88761 13 6.96248V6.96248Z" stroke="white" stroke-width="2" stroke-linecap="round" stroke-linejoin="round"/>
</svg>
