<?xml version="1.0" encoding="UTF-8"?><svg id="Capa_2" xmlns="http://www.w3.org/2000/svg" viewBox="0 0 259 130"><defs><style>.cls-1{fill:#333b5c;}.cls-1,.cls-2,.cls-3{stroke-width:0px;}.cls-2{fill:#30f77e;}.cls-3{fill:#00c6d1;}</style></defs><g id="Capa_1-2"><path class="cls-3" d="m70.77,65.9c.01-2.48-1.91-4.33-4.44-4.28-2.3.05-4.28,1.93-4.34,4.13-.06,2.41,1.88,4.39,4.35,4.44,2.54.04,4.42-1.78,4.43-4.29Zm-40.45-10.14c-.34-.18-.22-.69.17-.72,10.52-.66,20.08.79,29.08,5.12,2.22,1.07,3.48.91,5.05-1.07,4.21-5.28,8.02-10.76,10.69-16.96.19-.45.25-1.02,1.1-1.16,1,4.26.26,8.5-.36,12.66-.99,6.67-3.47,12.85-7.14,18.58-1.45,2.27-2.39,2.66-4.25.26-4.14-5.38-10.59-9.16-17.07-10.1-.29-.04-.45.31-.22.5,1.45,1.17,2.59,2.09,3.72,3,7.28,5.93,9.71,14.55,6.42,22.75-3.16,7.87-11.39,13.1-19.84,12.51-6.82-.47-12.21-4.11-17.32-8.03C-5,73.63-6.94,36.55,16.1,14.49c22.06-21.11,58.94-18.87,78.02,4.83,11.64,14.45,14.62,30.62,9.49,48.28-.18.6-.37,1.19-.61,1.77-.49,1.17-1.36,2.12-2.67,1.55-1.24-.55-.37-1.69-.09-2.47,3.31-9.42,3.57-18.89,1.26-28.61C96.84,20.27,77.24,4.01,56.65,2.96,30.89,1.66,9.41,17.72,3.95,42.36c-4.46,20.12,5.73,42.28,24.05,52.3,6.38,3.49,13.57,2.75,18.59-1.92,5.7-5.3,6.95-11.96,3.53-18.76-3.8-7.54-8.89-12.31-19.8-18.22Z"/><path class="cls-3" d="m64.08,46.71c-.02,4.05-3.32,7.38-7.4,7.46-3.91.08-7.55-3.47-7.55-7.35,0-4.04,3.33-7.32,7.45-7.33,4.2-.02,7.52,3.18,7.51,7.23Z"/><path class="cls-2" d="m43.37,26.38c-.97-1.82-1.82-3.43-2.67-5.05-.17.05-.33.11-.49.16.35,1.54.78,3.07,1.02,4.62.24,1.58-.53,2.11-2.08,1.55-1.93-.7-3.18-2.05-3.87-3.89-1.14-3-1.1-6.13-.77-9.26.1-.96.53-2.13,1.8-1.28,3.72,2.51,7.11,5.35,7.92,10.07.15.92.2,1.89-.85,3.08Z"/><path class="cls-2" d="m55.88,25.62c-1.6-.43-1.66-1.66-1.82-2.74-.68-4.6,1.54-8.25,4.1-11.78.54-.75,1.05-.82,1.75-.04,2.35,2.58,3.38,10.18,1.71,13.09-.65,1.13-1.5,2.36-2.8,2.24-1.57-.15-1.04-1.84-1.18-2.84-.22-1.61-.06-3.27-.06-5.59-1.75,2.74-.68,5.41-1.71,7.65Z"/><path class="cls-2" d="m33.8,34.76c-2.24-.96-3.03-3.27-5.91-4.15,1.38,1.71,2.33,2.84,3.21,4.01.42.57.99,1.24.55,1.98-.5.85-1.44.77-2.29.68-3.04-.31-5-2.13-6.39-4.6-1.22-2.16-3.45-5.15-2.05-6.77,1.53-1.78,4.69.28,6.94,1.2,3.24,1.32,5.73,3.43,5.94,7.64Z"/><path class="cls-2" d="m72.56,28.83c-1.97,1.61-2.84,3.82-4.14,6.49-1.14-2.52-.83-4.43.19-6.24,1.75-3.09,4.53-5.14,7.59-6.87.84-.48,1.74-.67,1.83.63.27,3.86.33,7.72-2.21,11.02-.55.72-1.4,1.24-2.19,1.74-.81.51-1.9.93-2.69.37-.91-.64-.32-1.73-.05-2.59.5-1.54,1.11-3.04,1.66-4.56Z"/><path class="cls-2" d="m25.83,50.44c-2.9-.85-4.85-1.99-7.89-2,2.27,1.06,3.87,1.78,5.45,2.56.56.27,1.25.59,1.27,1.28.02.9-.85,1.11-1.51,1.38-3.34,1.4-6.01-.12-8.4-2.12-1.4-1.17-3.8-2.55-3.23-4.23.58-1.73,3.33-1.28,5.17-1.45,3.64-.33,6.87.46,9.15,4.57Z"/><path class="cls-2" d="m81.5,40.43c1.27-4.59,7.27-8.29,11.36-7.3.7.17,1.09.42,1.11,1.22.07,3.19-4.69,8.56-7.9,8.82-.93.07-2.11.33-2.68-.49-.72-1.03.51-1.63,1.05-2.32.7-.89,1.52-1.69,2.71-2.97-2.56.37-3.56,2.58-5.65,3.04Z"/><path class="cls-2" d="m42.35,48.13c-1.49-.71-2.39-1.15-3.3-1.59-.49.85.26.95.56,1.28.64.73,2.3,1.09,1.68,2.26-.63,1.19-2.17,1.05-3.43.72-3.27-.86-4.83-3.47-6.36-6.09-.32-.55-.03-.95.51-1.25,2.56-1.42,8.92,1.09,10.34,4.66Z"/><path class="cls-2" d="m51.71,37.07c-1.17-1.31-.3-2.86-1.14-4.04-.67.59-.32,1.34-.43,1.99-.16.88.24,2.19-.91,2.4-1.32.24-2.13-1.02-2.47-2.04-1.02-3.04-.24-5.92,1.31-8.64.46-.81.97-.88,1.76-.25,2.8,2.25,3.79,7.22,1.88,10.57Z"/><path class="cls-2" d="m33.9,63.39c-1.32.76-3.15-.11-4.42,1.18,1.03.68,2.12-.01,3.11.27.66.19,1.64-.14,1.84.82.17.8-.51,1.31-1.07,1.79-2,1.72-8.45,1.39-10.2-.49-.45-.49-.38-.82-.02-1.33,1.74-2.48,7.36-4.31,10.03-3.2.38.16.79.37.73.96Z"/><path class="cls-2" d="m85.01,55.38c-1.77-.78-3.18.25-4.66.04,1.42-2.32,3.09-2.92,7-2.19,1.49.28,3.81.12,4.14,1.62.32,1.49-1.85,2.3-3.08,3.22-1.68,1.26-3.66,1.62-5.74,1.35-.96-.13-2.04-.45-2.2-1.5-.17-1.08,1.05-1.14,1.75-1.49.81-.39,1.7-.64,2.78-1.05Z"/><path class="cls-1" d="m78.28,120.56h13.24c2.94,0,5.16-.47,6.65-1.41,1.54-.99,2.31-2.54,2.31-4.65s-.77-3.59-2.31-4.58c-1.49-1.03-3.71-1.55-6.65-1.55h-14.08v-8.31h12.12c2.76,0,4.86-.47,6.3-1.41,1.49-.99,2.24-2.47,2.24-4.44s-.75-3.36-2.24-4.3c-1.45-.99-3.55-1.48-6.3-1.48h-11.28v32.12Zm-11.28,8.59v-49.31h23.96c6.16,0,10.79,1.17,13.87,3.52,3.13,2.35,4.69,5.45,4.69,9.3,0,2.58-.63,4.84-1.89,6.76-1.26,1.88-2.99,3.33-5.18,4.37s-4.72,1.55-7.57,1.55l1.33-2.89c3.08,0,5.81.52,8.2,1.55,2.38.99,4.23,2.47,5.53,4.44,1.35,1.97,2.03,4.39,2.03,7.26,0,4.23-1.66,7.54-4.97,9.93-3.32,2.35-8.2,3.52-14.64,3.52h-25.36Z"/><path class="cls-1" d="m144.03,130c-3.78,0-7.31-.61-10.58-1.83-3.22-1.27-6.02-3.05-8.41-5.35-2.38-2.3-4.25-5-5.6-8.1-1.31-3.1-1.96-6.5-1.96-10.21s.65-7.11,1.96-10.21c1.35-3.1,3.22-5.8,5.6-8.1,2.43-2.3,5.25-4.06,8.48-5.28,3.22-1.27,6.75-1.9,10.58-1.9,4.25,0,8.08.75,11.49,2.25,3.46,1.46,6.35,3.62,8.69,6.48l-7.29,6.76c-1.68-1.93-3.55-3.36-5.6-4.3-2.05-.99-4.3-1.48-6.72-1.48-2.29,0-4.39.38-6.3,1.13-1.91.75-3.57,1.83-4.97,3.24-1.4,1.41-2.5,3.08-3.29,5-.75,1.93-1.12,4.06-1.12,6.41s.37,4.48,1.12,6.41c.79,1.93,1.89,3.59,3.29,5,1.4,1.41,3.06,2.49,4.97,3.24,1.91.75,4.02,1.13,6.3,1.13,2.43,0,4.67-.47,6.72-1.41,2.05-.99,3.92-2.47,5.6-4.44l7.29,6.76c-2.33,2.86-5.23,5.05-8.69,6.55-3.41,1.5-7.26,2.25-11.56,2.25Z"/><path class="cls-1" d="m194.38,130c-3.78,0-7.31-.61-10.58-1.83-3.22-1.27-6.02-3.05-8.41-5.35-2.38-2.3-4.25-5-5.6-8.1-1.31-3.1-1.96-6.5-1.96-10.21s.65-7.11,1.96-10.21c1.35-3.1,3.22-5.8,5.6-8.1,2.43-2.3,5.25-4.06,8.48-5.28,3.22-1.27,6.75-1.9,10.58-1.9,4.25,0,8.08.75,11.49,2.25,3.46,1.46,6.35,3.62,8.69,6.48l-7.29,6.76c-1.68-1.93-3.55-3.36-5.6-4.3-2.05-.99-4.3-1.48-6.72-1.48-2.29,0-4.39.38-6.3,1.13-1.91.75-3.57,1.83-4.97,3.24s-2.5,3.08-3.29,5c-.75,1.93-1.12,4.06-1.12,6.41s.37,4.48,1.12,6.41c.79,1.93,1.89,3.59,3.29,5s3.06,2.49,4.97,3.24c1.91.75,4.02,1.13,6.3,1.13,2.43,0,4.67-.47,6.72-1.41,2.05-.99,3.92-2.47,5.6-4.44l7.29,6.76c-2.33,2.86-5.23,5.05-8.69,6.55-3.41,1.5-7.26,2.25-11.56,2.25Z"/><polygon class="cls-1" points="231.96 129.15 231.96 89.14 216.27 89.14 216.27 79.85 259 79.85 259 89.14 243.31 89.14 243.31 129.15 231.96 129.15"/></g></svg>