<svg width="41" height="33" viewBox="0 0 41 33" fill="none" xmlns="http://www.w3.org/2000/svg">
<g clip-path="url(#clip0_2428_5372)">
<path d="M17.0473 23.3895C16.8424 23.8901 16.6376 24.3442 16.4679 24.8157C16.2923 25.3163 16.1519 25.8285 15.9997 26.335C15.871 26.7774 15.5257 27.0044 15.1161 26.8938C14.7474 26.7948 14.5308 26.4398 14.6654 26.0265C14.999 25.0078 15.3501 23.9949 15.7305 22.9936C15.83 22.7317 15.8066 22.6095 15.5901 22.429C13.9456 21.0494 12.9391 19.338 12.9859 17.1434C13.021 15.4204 13.8052 13.9942 14.9229 12.7193C16.228 11.2291 17.9368 10.3443 19.71 9.5643C22.2615 8.44664 24.9125 7.6375 27.6162 6.97389C27.6747 6.96225 27.7332 6.95643 27.9088 6.93896C27.9088 7.38137 27.9205 7.79467 27.9088 8.20797C27.8503 10.356 27.8503 12.504 27.7098 14.6461C27.5986 16.3459 27.3704 18.0515 26.6799 19.6349C25.7143 21.8643 24.1459 23.4652 21.688 24.0182C20.2542 24.3383 18.8614 24.1404 17.5096 23.5932C17.3808 23.5408 17.2521 23.4826 17.0473 23.3895ZM16.4913 21.3812C16.5732 21.259 16.6376 21.1658 16.6961 21.0785C17.0004 20.5837 17.2872 20.0773 17.6091 19.5883C17.7729 19.338 17.7963 19.1226 17.6793 18.849C17.3399 18.0864 17.0238 17.318 16.7137 16.5438C16.544 16.1305 16.702 15.7405 17.0648 15.595C17.4393 15.4495 17.808 15.6125 17.9894 16.0316C18.2001 16.5147 18.3991 17.0095 18.6098 17.4985C18.6507 17.5916 18.7093 17.679 18.7912 17.8303C18.9609 17.6033 19.0779 17.4228 19.2125 17.2598C20.3654 15.8686 21.5241 14.4773 22.6887 13.0919C22.8175 12.9406 22.9813 12.795 23.1627 12.731C23.4787 12.6204 23.7831 12.7077 23.9528 13.0104C24.1342 13.3306 24.064 13.6333 23.8182 13.9127C23.0984 14.716 22.3902 15.5251 21.6821 16.3343C21.5885 16.4391 21.5241 16.5671 21.4246 16.7126C22.0274 16.7126 22.56 16.701 23.0925 16.7185C23.2856 16.7243 23.5022 16.765 23.666 16.864C23.9118 17.0153 23.9996 17.2831 23.9177 17.5625C23.8182 17.9002 23.5607 18.0748 23.2037 18.0864C22.3259 18.1155 21.4539 18.1214 20.5761 18.1738C20.4064 18.1854 20.1781 18.296 20.0845 18.4299C19.47 19.3147 18.8848 20.2111 18.2996 21.1134C18.0889 21.4394 17.9134 21.7887 17.7085 22.1379C17.8373 22.2136 17.9192 22.2718 18.0129 22.3068C20.2367 23.2498 22.636 22.8423 24.2805 20.9563C25.3397 19.7455 25.802 18.296 26.0595 16.7592C26.4984 14.1805 26.5745 11.5842 26.5394 8.98218C26.5394 8.90069 26.5101 8.81919 26.4867 8.72605C26.399 8.73769 26.3346 8.73769 26.2761 8.75516C23.9118 9.43623 21.5709 10.193 19.3471 11.2641C18.0012 11.916 16.7429 12.6844 15.7832 13.8603C14.7064 15.1759 14.1095 16.6312 14.4957 18.3484C14.7766 19.5883 15.4847 20.5662 16.4972 21.387L16.4913 21.3812Z" fill="#84C174"/>
<path d="M35.6278 16.7126C35.8501 11.4736 32.7368 5.14601 26.2058 2.50322C22.4019 0.960619 18.5512 0.948977 14.7357 2.48576C10.9376 4.01671 8.23394 6.71772 6.49001 10.4141C6.14473 10.2686 5.81701 10.1289 5.49515 9.9892C5.41907 9.95427 5.34884 9.90188 5.27277 9.86113C7.53169 4.47076 13.653 -0.488843 21.5358 0.0408801C25.9308 0.331937 29.6469 2.10738 32.6315 5.31483C35.6219 8.52227 37.0381 12.37 37.0498 16.8465C37.2195 16.6893 37.3132 16.602 37.4009 16.5089C38.1676 15.6823 38.9342 14.8557 39.7067 14.0349C40.0637 13.6507 40.4675 13.5983 40.7718 13.8777C41.0761 14.1571 41.0702 14.5821 40.7249 14.9546C39.455 16.3342 38.1793 17.708 36.9035 19.076C36.5758 19.4253 36.1252 19.4253 35.7975 19.076C34.5217 17.7022 33.2459 16.3284 31.976 14.9546C31.6366 14.5879 31.6249 14.1513 31.9292 13.8777C32.2277 13.6099 32.6373 13.6507 32.9709 14.0058C33.7551 14.8382 34.5275 15.6706 35.3 16.5089C35.382 16.5962 35.4288 16.7242 35.4932 16.829C35.54 16.7883 35.5809 16.7534 35.6278 16.7126Z" fill="#84C174"/>
<path d="M34.3226 22.784C34.7381 22.9702 35.1243 23.1449 35.5106 23.3195C33.4916 28.2267 27.5809 33.361 19.6806 32.9768C15.2388 32.7614 11.4642 31.0441 8.40352 27.8483C5.34871 24.6584 3.88568 20.8048 3.82716 16.305C3.64575 16.4797 3.53456 16.5845 3.42922 16.7009C2.71526 17.4693 2.0013 18.2435 1.28149 19.006C0.947915 19.3611 0.544118 19.4193 0.239808 19.1574C-0.076207 18.8838 -0.0820591 18.4589 0.257364 18.0863C1.53313 16.6951 2.81474 15.3154 4.10221 13.9358C4.41823 13.5982 4.86299 13.5924 5.179 13.93C6.47818 15.3154 7.76564 16.7125 9.05311 18.1096C9.37498 18.4589 9.36327 18.8954 9.06482 19.1574C8.76636 19.4193 8.35086 19.3728 8.02314 19.0177C7.21554 18.1562 6.41965 17.2946 5.61791 16.4273C5.52428 16.3283 5.4482 16.2119 5.31945 16.0431C4.90981 20.3565 7.33844 27.2546 14.2966 30.3456C21.4596 33.5298 30.6182 30.724 34.3284 22.7781L34.3226 22.784Z" fill="#84C174"/>
</g>
<defs>
<clipPath id="clip0_2428_5372">
<rect width="41" height="33" fill="white"/>
</clipPath>
</defs>
</svg>
