<svg width="29" height="33" viewBox="0 0 29 33" fill="none" xmlns="http://www.w3.org/2000/svg">
<g clip-path="url(#clip0_2428_5413)">
<path d="M16.9129 17.6496C17.268 17.2247 17.5648 16.7823 17.7977 16.3399C18.0364 15.8916 18.1935 15.455 18.275 15.0417C18.3623 14.6401 18.3682 14.2559 18.2867 13.8892C18.1761 13.4642 17.9549 13.1149 17.6463 12.8472C17.1923 12.4513 16.7091 12.2534 16.2085 12.2534C15.9699 12.2534 15.7079 12.3175 15.3994 12.4572C15.0792 12.6027 14.7765 12.8821 14.4738 13.3361C14.4738 13.3361 14.4738 13.3361 14.4738 13.342C14.4622 13.3303 14.4564 13.3187 14.4447 13.307C13.9092 12.6842 13.3271 12.3698 12.7158 12.3698C12.5005 12.3698 12.256 12.4281 11.9707 12.5445C11.668 12.6667 11.3944 12.917 11.1325 13.2896C10.6435 13.9648 10.5504 14.7973 10.8531 15.7636C10.9695 16.1419 11.15 16.5145 11.3828 16.8812C11.6098 17.2421 11.8834 17.5798 12.1861 17.8883C12.4888 18.1968 12.8206 18.4762 13.1699 18.7149C13.525 18.9594 13.8975 19.1515 14.305 19.2912C14.404 19.3145 14.4796 19.3261 14.5379 19.3261C14.6077 19.3261 14.6834 19.3145 14.7649 19.2853C15.0967 19.1806 15.4576 18.9826 15.8418 18.6974C16.2143 18.418 16.5694 18.0629 16.9071 17.6438L16.9129 17.6496Z" fill="#624595"/>
<path d="M10.0556 13.8193C10.108 13.6156 10.1836 13.4235 10.2826 13.2314C9.70632 12.8356 9.35705 12.1603 9.39197 11.4327C9.3978 11.2638 9.26973 11.1183 9.10092 11.1125C8.9321 11.1067 8.78658 11.2347 8.78076 11.4036C8.72836 12.3931 9.22898 13.3187 10.0556 13.8193Z" fill="#624595"/>
<path d="M18.9968 13.633V13.6447C19.0085 13.6854 19.0143 13.7203 19.0201 13.7611C19.7943 13.2488 20.2658 12.3582 20.2193 11.3977C20.2135 11.2289 20.0679 11.1008 19.8991 11.1066C19.7303 11.1125 19.6022 11.258 19.6081 11.4268C19.643 12.1079 19.3345 12.7424 18.8222 13.1499C18.8921 13.2954 18.9503 13.4526 18.9968 13.6155V13.6272V13.633Z" fill="#624595"/>
<path d="M19.0143 18.488C18.9445 18.4822 18.764 18.4705 18.5312 18.488C18.5021 18.1445 18.3856 17.6497 18.0597 17.1782C17.9432 17.3587 17.8093 17.5391 17.6755 17.7196C17.8617 18.063 17.9141 18.4007 17.9316 18.616C17.6231 18.7208 17.2913 18.8955 16.9944 19.1865C16.0863 20.0713 16.2435 21.2705 16.2609 21.4044C16.2842 21.5557 16.4123 21.6605 16.5636 21.6605C16.5811 21.6605 16.5927 21.6605 16.6102 21.6605C16.779 21.6372 16.8896 21.48 16.8663 21.3112C16.8489 21.2064 16.7324 20.2983 17.4193 19.6231C17.7046 19.3495 18.0247 19.2098 18.2983 19.1399C18.3041 19.1399 18.31 19.1399 18.3158 19.1399C18.6243 19.0701 18.8804 19.0817 18.9561 19.0934C19.1249 19.1108 19.2763 18.9886 19.2879 18.8198C19.3054 18.651 19.1831 18.4996 19.0143 18.488Z" fill="#624595"/>
<path d="M10.1254 15.7519C10.0672 15.5482 10.0207 15.3503 9.99155 15.1523C9.78781 15.1931 9.63064 15.1756 9.57825 15.1698C9.40944 15.1465 9.25809 15.2688 9.24062 15.4376C9.22316 15.6064 9.33958 15.7577 9.5084 15.7752C9.55496 15.7752 9.62482 15.7868 9.71214 15.7868C9.82274 15.7868 9.96244 15.7752 10.1196 15.7461L10.1254 15.7519Z" fill="#624595"/>
<path d="M19.416 15.1756C19.3636 15.1814 19.1831 15.1931 18.9619 15.1465C18.9212 15.3386 18.8629 15.5365 18.7931 15.7344C18.9794 15.781 19.1482 15.7926 19.2762 15.7926C19.3636 15.7926 19.4392 15.7926 19.48 15.781C19.6488 15.7635 19.7652 15.6122 19.7478 15.4434C19.7303 15.2745 19.5789 15.1523 19.4101 15.1756H19.416Z" fill="#624595"/>
<path d="M21.564 12.4104C21.6047 11.4965 21.2787 10.6291 20.6617 10.0121C20.3997 9.75015 20.1087 9.55224 19.8002 9.42417C20.0679 8.57429 19.7652 7.63708 19.0259 7.16557C18.7291 6.9793 18.3798 6.88616 18.0247 6.88616C17.8151 6.53107 17.3786 5.97224 16.6044 5.73357C15.7021 5.45416 14.8988 5.80925 14.6892 5.95478C14.6193 6.00134 14.5553 6.05956 14.4971 6.11777C14.4389 6.05956 14.3749 6.00717 14.305 5.95478C14.0954 5.80925 13.2979 5.45416 12.3899 5.73357C11.6215 5.97224 11.1849 6.53107 10.9695 6.88616C10.6028 6.88616 10.2593 6.9793 9.96826 7.16557C9.22898 7.63708 8.92628 8.57429 9.19405 9.42417C8.88553 9.55224 8.59447 9.75015 8.33252 10.0121C7.71548 10.635 7.39532 11.5023 7.43025 12.4104C7.0868 12.7189 6.62111 13.2719 6.55126 14.0403C6.49887 14.6224 6.69096 15.2046 7.06352 15.6994C6.87142 16.0719 6.5629 16.8636 6.85395 17.7775C7.08098 18.4819 7.55249 18.9184 7.86101 19.1338C7.82026 19.5413 7.83773 20.2515 8.28013 20.9558C8.76329 21.73 9.47929 22.0444 9.86348 22.1666C10.0847 22.5159 10.7308 23.3716 11.8951 23.5404C12.0289 23.5579 12.1686 23.5695 12.3025 23.5695C13.2688 23.5695 14.2235 23.0922 14.6543 22.3995C14.7649 22.5799 14.9046 22.7487 15.0792 22.9001C15.9175 23.6452 16.9769 23.5521 17.0933 23.5404C18.2867 23.4124 18.9328 22.5101 19.1365 22.1608C19.5207 22.0386 20.2309 21.7242 20.7141 20.9558C21.1565 20.2515 21.1739 19.5413 21.1332 19.1338C21.4417 18.9126 21.919 18.4819 22.1402 17.7775C22.4313 16.8636 22.1228 16.0719 21.9307 15.6994C22.2974 15.2046 22.4953 14.6224 22.4429 14.0403C22.3731 13.2719 21.9074 12.7189 21.564 12.4104ZM19.6546 16.7472C19.7012 16.9101 19.8642 17.0091 20.0272 16.9625C20.5918 16.8112 21.0866 16.5376 21.4825 16.1883C21.6163 16.5143 21.7386 17.0266 21.5581 17.5912C21.3486 18.249 20.8538 18.5983 20.6442 18.7205L20.4638 18.8311L20.5045 19.0407C20.5511 19.2968 20.6151 19.9662 20.196 20.6299C19.7652 21.3109 19.1133 21.5379 18.8571 21.6078L18.7232 21.6427L18.6592 21.765C18.6359 21.8057 18.1237 22.8128 17.0293 22.9292C16.9944 22.9292 16.1387 23.0165 15.4867 22.4402C14.9395 21.9571 14.8347 21.2585 14.8464 20.4843C14.8464 20.4378 14.8464 20.397 14.8464 20.3504C14.8464 20.2049 14.858 20.0827 14.8638 19.9779C14.7532 20.0128 14.6485 20.0303 14.5495 20.0303C14.4622 20.0303 14.369 20.0186 14.2584 19.9895C14.2526 20.1176 14.241 20.2457 14.241 20.3795C14.2235 21.0024 14.241 21.34 14.2526 21.5496C14.2643 21.765 14.2643 21.7999 14.2293 21.893C14.0023 22.5043 13.0011 23.0805 11.9882 22.935C10.9287 22.7837 10.399 21.8639 10.3408 21.7592L10.2768 21.6427L10.1487 21.6078C9.88676 21.5379 9.2348 21.3109 8.80985 20.6299C8.39073 19.9662 8.45477 19.2968 8.50133 19.0407L8.54208 18.8311L8.36163 18.7205C8.15789 18.5983 7.65727 18.249 7.44771 17.5912C7.26725 17.0207 7.3895 16.5143 7.52338 16.1883C7.91922 16.5376 8.41984 16.8112 8.97867 16.9625C9.14166 17.0091 9.31047 16.9101 9.35122 16.7472C9.39779 16.5842 9.29883 16.4154 9.13584 16.3746C8.54208 16.2116 8.03564 15.8914 7.68055 15.4898C7.67473 15.4781 7.66309 15.4723 7.65727 15.4607C7.31382 15.0532 7.12755 14.5701 7.1683 14.0869C7.22651 13.4175 7.72712 12.946 7.94251 12.7771L8.07057 12.6724L8.05311 12.5094C7.98325 11.7177 8.23938 10.9668 8.76911 10.437C9.16494 10.0412 9.65974 9.82583 10.108 9.86076C10.8065 9.91897 11.6273 10.6699 11.7961 11.8225C11.7961 11.8225 11.7961 11.8225 11.7961 11.8283C12.0057 11.7584 12.2036 11.7119 12.3899 11.7002C12.1803 10.3905 11.2256 9.34268 10.1545 9.25536C10.0323 9.24372 9.91005 9.24954 9.78781 9.26118C9.58989 8.67324 9.79363 7.99799 10.2942 7.67783C10.5271 7.5323 10.8123 7.46827 11.1034 7.49738C11.1092 7.49738 11.1208 7.49738 11.1267 7.49738C11.1965 7.5032 11.2606 7.52066 11.3304 7.53812C11.7204 7.6429 12.0464 7.91068 12.2327 8.27159C12.3084 8.42294 12.4946 8.48115 12.646 8.40547C12.7973 8.3298 12.8555 8.14352 12.7799 7.99217C12.5412 7.52648 12.1279 7.16557 11.6389 6.99094C11.8252 6.74645 12.1279 6.44375 12.5761 6.30987C13.2514 6.1003 13.851 6.3739 13.9616 6.44957C14.0547 6.5136 14.1304 6.58928 14.1886 6.6766V10.0179C14.1071 9.96554 14.0198 9.91315 13.915 9.87822C13.5075 9.71523 13.135 9.76762 12.9487 9.82001C12.7857 9.86076 12.6867 10.0296 12.7275 10.1926C12.7682 10.3556 12.937 10.4545 13.1 10.4138C13.2165 10.3847 13.4435 10.3497 13.688 10.4487C13.9674 10.5593 14.1187 10.7805 14.1886 10.9202V12.3289C14.2701 12.3988 14.3574 12.457 14.4389 12.5385C14.567 12.3871 14.695 12.2532 14.8231 12.1426V10.9202C14.8929 10.7805 15.0443 10.5593 15.3237 10.4487C15.5682 10.3497 15.7952 10.3847 15.9116 10.4138C16.0746 10.4545 16.2434 10.3556 16.2842 10.1926C16.3249 10.0296 16.226 9.86076 16.063 9.82001C15.8767 9.77344 15.5042 9.71523 15.0967 9.87822C14.9977 9.91897 14.9046 9.96554 14.8231 10.0179V6.6766C14.8813 6.58928 14.957 6.5136 15.0501 6.44957C15.1607 6.3739 15.7603 6.1003 16.4355 6.30987C16.8838 6.44957 17.1923 6.74645 17.3727 6.99094C16.8779 7.16557 16.4705 7.52066 16.2318 7.99217C16.1561 8.14352 16.2143 8.32398 16.3657 8.40547C16.517 8.48115 16.6975 8.42294 16.779 8.27159C16.9653 7.91068 17.2912 7.6429 17.6813 7.53812C17.7511 7.52066 17.8151 7.50902 17.885 7.49738C17.8908 7.49738 17.9025 7.49738 17.9083 7.49738C18.1993 7.46827 18.4846 7.52648 18.7174 7.67783C19.218 7.99799 19.4218 8.67324 19.2239 9.26118C19.1016 9.24954 18.9794 9.24372 18.8571 9.25536C17.8151 9.34268 16.8896 10.3323 16.6451 11.5838C16.8488 11.6071 17.0468 11.6478 17.2389 11.7235C17.4426 10.6291 18.2284 9.92479 18.9037 9.86658C19.3461 9.83165 19.8467 10.047 20.2426 10.4429C20.7665 10.9726 21.0284 11.7293 20.9586 12.5152L20.9411 12.6782L21.0692 12.783C21.2845 12.9576 21.7852 13.4291 21.8434 14.0927C21.8841 14.5759 21.6978 15.059 21.3544 15.4665C21.3486 15.4723 21.3369 15.484 21.3311 15.4956C20.9818 15.8973 20.4754 16.2174 19.8758 16.3804C19.7128 16.427 19.6139 16.59 19.6604 16.753L19.6546 16.7472Z" fill="#624595"/>
<path d="M11.0743 18.6217C11.0859 18.4296 11.1325 18.1444 11.2664 17.8475C11.1209 17.6728 10.9928 17.4866 10.8647 17.3003C10.597 17.7369 10.498 18.1735 10.4689 18.4936C10.2302 18.4703 10.0556 18.482 9.98573 18.4936C9.81692 18.5111 9.69468 18.6624 9.71214 18.8254C9.7296 18.9942 9.88095 19.1165 10.0439 19.099C10.1254 19.0932 10.3757 19.0757 10.6901 19.1456C10.6901 19.1456 10.7017 19.1456 10.7076 19.1456C10.987 19.2154 11.3071 19.3493 11.5865 19.6287C12.2734 20.2982 12.157 21.2121 12.1396 21.3169C12.1163 21.4857 12.2269 21.637 12.3957 21.6661C12.4131 21.6661 12.4248 21.6661 12.4423 21.6661C12.5878 21.6661 12.7217 21.5555 12.745 21.41C12.7682 21.2761 12.9196 20.077 12.0115 19.1922C11.7146 18.9011 11.3828 18.7265 11.0743 18.6217Z" fill="#624595"/>
<path d="M28.0021 16.4681L26.3198 12.8008C26.4188 10.9147 26.1044 9.13348 25.3942 7.49774C23.3569 2.84084 18.2634 -0.238543 13.0069 0.0117657C7.89593 0.256253 3.39619 3.48116 1.53925 8.23121C-0.719349 14.0058 2.11554 19.041 2.72676 20.019C3.57665 21.515 4.17622 23.1275 4.51385 24.8098C4.89804 26.7249 4.93297 28.675 4.61863 30.6135C4.61281 30.6659 4.60699 30.7182 4.61863 30.7706C4.65938 31.1083 4.80491 31.7486 5.34627 32.2841C6.15541 33.0758 7.20321 33.006 7.51173 32.9652H17.5008C17.5998 32.9885 17.7569 33.0118 17.949 33.0118C18.3099 33.0118 18.7873 32.9245 19.2297 32.5694C19.7827 32.1211 19.9864 31.4575 19.9864 30.986V28.0929C19.9864 28.0638 19.9864 28.0347 19.9806 28.0056C19.9806 27.9998 19.9573 27.8368 20.0621 27.7029C20.1727 27.5632 20.3473 27.5632 20.359 27.5632C20.3648 27.5632 20.3764 27.5632 20.3823 27.5632L23.2463 27.4351C23.3045 27.4351 23.3569 27.4235 23.4092 27.4002C23.9157 27.2197 24.3697 26.952 24.7656 26.6027C25.0624 26.3408 25.6096 25.7761 25.9065 24.9553C26.087 24.4489 26.1277 24.0414 25.8658 21.1483V21.1076C25.8017 20.4498 25.7901 20.2286 25.9065 20.0481C25.924 20.019 26.0579 19.8793 26.9776 19.3088C27.1115 19.2273 27.2221 19.1575 27.321 19.0993C27.8042 18.8024 28.0079 18.6801 28.1709 18.3716C28.4329 17.8652 28.3805 17.2249 28.0138 16.4856L28.0021 16.4681ZM27.1581 17.8419C27.1231 17.8826 26.931 17.9991 26.7273 18.1213C26.6283 18.1795 26.5119 18.2494 26.378 18.3367C25.2487 19.0352 25.0857 19.2157 24.9518 19.4252C24.62 19.9433 24.6666 20.4381 24.7365 21.1949V21.2356C24.9868 23.989 24.9402 24.2917 24.8412 24.5595C24.6317 25.1474 24.23 25.5549 24.0146 25.747C23.7469 25.9857 23.4383 26.1719 23.1007 26.3L20.3357 26.4222C20.1552 26.4222 19.5964 26.4746 19.1889 26.9753C18.828 27.4177 18.8397 27.9125 18.8629 28.1162V30.9686C18.8629 31.0151 18.8513 31.4168 18.5253 31.6787C18.1702 31.964 17.7336 31.8534 17.7162 31.8475C17.6696 31.8359 17.6172 31.8301 17.5706 31.8301H7.46516C7.43606 31.8301 7.40695 31.8301 7.37203 31.8359C7.29635 31.8475 6.61528 31.9465 6.1263 31.4692C5.86435 31.213 5.77121 30.8987 5.73629 30.7066C6.05645 28.6634 6.0157 26.6085 5.60822 24.5886C5.24731 22.784 4.60117 21.061 3.69307 19.4543C3.69307 19.4485 3.68725 19.4427 3.68143 19.4311C3.3438 18.8955 0.468162 14.0407 2.58123 8.63869C4.281 4.30194 8.39072 1.36227 13.0593 1.13524C17.8675 0.902399 22.5128 3.70818 24.3581 7.94597C25.0159 9.45364 25.2953 11.1127 25.1847 12.8706C25.1847 12.9638 25.1963 13.0569 25.2371 13.1384L26.9834 16.9454C27.1813 17.3413 27.2454 17.6614 27.1522 17.8361L27.1581 17.8419Z" fill="#624595"/>
</g>
<defs>
<clipPath id="clip0_2428_5413">
<rect width="27.6446" height="33" fill="white" transform="translate(0.677734)"/>
</clipPath>
</defs>
</svg>
