<svg width="34" height="33" viewBox="0 0 34 33" fill="none" xmlns="http://www.w3.org/2000/svg">
<g clip-path="url(#clip0_2428_5443)">
<path d="M15.3555 27.1323H27.6323V5.86768H6.36771V27.1264H15.3497L15.3555 27.1323ZM6.96146 6.46143H27.0444V9.22647H23.7321V10.1113H27.0444V12.3H23.0627C22.8706 11.6888 22.306 11.258 21.6482 11.258C20.8274 11.258 20.1638 11.9217 20.1638 12.7424C20.1638 13.5632 20.8274 14.2268 21.6482 14.2268C22.306 14.2268 22.8706 13.7961 23.0627 13.1848H27.0444V26.5385H24.2153V24.1751H23.3305V26.5385H22.4457V23.0749C23.0569 22.8828 23.4877 22.3182 23.4877 21.6604C23.4877 20.8396 22.824 20.176 22.0033 20.176C21.1825 20.176 20.5189 20.8454 20.5189 21.6604C20.5189 22.3182 20.9496 22.8828 21.5609 23.0749V26.5385H20.548V23.3718H19.6632V26.5385H15.6524V22.551C15.6524 20.8338 14.4183 20.3274 13.7547 20.3041H6.96146V19.1631H16.6769C16.869 19.7744 17.4337 20.2051 18.0915 20.2051C18.9122 20.2051 19.5759 19.5415 19.5759 18.7207C19.5759 17.9 18.9064 17.2363 18.0915 17.2363C17.4395 17.2363 16.869 17.6671 16.6769 18.2783H6.96146V16.2875H15.2973C15.4778 16.2875 16.4208 16.2526 17.1019 15.589C17.5559 15.1466 17.7829 14.5412 17.7829 13.7902V12.2709C18.3942 12.0788 18.8249 11.5142 18.8249 10.8564C18.8249 10.0356 18.1613 9.372 17.3405 9.372C16.5198 9.372 15.8562 10.0356 15.8562 10.8564C15.8562 11.5142 16.2927 12.0788 16.8981 12.2709V13.7902C16.8981 14.2967 16.7584 14.6867 16.4848 14.9545C16.0191 15.4085 15.309 15.4085 15.2857 15.4027H6.96728V11.9158H10.4891V11.031H6.96728V9.70962H10.9548C11.1469 10.3208 11.7115 10.7516 12.3693 10.7516C13.1901 10.7516 13.8537 10.088 13.8537 9.26722C13.8537 8.44644 13.1901 7.78283 12.3693 7.78283C11.7173 7.78283 11.1469 8.21941 10.9548 8.82481H6.96728V6.44979L6.96146 6.46143ZM14.7676 26.5443H6.96146V23.302H8.77766C8.96975 23.9132 9.5344 24.344 10.1922 24.344C11.013 24.344 11.6766 23.6803 11.6766 22.8596C11.6766 22.0388 11.013 21.3752 10.1922 21.3752C9.5344 21.3752 8.96975 21.8059 8.77766 22.4172H6.96146V21.1947H13.7431C13.8479 21.1947 14.7676 21.2704 14.7676 22.5569V26.5443Z" fill="#4372B8"/>
<path d="M33.5 8.52796V7.64315H29.9957V5.44858C29.9957 4.37749 29.1283 3.50432 28.0572 3.50432H25.8627V0H24.9779V3.50432H23.0569V0H22.1721V3.50432H20.2511V0H19.3663V3.50432H17.4453V0H16.5605V3.50432H14.6395V0H13.7547V3.50432H11.8337V0H10.9489V3.50432H9.02796V0H8.14315V3.50432H5.94858C4.87749 3.50432 4.01014 4.37167 4.01014 5.44858V7.64315H0.5V8.52796H4.00432V10.4489H0.5V11.3337H4.00432V13.2547H0.5V14.1395H4.00432V16.0605H0.5V16.9453H4.00432V18.8663H0.5V19.7511H4.00432V21.6721H0.5V22.5569H4.00432V24.4779H0.5V25.3627H4.00432V27.5572C4.00432 28.6283 4.87167 29.4957 5.94276 29.4957H8.13733V33H9.02214V29.4957H10.9431V33H11.8279V29.4957H13.7489V33H14.6337V29.4957H16.5547V33H17.4395V29.4957H19.3605V33H20.2453V29.4957H22.1663V33H23.0511V29.4957H24.972V33H25.8569V29.4957H28.0514C29.1225 29.4957 29.9899 28.6283 29.9899 27.5572V25.3627H33.4942V24.4779H29.9899V22.5569H33.4942V21.6721H29.9899V19.7511H33.4942V18.8663H29.9899V16.9453H33.4942V16.0605H29.9899V14.1395H33.4942V13.2547H29.9899V11.3337H33.4942V10.4489H29.9899V8.52796H33.4942H33.5ZM27.9234 27.4292H6.07082V5.57664H27.9234V27.4292Z" fill="#4372B8"/>
</g>
<defs>
<clipPath id="clip0_2428_5443">
<rect width="33" height="33" fill="white" transform="translate(0.5)"/>
</clipPath>
</defs>
</svg>
