<svg width="23" height="33" viewBox="0 0 23 33" fill="none" xmlns="http://www.w3.org/2000/svg">
<g clip-path="url(#clip0_2428_5459)">
<path d="M18.6949 10.5655C19.2945 10.2687 19.702 9.64579 19.702 8.93561C19.702 7.89945 18.8637 7.06703 17.8392 7.06703C17.7519 7.06703 17.6588 7.07867 17.5714 7.09614C16.2966 5.0762 14.0555 3.74316 11.4942 3.74316C7.51834 3.74316 4.28179 6.97971 4.28179 10.9555C4.28179 11.6657 4.39239 12.3352 4.58449 12.9871C4.15373 13.3306 3.86267 13.8486 3.86267 14.4424C3.86267 15.4669 4.70091 16.311 5.73125 16.311C6.00485 16.311 6.2668 16.2353 6.50547 16.1305C7.79776 17.3937 9.55574 18.1621 11.4884 18.1621C15.4642 18.1621 18.7007 14.9256 18.7007 10.9497C18.7007 10.8158 18.6949 10.6994 18.6833 10.5655H18.6949ZM18.7124 8.93561C18.7124 9.41295 18.3282 9.79714 17.845 9.79714C17.3619 9.79714 16.9719 9.41295 16.9719 8.93561C16.9719 8.45828 17.3677 8.06244 17.845 8.06244C18.3224 8.06244 18.7124 8.44664 18.7124 8.93561ZM4.86973 14.4366C4.86973 13.9651 5.26556 13.5634 5.7429 13.5634C6.22023 13.5634 6.61025 13.9651 6.61025 14.4366C6.61025 14.9081 6.21441 15.3098 5.7429 15.3098C5.27138 15.3098 4.86973 14.9256 4.86973 14.4366ZM11.5 17.1667C9.87008 17.1667 8.38569 16.5264 7.27968 15.4902C7.47759 15.1933 7.60566 14.8382 7.60566 14.4366C7.60566 13.4121 6.76742 12.5796 5.7429 12.5796C5.6614 12.5796 5.58573 12.5796 5.51587 12.5971C5.37617 12.079 5.28885 11.5144 5.28885 10.9497C5.28885 7.52108 8.07717 4.73276 11.5058 4.73276C13.6596 4.73276 15.5515 5.83295 16.6692 7.49197C16.25 7.8296 15.9881 8.3535 15.9881 8.92979C15.9881 9.90774 16.7507 10.7111 17.717 10.7693C17.717 10.8275 17.7228 10.8857 17.7228 10.9497C17.7228 14.3784 14.9345 17.1667 11.5058 17.1667H11.5Z" fill="#EE75A8"/>
<path d="M12.3149 7.56769C12.053 6.86916 11.3719 6.35107 10.5802 6.35107C9.54991 6.35107 8.71167 7.19514 8.71167 8.21966C8.71167 8.41176 8.75824 8.59221 8.79898 8.7552C8.31583 9.3606 8.01895 10.1173 8.01895 10.9498C8.01895 12.8649 9.58484 14.4366 11.5 14.4366C13.4151 14.4366 14.9868 12.8649 14.9868 10.9498C14.9868 9.31985 13.8459 7.94024 12.3149 7.56769ZM10.5802 7.34649C11.0576 7.34649 11.4476 7.74815 11.4476 8.21966C11.4476 8.69117 11.0576 9.09865 10.5802 9.09865C10.1029 9.09865 9.7129 8.69699 9.7129 8.21966C9.7129 7.74232 10.0971 7.34649 10.5802 7.34649ZM11.5 13.447C10.1262 13.447 9.01437 12.3177 9.01437 10.9556C9.01437 10.4841 9.15407 10.0359 9.39274 9.65166C9.71872 9.91943 10.1262 10.0941 10.5802 10.0941C11.4651 10.0941 12.1985 9.4712 12.3906 8.65624C13.3278 9.01133 13.9856 9.90197 13.9856 10.9556C13.9856 12.3236 12.8738 13.447 11.5 13.447Z" fill="#EE75A8"/>
<path d="M21.6986 14.8961C22.1876 13.6504 22.4437 12.329 22.4437 10.9493C22.4437 7.9049 21.2329 5.08747 19.0325 2.99768C16.8263 0.919538 13.9391 -0.14573 10.9004 0.017262C7.95493 0.180254 5.29467 1.57733 3.40863 3.66711C3.18743 3.56233 2.94294 3.52158 2.69263 3.52158C1.66229 3.52158 0.824045 4.36565 0.824045 5.39017C0.824045 5.93735 1.06853 6.41469 1.44109 6.76978C0.882257 8.05625 0.562094 9.45332 0.556273 10.9202C0.550452 13.4117 1.41198 15.8624 2.97786 17.8066C4.30508 19.454 5.03855 21.6195 5.03855 23.9188V24.0818H4.76495C4.47972 24.0818 4.25851 24.303 4.25851 24.5708C4.25851 24.856 4.47972 25.0772 4.76495 25.0772H5.3005C5.70797 25.5953 5.70797 26.3404 5.3005 26.8585H4.76495C4.47972 26.8585 4.25851 27.0797 4.25851 27.3649C4.25851 27.6327 4.47972 27.8714 4.76495 27.8714H5.3005C5.70797 28.3895 5.70797 29.1171 5.3005 29.6526H4.76495C4.47972 29.6526 4.25851 29.8739 4.25851 30.1591C4.25851 30.4269 4.47972 30.6481 4.76495 30.6481H6.28427C6.30173 31.952 7.36118 33.0056 8.67093 33.0056H14.3349C15.6388 33.0056 16.6983 31.952 16.7216 30.6481H18.1827C18.4621 30.6481 18.6891 30.4269 18.6891 30.1591C18.6891 29.8739 18.4679 29.6526 18.1827 29.6526H17.6995C17.292 29.1171 17.292 28.3895 17.6995 27.8714H18.1827C18.4621 27.8714 18.6891 27.6327 18.6891 27.3649C18.6891 27.0797 18.4679 26.8585 18.1827 26.8585H17.6995C17.292 26.3404 17.292 25.5953 17.6995 25.0772H18.1827C18.4621 25.0772 18.6891 24.856 18.6891 24.5708C18.6891 24.303 18.4679 24.0818 18.1827 24.0818H17.9673V23.6802C17.9673 21.6486 18.6367 19.6752 19.8475 18.0395C20.0512 18.1268 20.2724 18.1559 20.4995 18.1559C21.524 18.1559 22.3622 17.3235 22.3622 16.3048C22.3622 15.7401 22.1003 15.2395 21.6986 14.8961ZM2.68681 4.51118C3.15832 4.51118 3.55416 4.89537 3.55416 5.38435C3.55416 5.87332 3.15832 6.24587 2.68681 6.24587C2.2153 6.24587 1.81364 5.86168 1.81364 5.38435C1.81364 4.90701 2.20365 4.51118 2.68681 4.51118ZM14.3349 32.0044H8.67093C7.90836 32.0044 7.29132 31.3932 7.26804 30.6364H15.7261C15.7087 31.3932 15.0858 32.0044 14.3291 32.0044H14.3349ZM16.5644 29.6468H6.44144C6.66264 29.0705 6.65682 28.4302 6.43562 27.8656H16.5702C16.349 28.4302 16.349 29.0647 16.5702 29.6468H16.5644ZM6.4298 26.8585C6.651 26.2939 6.65682 25.6419 6.43562 25.0772H16.5644C16.3432 25.6419 16.3432 26.2939 16.5644 26.8585H6.43562H6.4298ZM9.515 20.4611C10.8306 20.7289 12.1636 20.7463 13.4734 20.4611C13.3395 21.5147 13.2754 22.58 13.2754 23.6802V24.0818H9.71873V23.9188C9.71873 22.7197 9.64306 21.5613 9.515 20.4611ZM16.966 23.6802V24.0818H14.2709V23.6802C14.2709 22.3762 14.364 21.1014 14.5677 19.879C14.591 19.6985 14.5328 19.5413 14.4047 19.4191C14.2767 19.3143 14.102 19.2736 13.9391 19.3143C12.3266 19.7917 10.6676 19.7917 9.05513 19.3143C8.89213 19.2677 8.71168 19.3143 8.58944 19.4191C8.46137 19.5239 8.39734 19.7043 8.42644 19.8615C8.62436 21.1247 8.72914 22.5159 8.72914 23.913V24.076H6.02814V23.913C6.02814 21.3925 5.219 18.9883 3.75207 17.178C2.30843 15.3792 1.54004 13.2312 1.55169 10.9144C1.55751 9.61049 1.8311 8.35894 2.31425 7.20636C2.43068 7.23547 2.55874 7.23547 2.68681 7.23547C3.71133 7.23547 4.54957 6.40304 4.54957 5.37852C4.54957 4.96522 4.40986 4.59267 4.18866 4.27833C5.89425 2.39228 8.29838 1.14656 10.9528 1.00103C13.7179 0.855505 16.349 1.81599 18.3398 3.71368C20.3539 5.61137 21.4483 8.17849 21.4483 10.9377C21.4483 12.1718 21.2271 13.3418 20.7963 14.4537C20.6974 14.4362 20.5984 14.4246 20.4995 14.4246C19.4691 14.4246 18.6309 15.2686 18.6309 16.2931C18.6309 16.7239 18.7881 17.1256 19.0442 17.4516C17.7111 19.2503 16.966 21.4274 16.966 23.6685V23.6802ZM20.4995 17.1838C20.0163 17.1838 19.6263 16.7821 19.6263 16.3106C19.6263 15.8391 20.0221 15.4316 20.4995 15.4316C20.9768 15.4316 21.3668 15.8158 21.3668 16.3106C21.3668 16.8054 20.971 17.1838 20.4995 17.1838Z" fill="#EE75A8"/>
</g>
<defs>
<clipPath id="clip0_2428_5459">
<rect width="21.8875" height="33" fill="white" transform="translate(0.556274)"/>
</clipPath>
</defs>
</svg>
