<svg width="33" height="20" viewBox="0 0 33 20" fill="none" xmlns="http://www.w3.org/2000/svg">
<g clip-path="url(#clip0_2428_5488)">
<path d="M16.4774 19.2342C11.7425 19.2342 7.00748 19.216 2.27703 19.2477C0.819415 19.2568 -0.00898006 18.1523 7.34397e-05 16.9798C0.0317607 12.0638 0.0136537 7.14774 0.0136537 2.23169C0.0136537 0.851029 0.855629 0.00452675 2.23629 0C11.7379 0 21.2351 0.0090535 30.7367 0C31.633 0 32.3392 0.303292 32.7511 1.11358C32.8914 1.38971 32.9865 1.72469 32.9865 2.03251C33.0001 7.08889 33.0001 12.1453 32.9955 17.2016C32.9955 18.3605 32.0902 19.2296 30.8725 19.2342C28.1655 19.2432 25.463 19.2342 22.756 19.2342C20.6647 19.2342 18.5688 19.2342 16.4774 19.2342ZM16.4774 17.8626C21.2441 17.8626 26.0108 17.8626 30.7774 17.8626C31.3795 17.8626 31.633 17.6091 31.633 17.0025C31.633 12.0864 31.633 7.17037 31.633 2.25432C31.633 1.62058 31.3885 1.3716 30.7639 1.3716C21.2758 1.3716 11.7832 1.3716 2.29514 1.3716C1.62065 1.3716 1.38979 1.60247 1.38979 2.28148C1.38979 7.1749 1.38979 12.0728 1.38979 16.9663C1.38979 17.6226 1.6297 17.8626 2.27703 17.8626C7.01201 17.8626 11.747 17.8626 16.4774 17.8626Z" fill="#F49819"/>
<path d="M7.63211 9.61008C6.65433 8.63683 5.70824 7.69074 4.75762 6.74465C4.53581 6.52284 4.41359 6.28292 4.52223 5.96605C4.69877 5.44548 5.29178 5.34136 5.71729 5.76235C6.57285 6.60885 7.41935 7.45988 8.26585 8.31091C8.36997 8.41502 8.46503 8.53272 8.5782 8.65947C8.68684 8.55988 8.76379 8.49198 8.83622 8.41955C9.73252 7.52325 10.6243 6.62696 11.5251 5.73519C11.7877 5.47264 12.1 5.42284 12.3716 5.5858C12.6523 5.75329 12.779 6.01132 12.6975 6.32366C12.6523 6.48663 12.5391 6.64959 12.4169 6.77634C11.5568 7.65 10.6922 8.51008 9.82758 9.37469C9.75515 9.44712 9.68272 9.5286 9.59671 9.61914C9.68272 9.7142 9.75968 9.80021 9.84116 9.88169C10.7058 10.7463 11.5704 11.6109 12.435 12.4755C12.7881 12.8286 12.8152 13.2632 12.5119 13.5529C12.2132 13.8381 11.8193 13.8064 11.4663 13.4533C10.6017 12.5887 9.73704 11.7241 8.87243 10.8549C8.79095 10.7735 8.73211 10.6648 8.65062 10.5516C8.0712 11.1311 7.55062 11.6562 7.02552 12.1813C6.59095 12.6158 6.16091 13.0459 5.72634 13.4759C5.38231 13.8154 4.96585 13.8381 4.67614 13.5393C4.39095 13.2451 4.41359 12.8512 4.74857 12.5117C5.62676 11.629 6.50947 10.7508 7.38766 9.86811C7.46009 9.79115 7.53252 9.7142 7.63211 9.61008Z" fill="#F49819"/>
<path d="M24.7613 7.95799C25.4901 7.22918 26.1963 6.51396 26.9161 5.80779C27.0292 5.69914 27.1605 5.59503 27.3054 5.53618C27.586 5.42301 27.921 5.55881 28.084 5.82589C28.2469 6.08392 28.2107 6.437 27.9753 6.68145C27.5589 7.11149 27.1288 7.53248 26.7033 7.95799C26.3457 8.3156 25.979 8.66416 25.6395 9.03536C25.5354 9.14853 25.4584 9.3296 25.4539 9.47898C25.4403 10.6152 25.4539 11.7559 25.4358 12.8921C25.4358 13.1049 25.3634 13.3448 25.2457 13.5168C25.0918 13.7432 24.8247 13.802 24.5531 13.716C24.2407 13.6164 24.0778 13.3856 24.0597 13.0687C24.0416 12.7473 24.0552 12.4259 24.0552 12.1045C24.0552 11.2354 24.0642 10.3662 24.0461 9.49709C24.0461 9.33865 23.9646 9.144 23.8514 9.0263C23.0955 8.2477 22.3214 7.49174 21.5609 6.71766C21.2576 6.40984 21.2395 5.99338 21.5066 5.71272C21.7872 5.41849 22.2037 5.42754 22.5296 5.74894C23.2313 6.44153 23.9284 7.14318 24.6255 7.8403C24.6572 7.87198 24.6889 7.89914 24.7568 7.95799H24.7613Z" fill="#F49819"/>
<path d="M17.8761 8.92207C18.3469 8.92207 18.7724 8.91301 19.2025 8.92207C19.6868 8.93565 19.9765 9.25705 19.9313 9.7052C19.8951 10.0628 19.6099 10.3027 19.1844 10.3073C18.7679 10.3163 18.3514 10.3073 17.8761 10.3073C17.8761 10.7645 17.8761 11.199 17.8761 11.6291C17.8761 11.8961 17.7811 12.1089 17.5547 12.2538C17.1021 12.5389 16.5317 12.2311 16.5136 11.6834C16.4955 11.2352 16.5136 10.7871 16.5136 10.3027C16.0881 10.3027 15.6942 10.3027 15.3049 10.3027C14.7663 10.3027 14.4494 10.0356 14.4539 9.59655C14.4584 9.17104 14.7708 8.91301 15.2914 8.90849C15.6671 8.90849 16.0428 8.90849 16.4185 8.90396C16.4366 8.90396 16.4593 8.89038 16.5181 8.87227C16.5181 8.46939 16.5181 8.05746 16.5181 7.641C16.5181 7.16569 16.8078 6.83976 17.2152 6.84882C17.609 6.85787 17.8807 7.17022 17.8852 7.63647C17.8897 8.04388 17.8852 8.44676 17.8852 8.90849L17.8761 8.92207Z" fill="#F49819"/>
</g>
<defs>
<clipPath id="clip0_2428_5488">
<rect width="33" height="19.2477" fill="white"/>
</clipPath>
</defs>
</svg>
