<svg width="32" height="33" viewBox="0 0 32 33" fill="none" xmlns="http://www.w3.org/2000/svg">
<g clip-path="url(#clip0_2428_5519)">
<path d="M12.5123 31.3517C11.8185 30.1038 11.6463 28.8093 11.7394 27.4403C11.6137 27.431 11.5066 27.417 11.3995 27.417C9.82559 27.417 8.25173 27.4124 6.67786 27.417C6.45901 27.417 6.37985 27.3611 6.36122 27.133C6.27275 26.1691 6.3845 25.2425 6.81289 24.3624C7.29716 23.3706 8.06081 22.7001 9.10851 22.3741C9.3972 22.2856 9.44377 22.1506 9.43445 21.8759C9.33201 19.4359 9.24354 16.9913 9.15507 14.5513C9.02935 11.0358 9.87216 7.74367 11.4693 4.63319C12.1165 3.36664 12.8755 2.16529 13.8953 1.16416C14.2445 0.819583 14.6496 0.521573 15.0687 0.26547C15.6415 -0.088417 16.2561 -0.088417 16.8568 0.242188C17.6763 0.69386 18.2863 1.3737 18.8358 2.10941C20.3631 4.15823 21.3735 6.45384 22.0859 8.88915C22.6587 10.8495 22.9334 12.8424 22.831 14.8913C22.7332 16.8889 22.6773 18.8911 22.6028 20.8887C22.5888 21.2799 22.5655 21.671 22.5329 22.0621C22.519 22.2111 22.5655 22.281 22.7099 22.3229C24.8286 22.9143 25.7133 24.87 25.6434 26.6766C25.6155 27.417 25.6015 27.417 24.8705 27.417C23.4968 27.417 22.1232 27.417 20.7495 27.417H20.4702C20.377 28.1155 20.3444 28.7953 20.1861 29.4472C20.0278 30.0991 19.7484 30.7184 19.5156 31.361C19.6506 31.3284 19.8322 31.2911 20.0045 31.2353C24.4793 29.8058 27.5852 26.9048 29.2708 22.5185C30.0391 20.5209 30.2579 18.4394 30.067 16.3115C29.7923 13.3081 28.7446 10.6213 26.8029 8.30244C25.5177 6.76582 23.9532 5.58309 22.1185 4.76822C22.0254 4.72631 21.9276 4.68441 21.8345 4.63319C21.5365 4.47021 21.4247 4.16754 21.5551 3.8835C21.6901 3.58549 21.9975 3.45977 22.3188 3.59015C23.3851 4.03251 24.3815 4.59593 25.2989 5.29905C28.3674 7.63657 30.2253 10.7284 30.9704 14.4955C31.6316 17.8295 31.3149 21.0657 29.8482 24.1436C27.9018 28.2179 24.7587 30.9605 20.4422 32.3062C17.2712 33.2981 14.0862 33.2189 10.9571 32.1386C7.19938 30.8395 4.39622 28.3809 2.51968 24.8839C0.927188 21.9131 0.396357 18.7421 0.871311 15.4081C1.41146 11.6225 3.11105 8.46076 6.03993 5.98355C6.97121 5.19196 8.00494 4.54471 9.10851 4.0232C9.49964 3.83694 9.82094 3.92541 9.97926 4.2467C10.1329 4.568 9.99788 4.87532 9.60674 5.06623C7.50204 6.08133 5.7652 7.52947 4.4195 9.4386C3.06914 11.3524 2.24495 13.4804 1.99816 15.8039C1.45336 20.8701 3.1483 25.0842 6.93862 28.4554C8.4892 29.8337 10.3005 30.765 12.2981 31.3144C12.3447 31.3284 12.3959 31.3331 12.517 31.3517H12.5123ZM15.9488 26.2529C17.2898 26.2529 18.6262 26.2529 19.9673 26.2529C20.5959 26.2529 20.9451 25.9642 21.0289 25.3449C21.1314 24.6045 21.2431 23.8642 21.2804 23.1191C21.4294 20.3765 21.5504 17.6292 21.6808 14.8866C21.7367 13.7178 21.6855 12.5537 21.4806 11.4036C20.9451 8.39091 19.8229 5.61569 18.0954 3.09191C17.6577 2.45398 17.1781 1.84399 16.5401 1.38301C16.1816 1.12225 15.8044 1.07569 15.4645 1.36904C15.0222 1.74621 14.5612 2.11872 14.2119 2.57039C11.609 5.95095 10.2866 9.79249 10.3052 14.0485C10.3192 16.8376 10.4868 19.6268 10.6125 22.416C10.6544 23.352 10.7708 24.2879 10.8686 25.2192C10.9338 25.8571 11.2411 26.2762 12.0374 26.2576C13.3412 26.2296 14.645 26.2483 15.9488 26.2483V26.2529ZM19.2269 27.417C19.0872 27.417 18.9661 27.431 18.8497 27.417C18.6076 27.3891 18.5238 27.4682 18.5051 27.7243C18.4726 28.1015 18.4167 28.488 18.2956 28.8465C17.951 29.8989 17.3131 30.6998 16.2049 31.0257C16.1118 31.0537 15.9953 31.0676 15.9022 31.0397C15.3062 30.8628 14.7893 30.5601 14.3842 30.0758C13.8068 29.3774 13.5973 28.5578 13.5926 27.6778C13.5926 27.4636 13.5181 27.3984 13.3226 27.4217C13.262 27.431 13.2015 27.4263 13.141 27.4217C12.9594 27.403 12.8895 27.4822 12.8988 27.6591C12.9221 28.1527 12.8988 28.651 12.9687 29.1399C13.0991 30.0851 13.4716 30.9279 14.184 31.5892C14.2585 31.659 14.3749 31.7149 14.4727 31.7242C15.4599 31.8453 16.4517 31.8453 17.4388 31.7289C17.5552 31.7149 17.6903 31.6544 17.7741 31.5705C18.4167 30.9605 18.8078 30.2062 19.0313 29.3587C19.1943 28.7348 19.2548 28.0968 19.2316 27.4217L19.2269 27.417ZM14.7335 27.4356C14.7474 27.6917 14.7474 27.9339 14.78 28.1667C14.8825 28.8419 15.1758 29.4006 15.7905 29.7545C15.9581 29.8523 16.1024 29.8616 16.2701 29.7499C17.0989 29.2004 17.3131 28.3762 17.369 27.4356H14.7288H14.7335ZM22.4538 23.4591C22.3188 24.3997 22.1837 25.317 22.0533 26.225H24.456C24.4234 24.8793 23.6319 23.7943 22.4538 23.4591ZM9.49964 23.4917C8.47989 23.6034 7.41823 25.0795 7.53464 26.2343H9.87216C9.74644 25.317 9.62071 24.4043 9.49964 23.4917Z" fill="#A6529A"/>
<path d="M15.9953 17.4011C14.0815 17.4011 12.5077 15.8319 12.503 13.9181C12.503 11.9857 14.0676 10.4211 16.0046 10.4258C17.9231 10.4258 19.4783 11.9903 19.4737 13.9181C19.4737 15.8412 17.9138 17.4011 15.9907 17.4011H15.9953ZM13.6671 13.8948C13.6671 15.1893 14.7055 16.2463 15.9907 16.251C17.2665 16.251 18.3142 15.2079 18.3189 13.9274C18.3282 12.6329 17.2852 11.5806 15.9907 11.5759C14.7148 11.5759 13.6671 12.619 13.6625 13.8948H13.6671Z" fill="#A6529A"/>
<path d="M18.1745 6.73323C18.1745 7.94389 17.192 8.91708 15.9814 8.91243C14.7847 8.90777 13.8115 7.92992 13.8068 6.73323C13.8068 5.52722 14.7893 4.5354 15.9907 4.54006C17.2013 4.54006 18.1745 5.5179 18.1699 6.73323H18.1745ZM17.0197 6.71926C17.0197 6.15583 16.5448 5.68553 15.9907 5.69019C15.4319 5.69019 14.9709 6.16514 14.9709 6.73323C14.9709 7.29665 15.4412 7.76229 16 7.76229C16.5634 7.76229 17.0244 7.28734 17.0197 6.72391V6.71926Z" fill="#A6529A"/>
</g>
<defs>
<clipPath id="clip0_2428_5519">
<rect width="30.5926" height="33" fill="white" transform="translate(0.703674)"/>
</clipPath>
</defs>
</svg>
