<svg width="34" height="33" viewBox="0 0 34 33" fill="none" xmlns="http://www.w3.org/2000/svg">
<g clip-path="url(#clip0_2428_5550)">
<path d="M21.3368 14.4479C21.2669 14.5993 21.1563 14.7448 21.133 14.9078C21.0457 15.5015 20.9642 16.0953 20.9293 16.6949C20.8944 17.3235 20.9176 17.9522 20.9118 18.5809C20.9118 18.8953 20.7488 19.0874 20.4927 19.0874C20.2366 19.0874 20.0794 18.8894 20.0794 18.5751C20.0678 16.8695 19.9863 15.1697 19.7359 13.4816C19.6719 13.0625 19.5613 12.6492 19.4565 12.2417C19.41 12.0671 19.311 11.9099 19.2353 11.7469C19.2062 11.7353 19.1713 11.7294 19.1422 11.7178C19.0432 11.8575 18.8977 11.9914 18.857 12.1427C18.7114 12.7307 18.5252 13.3303 18.496 13.9298C18.4262 15.4084 18.432 16.887 18.4087 18.3655C18.4087 18.4761 18.4204 18.5926 18.4029 18.6973C18.3622 18.9185 18.2225 19.0699 17.9896 19.0815C17.7568 19.0932 17.6054 18.9593 17.5588 18.7323C17.5356 18.6158 17.5297 18.4936 17.5297 18.3772C17.5239 16.5552 17.5472 14.7331 17.5006 12.9111C17.4832 12.166 17.3435 11.4209 17.227 10.6875C17.1863 10.443 17.0524 10.2043 16.9302 9.97728C16.8312 9.79682 16.6624 9.78518 16.5867 9.99474C16.4412 10.4197 16.284 10.8504 16.2025 11.2929C15.8533 13.2662 15.8474 15.2687 15.795 17.2653C15.7834 17.7252 15.7834 18.1909 15.7659 18.6508C15.7485 18.9768 15.5738 19.1572 15.3235 19.1456C15.0674 19.1339 14.9335 18.9476 14.9219 18.61C14.8811 17.1023 14.8578 15.5947 14.7938 14.087C14.7531 13.0974 14.6366 12.1136 14.3165 11.1648C14.2466 10.9669 14.1535 10.769 14.0371 10.5943C13.8682 10.344 13.7402 10.3498 13.6412 10.6292C13.4957 11.0484 13.3443 11.4733 13.292 11.9099C13.1464 13.0858 12.9893 14.2616 12.9427 15.4433C12.867 17.2479 12.8787 19.0524 12.8554 20.857C12.8554 20.9152 12.8554 20.9676 12.8554 21.0258C12.8379 21.2586 12.7215 21.4158 12.4945 21.4507C12.2616 21.4857 12.1103 21.3576 12.0288 21.1422C11.8425 20.6183 11.6911 20.0828 11.4583 19.5821C11.2138 19.0466 10.9111 18.5343 10.5968 18.0395C10.4687 17.8358 10.2359 17.6961 10.0496 17.5273C10.0088 17.5389 9.97391 17.5564 9.93316 17.568C9.88659 17.8416 9.8051 18.1152 9.79927 18.3888C9.77017 20.0537 9.82838 21.7185 10.0903 23.3717C10.2533 24.4079 10.5386 25.3975 11.0741 26.323C11.7668 27.5222 12.4071 28.7504 13.0125 29.9962C13.3909 30.7762 13.5306 31.6319 13.5132 32.5051C13.5073 32.8834 13.2512 33.093 12.9427 32.9708C12.7157 32.8834 12.6749 32.6855 12.6749 32.4701C12.6866 31.6261 12.5119 30.8053 12.151 30.0485C11.7261 29.1754 11.2662 28.3255 10.7889 27.4756C10.2941 26.5966 9.75853 25.7467 9.51986 24.7455C9.18223 23.3368 9.04253 21.899 8.98432 20.4553C8.94939 19.6345 8.96103 18.8079 8.96685 17.9872C8.96685 17.7951 8.91446 17.667 8.75147 17.5506C6.89453 16.2059 5.13655 14.739 3.73948 12.9111C2.94198 11.8691 2.27255 10.734 1.54491 9.64547C1.33535 9.33113 1.11997 9.01679 0.904584 8.70827C0.671739 8.37647 0.671739 8.14944 0.904584 7.98645C1.12579 7.82928 1.36445 7.89913 1.59148 8.23676C2.17941 9.12157 2.77899 10.0006 3.33782 10.9087C4.40891 12.6608 5.81762 14.1045 7.37186 15.42C7.91323 15.8799 8.48952 16.299 9.04835 16.7414C9.16477 16.8346 9.26373 16.8579 9.4209 16.7938C9.88077 16.5901 10.3057 16.7065 10.7015 16.9801C11.1789 17.3119 11.4874 17.7834 11.7668 18.2782C11.8308 18.3946 11.9007 18.5111 12.0288 18.6158C12.0288 18.5169 12.0288 18.4237 12.0288 18.3248C12.1277 16.4678 12.1859 14.6109 12.3373 12.754C12.4013 11.9856 12.6342 11.2346 12.8088 10.4779C12.8495 10.3033 12.9543 10.1403 13.0591 9.9831C13.3735 9.51159 13.8915 9.42427 14.363 9.74443C14.7414 10.0006 14.9335 10.3906 15.0907 10.8039C15.1605 10.9843 15.2129 11.1648 15.3294 11.3452C15.3992 11.0309 15.4749 10.7107 15.5273 10.3906C15.5331 10.3382 15.4632 10.2683 15.4108 10.2159C14.6075 9.41263 13.8042 8.60349 12.9951 7.806C12.8437 7.66047 12.7448 7.49748 12.8146 7.28792C12.8961 7.04343 13.094 7.00268 13.3269 7.0085C14.1768 7.03761 15.0267 7.08418 15.8765 7.06671C16.4819 7.05507 17.0699 6.91536 17.5705 6.53699C17.6287 6.49042 17.6811 6.44385 17.7335 6.39146C17.7568 6.36818 17.7742 6.33325 17.8266 6.24593C17.4832 6.05384 17.1572 5.83845 16.8137 5.68128C14.1942 4.47049 11.5107 3.41104 8.72819 2.63101C7.67456 2.33413 6.6384 1.99651 5.74194 1.33872C5.47999 1.14662 5.24133 0.925418 5.0143 0.698394C4.83385 0.517938 4.83967 0.296735 4.99684 0.127923C5.14819 -0.0350691 5.40432 -0.0699959 5.56731 0.098817C6.60347 1.16991 7.97144 1.54246 9.33358 1.93829C12.1976 2.77072 14.9684 3.84763 17.6403 5.18067C17.9314 5.32619 18.2108 5.52993 18.4553 5.75114C18.7871 6.05966 18.7929 6.40893 18.5193 6.76401C18.0012 7.43927 17.262 7.73032 16.4587 7.8351C15.795 7.92242 15.114 7.92824 14.5086 7.96317C14.9626 8.39975 15.4691 8.88291 15.9755 9.36606C15.9522 9.40099 15.9231 9.43009 15.8998 9.46502C15.9406 9.41845 15.9871 9.37188 16.0279 9.32531C16.3015 9.00515 16.6391 8.90037 17.0466 9.02261C17.1281 9.0459 17.2678 9.05172 17.3085 9.00515C17.8848 8.33572 18.6474 7.90496 19.3634 7.41016C21.3193 6.04801 23.4906 5.1632 25.7783 4.51124C27.641 3.97569 29.4165 3.21312 31.0348 2.12457C31.3316 1.92665 31.6169 1.69381 31.8963 1.4726C32.2223 1.21647 32.4435 1.19901 32.6414 1.43186C32.816 1.6356 32.7404 1.8568 32.4202 2.12457C31.2851 3.07924 30.0044 3.80688 28.6306 4.34824C27.3442 4.8605 26.0286 5.30291 24.7072 5.71039C22.6582 6.34489 20.8187 7.37523 19.084 8.60349C18.7173 8.86544 18.368 9.1565 18.0245 9.45338C17.8441 9.61055 17.7917 9.80264 17.9139 10.0471C18.0187 10.2509 18.0595 10.4837 18.1119 10.7107C18.1642 10.9319 18.1933 11.159 18.2457 11.4442C18.3389 11.3452 18.3971 11.287 18.4553 11.223C18.985 10.6816 19.6836 10.7515 20.0095 11.4326C20.2366 11.9099 20.3588 12.4396 20.4927 12.9577C20.5742 13.2662 20.6033 13.5922 20.6557 13.9065C20.6848 13.9065 20.7023 13.9065 20.7197 13.8949C21.3833 13.3826 22.0178 13.5223 22.3031 14.314C22.5126 14.8903 22.5941 15.5132 22.7047 16.1186C22.7688 16.4678 22.7746 16.8288 22.8153 17.2362C23.2927 16.9626 23.7409 16.7123 24.1833 16.4504C24.5035 16.2641 24.8236 16.0778 25.138 15.8857C25.3417 15.7577 25.5513 15.6471 25.7725 15.8275C26.0111 16.0196 25.9122 16.2525 25.8423 16.4853C25.592 17.3468 25.3126 18.1967 25.1263 19.0699C24.9924 19.6753 25.0157 20.304 25.4057 20.9035C25.5338 20.7988 25.6677 20.7173 25.7666 20.6008C26.4535 19.7859 27.1521 18.9826 27.804 18.1501C29.2535 16.299 30.5516 14.3431 31.7624 12.3232C31.9894 11.9448 32.2747 11.5956 32.5541 11.2521C32.7171 11.0484 32.9674 11.0484 33.1478 11.1997C33.3167 11.3452 33.3341 11.5664 33.1944 11.776C32.4318 12.9461 31.6867 14.1277 30.9009 15.2803C29.5329 17.2828 28.13 19.262 26.4885 21.0491C26.2731 21.2819 26.017 21.4973 25.7434 21.6603C25.3708 21.8873 25.0623 21.8058 24.7945 21.4682C24.4511 21.0433 24.2939 20.5485 24.2531 20.0071C24.1891 19.1223 24.3812 18.2782 24.6315 17.44C24.6548 17.3585 24.6723 17.2828 24.7072 17.1547C24.6082 17.1897 24.5442 17.2071 24.4918 17.2421C24.0145 17.5098 23.5488 17.7892 23.0656 18.0512C22.8968 18.1443 22.8561 18.2549 22.8735 18.4296C22.9492 19.1572 23.0365 19.8848 23.0947 20.6125C23.2694 22.8303 23.1821 25.0249 22.6291 27.1962C22.1808 28.9367 21.8839 30.7063 21.8316 32.5109C21.8199 32.8194 21.6627 32.994 21.4124 32.9882C21.1505 32.9882 20.9933 32.7903 20.9991 32.476C21.0515 30.7587 21.2902 29.0648 21.7326 27.4058C22.437 24.7339 22.4661 22.0328 22.1343 19.3086C22.012 18.2899 21.9829 17.2595 21.8898 16.2408C21.8548 15.8275 21.7733 15.42 21.686 15.0126C21.6453 14.8205 21.5463 14.64 21.4706 14.4596C21.4299 14.4596 21.3892 14.4537 21.3484 14.4479H21.3368Z" fill="#4FBCC0"/>
</g>
<defs>
<clipPath id="clip0_2428_5550">
<rect width="32.5518" height="33" fill="white" transform="translate(0.724121)"/>
</clipPath>
</defs>
</svg>
