<svg width="34" height="33" viewBox="0 0 34 33" fill="none" xmlns="http://www.w3.org/2000/svg">
<g clip-path="url(#clip0_2428_5575)">
<path d="M25.5542 14.9777L28.4764 8.62681C29.0003 7.67797 29.6581 7.12496 30.4207 6.97361C31.16 6.83391 31.7188 7.12496 31.9691 7.28795C33.9658 8.30665 33.3371 11.095 32.6269 12.6143C31.3695 15.5132 30.6768 17.9523 30.0714 20.1061C29.1692 23.3077 28.3833 26.0786 26.1422 29.1347C24.3493 31.5854 21.5318 32.9941 18.5223 32.9941C18.3069 32.9941 18.0799 32.9883 17.8645 32.9708C14.7677 32.7612 12.0608 31.0673 10.6405 28.4419C8.66713 24.7921 3.7017 20.9327 1.65266 19.4425C1.05309 18.9943 0.686355 18.2724 0.692176 17.504C0.697998 16.7415 1.08219 16.0313 1.69923 15.6064C2.56658 15.0068 3.8123 14.8496 5.39565 15.1523C6.53077 15.3677 7.6135 15.8217 8.63802 16.5261C9.66254 17.2304 10.2679 17.44 10.5706 17.504C10.5939 15.9207 8.58563 10.6933 7.79978 8.63846C7.51454 7.90499 7.27588 7.27049 7.0896 6.75823C6.69959 5.69296 7.27588 4.38903 8.04427 3.74288C8.66131 3.2248 9.47627 3.03271 10.2621 3.21898C11.0538 3.40526 11.6883 3.9408 12.0085 4.68009L12.0317 4.73248L14.855 12.3582L14.1506 2.81732C14.1041 1.50757 15.2625 0.17453 16.5722 0.0115387H16.6421H17.1718C17.9053 -0.0583149 18.6737 0.191994 19.2558 0.680969C19.8088 1.14666 20.1231 1.76952 20.1522 2.44477L20.6063 11.5898L21.4038 4.75576C21.6366 3.56243 22.6902 2.69508 23.9069 2.69508H24.2852C25.042 2.69508 25.758 3.03271 26.2411 3.61482C26.7243 4.19111 26.9222 4.94204 26.7941 5.68132L25.5484 14.9777H25.5542ZM3.92873 16.9336C3.43393 16.9336 3.04974 17.0209 2.79943 17.1955C2.64808 17.3003 2.62479 17.4517 2.62479 17.5215C2.62479 17.5914 2.64226 17.7602 2.80525 17.8882C5.47715 19.8383 10.2679 23.6744 12.3519 27.528C13.4579 29.5654 15.5652 30.881 18.0042 31.044C20.5946 31.2245 23.0511 30.0777 24.5821 27.9879C26.6137 25.217 27.318 22.7314 28.2028 19.5764C28.8315 17.3643 29.5417 14.8554 30.8456 11.8284V11.8052C31.224 10.996 31.6839 9.29042 31.0494 8.99937L30.8922 8.92369L30.8573 8.88877C30.8573 8.88877 30.7991 8.86548 30.7583 8.8713C30.6361 8.90041 30.4149 9.08669 30.1704 9.52909L26.9338 16.5668L26.8815 16.6425C26.3576 17.376 25.3971 16.9918 24.9372 16.8171C24.0698 16.4737 23.284 16.0488 23.4004 15.228L24.8848 5.33205C24.9314 5.08757 24.815 4.91293 24.7509 4.83144C24.6869 4.74994 24.5297 4.61605 24.2794 4.61605H23.9069C23.6216 4.61605 23.3771 4.80815 23.3073 5.08757L22.1372 14.2151C21.9277 15.2978 20.3909 15.2396 20.0824 15.2163C18.924 15.129 18.8366 14.3024 18.825 14.1511L18.208 2.53791C18.2021 2.35746 18.0741 2.22939 17.9926 2.16536C17.8063 2.00819 17.5444 1.92087 17.329 1.94998H17.2591H16.7585C16.4442 2.02565 16.0774 2.45059 16.0774 2.74747L16.904 14.1103C16.9099 14.5644 16.6712 15.1581 15.4604 15.3968C14.2554 15.6355 13.8188 15.1814 13.65 14.7565L10.2156 5.43683C10.1108 5.20399 9.90703 5.12831 9.80225 5.11085C9.69165 5.08174 9.47627 5.06428 9.27253 5.23892C9.00475 5.46012 8.84176 5.94909 8.89415 6.10626C9.07461 6.60106 9.31327 7.22392 9.58687 7.95156C12.2064 14.7856 13.1203 17.8475 11.9852 19.0234C10.8675 20.2109 8.49249 18.8022 7.52036 18.1327C6.72869 17.5855 5.88463 17.2304 5.01728 17.0675C4.60398 16.9918 4.23143 16.9569 3.91126 16.9569L3.92873 16.9336Z" fill="#9872B0"/>
</g>
<defs>
<clipPath id="clip0_2428_5575">
<rect width="32.6158" height="33" fill="white" transform="translate(0.692108)"/>
</clipPath>
</defs>
</svg>
