<svg width="34" height="33" viewBox="0 0 34 33" fill="none" xmlns="http://www.w3.org/2000/svg">
<g clip-path="url(#clip0_2428_5624)">
<path d="M25.0332 20.9096C26.4419 19.1749 27.1346 17.1607 27.3267 14.9487C27.4315 13.7612 27.4256 12.5912 27.152 11.4269C25.9412 6.21702 21.2902 2.81747 15.9638 3.3472C12.1743 3.72557 9.41506 5.7164 7.66872 9.08101C6.65584 11.0311 6.44046 13.1267 6.69076 15.298C6.92943 17.3587 7.60468 19.2447 8.91444 20.863C9.66536 21.7885 10.4978 22.6501 11.2895 23.5349C12.1626 24.507 12.5876 25.648 12.5876 26.9519C12.5876 28.349 12.5876 29.7519 12.5876 31.1489C12.5876 32.3423 13.2454 33.0059 14.4271 33.0059C15.2886 33.0059 16.1443 33.0059 17.0058 33.0059C17.8673 33.0059 18.723 33.0059 19.5846 33.0059C20.7255 33.0059 21.3891 32.3306 21.3891 31.1839C21.3891 29.909 21.4241 28.64 21.3833 27.3652C21.3251 25.6945 21.8781 24.3033 23.0481 23.1158C23.7409 22.4114 24.3986 21.6779 25.0215 20.9154L25.0332 20.9096ZM21.0399 23.9831C20.9409 24.1345 20.8478 24.2043 20.6615 24.1985C20.0095 24.1869 19.3575 24.1985 18.6648 24.1985V25.287H20.3995C20.3646 26.1835 20.318 27.0508 20.3064 27.9182C20.2889 29.0184 20.3064 30.1186 20.3064 31.2188C20.3064 31.6903 20.1027 31.8999 19.6486 31.8999C17.8848 31.8999 16.1152 31.8999 14.3514 31.8999C13.909 31.8999 13.7052 31.6903 13.7052 31.2421C13.7052 29.9148 13.7169 28.5818 13.6994 27.2546C13.6878 26.6143 13.6237 25.9798 13.583 25.3103H15.3351V24.1985C14.6715 24.1985 14.0254 24.1927 13.3734 24.1985C13.1639 24.1985 13.0474 24.1403 12.9485 23.9482C12.378 22.8829 11.4757 22.0796 10.6724 21.2006C9.75268 20.1936 8.90279 19.1399 8.44875 17.8418C7.3078 14.5587 7.29616 11.3454 9.36266 8.39412C11.3244 5.59415 14.0836 4.24947 17.4948 4.38918C21.9072 4.56963 25.6677 7.99246 26.1916 12.37C26.5758 15.5366 25.8772 18.453 23.6186 20.8572C23.0598 21.4509 22.5068 22.0505 21.9829 22.6675C21.6394 23.075 21.3367 23.5232 21.0399 23.9715V23.9831Z" fill="#488AC9"/>
<path d="M8.8446 25.3046C7.91322 25.2581 7.10408 24.9495 6.44629 24.3034C5.7885 23.6573 5.47998 22.8539 5.43341 21.9517H4.36232C4.29247 23.471 3.29706 25.1184 0.951141 25.3279V26.3874C1.88834 26.4223 2.69166 26.7425 3.34945 27.3828C4.00724 28.0289 4.30993 28.8322 4.36232 29.7462H5.43341C5.50327 28.1745 6.55107 26.5504 8.8446 26.3583V25.2988V25.3046ZM4.89205 27.4468C4.37397 26.9287 3.80932 26.3641 3.27959 25.8402C3.79185 25.3337 4.36815 24.7633 4.89787 24.2394C5.41595 24.7516 5.98642 25.3221 6.51614 25.846C5.99806 26.3583 5.42759 26.9171 4.89205 27.4468Z" fill="#488AC9"/>
<path d="M29.6551 22.0098H28.584C28.4036 23.663 27.5944 24.4779 25.8365 24.7748V25.8342C26.5874 25.8808 27.2335 26.1311 27.7633 26.655C28.2988 27.1848 28.5316 27.8542 28.5899 28.5818H29.6609C29.7075 27.8367 29.952 27.1906 30.4759 26.6608C31.0056 26.1253 31.6692 25.8866 32.4143 25.8284V24.7573C31.6459 24.7049 30.9998 24.4546 30.4701 23.9249C29.9462 23.3952 29.7075 22.7432 29.6609 22.0156L29.6551 22.0098ZM29.1138 26.2767C28.846 26.0031 28.4327 25.5839 28.1416 25.2929C28.4152 25.0251 28.8343 24.606 29.1254 24.3208C29.399 24.5943 29.8123 25.0135 30.0975 25.3045C29.8123 25.5898 29.399 25.9914 29.1079 26.2825L29.1138 26.2767Z" fill="#488AC9"/>
<path d="M5.42758 13.7612H0.502899V14.8207H5.42758V13.7612Z" fill="#488AC9"/>
<path d="M33.4913 13.7612H28.584V14.8207H33.4913V13.7612Z" fill="#488AC9"/>
<path d="M5.59638 9.34873C4.29827 8.97618 3.02926 8.61527 1.74279 8.24854C1.63219 8.62691 1.53905 8.95289 1.44009 9.30798C2.72074 9.67471 3.97811 10.0356 5.29368 10.4082C5.39846 10.0414 5.49742 9.70382 5.59638 9.34873Z" fill="#488AC9"/>
<path d="M28.7179 10.414C30.0219 10.0415 31.2909 9.67475 32.5715 9.30802C32.4609 8.92965 32.3561 8.59784 32.2572 8.25439C30.9532 8.62695 29.6901 8.98786 28.4152 9.35459C28.52 9.70968 28.6131 10.0357 28.7179 10.414Z" fill="#488AC9"/>
<path d="M29.463 3.70239C29.2244 3.40551 29.0032 3.13192 28.7703 2.84668C27.8448 3.58596 26.9425 4.30778 26.0169 5.04707C26.244 5.3323 26.4652 5.6059 26.7038 5.9086C27.6352 5.16349 28.5375 4.44167 29.4572 3.70239H29.463Z" fill="#488AC9"/>
<path d="M7.9947 5.04707C7.06332 4.30196 6.15522 3.57432 5.24131 2.84668C4.99682 3.1552 4.77562 3.42879 4.55441 3.70821C5.49162 4.45913 6.39389 5.17513 7.30781 5.9086C7.54647 5.61172 7.76768 5.33812 7.9947 5.04707Z" fill="#488AC9"/>
<path d="M17.5297 0H16.4703V2.43323H17.5297V0Z" fill="#488AC9"/>
<path d="M11.9938 2.47386C11.6213 1.72876 11.2662 1.01858 10.8936 0.279297C10.5502 0.44811 10.2416 0.60528 9.90402 0.768272C10.2766 1.50756 10.6375 2.22938 11.01 2.96866C11.3593 2.79403 11.6678 2.63686 11.9938 2.47386Z" fill="#488AC9"/>
<path d="M24.1018 0.768272C23.7641 0.599459 23.4614 0.44811 23.118 0.279297C22.7396 1.03604 22.3845 1.74622 22.0178 2.47969C22.3496 2.64268 22.6639 2.79985 23.0074 2.96866C23.3799 2.22356 23.7408 1.50173 24.1076 0.768272H24.1018Z" fill="#488AC9"/>
<path d="M3.78019 18.6684V17.6147H2.70911V18.6684H3.78019Z" fill="#488AC9"/>
<path d="M28.5782 18.6625H29.6377V17.603H28.5782V18.6625Z" fill="#488AC9"/>
<path d="M32.4376 19.2681V20.3275H33.4971V19.2681H32.4376Z" fill="#488AC9"/>
<path d="M1.57399 20.3623H0.502899V21.4159H1.57399V20.3623Z" fill="#488AC9"/>
<path d="M8.77472 29.6819H9.82834V28.6108H8.77472V29.6819Z" fill="#488AC9"/>
<path d="M24.1774 30.7821H25.2427V29.7227H24.1774V30.7821Z" fill="#488AC9"/>
<path d="M30.7903 32.4412H31.8439V31.3701H30.7903V32.4412Z" fill="#488AC9"/>
<path d="M6.56268 32.9823H7.63377V31.9287H6.56268V32.9823Z" fill="#488AC9"/>
<path d="M22.5883 13.511C23.4382 12.5797 23.5371 11.5144 23.1063 10.42C22.6581 9.27908 21.7209 8.77846 20.5101 8.75517C20.5334 8.63875 20.5509 8.56308 20.5625 8.48158C20.708 7.50945 19.9571 6.58971 18.9908 6.57807C17.6694 6.56061 16.3538 6.57225 15.0324 6.57807C14.6133 6.57807 14.2466 6.73524 13.9555 7.03212C13.484 7.51527 13.3676 8.09739 13.4957 8.761C12.2732 8.77846 11.3477 9.29072 10.8994 10.4433C10.4745 11.5377 10.5851 12.5971 11.4175 13.5052C9.47908 15.1351 9.677 17.2075 11.889 18.5696C11.499 19.9317 12.4362 21.0145 13.7809 20.9039C14.6541 20.8282 15.5389 20.8922 16.4586 20.8922C16.4586 22.7317 16.4586 24.5188 16.4528 26.3059C16.4528 26.3932 16.3655 26.5096 16.2898 26.5562C15.0441 27.2955 15.0383 28.7857 16.2723 29.525C16.3655 29.5774 16.447 29.7229 16.4528 29.8335C16.4761 30.1478 16.4586 30.4622 16.4586 30.7823H17.5588C17.5588 30.4796 17.5705 30.2002 17.5588 29.915C17.5472 29.7113 17.5996 29.5948 17.7975 29.49C18.3505 29.1873 18.6532 28.7042 18.659 28.0639C18.659 27.4119 18.3563 26.9171 17.7975 26.6028C17.5996 26.4922 17.5588 26.3757 17.5588 26.1778C17.5646 24.5246 17.5588 22.8772 17.5588 21.224V20.8922C17.7043 20.8922 17.8149 20.8922 17.9255 20.8922C18.822 20.8922 19.7126 20.8981 20.6091 20.8922C21.3193 20.8864 21.913 20.4731 22.0993 19.792C22.2041 19.402 22.1866 18.9771 22.2274 18.5114C23.1937 18.1156 23.7525 17.3122 23.8747 16.1946C23.997 15.0478 23.5429 14.1688 22.5941 13.5227L22.5883 13.511ZM16.4353 19.7862C15.7717 19.7862 15.1139 19.7862 14.4503 19.7862C14.1302 19.7862 13.81 19.7862 13.4898 19.7862C13.1173 19.7804 12.8903 19.5417 12.8961 19.175C12.8961 18.8839 13.1231 18.6744 13.4782 18.6918C14.0778 18.7151 14.59 18.5521 14.9742 18.0806C15.3933 17.5625 15.4865 16.9804 15.2129 16.375C14.9509 15.7871 14.4736 15.4437 13.8275 15.3913C13.4433 15.3622 13.0474 15.3913 12.6341 15.3913V16.4915C12.9543 16.4915 13.2861 16.4915 13.6121 16.4915C14.0079 16.4915 14.264 16.7185 14.2524 17.0503C14.2466 17.3705 14.0021 17.5917 13.6237 17.5858C13.2104 17.5858 12.7913 17.6033 12.3955 17.5218C11.5921 17.3472 11.1206 16.538 11.2371 15.6241C11.3302 14.8499 11.9647 14.2969 12.7738 14.2853C13.0707 14.2853 13.3676 14.2853 13.6703 14.2853C14.6017 14.2794 15.3468 13.5518 15.3526 12.6437C15.3526 11.724 14.6075 10.9905 13.6528 10.9847C13.5015 10.9847 13.356 10.9847 13.1639 10.9847V12.0849C13.3327 12.0849 13.5015 12.079 13.6703 12.0849C14.0079 12.1023 14.2524 12.341 14.2466 12.6437C14.2408 12.9347 14.0021 13.1618 13.6819 13.1851C12.704 13.2549 12.0054 12.8533 11.8308 12.0325C11.5805 10.8974 12.2383 9.84373 13.4666 9.87865C14.0836 9.89612 14.7006 9.87865 15.3351 9.87865V8.77846C15.2304 8.77846 15.143 8.77846 15.0557 8.77846C14.7472 8.75517 14.5435 8.55726 14.5435 8.28366C14.5435 7.94604 14.753 7.68991 15.0732 7.67826C15.5214 7.66662 15.9638 7.67826 16.4353 7.67826V19.7862ZM17.5588 28.0406C17.5588 28.3316 17.3143 28.5878 17.0233 28.5936C16.7322 28.5994 16.4761 28.3549 16.4586 28.0639C16.447 27.7554 16.7031 27.4934 17.0116 27.4934C17.3027 27.4934 17.553 27.7495 17.5588 28.0406ZM20.9991 17.5858C20.7721 17.5858 20.5392 17.5975 20.3122 17.5858C19.992 17.5684 19.765 17.3355 19.765 17.0386C19.765 16.7418 19.992 16.5031 20.3122 16.4915C20.6673 16.4798 21.0166 16.4915 21.3891 16.4915V15.3971C20.6615 15.4204 19.8931 15.2166 19.2469 15.7871C18.7114 16.2528 18.5193 16.9513 18.7521 17.5917C18.9908 18.2436 19.602 18.6802 20.3064 18.6918C20.3646 18.6918 20.4228 18.6918 20.481 18.6918C20.8943 18.6918 21.1272 18.8781 21.1272 19.1925C21.1272 19.5825 20.8943 19.792 20.4577 19.7979C19.7126 19.7979 18.9675 19.7979 18.2224 19.7979H17.5879V7.68409C18.0594 7.68409 18.5309 7.67244 18.9966 7.68409C19.2877 7.69573 19.5031 7.97514 19.4798 8.29531C19.4623 8.58636 19.2935 8.75517 18.9966 8.77846C18.9035 8.78428 18.8162 8.77846 18.6939 8.77846V9.87865C19.3051 9.87865 19.9164 9.89612 20.5334 9.87865C21.9247 9.83208 22.4544 11.1069 22.175 12.1081C21.9538 12.9173 20.9351 13.4354 20.1609 13.1501C19.8989 13.0512 19.7476 12.8474 19.7883 12.5622C19.8291 12.2886 20.0095 12.1081 20.2947 12.0849C20.4752 12.0674 20.6557 12.0849 20.8652 12.0849V11.0138C20.1492 10.909 19.5147 11.0138 19.0432 11.6075C18.6299 12.1256 18.5368 12.7135 18.8278 13.3131C19.1363 13.9593 19.6719 14.2911 20.3995 14.2853C20.708 14.2853 21.0166 14.2794 21.3309 14.2853C22.1575 14.3144 22.7978 14.978 22.7978 15.8046C22.7978 16.9455 22.1575 17.5858 21.0107 17.5858H20.9991Z" fill="#488AC9"/>
</g>
<defs>
<clipPath id="clip0_2428_5624">
<rect width="32.9942" height="33" fill="white" transform="translate(0.502899)"/>
</clipPath>
</defs>
</svg>
