<?xml version="1.0" encoding="utf-8"?>
<!-- Generator: Adobe Illustrator 28.3.0, SVG Export Plug-In . SVG Version: 6.00 Build 0)  -->
<svg version="1.1" id="Capa_1" xmlns="http://www.w3.org/2000/svg" xmlns:xlink="http://www.w3.org/1999/xlink" x="0px" y="0px"
	 viewBox="0 0 32 32" style="enable-background:new 0 0 32 32;" xml:space="preserve">
<style type="text/css">
	.st0{fill-rule:evenodd;clip-rule:evenodd;fill:#EA5617;}
</style>
<path class="st0" d="M0,16C0,7.2,7.2,0,16,0c8.8,0,16,7.2,16,16c0,8.8-7.2,16-16,16C7.2,32,0,24.8,0,16z M24,15.4
	c-0.1-1-0.5-1.9-1.2-2.7c-1.2-1.4-2.8-2-4.6-1.8c-1.5,0.2-2.7,1-3.6,2.3c-0.1,0.2-0.3,0.5-0.4,0.7c0,0,0,0,0,0c0,0,0,0.1-0.1,0
	c-0.7-0.6-1.4-0.9-2.3-1c-1.1-0.2-2.1,0-3.1,0.6c-1.2,0.8-2,1.9-2.2,3.3c0,0.1-0.1,0.2-0.2,0.2c-1.4,0.5-2.3,1.6-2.4,3.1
	c-0.1,1.1,0.3,2,1.1,2.8c0.7,0.7,1.5,1,2.4,1c1.3,0,2.6,0,3.9,0c0.6,0,1.1,0,1.7,0h5.3c0.3,0,0.7,0,1-0.1c0.8-0.2,1.5-0.6,2-1.4
	c0.4-0.7,0.7-1.4,0.6-2.2c0-0.1,0-0.1,0.1-0.1c0,0,0.1-0.1,0.1-0.1l0,0l0,0v0c0.1-0.1,0.3-0.2,0.4-0.3C23.7,18.6,24.2,17.1,24,15.4z
	 M20.1,22.4c-0.4,0.4-0.9,0.5-1.5,0.5c-1.3,0-2.6,0-3.9,0h0h0h0h0h0c-0.5,0-1,0-1.6,0v0c-0.6,0-1.1,0-1.7,0h0h0h0h0h0
	c-1.3,0-2.6,0-3.9,0c-1.4,0-2.6-1.3-2.4-2.8C5.3,19.1,6,18.3,7,18l0.1,0c0.3-0.1,0.4-0.3,0.5-0.6c0.1-1.3,0.7-2.3,1.9-3
	c0.6-0.4,1.3-0.5,2-0.4c1,0.1,1.8,0.5,2.4,1.2c0.1,0.1,0.2,0.2,0.3,0.3c0.2,0.1,0.4,0,0.5-0.1c0.3-0.2,0.6-0.3,0.9-0.4
	c1.4-0.3,2.5,0.6,2.9,1.7c0.1,0.4,0.1,0.8,0.1,1.1c0,0.3,0.1,0.5,0.4,0.6c0.4,0.1,0.7,0.2,1.1,0.5C21.2,19.8,21.2,21.5,20.1,22.4
	L20.1,22.4z M22.6,17.9c-0.2,0.5-0.5,0.8-0.9,1.2c-0.1,0.1-0.1,0-0.1,0c0,0,0,0,0,0c-0.2-0.3-0.4-0.6-0.6-0.8
	c-0.3-0.3-0.7-0.5-1.1-0.7c-0.1,0-0.1-0.1-0.1-0.2c0-1.4-0.9-2.8-2.2-3.3c-0.6-0.2-1.2-0.3-1.9-0.2c0,0,0,0,0,0c0,0-0.1,0-0.1,0
	c0-0.1,0-0.1,0.1-0.1c0,0,0,0,0,0c0.6-0.9,1.5-1.4,2.5-1.6c2-0.4,3.7,0.7,4.5,2.2C23.2,15.5,23.1,16.7,22.6,17.9L22.6,17.9z
	 M24.2,11.6c-0.2,0.2-0.3,0.2-0.5,0.2c-0.2,0-0.3-0.1-0.4-0.3c-0.1-0.2-0.1-0.4,0.1-0.6c0.1-0.2,0.3-0.3,0.4-0.4l0,0l0,0
	c0.1-0.1,0.1-0.1,0.2-0.2c0.1-0.2,0.3-0.3,0.4-0.5v0v0l0,0v0l0,0c0.1-0.1,0.2-0.2,0.3-0.3c0.2-0.2,0.5-0.2,0.8,0
	c0.2,0.2,0.2,0.5,0,0.8c-0.1,0.1-0.1,0.1-0.2,0.2l0,0C24.9,10.9,24.5,11.3,24.2,11.6z M18.9,9.9c0.2,0.1,0.4,0,0.5-0.1
	c0.1-0.1,0.2-0.3,0.2-0.4c0-0.2,0-0.4,0-0.6c0-0.1,0-0.2,0-0.3l0-0.3v0v0v0c0-0.2,0-0.4,0-0.5c0-0.1,0-0.2,0-0.2
	c-0.1-0.2-0.2-0.3-0.4-0.4c-0.2-0.1-0.4,0-0.5,0.2c-0.1,0.1-0.2,0.3-0.2,0.4c0,0.5,0,1,0,1.5c0,0.1,0,0.2,0,0.3
	C18.5,9.7,18.6,9.8,18.9,9.9L18.9,9.9z M14.3,11.9c-0.2,0-0.3-0.1-0.4-0.2v0l-0.2-0.2c-0.4-0.4-0.8-0.8-1.1-1.1
	c-0.2-0.2-0.2-0.6,0-0.8c0.2-0.2,0.5-0.2,0.8,0c0.4,0.4,0.9,0.9,1.3,1.3c0.2,0.2,0.3,0.4,0.1,0.6C14.7,11.8,14.5,11.9,14.3,11.9z
	 M24,20.3c-0.2-0.2-0.4-0.2-0.6-0.1c-0.2,0.1-0.3,0.3-0.3,0.4c0,0.2,0,0.3,0.1,0.4c0.1,0.1,0.1,0.1,0.2,0.2l0,0c0,0,0.1,0.1,0.1,0.1
	c0.1,0.1,0.2,0.2,0.3,0.3l0,0c0.2,0.2,0.4,0.5,0.7,0.7c0.1,0.2,0.3,0.3,0.5,0.2c0.2,0,0.3-0.2,0.4-0.4c0.1-0.2,0-0.4-0.2-0.6l0,0
	C24.9,21.2,24.4,20.8,24,20.3L24,20.3z M25.6,15.5c0.6,0,1.2,0,1.8,0c0.4,0,0.6,0.3,0.6,0.6c0,0.2-0.2,0.4-0.5,0.4
	c-0.2,0-0.4,0-0.7,0c-0.1,0-0.2,0-0.3,0v0c-0.1,0-0.2,0-0.3,0c-0.2,0-0.4,0-0.7,0c-0.3,0-0.5-0.3-0.5-0.5
	C25.1,15.8,25.3,15.5,25.6,15.5z"/>
</svg>
