<?xml version="1.0" encoding="utf-8"?>
<!-- Generator: Adobe Illustrator 28.3.0, SVG Export Plug-In . SVG Version: 6.00 Build 0)  -->
<svg version="1.1" id="Capa_1" xmlns="http://www.w3.org/2000/svg" xmlns:xlink="http://www.w3.org/1999/xlink" x="0px" y="0px"
	 viewBox="0 0 32 32" style="enable-background:new 0 0 32 32;" xml:space="preserve">
<style type="text/css">
	.st0{fill-rule:evenodd;clip-rule:evenodd;fill:#E95A95;}
</style>
<path class="st0" d="M16,0C7.2,0,0,7.2,0,16c0,8.8,7.2,16,16,16c8.8,0,16-7.2,16-16C32,7.2,24.8,0,16,0z M25,9.1
	c0.3,0.3,0.5,0.5,0.8,0.8l0,0c0.1,0.1,0.2,0.3,0.2,0.5c0,0.1-0.1,0.1-0.1,0.2c-0.6,0.6-1.2,1.2-1.8,1.8c-1.2,1.2-2.5,2.5-3.7,3.7
	c0,0,0,0-0.1,0c-0.1,0-0.1,0.1-0.1,0.2c0.1,0.1,0.2,0.2,0.3,0.3c0.2,0.2,0.5,0.5,0.7,0.7c1.2,1.2,2.3,2.3,3.5,3.5
	c0.1,0.1,0.1,0.1,0.2,0.2c0.1,0.1,0.2,0.2,0.3,0.3c0.1,0.1,0.2,0.3,0.2,0.4c0,0.1,0,0.3,0,0.4c0,0.1,0,0.3,0.1,0.4
	c0,0.1,0,0.2,0.1,0.3c0,0.1,0.1,0.3,0.1,0.4c0,0.1,0,0.2,0,0.2c0,0.1,0,0.2,0,0.3c0,0.1,0,0.2,0,0.3c0,0.1,0,0.1,0,0.2
	c0,0.1,0,0.2,0,0.2c0,0.1,0,0.1,0,0.2c0,0,0,0.1,0,0.1c0,0.2,0,0.3,0.1,0.5c0,0.1,0,0.3-0.1,0.4c-0.1,0.1-0.3,0.2-0.4,0.2
	c-0.1,0-0.2,0-0.3,0c0,0-0.1,0-0.1,0c-0.1,0-0.1,0-0.2,0c-0.1,0-0.3,0-0.4-0.1c-0.1,0-0.2,0-0.3,0c-0.1,0-0.2,0-0.3,0
	c-0.1,0-0.2,0-0.3,0c-0.1,0-0.2,0-0.3,0c-0.1,0-0.2,0-0.3,0c-0.1,0-0.2,0-0.3,0c-0.1,0-0.3,0-0.4-0.1c0,0-0.1,0-0.1,0
	c0,0-0.1,0-0.1,0c-0.1,0-0.1,0-0.2,0c-0.2,0-0.3-0.1-0.4-0.2c-0.4-0.4-0.9-0.9-1.3-1.3c-0.4-0.4-0.8-0.8-1.2-1.2
	c-0.8-0.8-1.6-1.6-2.4-2.4c0,0,0,0-0.1,0c0,0,0,0,0,0c0,0-0.1,0-0.1,0c0,0,0,0,0,0c-0.8,0.8-1.6,1.6-2.4,2.4
	c-0.8,0.8-1.6,1.6-2.4,2.4c-0.3,0.3-0.6,0.6-0.9,0.9c-0.2,0.2-0.4,0.2-0.6,0c0,0-0.1-0.1-0.1-0.1C9,24.9,8.1,24,7.2,23.1
	c0,0-0.1-0.1-0.1-0.1c-0.2-0.2-0.2-0.4,0-0.6c0.1-0.1,0.3-0.3,0.4-0.4c0.1-0.1,0.1-0.1,0.2-0.2c0.8-0.8,1.7-1.7,2.5-2.5
	c0.8-0.8,1.7-1.7,2.5-2.5c0,0,0,0,0,0c0,0,0.1-0.1,0.1-0.1c0,0,0,0,0-0.1c-0.4-0.4-0.9-0.9-1.3-1.3c-0.4-0.4-0.9-0.9-1.3-1.3
	c-0.2-0.2-0.4-0.4-0.6-0.6c-0.6-0.6-1.2-1.2-1.8-1.8c-0.3-0.3-0.5-0.6-0.6-1C7.1,10.3,7.1,10,7.1,9.7c0-1,0.8-2.2,1.8-2.5
	c0.3-0.1,0.7-0.2,1-0.1c0.8,0,1.4,0.3,1.9,0.9c0.5,0.6,1.1,1.1,1.6,1.6c0.2,0.2,0.5,0.5,0.7,0.7c0.8,0.8,1.6,1.6,2.4,2.4
	c0,0,0,0,0.1,0c0,0,0,0,0,0c0,0,0.1,0,0.1,0c0,0,0,0,0,0c1.8-1.8,3.7-3.7,5.5-5.5c0,0,0,0,0.1-0.1c0,0,0.1-0.1,0.1-0.1
	C22.6,7,22.9,7,23,7.1c0.4,0.4,0.8,0.8,1.2,1.2C24.5,8.6,24.7,8.8,25,9.1z M15.5,12.8c-0.8-0.8-1.7-1.7-2.5-2.5v0
	c-0.1-0.1-0.2-0.2-0.3-0.3c-0.2-0.2-0.5-0.5-0.7-0.7c0,0,0,0,0,0c0,0,0,0,0,0c-0.1,0.1-0.1,0.1-0.2,0.2c-0.2,0.2-0.4,0.4-0.6,0.6
	l0,0c-0.2,0.2-0.2,0.2,0,0.3c0.2,0.2,0.4,0.4,0.6,0.6c0.6,0.6,1.2,1.2,1.8,1.8c0.2,0.2,0.3,0.3,0.5,0.5c0.4,0.4,0.7,0.7,1.1,1.1
	c0,0,0.1,0,0.1,0c0.1,0,0.1-0.1,0.2-0.1c0.3-0.3,0.6-0.6,0.8-0.9c0,0,0,0,0,0c0,0,0,0,0,0C15.9,13.2,15.7,13,15.5,12.8z M9.3,11.9
	C9.3,12,9.3,12,9.3,11.9L9.3,11.9l4,4c0,0,0.1,0.1,0.1,0.1c0,0,0,0,0,0c0,0,0.1,0,0.1-0.1c0.1-0.1,0.1-0.1,0.2-0.2
	c0,0,0.1-0.1,0.1-0.1c0.1-0.1,0.1-0.1,0.2-0.2c0.1-0.1,0.3-0.3,0.4-0.4c0,0,0.1-0.1,0-0.1c-0.1,0-0.1-0.1-0.2-0.2
	c0,0-0.1-0.1-0.1-0.1c-1-1-2-2-3-3l0,0c-0.3-0.3-0.5-0.5-0.8-0.7c-0.1-0.1-0.1-0.1-0.2,0c-0.1,0.1-0.2,0.2-0.3,0.3
	c0,0-0.1,0.1-0.1,0.1c-0.1,0.1-0.2,0.2-0.3,0.3C9.5,11.7,9.4,11.8,9.3,11.9L9.3,11.9C9.3,11.9,9.3,11.9,9.3,11.9z M8.7,11.3
	L8.7,11.3C8.7,11.3,8.7,11.3,8.7,11.3c0.1-0.1,0.1-0.1,0.2-0.2c0.3-0.3,0.6-0.6,1-1c0.5-0.5,1-1,1.5-1.5C11,8.3,10.6,7.9,10,7.9
	c-0.3,0-0.6,0-0.9,0.1C8.6,8.2,8.3,8.5,8,9C8,9.2,7.9,9.4,7.9,9.6c0,0.3,0,0.6,0.1,1C8.2,10.8,8.4,11.1,8.7,11.3z M21.7,23.8
	c0.1-0.2,0.1-0.4,0.2-0.5h0c0,0,0-0.1,0-0.1c0.1-0.1,0.1-0.3,0.2-0.5c0,0,0,0,0,0c0,0-0.1-0.1-0.1-0.1c-0.9-0.9-1.9-1.9-2.8-2.8
	c-0.1-0.1-0.1-0.1-0.2-0.2c-0.3-0.3-0.6-0.6-0.9-0.9c-0.1-0.1-0.1-0.1-0.1,0c-0.2,0.2-0.4,0.4-0.6,0.6c-0.1,0.1-0.2,0.2-0.3,0.3
	c0,0-0.1,0.1-0.1,0.1c0.6,0.6,1.1,1.1,1.7,1.7c0.9,0.9,1.9,1.9,2.8,2.8c0.1,0.1,0.1,0,0.1,0C21.6,24,21.6,23.9,21.7,23.8z
	 M24.7,22.9c0-0.2-0.1-0.4-0.1-0.6c0-0.1,0-0.1-0.1-0.1c-0.5,0.2-1,0.4-1.5,0.6c0,0-0.1,0.1-0.1,0.1c-0.1,0.2-0.1,0.3-0.2,0.5
	c-0.1,0.4-0.3,0.7-0.4,1.1c0,0,0,0,0,0.1c0.1,0,0.2,0,0.3,0c0.1,0,0.2,0,0.3,0c0.1,0,0.2,0,0.3,0c0.1,0,0.1,0,0.2,0
	c0.1,0,0.1,0,0.2,0c0.1,0,0.3,0,0.4,0.1c0.1,0,0.3,0,0.4,0.1c0.1,0,0.1,0,0.2,0c0.1,0,0.3,0,0.4,0.1l0,0c0.1,0,0.1,0,0.1-0.1
	c0,0,0,0,0,0c0-0.1,0-0.2-0.1-0.4c0-0.1,0-0.2-0.1-0.3c0-0.1,0-0.3-0.1-0.4c0-0.1,0-0.3-0.1-0.4C24.7,23.2,24.7,23.1,24.7,22.9z
	 M24,21.3c-1.3-1.3-2.6-2.6-3.8-3.8h0c-0.1-0.1-0.3-0.3-0.4-0.4c-0.1-0.1-0.1-0.1-0.2-0.2c0,0-0.1,0-0.1,0.1c0,0,0,0,0,0
	c-0.1,0.1-0.3,0.3-0.4,0.4c-0.1,0.1-0.3,0.3-0.4,0.4c-0.1,0.1-0.1,0.2,0,0.2c0,0,0,0,0,0l0,0l0,0c1.2,1.2,2.3,2.3,3.5,3.5
	c0,0,0,0,0,0c0.1,0.1,0.2,0.2,0.3,0.3c0,0,0,0,0,0c0,0,0.1,0.1,0.1,0.1c0,0,0,0,0,0c0,0,0,0,0,0c0.2-0.1,0.4-0.1,0.5-0.2
	c0.3-0.1,0.6-0.2,0.9-0.4c0,0,0,0,0-0.1C24.1,21.4,24.1,21.4,24,21.3z M22.3,13c0.9-0.9,1.8-1.8,2.6-2.6l0,0c0,0,0.1-0.1,0-0.1
	c-0.2-0.2-0.4-0.4-0.7-0.6c-0.1-0.1-0.2-0.2-0.3-0.3c-0.4-0.4-0.7-0.7-1.1-1.1c0,0-0.1-0.1-0.1-0.1c0,0-0.1-0.1-0.1,0
	c-0.1,0.1-0.3,0.3-0.4,0.4C22,8.7,21.7,9,21.5,9.2c0,0-0.1,0.1,0,0.1c0.2,0.2,0.4,0.4,0.6,0.6c0.2,0.2,0.2,0.4,0,0.6
	c-0.2,0.2-0.4,0.2-0.6,0c-0.2-0.2-0.4-0.4-0.6-0.6c-0.1-0.1-0.1-0.1-0.1,0c-0.4,0.4-0.8,0.8-1.2,1.2c0,0.1-0.1,0.1,0,0.1
	c0,0,0.1,0.1,0.1,0.1c0.2,0.2,0.3,0.3,0.5,0.5c0.1,0.2,0.1,0.4,0,0.6c-0.2,0.1-0.4,0.2-0.6,0c-0.2-0.2-0.4-0.4-0.6-0.6
	c-0.1-0.1-0.1,0-0.1,0c-0.1,0.1-0.1,0.1-0.2,0.2c-0.1,0.1-0.1,0.1-0.2,0.2c-0.1,0.1-0.2,0.2-0.3,0.3c-0.2,0.2-0.3,0.3-0.5,0.5
	c-0.1,0.1-0.1,0.1,0,0.2c0.1,0.1,0.1,0.1,0.2,0.2c0.1,0.1,0.3,0.3,0.4,0.4c0.1,0.1,0.1,0.2,0.1,0.3c0,0.1,0,0.1,0,0.2
	c-0.1,0.3-0.4,0.3-0.7,0.1c-0.1-0.1-0.1-0.1-0.2-0.2c-0.1-0.1-0.2-0.2-0.4-0.3c0,0-0.1-0.1-0.1-0.1c0,0,0,0-0.1,0.1
	c-0.2,0.2-0.4,0.4-0.7,0.6c-0.2,0.2-0.3,0.3-0.5,0.5c-0.1,0.1-0.1,0.1,0,0.2c0.1,0.1,0.3,0.3,0.4,0.4v0c0.1,0.1,0.1,0.1,0.2,0.2
	c0.1,0.2,0,0.5-0.2,0.6c-0.2,0-0.3,0-0.4-0.1c-0.1-0.1-0.1-0.1-0.2-0.2c-0.1-0.1-0.3-0.3-0.4-0.4c0,0-0.1,0-0.1,0
	c-0.2,0.2-0.5,0.5-0.7,0.7c-0.1,0.1-0.3,0.3-0.4,0.4c-0.1,0.1-0.1,0.1,0,0.2l0,0c0.1,0.1,0.1,0.1,0.2,0.2c0.1,0.1,0.3,0.3,0.4,0.4
	c0.2,0.2,0.2,0.4,0,0.6c-0.2,0.2-0.4,0.2-0.6,0c-0.2-0.2-0.4-0.3-0.6-0.5c-0.1-0.1-0.1-0.1-0.1-0.1c0,0-0.1,0-0.1,0.1
	c0,0,0,0-0.1,0.1c-0.3,0.3-0.6,0.6-0.9,0.9c-0.1,0.1-0.1,0.1-0.2,0.2c-0.1,0.1,0,0.1,0,0.1c0.1,0.1,0.2,0.2,0.3,0.3l0,0
	c0,0,0.1,0.1,0.1,0.1c0.1,0.1,0.1,0.1,0.2,0.2c0.1,0.1,0.1,0.3,0,0.5c-0.1,0.2-0.4,0.3-0.7,0.1c-0.2-0.2-0.4-0.4-0.6-0.6
	c-0.1-0.1-0.1-0.1-0.2,0c-0.1,0.1-0.1,0.1-0.2,0.2c-0.1,0.1-0.1,0.1-0.2,0.2c-0.1,0.1-0.2,0.2-0.4,0.4c-0.2,0.2-0.3,0.3-0.5,0.5
	c-0.1,0.1,0,0.1,0,0.1c0.2,0.2,0.4,0.4,0.6,0.6c0.1,0.1,0.1,0.2,0.1,0.4c-0.1,0.3-0.4,0.4-0.7,0.2c0,0-0.1,0-0.1-0.1
	c-0.2-0.2-0.4-0.3-0.5-0.5c0,0-0.1-0.1-0.1,0c0,0-0.1,0.1-0.1,0.1c0,0-0.1,0.1-0.1,0.1c-0.1,0.1-0.2,0.2-0.4,0.4
	c-0.2,0.2-0.4,0.4-0.5,0.5l0,0c-0.1,0.1-0.1,0.1,0,0.2c0.1,0.1,0.3,0.3,0.4,0.4c0.2,0.2,0.4,0.4,0.6,0.6c0.1,0.1,0.3,0.3,0.4,0.4
	c0.3,0.3,0.5,0.5,0.8,0.8c0.1,0.1,0.1,0,0.1,0c0,0,0,0,0,0c0.1-0.1,0.2-0.2,0.2-0.2c0.2-0.2,0.5-0.5,0.7-0.7
	c0.7-0.7,1.4-1.4,2.1-2.1c1.4-1.4,2.8-2.8,4.2-4.2c0.4-0.4,0.8-0.8,1.2-1.2c0.3-0.3,0.6-0.6,0.9-0.9C20.5,14.7,21.4,13.9,22.3,13z"
	/>
</svg>
