<?xml version="1.0" encoding="utf-8"?>
<!-- Generator: Adobe Illustrator 28.3.0, SVG Export Plug-In . SVG Version: 6.00 Build 0)  -->
<svg version="1.1" id="Capa_1" xmlns="http://www.w3.org/2000/svg" xmlns:xlink="http://www.w3.org/1999/xlink" x="0px" y="0px"
	 viewBox="0 0 32 32" style="enable-background:new 0 0 32 32;" xml:space="preserve">
<style type="text/css">
	.st0{fill-rule:evenodd;clip-rule:evenodd;fill:#FFB600;}
</style>
<path class="st0" d="M0,16C0,7.2,7.2,0,16,0c8.8,0,16,7.2,16,16c0,8.8-7.2,16-16,16C7.2,32,0,24.8,0,16z M16.2,6.7
	c1.7,0,3.3,0.4,4.7,1.2c0.3,0.2,0.4,0.3,0.2,0.7l0,0c-0.2,0.3-0.4,0.5-0.5,0.5c-0.1,0-0.3,0-0.7-0.2l-0.1,0c-3.3-1.3-6.3-1-8.9,1.6
	c-2.9,2.9-4,6.4-3.1,10.5c0.2,0.6,0.4,1.2,0.8,1.8c0.5,0.7,1.1,1,2,1c0.5,0,0.9-0.2,1.2-0.6l0.1-0.1l0-0.1l0,0v0
	c0.2-0.3,0.4-0.6,0.7-0.9c0.5-0.6,1.2-1,2-1.1c0.3,0,0.4,0,0.3,0.3c0,0,0,0,0,0c0,0,0,0,0,0.1c0.1,0.6,0,1-0.8,1.2
	c-0.4,0.1-0.7,0.5-0.9,0.9l0,0h0v0c0,0.1-0.1,0.1-0.1,0.2c-0.9,1.6-2.5,1.8-3.9,1.4c-1-0.3-1.7-1-2.1-1.9c-1.2-2.7-1.4-5.5-0.5-8.2
	c1.2-3.5,3.4-6.2,6.9-7.6C14.4,6.8,15.3,6.7,16.2,6.7L16.2,6.7z M25,12c0.5-1.4,0.9-2.8,1-4.4l0,0c0,0,0-0.1,0-0.1v0
	c0-0.1,0-0.2,0-0.4C25.8,6,25,5.7,24.1,6.3C23.7,6.7,23.4,7,23,7.4c-1.6,2-2.7,4.4-3.8,6.7c-0.1,0.3,0,0.4,0.2,0.6
	c1,1,2.2,1.5,3.6,1.5c0.3,0,0.4-0.1,0.5-0.3C24,14.6,24.6,13.3,25,12z M18.7,15.5c1.1,1,2.3,1.6,3.7,1.7c0.3,0,0.2,0.2,0.1,0.3
	c-0.5,0.7-1,1.3-1.7,1.7c-0.3,0.2-0.4,0.3-0.1,0.6c0.5,0.7,0.5,1.5,0.3,2.3c-0.5,1.9-2.1,3.4-3.9,3.7c-0.5,0.1-0.9,0-1.4-0.1
	c-0.4-0.1-0.5-0.4-0.2-0.7c0.7-0.6,0.7-1.4,0.5-2.2c-0.2-0.5-0.3-1.1-0.2-1.7c0.2-1.3,1-2.1,2.2-2.4c0.5-0.1,0.6-0.3,0.5-0.8
	C18.3,17.1,18.5,16.4,18.7,15.5L18.7,15.5z M14.8,9.6c-0.6,0.2-0.9,0.8-0.9,1.6c0,0.5,0.2,1,0.7,1.5c0.8,0.7,1.8,0.4,2.1-0.6
	c0.2-0.6,0.1-1.2-0.3-1.8C15.9,9.7,15.3,9.4,14.8,9.6z M10.3,13.9c0-0.3,0.1-0.6,0.2-0.9c0.3-0.5,0.9-0.7,1.4-0.5
	c1,0.4,1.5,1.9,0.9,2.9c-0.4,0.6-1.1,0.8-1.7,0.4C10.6,15.3,10.3,14.6,10.3,13.9L10.3,13.9z M11.7,19.2
	C11.7,19.2,11.7,19.2,11.7,19.2L11.7,19.2C11.7,19.2,11.7,19.2,11.7,19.2z M10.8,20.8c0.5-0.2,0.9-0.7,0.9-1.6c0-0.5-0.2-1-0.7-1.5
	c-0.8-0.7-1.7-0.4-2,0.6c-0.2,0.6-0.1,1.3,0.3,1.8C9.7,20.7,10.3,21,10.8,20.8z"/>
</svg>
