<?xml version="1.0" encoding="utf-8"?>
<!-- Generator: Adobe Illustrator 28.3.0, SVG Export Plug-In . SVG Version: 6.00 Build 0)  -->
<svg version="1.1" id="Capa_1" xmlns="http://www.w3.org/2000/svg" xmlns:xlink="http://www.w3.org/1999/xlink" x="0px" y="0px"
	 viewBox="0 0 32 32" style="enable-background:new 0 0 32 32;" xml:space="preserve">
<style type="text/css">
	.st0{fill-rule:evenodd;clip-rule:evenodd;fill:#F05555;}
</style>
<path class="st0" d="M16,0C7.2,0,0,7.2,0,16c0,8.8,7.2,16,16,16c8.8,0,16-7.2,16-16C32,7.2,24.8,0,16,0z M24,19.5
	C24,19.6,24,19.6,24,19.5L24,19.5c0,1.7,0,3.3,0,4.9c0,0.4-0.2,0.6-0.6,0.6c-1,0-2,0-3,0c-0.5,0-1,0-1.5,0c-0.3,0-0.5-0.1-0.6-0.4
	c0-0.1,0-0.1,0-0.2c0-0.4-0.1-0.8-0.3-1.1c-0.3-0.5-0.7-0.8-1.2-1c-0.1-0.1-0.3-0.1-0.4-0.1c0,0-0.1,0-0.1,0c-0.1,0-0.2,0-0.4,0
	c-0.5,0-0.9,0.1-1.4,0.4c-0.3,0.2-0.6,0.6-0.8,0.9c-0.1,0.2-0.2,0.4-0.2,0.7c0,0.1,0,0.2,0,0.3c0,0.3-0.3,0.5-0.5,0.5
	c-1.3,0-2.7,0-4,0c-0.2,0-0.4,0-0.6,0C8.3,25,8,24.8,8,24.5c0-0.1,0-0.3,0-0.4c0-0.6,0-1.1,0-1.7c0-1,0-2,0-3c0-0.2,0.1-0.4,0.3-0.5
	c0.1-0.1,0.2-0.1,0.3-0.1c0.4,0,0.7,0,1.1,0h0c0.1,0,0.1,0,0.1-0.1c0-0.8,0-1.6,0-2.4c0-0.3,0-0.5,0-0.8v0c0-0.1,0-0.2,0-0.3
	c0.1-0.2,0.3-0.3,0.5-0.3c0.5,0,0.9,0,1.4,0c0.2,0,0.5,0,0.7,0h0.2c0,0,0,0,0,0c0,0,0,0,0,0v-2.8c0,0,0,0,0,0c0,0,0,0,0,0
	c0,0,0,0,0,0c0,0,0,0,0,0c-0.1,0-0.2,0-0.3,0c-0.2,0-0.4,0-0.7,0c-0.2,0-0.4-0.2-0.5-0.4c0-0.2,0-0.3,0.1-0.5
	c0.2-0.2,0.5-0.5,0.7-0.7c0.3-0.2,0.5-0.5,0.8-0.7c0,0,0.1-0.1,0.1-0.1c0.1-0.1,0.3-0.3,0.4-0.4c0.2-0.2,0.4-0.4,0.6-0.6
	c0.4-0.4,0.8-0.8,1.2-1.2c0.1-0.1,0.3-0.3,0.4-0.4c0.2-0.2,0.6-0.2,0.8,0c0.2,0.1,0.3,0.3,0.5,0.4c0.1,0.1,0.2,0.2,0.3,0.3
	C17.2,8,17.3,8,17.4,8.1c0.1,0.1,0.1,0.1,0.2,0.2c0.3,0.2,0.5,0.5,0.8,0.7c0.1,0.1,0.2,0.2,0.3,0.3c0.2,0.2,0.5,0.5,0.7,0.7
	c0.1,0.1,0.2,0.2,0.3,0.2c0.2,0.2,0.3,0.3,0.5,0.5c0.2,0.2,0.3,0.3,0.5,0.5c0.2,0.2,0.2,0.6,0,0.7C20.6,12,20.4,12,20.3,12
	c-0.2,0-0.3,0-0.5,0c-0.1,0-0.2,0-0.3,0c0,0,0,0-0.1,0c0,0,0,0,0,0v2.9c0,0,0,0,0,0c0,0,0,0,0,0c0.2,0,0.4,0,0.6,0
	c0.5,0,1.1,0,1.6,0c0.1,0,0.3,0,0.4,0.1c0.2,0.1,0.3,0.3,0.3,0.5c0,0.3,0,0.6,0,0.9c0,0.2,0,0.3,0,0.5v1.9c0,0,0,0,0,0c0,0,0,0,0,0
	h0.4c0.1,0,0.1,0,0.2,0c0.2,0,0.3,0,0.5,0c0.1,0,0.2,0,0.3,0.1c0.2,0.1,0.3,0.3,0.3,0.5C24,19.4,24,19.5,24,19.5z M20.7,16
	c-0.3,0-0.6,0-0.9,0h0c-0.4,0-0.7,0-1.1,0c-0.7,0-1.4,0-2.1,0c0,0-0.1,0-0.1,0c0,0,0,0,0,0v2.9h4.7c0,0,0-0.1,0-0.1v-2.5
	c0-0.1,0-0.1,0-0.2c0,0,0-0.1,0-0.1c0,0,0,0,0,0C21,16,20.9,16,20.7,16z M13.7,12v2.9h0h4.7c0,0,0,0,0,0c0,0,0,0,0-0.1v-2.5
	c0-0.1,0-0.1,0-0.2c0,0,0-0.1,0-0.1c0,0,0,0,0,0c0,0,0,0,0,0c-0.2,0-0.4,0-0.6,0c-0.4,0-0.8,0-1.1,0c-0.4,0-0.8,0-1.1,0
	c-0.6,0-1.1,0-1.7,0C13.7,12,13.7,12,13.7,12C13.7,12,13.7,12,13.7,12z M16.8,8.9c-0.3-0.2-0.5-0.5-0.8-0.7h0
	c-0.8,0.7-1.5,1.4-2.3,2.1c-0.2,0.2-0.5,0.4-0.7,0.6h5.9c0,0,0,0,0,0c0,0,0,0,0,0C18.2,10.3,17.5,9.6,16.8,8.9z M10.8,16
	C10.8,16,10.8,16,10.8,16l0,2.9h4.7c0,0,0,0,0,0c0,0,0,0,0-0.1v-2.5c0-0.1,0-0.1,0-0.2c0,0,0-0.1,0-0.1c0,0,0,0,0,0c0,0,0,0,0,0
	c-0.2,0-0.4,0-0.6,0c-0.4,0-0.9,0-1.3,0c-0.3,0-0.6,0-0.9,0C12.1,16,11.5,16,10.8,16C10.9,16,10.8,16,10.8,16z M19.4,23.9h3.6v0
	v-3.8c0-0.1,0-0.1,0-0.2c0,0,0-0.1,0-0.1c0,0,0,0,0,0c-0.2,0-0.3,0-0.5,0c-3.3,0-6.7,0-10,0c-0.4,0-0.7,0-1.1,0c-0.7,0-1.4,0-2.2,0
	c0,0-0.1,0-0.1,0c0,0,0,0,0,0v4h3.6c0.1-0.8,0.5-1.4,1.1-1.9c0.6-0.5,1.3-0.8,2.1-0.9c0.7,0,1.4,0.1,2,0.5
	C18.7,22.2,19.2,23,19.4,23.9z"/>
</svg>
