<?xml version="1.0" encoding="utf-8"?>
<!-- Generator: Adobe Illustrator 28.3.0, SVG Export Plug-In . SVG Version: 6.00 Build 0)  -->
<svg version="1.1" id="Capa_1" xmlns="http://www.w3.org/2000/svg" xmlns:xlink="http://www.w3.org/1999/xlink" x="0px" y="0px"
	 viewBox="0 0 32 32" style="enable-background:new 0 0 32 32;" xml:space="preserve">
<style type="text/css">
	.st0{fill-rule:evenodd;clip-rule:evenodd;fill:#0085CC;}
</style>
<path class="st0" d="M0,16C0,7.2,7.2,0,16,0c8.8,0,16,7.2,16,16c0,8.8-7.2,16-16,16C7.2,32,0,24.8,0,16z M24,25.7
	c0-0.4-0.2-0.8-0.4-1.2c-0.4-0.6-0.7-1.1-1-1.7l0,0l0,0l0,0l0,0l0,0l0,0l0,0l0,0l0,0l0,0c-0.2-0.3-0.4-0.6-0.6-1
	c-0.5-0.8-1-1.6-1.4-2.4c-0.3-0.5-0.6-1-0.9-1.5c-0.5-0.8-0.9-1.5-1.4-2.3c-0.1-0.2-0.1-0.3-0.1-0.5c0-0.9,0-1.9,0-2.8
	c0-0.3,0-0.6,0-0.9c0-0.2,0.1-0.2,0.2-0.2c0.7,0,1.3-0.6,1.2-1.3c-0.1-0.6-0.6-1.1-1.2-1.1c-1.6,0-3.2,0-4.8,0
	c-0.8,0-1.3,0.7-1.1,1.5c0.1,0.6,0.7,0.9,1.3,0.9c0.1,0,0.1,0,0.1,0.1c0,1.3,0,2.6,0,3.9c0,0.2,0,0.3-0.1,0.4
	c-0.5,0.8-0.9,1.6-1.4,2.3l0,0l0,0l0,0c-0.7,1.1-1.3,2.3-2,3.4c-0.2,0.4-0.4,0.7-0.7,1.1c-0.4,0.7-0.8,1.4-1.2,2.1
	c-0.2,0.3-0.3,0.6-0.4,0.9c-0.2,0.7,0.1,1.3,0.9,1.5C9.2,27,9.4,27,9.7,27H16l2.1,0c1.4,0,2.8,0,4.2,0c0.3,0,0.7,0,1-0.2
	C23.8,26.6,24,26.2,24,25.7L24,25.7z M13.8,10.5L13.8,10.5L13.8,10.5c-0.2,0-0.3,0-0.4,0c-0.2-0.1-0.4-0.3-0.4-0.6
	c0-0.3,0.2-0.5,0.5-0.5c0.1,0,0.2,0,0.3,0c1,0,2,0,3,0h0l1.5,0c0.2,0,0.4,0,0.5,0.2c0.2,0.2,0.2,0.4,0.1,0.6
	c-0.1,0.2-0.3,0.4-0.5,0.4c-0.2,0-0.4,0-0.7,0l0,0h0h0c-0.1,0-0.1,0-0.2,0H16v0L13.8,10.5L13.8,10.5L13.8,10.5z M23.1,26.2
	c-0.3,0.1-0.5,0.1-0.8,0.1c-0.8,0-1.6,0-2.4,0c-0.8,0-1.6,0-2.4,0H16c-1.9,0-3.8,0-5.7,0c-0.1,0-0.2,0-0.3,0h0h0h0h0h0h0h0h0h0
	c-0.2,0-0.4,0-0.6,0c-0.2,0-0.3,0-0.4-0.1c-0.2-0.1-0.3-0.3-0.3-0.6c0-0.3,0.1-0.5,0.3-0.7c0.7-1.1,1.3-2.2,2-3.3
	c0.3-0.4,0.5-0.8,0.8-1.3c0.4-0.7,0.8-1.3,1.2-2l0,0c0.5-0.9,1-1.8,1.6-2.6c0.1-0.1,0.1-0.3,0.1-0.5c0-0.4,0-0.7,0-1.1
	c0-1,0-1.9,0-2.9c0-0.1,0-0.2,0.2-0.1c0.9,0,1.8,0,2.7,0c0.1,0,0.1,0,0.1,0.1c0,0.9,0,1.8,0,2.8c0,0.1,0,0.3,0,0.4v0v0v0v0v0v0v0v0
	v0c0,0.3,0,0.5,0,0.8c0,0.2,0.1,0.4,0.2,0.6c0.6,1.1,1.3,2.1,1.9,3.2l0.3,0.4c0.8,1.3,1.6,2.7,2.4,4c0.3,0.5,0.6,0.9,0.8,1.4
	c0.2,0.3,0.3,0.6,0.3,0.9C23.4,26,23.3,26.1,23.1,26.2L23.1,26.2z M16.3,2.6c0,0.3-0.3,0.6-0.6,0.6c-0.3,0-0.6-0.3-0.6-0.6
	c0-0.3,0.3-0.6,0.6-0.6C16,2,16.3,2.3,16.3,2.6z M16,2.6c0-0.2-0.1-0.3-0.3-0.3c-0.2,0-0.3,0.1-0.3,0.3c0,0.2,0.1,0.3,0.3,0.3
	C15.9,2.9,16,2.7,16,2.6z M17.3,8c0.6,0,1.1-0.5,1.1-1.1c0-0.6-0.5-1.1-1.1-1.1c-0.6,0-1.1,0.5-1.1,1.1C16.3,7.5,16.8,8,17.3,8
	L17.3,8z M17.4,6.3c0.3,0,0.6,0.3,0.6,0.6c0,0.3-0.3,0.6-0.6,0.6c-0.3,0-0.6-0.3-0.6-0.6C16.7,6.6,17,6.3,17.4,6.3z M15.7,5.3
	c0,0.6-0.5,1.2-1.2,1.2h0c-0.6,0-1.2-0.5-1.2-1.2c0-0.6,0.5-1.2,1.2-1.2C15.1,4.1,15.7,4.6,15.7,5.3z M15.1,5.3
	c0-0.3-0.2-0.6-0.6-0.6v0c-0.3,0-0.6,0.2-0.6,0.6c0,0.3,0.2,0.6,0.6,0.6C14.8,5.9,15,5.6,15.1,5.3z M19.6,21
	c-0.2-0.3-0.4-0.5-0.7-0.7c-1-0.7-2.2-0.6-3.1,0.2c0,0-0.1,0.1-0.1,0.1v0c-0.1,0.1-0.2,0.1-0.2,0.2c-0.6,0.5-1.3,0.6-2,0.3
	c-0.1-0.1-0.3-0.1-0.4-0.2l0,0c0,0-0.1-0.1-0.1-0.1c-0.2-0.1-0.3-0.1-0.4,0.1c0,0,0,0.1-0.1,0.1c-0.3,0.5-0.6,1-0.9,1.5l0,0l0,0
	c-0.3,0.5-0.6,1-0.9,1.5c-0.1,0.2-0.2,0.4-0.3,0.6c-0.1,0.5,0.1,1,0.6,1.1c0.2,0.1,0.3,0.1,0.5,0.1c0.1,0,0.3,0,0.4,0
	c0.2,0,0.3,0,0.5,0c0.8,0,1.5,0,2.4,0h0h0h0h0h0h0c0.4,0,0.9,0,1.3,0c0.5,0,1,0,1.6,0l0,0h0l0,0h0l0,0h0l0,0h0l0,0l0,0
	c0.8,0,1.7,0,2.6,0c0.3,0,0.5,0,0.7-0.1c0.4-0.1,0.6-0.4,0.6-0.8c0-0.3-0.2-0.6-0.3-0.9c-0.2-0.3-0.4-0.7-0.6-1l0,0
	C20.3,22.2,19.9,21.6,19.6,21L19.6,21z M20.7,25c-0.1,0-0.3,0.1-0.4,0.1H16c-1.4,0-2.9,0-4.3,0c-0.2,0-0.3,0-0.5,0
	C11.1,25,11,24.9,11,24.7c0-0.2,0.1-0.3,0.2-0.5c0.6-0.9,1.1-1.8,1.6-2.6c0.1-0.1,0.1-0.1,0.2-0.1c1,0.6,2,0.5,2.9-0.2
	c0.1-0.1,0.1-0.1,0.2-0.2l0,0l0,0l0,0l0,0l0,0c0.1-0.1,0.3-0.3,0.5-0.4c0.5-0.3,1.1-0.4,1.7-0.1c0,0,0.1,0,0.1,0l0,0l0,0l0,0h0
	c0.1,0,0.1,0.1,0.2,0.1c0.2,0.1,0.4,0.3,0.5,0.6c0.2,0.5,0.5,0.9,0.8,1.3c0.2,0.4,0.5,0.8,0.7,1.1c0,0.1,0.1,0.2,0.2,0.2
	c0.1,0.1,0.1,0.2,0.2,0.3c0.1,0.1,0.1,0.3,0.1,0.4C21,24.9,20.9,25,20.7,25L20.7,25z M13.1,24.2c0-0.2,0.1-0.3,0.3-0.3
	c0.2,0,0.3,0.1,0.3,0.3c0,0.2-0.1,0.3-0.3,0.3C13.2,24.5,13.1,24.4,13.1,24.2z M13.6,22.2c-0.2,0-0.3,0.1-0.3,0.3
	c0,0.2,0.1,0.3,0.3,0.3c0.2,0,0.3-0.1,0.3-0.3C13.9,22.3,13.7,22.2,13.6,22.2L13.6,22.2z M18.8,23.7c0-0.2,0.1-0.3,0.3-0.3h0
	c0.2,0,0.3,0.1,0.3,0.3c0,0.2-0.1,0.3-0.3,0.3C19,24,18.8,23.9,18.8,23.7z M15.9,22.9c-0.2,0-0.3,0.1-0.3,0.3c0,0.2,0.1,0.3,0.3,0.3
	c0.2,0,0.3-0.1,0.3-0.3C16.2,23.1,16.1,22.9,15.9,22.9L15.9,22.9z M17.5,21.8c0-0.2,0.1-0.3,0.3-0.3c0.2,0,0.3,0.1,0.3,0.3
	c0,0.2-0.2,0.3-0.3,0.3C17.7,22.1,17.5,21.9,17.5,21.8z"/>
</svg>
