<?xml version="1.0" encoding="utf-8"?>
<!-- Generator: Adobe Illustrator 28.3.0, SVG Export Plug-In . SVG Version: 6.00 Build 0)  -->
<svg version="1.1" id="Capa_1" xmlns="http://www.w3.org/2000/svg" xmlns:xlink="http://www.w3.org/1999/xlink" x="0px" y="0px"
	 viewBox="0 0 34 34" style="enable-background:new 0 0 34 34;" xml:space="preserve">
<style type="text/css">
	.st0{fill:#544998;}
</style>
<path class="st0" d="M17,0C7.6,0,0,7.6,0,17c0,9.4,7.6,17,17,17c9.4,0,17-7.6,17-17C34,7.6,26.4,0,17,0z M10.9,23.4
	c-0.1,0.2-0.2,0.2-0.4,0.1c-0.4-0.1-0.7-0.4-0.9-0.6c-0.6-0.7-1.1-1.5-1.1-2.5c0.1-0.3,0.1-0.6,0.2-0.9c0-0.2,0.2-0.3,0.3-0.2
	c0.2,0,0.2,0.2,0.2,0.4c-0.3,1.2,0.2,2.4,1.2,3.1c0.1,0.1,0.3,0.1,0.4,0.2C10.9,23.2,11,23.3,10.9,23.4z M11.6,22.1
	c-0.1,0.1-0.2,0.2-0.4,0.1C10.5,22,10,21.2,10,20.4c0-0.2,0-0.3,0.1-0.5c0-0.2,0.2-0.3,0.3-0.2c0.2,0,0.2,0.2,0.2,0.4
	c-0.2,0.6,0,1,0.4,1.4c0.1,0.1,0.3,0.2,0.4,0.3C11.5,21.9,11.6,22,11.6,22.1L11.6,22.1z M22.7,23.2c-0.4,0.6-0.8,1-1.4,1.4
	c-1,0.7-2,1-3.2,1c-1.3-0.1-2.4-0.7-3.4-1.5c-0.7-0.6-1.1-1.3-1.6-2.1c-1.1-1.8-2.1-3.5-3.2-5.3c-0.5-0.8-0.2-1.7,0.5-2.1
	c0.1-0.1,0.2-0.1,0.3,0.1c0.5,0.8,1,1.7,1.5,2.5c0,0.1,0.1,0.1,0.1,0.2c0.1,0.1,0.2,0.2,0.4,0.1c0.1-0.1,0.2-0.2,0.1-0.4
	c0-0.1-0.1-0.2-0.2-0.3c-0.7-1.2-1.4-2.3-2.1-3.5c-0.4-0.7-0.2-1.7,0.6-2.1c0.1-0.1,0.2-0.1,0.3,0.1c0.9,1.5,1.8,2.9,2.7,4.4
	c0,0,0,0.1,0.1,0.1c0.1,0.1,0.2,0.2,0.4,0.1c0.1-0.1,0.2-0.2,0.1-0.4c-0.2-0.4-0.4-0.7-0.7-1.1c-0.7-1.2-1.5-2.4-2.2-3.6
	c-0.4-0.6-0.3-1.2,0.1-1.7c0.6-0.7,1.7-0.6,2.3,0.2c0.6,0.9,1.1,1.8,1.7,2.7c0.3,0.5,0.7,1.1,1,1.6c0.1,0.2,0.3,0.2,0.4,0.2
	c0.1-0.1,0.2-0.2,0-0.4c-0.8-1.3-1.6-2.5-2.3-3.8c-0.1-0.2-0.1-0.2,0.1-0.3c0.6-0.5,1.6-0.3,2,0.4c0.3,0.4,0.5,0.8,0.8,1.2
	c0.7,1.1,1.4,2.3,2.1,3.4c0,0,0.1,0.1,0.1,0.1c0,0,0,0,0,0c0-0.3,0-0.5,0-0.8c0-0.7,0.6-1.3,1.3-1.3c0.8,0,1.4,0.5,1.5,1.2
	c0.1,1.1,0.2,2.2,0.3,3.3c0.1,1.2,0.2,2.3,0.3,3.5C23.4,21.2,23.3,22.2,22.7,23.2L22.7,23.2z M24.1,13.4c0,0.2-0.1,0.3-0.3,0.3
	c-0.2,0-0.2-0.1-0.2-0.3c0,0,0-0.1,0-0.1c0-0.7-0.4-1.3-1-1.5c-0.2-0.1-0.2-0.2-0.2-0.3c0-0.1,0.2-0.2,0.3-0.2
	c0.1,0,0.2,0.1,0.3,0.1C23.7,11.8,24.2,12.6,24.1,13.4L24.1,13.4z M25.4,13.5c0,0.2-0.2,0.3-0.3,0.3c-0.2,0-0.2-0.2-0.2-0.3
	c0.2-1.2-0.4-2.2-1.4-2.9c-0.2-0.1-0.4-0.2-0.5-0.2c-0.2-0.1-0.3-0.2-0.2-0.3c0-0.2,0.2-0.2,0.4-0.2c0.5,0.1,1,0.4,1.3,0.8
	c0.6,0.7,1,1.5,1,2.3C25.5,13.2,25.5,13.4,25.4,13.5L25.4,13.5z"/>
</svg>
