<?xml version="1.0" encoding="utf-8"?>
<!-- Generator: Adobe Illustrator 28.3.0, SVG Export Plug-In . SVG Version: 6.00 Build 0)  -->
<svg version="1.1" id="Capa_1" xmlns="http://www.w3.org/2000/svg" xmlns:xlink="http://www.w3.org/1999/xlink" x="0px" y="0px"
	 viewBox="0 0 32 32" style="enable-background:new 0 0 32 32;" xml:space="preserve">
<style type="text/css">
	.st0{fill-rule:evenodd;clip-rule:evenodd;fill:#ED72A7;}
</style>
<path class="st0" d="M16,0C7.2,0,0,7.2,0,16c0,8.8,7.2,16,16,16c8.8,0,16-7.2,16-16C32,7.2,24.8,0,16,0z M26,17
	c0.4,0.6,0.7,1.3,0.9,2.1l0,0c0.2,1.1,0.1,2.3-0.3,3.3c-0.4,0.9-1,1.7-1.8,2.3c-0.7,0.5-1.5,0.9-2.4,1.1c-1.8,0.4-3.5,0.1-5-1
	c-0.5-0.3-0.9-0.7-1.2-1.2c-0.1-0.1-0.1-0.1-0.1,0c-0.9,1.2-2.1,1.9-3.6,2.2C11,26.1,9.8,26,8.6,25.5c-1.2-0.5-2.1-1.3-2.8-2.4
	c-0.4-0.7-0.7-1.4-0.8-2.2c-0.2-1.3,0.1-2.6,0.7-3.7c0.6-1.1,1.6-1.9,2.8-2.4c0.6-0.2,1.2-0.4,1.8-0.5c0.1,0,0.1,0,0.1-0.1
	c-0.2-0.6-0.4-1.1-0.5-1.7c-0.1-0.6,0-1.1,0.1-1.7c0.3-1.3,0.9-2.4,1.9-3.3c0.9-0.8,1.9-1.2,3-1.5c1.2-0.2,2.4-0.1,3.5,0.4
	C18.7,6.6,19,6.8,19.3,7c0.2,0.1,0.3,0.3,0.2,0.5c-0.1,0.2-0.4,0.3-0.6,0.2c-0.4-0.3-0.9-0.5-1.4-0.7c-0.4-0.1-0.8-0.2-1.2-0.2
	c-1.3-0.1-2.5,0.3-3.5,1.1c-1,0.8-1.7,1.8-1.9,3c-0.2,1.5,0.1,2.9,1.2,4.1c0.4,0.4,0.8,0.8,1.3,1.1c0.5,0.3,1.1,0.5,1.7,0.6
	c1.1,0.2,2.3,0.1,3.3-0.5c1.6-0.8,2.5-2.1,2.8-3.9c0.1-0.7,0.1-1.3-0.1-2c0-0.1,0-0.1,0-0.2c-0.1-0.2,0.1-0.4,0.3-0.5
	c0.2-0.1,0.4,0,0.5,0.3c0.2,0.6,0.3,1.1,0.3,1.9c0,0.6-0.2,1.4-0.5,2.1c0,0.1,0,0.1,0.1,0.1c0.9,0.1,1.7,0.3,2.4,0.8
	C24.8,15.6,25.5,16.2,26,17z M14.4,24c0.7-0.5,1.2-1.2,1.5-2h0c0.3-0.7,0.4-1.3,0.4-2c0-0.8-0.2-1.5-0.6-2.2c0-0.1-0.1-0.1-0.1-0.1
	c-0.7,0-1.3-0.2-1.9-0.4c-1.1-0.5-2-1.2-2.7-2.2c0,0-0.1-0.1-0.1-0.1c-0.7,0.1-1.3,0.2-1.9,0.4c-0.7,0.3-1.3,0.7-1.8,1.2
	c-0.8,1-1.3,2.1-1.3,3.5c0,0.2,0,0.5,0.1,0.8c0.2,1.2,0.8,2.2,1.8,3c0.9,0.8,2,1.1,3.3,1.1C12.3,25.2,13.4,24.8,14.4,24z M22,25.1
	c1.1-0.2,2.1-0.7,2.8-1.6l0,0c0.9-1,1.2-2.1,1.2-3.3c0-0.4,0-0.7-0.1-1c-0.3-1.4-1.1-2.5-2.4-3.3c-0.8-0.4-1.6-0.7-2.5-0.7
	c-0.1,0-0.1,0-0.1,0.1c-0.3,0.4-0.6,0.7-0.9,1c-1,0.8-2.1,1.3-3.3,1.5c-0.1,0-0.1,0-0.1,0.1c0.4,0.9,0.6,1.9,0.5,2.9
	c-0.1,0.7-0.3,1.3-0.6,2c0,0.1,0,0.1,0,0.2c0.5,0.7,1.1,1.3,1.8,1.7C19.5,25.2,20.7,25.3,22,25.1z M13.3,13
	c-0.1,0.1-0.2,0.2-0.2,0.4c0,0.2,0.1,0.3,0.3,0.4c0.8,0.6,1.7,0.8,2.6,0.8c0.7,0,1.4-0.2,2-0.4c0.3-0.1,0.6-0.3,0.8-0.5
	c0.1-0.1,0.2-0.3,0.1-0.4c-0.1-0.2-0.4-0.4-0.7-0.2c-0.6,0.4-1.2,0.6-2,0.7c-0.9,0-1.7-0.1-2.4-0.7c0,0-0.1-0.1-0.1-0.1
	C13.5,12.9,13.4,12.9,13.3,13L13.3,13z M17.8,9.4c0.2,0,0.4,0.1,0.4,0.4l0,0c0,0.1,0,0.2,0,0.4v0l0,0l0,0l0,0l0,0v0l0,0l0,0
	c0,0.1,0,0.1,0,0.2c0,0.1,0,0.1,0,0.2v0c0,0.1,0,0.2,0,0.3c0,0.3-0.3,0.4-0.5,0.4c-0.2-0.1-0.3-0.2-0.3-0.3c0-0.3,0-0.7,0-1
	C17.4,9.5,17.6,9.4,17.8,9.4z M14.5,9.7c0-0.2-0.1-0.3-0.3-0.3c-0.3-0.1-0.6,0.1-0.6,0.4c0,0.3,0,0.6,0,0.9c0,0.2,0.2,0.4,0.5,0.4
	c0.2,0,0.4-0.2,0.4-0.4v-0.4h0c0-0.1,0-0.1,0-0.2v0C14.5,10,14.5,9.8,14.5,9.7L14.5,9.7z M21,8.7c0,0.2-0.2,0.4-0.4,0.4v0
	c-0.2,0-0.4-0.2-0.4-0.4c0-0.2,0.2-0.4,0.4-0.4C20.8,8.3,21,8.5,21,8.7z M13.7,21.4c-0.1,0-0.1,0.1-0.2,0.1c-0.1,0.1-0.2,0.1-0.4,0
	c-0.1-0.1-0.3-0.2-0.4-0.2c-0.3-0.2-0.7-0.2-1,0c-0.2,0.1-0.3,0.2-0.4,0.2l0,0l0,0l0,0h0v0h0c0,0-0.1,0-0.1,0.1
	c-0.1,0.1-0.2,0.1-0.3,0c-0.1-0.1-0.2-0.1-0.3-0.2c-0.5-0.3-0.9-0.3-1.4,0l0,0c-0.1,0-0.2,0.1-0.2,0.2c-0.1,0.1-0.2,0.1-0.4,0
	c-0.1,0-0.1-0.1-0.2-0.1c-0.2-0.1-0.4-0.1-0.5,0.1c-0.1,0.2-0.1,0.4,0,0.5c0.4,0.4,0.9,0.5,1.5,0.2c0.1-0.1,0.2-0.1,0.4-0.2
	c0.1-0.1,0.2-0.1,0.3,0c0.1,0.1,0.2,0.2,0.4,0.2c0.4,0.2,0.8,0.2,1.2,0c0.1-0.1,0.2-0.1,0.4-0.2c0.1-0.1,0.2-0.1,0.3,0
	c0.1,0.1,0.3,0.2,0.4,0.3c0.2,0.1,0.3,0.2,0.5,0.2c0.3,0,0.6-0.1,0.8-0.3c0.2-0.1,0.2-0.4,0.1-0.6C14.1,21.3,13.9,21.2,13.7,21.4
	L13.7,21.4z M9.6,19.1c-0.3,0-0.6,0-0.8,0l0,0c-0.4,0-0.6-0.3-0.4-0.6c0.1-0.2,0.2-0.2,0.4-0.2c0.1,0,0.2,0,0.3,0h0h0h0h0
	c0.1,0,0.1,0,0.2,0v0c0,0,0.1,0,0.1,0c0.1,0,0.2,0,0.3,0c0.2,0,0.3,0.1,0.4,0.2c0.1,0.2,0.1,0.3-0.1,0.4C9.9,19.1,9.8,19.1,9.6,19.1
	L9.6,19.1z M12.4,19.1c0.4,0,0.7,0,1.1,0c0.2,0,0.3-0.1,0.3-0.2c0.1-0.3-0.1-0.5-0.4-0.6c-0.1,0-0.2,0-0.3,0h0l0,0h0h0h0h0
	c-0.1,0-0.1,0-0.2,0c-0.1,0-0.1,0-0.2,0h0l0,0h0c-0.1,0-0.2,0-0.3,0c-0.2,0-0.4,0.2-0.4,0.4C12,18.9,12.2,19.1,12.4,19.1L12.4,19.1z
	 M21.6,20.8c0.7,0.1,1.4,0.3,2,0.8h0c0.1,0.1,0.2,0.2,0.2,0.4c0,0.3-0.4,0.5-0.7,0.3l0,0h0c-0.1-0.1-0.3-0.2-0.4-0.3
	c-0.6-0.3-1.2-0.4-1.5-0.4c-1.1,0-1.8,0.2-2.5,0.7c-0.3,0.2-0.6,0.1-0.7-0.2c-0.1-0.2,0-0.3,0.1-0.5c0.3-0.2,0.6-0.4,1-0.6
	C20,20.8,20.8,20.7,21.6,20.8z M18.3,18.9c0,0,0.1,0.1,0.1,0.1l0.1,0.1c0.1,0.1,0.3,0.1,0.4,0.2c0,0,0,0,0.1,0v0
	c0.1,0,0.2,0.1,0.3,0.1c0.3,0.1,0.5-0.1,0.5-0.4c0-0.1-0.1-0.3-0.2-0.3c-0.2-0.1-0.4-0.2-0.6-0.3c0,0-0.1,0-0.1,0
	c-0.1-0.1-0.2-0.1-0.3-0.1c-0.2-0.1-0.4,0-0.5,0.2C18.1,18.5,18.1,18.7,18.3,18.9L18.3,18.9z M22.8,19.3c-0.1,0-0.1,0.1-0.2,0.1h0
	c-0.2,0.1-0.4,0-0.5-0.2c-0.1-0.2-0.1-0.4,0.1-0.5c0.3-0.2,0.7-0.4,1-0.5c0.3-0.1,0.6,0.1,0.6,0.4c0,0.1-0.1,0.2-0.2,0.3
	C23.3,19,23,19.1,22.8,19.3z"/>
</svg>
