<?xml version="1.0" encoding="utf-8"?>
<!-- Generator: Adobe Illustrator 28.3.0, SVG Export Plug-In . SVG Version: 6.00 Build 0)  -->
<svg version="1.1" id="Capa_1" xmlns="http://www.w3.org/2000/svg" xmlns:xlink="http://www.w3.org/1999/xlink" x="0px" y="0px"
	 viewBox="0 0 31.9 32" style="enable-background:new 0 0 31.9 32;" xml:space="preserve">
<style type="text/css">
	.st0{fill:#FFB600;}
</style>
<path class="st0" d="M13.3,16.7c0-0.6-0.3-1-0.9-1c-0.3,0-0.6-0.3-0.4-0.6c0.1-0.1,0.3-0.2,0.4-0.2c0.7,0,1.3,0.4,1.6,1.1
	c0.3,0.8,0.1,1.5-0.5,2c-0.1,0.1-0.3,0.2-0.4,0.3c0.3,0.3,0.6,0.5,0.9,0.4c0.4-0.1,0.6-0.4,0.6-0.8c0-0.5,0-0.9,0-1.4
	c0-0.7,0-1.4,0-2.1c-0.4,0.3-0.6,0.3-0.8,0c-0.3-0.6-0.7-0.8-1.2-1c-0.3-0.1-0.6-0.4-0.9-0.6c-0.2-0.2-0.4-0.2-0.5,0
	c-0.1,0.3-0.1,0.5,0.1,0.7c0.2,0.3,0.2,0.5-0.1,0.7c-0.7,0.4-0.7,1.4,0.1,1.7c0.3,0.1,0.3,0.3,0.2,0.6c0,0.1-0.1,0.2-0.1,0.3
	c0,0.5,0.3,0.9,0.8,1C12.7,17.7,13.3,17.2,13.3,16.7L13.3,16.7z"/>
<path class="st0" d="M20.5,14.1c-0.4-0.2-0.4-0.4-0.1-0.7c0.1-0.2,0.2-0.4,0.1-0.7c-0.2-0.3-0.4-0.3-0.6-0.1c-0.5,0.7-1.3,0.8-2,0.3
	c-0.2-0.1-0.3-0.3-0.1-0.5c0.1-0.2,0.3-0.2,0.5-0.2c0,0,0.1,0,0.1,0.1c0.5,0.2,0.8,0.2,1-0.4c0-0.1,0-0.1,0.1-0.2
	c0.1-0.2,0.1-0.4-0.1-0.6c-0.2-0.2-0.4-0.3-0.7-0.2c-0.3,0.1-0.5,0.1-0.6-0.2c-0.1-0.3-0.4-0.4-0.7-0.3c-0.3,0.1-0.5,0.3-0.5,0.6
	c0,2.2,0,4.5,0,6.7c0,0.4,0.3,0.8,0.7,0.8c0.4,0.1,0.8-0.2,1-0.6c0.1-0.4,0.2-0.5,0.7-0.4c0.5,0.1,1-0.3,1-0.8
	c0-0.2-0.1-0.3-0.3-0.3c-0.3,0-0.6,0-0.8-0.1c-0.3-0.1-0.6,0-0.8,0.2c-0.1,0.1-0.2,0.3-0.3,0.5c-0.1,0.2-0.3,0.3-0.5,0.2
	c-0.2-0.1-0.3-0.3-0.3-0.5c0-0.1,0.1-0.2,0.1-0.3c0.2-0.3,0.5-0.6,0.8-0.9c0,0-0.1-0.1-0.1-0.2c-0.2-0.4-0.2-0.8-0.1-1.2
	c0-0.3,0.2-0.4,0.5-0.4c0.2,0,0.4,0.2,0.3,0.5c0,0,0,0.1,0,0.1c-0.1,0.6,0.3,1.1,0.9,1.2c0.2,0,0.4,0,0.6,0c0.4,0,0.7-0.3,0.8-0.7
	C21,14.7,20.8,14.3,20.5,14.1L20.5,14.1z"/>
<path class="st0" d="M14.7,14v-1.3c-0.2,0.2-0.4,0.3-0.6,0.5C14.3,13.4,14.5,13.7,14.7,14z"/>
<path class="st0" d="M12.8,12.5c0.4,0.1,0.8,0.1,1-0.2c0.4-0.4,0.4-0.4,0.8-0.1c0-0.4,0-0.8,0-1.2c0-0.3-0.3-0.5-0.5-0.5
	c-0.3,0-0.5,0.1-0.6,0.3c-0.2,0.3-0.3,0.4-0.6,0.2c-0.4-0.1-0.8,0.1-0.8,0.6C12.2,11.9,12.4,12.3,12.8,12.5z"/>
<path class="st0" d="M16,0C7.2,0,0,7.2,0,16c0,8.8,7.2,16,16,16c8.8,0,16-7.2,16-16C32,7.2,24.8,0,16,0z M21,10.1
	c0.7-0.7,1.3-1.3,2-2C23.1,8,23.3,7.9,23.4,8c0.1,0,0.2,0.2,0.3,0.3c-0.1,0.1-0.1,0.3-0.2,0.3c-0.7,0.7-1.3,1.3-2,2
	c-0.2,0.2-0.4,0.2-0.6,0.1C20.8,10.5,20.8,10.3,21,10.1z M15.2,5.3c0-0.3,0.2-0.5,0.4-0.5C15.8,4.8,16,5,16,5.3c0,0.5,0,0.9,0,1.4
	c0,0.4,0,0.9,0,1.3c0,0.3-0.2,0.5-0.4,0.5c-0.2,0-0.4-0.2-0.4-0.5C15.2,7.1,15.2,6.2,15.2,5.3L15.2,5.3z M8.2,8
	c0.2-0.2,0.4-0.2,0.5,0c0.7,0.7,1.4,1.4,2.1,2.1c0.1,0.1,0.1,0.2,0.1,0.2c0,0.4-0.3,0.5-0.6,0.4c-0.1,0-0.2-0.1-0.2-0.2
	C9.5,9.9,8.9,9.3,8.3,8.7c0,0-0.1-0.1-0.1-0.1C8,8.4,8,8.2,8.2,8L8.2,8z M8.9,16c-0.5,0-0.9,0-1.4,0c-0.4,0-0.9,0-1.3,0
	c-0.3,0-0.5-0.1-0.5-0.4s0.2-0.4,0.5-0.4c0.9,0,1.8,0,2.7,0c0.3,0,0.5,0.2,0.5,0.4C9.4,15.8,9.2,16,8.9,16L8.9,16z M10.6,16.6
	c0-0.2,0-0.3-0.2-0.4c-0.7-0.7-0.7-1.7-0.1-2.4c0.1-0.1,0.1-0.2,0.1-0.4c-0.2-0.7,0.1-1.3,0.7-1.6c0.1-0.1,0.2-0.2,0.2-0.3
	c0.1-0.8,0.7-1.3,1.5-1.3c0.1,0,0.2-0.1,0.3-0.1c0.4-0.4,0.9-0.5,1.5-0.3c0.6,0.2,0.9,0.7,0.9,1.3c0,1.1,0,2.3,0,3.4
	c0,1.1,0,2.2,0,3.3c0,0.7-0.4,1.3-1.1,1.5c-0.7,0.3-1.3,0.2-1.8-0.4c-0.3-0.3-0.6-0.5-1-0.6C11,18.2,10.5,17.4,10.6,16.6L10.6,16.6z
	 M12.6,19.7c0-0.1,0.2-0.2,0.3-0.3c0.1,0.1,0.3,0.2,0.3,0.3c0.4,0.5,0.7,1.1,0.9,1.8c0.1,0.3,0,0.5-0.2,0.5c-0.2,0.1-0.4,0-0.5-0.3
	c-0.2-0.5-0.5-1-0.7-1.5C12.6,20,12.6,19.8,12.6,19.7z M16.4,27.2c-0.4,0-0.8,0-1.2,0c-0.2,0-0.4-0.1-0.4-0.4c0-0.2,0.2-0.4,0.4-0.4
	c0.1,0,0.2,0,0.3,0c0.1,0,0.2,0,0.3,0c0.2,0,0.4,0,0.6,0c0.2,0,0.4,0.1,0.4,0.4C16.9,27,16.7,27.2,16.4,27.2L16.4,27.2z M17.6,25.9
	c-0.6,0-1.2,0-1.8,0c-0.6,0-1.2,0-1.8,0c-0.3,0-0.5-0.2-0.5-0.4c0-0.2,0.2-0.4,0.5-0.4c1.2,0,2.4,0,3.5,0c0.3,0,0.5,0.2,0.5,0.4
	S17.9,25.9,17.6,25.9L17.6,25.9z M18,24.7c-0.8,0-1.6,0-2.3,0c-0.7,0-1.3,0-2,0c-0.2,0-0.4-0.1-0.5-0.3c-0.1-0.3,0.1-0.5,0.5-0.5
	c0.7,0,1.5,0,2.2,0c0.7,0,1.4,0,2.2,0c0.2,0,0.4,0,0.5,0.3C18.6,24.5,18.4,24.7,18,24.7z M18,23.5c-0.7,0-1.4,0-2.2,0s-1.4,0-2.2,0
	c-0.3,0-0.5-0.2-0.5-0.4c0-0.2,0.2-0.4,0.5-0.4c1.4,0,2.9,0,4.3,0c0.3,0,0.5,0.2,0.5,0.4S18.3,23.5,18,23.5L18,23.5z M19,20
	c-0.3,0.6-0.5,1.2-0.8,1.8C18.1,21.9,18,22,17.9,22c-0.3,0-0.5-0.2-0.5-0.5c0.2-0.7,0.5-1.4,0.9-2c0.1-0.2,0.3-0.2,0.5-0.1
	C19.1,19.7,19.1,19.8,19,20L19,20z M21.2,16.2C21,16.3,21,16.4,21,16.6c0.1,1-0.5,1.7-1.5,1.9c-0.1,0-0.3,0.1-0.4,0.2
	c-0.4,0.6-1.2,0.9-1.8,0.7c-0.7-0.2-1.2-0.8-1.2-1.6c0-1,0-2.1,0-3.1c0-0.1,0-0.2,0-0.2c0-1.1,0-2.2,0-3.3c0-0.6,0.3-1,0.8-1.3
	c0.5-0.3,1-0.2,1.4,0.1c0.3,0.2,0.5,0.3,0.8,0.3c0.6,0.1,1.1,0.6,1.2,1.2c0,0.2,0.1,0.3,0.2,0.3c0.6,0.3,0.9,0.9,0.8,1.6
	c0,0.2,0,0.3,0.1,0.4C22,14.5,21.9,15.5,21.2,16.2L21.2,16.2z M25.9,16c-0.5,0-1.1,0-1.6,0c-0.5,0-1,0-1.6,0c-0.3,0-0.5-0.1-0.5-0.4
	c0-0.2,0.2-0.4,0.5-0.4c1,0,2.1,0,3.1,0c0.3,0,0.5,0.2,0.5,0.4C26.4,15.8,26.2,16,25.9,16z"/>
</svg>
