<?xml version="1.0" encoding="utf-8"?>
<!-- Generator: Adobe Illustrator 28.3.0, SVG Export Plug-In . SVG Version: 6.00 Build 0)  -->
<svg version="1.1" id="Capa_1" xmlns="http://www.w3.org/2000/svg" xmlns:xlink="http://www.w3.org/1999/xlink" x="0px" y="0px"
	 viewBox="0 0 32 32" style="enable-background:new 0 0 32 32;" xml:space="preserve">
<style type="text/css">
	.st0{fill-rule:evenodd;clip-rule:evenodd;fill:#CF3737;}
</style>
<path class="st0" d="M16,0C7.2,0,0,7.2,0,16c0,8.8,7.2,16,16,16c8.8,0,16-7.2,16-16C32,7.2,24.8,0,16,0z M26,9.8v3.1
	c0,0.3,0,0.6,0,0.9c0,0.6,0,1.2,0,1.9c0,1.7-0.5,3.3-1.6,4.6c-1.1,1.4-2.6,2.3-4.4,2.7c-0.1,0-0.3,0-0.4,0c-0.2-0.1-0.5-0.1-0.7-0.2
	c-0.1,0-0.1,0-0.1,0.1l0,0v0c-0.2,0.3-0.3,0.7-0.5,1c-0.5,0.7-1.1,1.3-1.8,1.9c-0.2,0.2-0.4,0.2-0.7,0.2l0,0C15,26,14.3,26,13.6,26
	c-0.8-0.1-1.6-0.3-2.3-0.6C10,24.8,9,23.9,8.2,22.7c-0.4-0.5-0.6-1.1-0.9-1.7c-0.3-0.7-0.7-1.5-1-2.2c-0.3-0.7-0.7-1.5-1-2.2
	c0-0.1-0.1-0.1-0.1-0.2l0,0h0h0h0c0,0,0-0.1-0.1-0.1C5,16.1,5,15.9,5.1,15.7c0.1-0.2,0.3-0.4,0.5-0.6l0.1-0.1
	c0.4-0.5,0.9-0.9,1.4-1.2c0.6-0.4,1.2-0.8,1.8-1.1c1.4-0.7,2.8-1.3,4.3-1.7c0.1,0,0.3-0.1,0.4-0.1c0.1,0,0.1-0.1,0.1-0.1
	c0-0.4,0-0.8,0-1.1c0-0.2,0.1-0.4,0.3-0.5c0.3-0.2,0.7-0.3,1-0.5v0l0,0c0.8-0.3,1.6-0.4,2.4-0.5C18.6,8,19.7,8,20.9,8
	c0.6,0,1.2,0.1,1.8,0.2c0.8,0.1,1.5,0.3,2.3,0.6C25.2,8.9,25.3,9,25.5,9v0l0.1,0C25.9,9.2,26,9.5,26,9.8z M15.8,24.5
	c0.4-0.4,0.8-0.7,1.2-1.2v0c0.9-1.2,1.3-2.6,1.2-4.2c0-0.7-0.2-1.3-0.5-1.9c-0.4-0.8-0.7-1.6-1.1-2.3h0l0,0v0v0l0,0v0
	c-0.4-1-0.9-1.9-1.3-2.9c0-0.1-0.1-0.1-0.2-0.1c-0.7,0-1.3,0.2-1.9,0.3c-1,0.3-1.9,0.6-2.8,1c-0.9,0.4-1.8,0.9-2.6,1.5
	c-0.5,0.4-1,0.8-1.5,1.3c0,0-0.1,0.1,0,0.2c0.1,0.2,0.2,0.4,0.3,0.6l0,0c0.1,0.3,0.3,0.6,0.4,0.9c0.2,0.5,0.5,1,0.7,1.5l0,0
	c0.3,0.6,0.6,1.2,0.9,1.9c0.4,1,1.1,1.8,1.9,2.4c1.1,0.8,2.3,1.2,3.8,1.2c0.3,0,0.7,0,1.1-0.1c0,0,0.1,0,0.1,0
	C15.6,24.6,15.7,24.6,15.8,24.5z M24.8,15.6v-2.5l0-0.7v0v0v0v0c0-0.7,0-1.5,0-2.2c0-0.1,0-0.1-0.1-0.1c-0.2-0.1-0.3-0.1-0.5-0.2
	c-1.1-0.4-2.1-0.5-3.2-0.6c-0.8,0-1.6,0-2.5,0c-0.7,0-1.4,0.1-2.2,0.3C15.9,9.7,15.4,9.8,15,10c-0.1,0-0.1,0.1-0.1,0.1
	c0,0.2,0,0.3,0,0.5c0,0.1,0,0.1,0.1,0.1c0.1,0,0.2,0,0.3,0c0.1,0,0.1,0,0.2,0c0.3,0,0.6,0.1,0.7,0.5c0.1,0.2,0.2,0.5,0.3,0.7l0,0
	l0,0v0l0,0c0.1,0.2,0.2,0.5,0.3,0.7c0,0.1,0.1,0.1,0.1,0.2c0.1,0,0.1,0.1,0.2,0.1l0,0c0.3,0.3,0.6,0.3,0.9,0
	c0.1-0.1,0.2-0.1,0.4-0.2c0.3,0,0.5,0.1,0.6,0.3c0.1,0.3,0.1,0.5-0.1,0.7c-0.3,0.3-0.8,0.5-1.2,0.5c-0.1,0-0.1,0,0,0.1
	c0.4,0.7,0.7,1.5,1,2.2c0,0.1,0.1,0.1,0.1,0.1c0.5-0.2,1.1-0.2,1.7,0c0.7,0.1,1.2,0.5,1.7,0.9c0.2,0.2,0.3,0.5,0.1,0.7
	c-0.2,0.4-0.7,0.4-1,0.1c-0.6-0.6-1.3-0.7-2.1-0.6c-0.1,0-0.1,0-0.1,0.1l0,0c0.1,0.6,0.2,1.1,0.2,1.7c0,0.5-0.1,1.1-0.2,1.6l0,0
	c0,0.1,0,0.1,0,0.1c0,0,0.1,0,0.1,0.1l0,0c0.3,0.1,0.5,0.1,0.8,0l0.1,0c0.2-0.1,0.5-0.1,0.7-0.2c1-0.4,1.8-1,2.4-1.8
	C24.3,18.3,24.8,17,24.8,15.6z M15.9,19.1c-0.3-0.1-0.6,0-0.8,0.4c0,0,0,0.1,0,0.1l0,0c-0.4,0.9-1.4,1.5-2.4,1.4
	c-0.1,0-0.2,0-0.3-0.1c-0.1,0-0.2,0-0.2-0.1c-0.2,0-0.5,0.1-0.6,0.3c-0.2,0.3-0.1,0.7,0.3,0.9c0.4,0.2,0.8,0.2,1.2,0.2
	c0,0,0.1,0,0.1,0h0c0.1,0,0.1,0,0.2,0c0.9-0.1,1.7-0.5,2.4-1.2c0.3-0.3,0.5-0.7,0.7-1.1C16.4,19.5,16.2,19.2,15.9,19.1L15.9,19.1z
	 M14.1,17.3c-0.2,0.2-0.4,0.2-0.6,0.1c-0.2-0.1-0.3-0.3-0.3-0.5c0-0.1,0-0.2,0-0.2c0.3-0.9,1.2-1.4,2.1-1.2c0.1,0,0.2,0,0.3,0.1
	c0.3,0.1,0.4,0.5,0.3,0.8c-0.1,0.3-0.4,0.5-0.7,0.4c0,0,0,0,0,0l0,0l0,0c-0.1,0-0.1,0-0.2,0c-0.3,0-0.5,0.1-0.7,0.4
	C14.3,17.1,14.2,17.2,14.1,17.3z M11.9,18.1c0.1-0.3-0.1-0.6-0.4-0.7c-0.2-0.1-0.4-0.1-0.6-0.1c-0.2,0-0.5,0-0.7,0.1
	c-0.5,0.2-0.9,0.6-1.1,1.1C9,18.8,9,19,9.2,19.2c0.2,0.2,0.3,0.2,0.6,0.2c0.2-0.1,0.4-0.2,0.4-0.4c0.1-0.2,0.3-0.4,0.5-0.4
	c0.1,0,0.2,0,0.4,0h0c0,0,0,0,0.1,0C11.5,18.7,11.8,18.5,11.9,18.1L11.9,18.1z M22.7,13c0.1-0.1,0.2-0.2,0.4-0.2h0
	c0.3,0,0.5,0.1,0.6,0.3c0.1,0.2,0.1,0.5-0.1,0.7c-0.3,0.3-0.7,0.5-1.1,0.5c-0.1,0-0.2,0-0.3,0c-0.5,0-0.9-0.2-1.3-0.6
	c-0.2-0.2-0.2-0.6-0.1-0.8c0.2-0.2,0.5-0.3,0.8-0.2c0.1,0,0.1,0.1,0.2,0.1c0,0,0,0,0,0C22.1,13.2,22.4,13.2,22.7,13z"/>
</svg>
