<?xml version="1.0" encoding="utf-8"?>
<!-- Generator: Adobe Illustrator 28.3.0, SVG Export Plug-In . SVG Version: 6.00 Build 0)  -->
<svg version="1.1" id="Capa_1" xmlns="http://www.w3.org/2000/svg" xmlns:xlink="http://www.w3.org/1999/xlink" x="0px" y="0px"
	 viewBox="0 0 32 32" style="enable-background:new 0 0 32 32;" xml:space="preserve">
<style type="text/css">
	.st0{fill-rule:evenodd;clip-rule:evenodd;fill:#4FBCC0;}
</style>
<path class="st0" d="M16,0C7.2,0,0,7.2,0,16c0,8.8,7.2,16,16,16c8.8,0,16-7.2,16-16C32,7.2,24.8,0,16,0z M25,15.1L25,15.1L25,15.1
	L25,15.1c0,0.2,0,0.4,0,0.6l0,0c0,0.2,0,0.4,0,0.6c0,0.5,0,1,0,1.4c0,0.5-0.2,0.9-0.5,1.3c-0.2,0.2-0.5,0.4-0.8,0.6
	c-0.6,0.4-1.3,0.7-2,1c-0.3,0.1-0.6,0.3-1,0.5c-0.7,0.4-1.4,0.8-2.1,1.3c-0.2,0.1-0.3,0.2-0.5,0.3c-0.4,0.2-0.8,0.5-1.2,0.7l-0.1,0
	c-0.1,0-0.1,0.1-0.1,0.1c-0.2,0.6-0.6,1-1.2,1.2c-0.7,0.3-1.4,0.2-2-0.2c-0.1-0.1-0.2-0.2-0.3-0.3c0-0.1-0.1,0-0.1,0
	c-0.7,0.9-2,0.9-2.7,0c-0.3-0.3-0.4-0.7-0.4-1.1c0-0.1,0-0.1-0.1-0.1c-0.8,0.1-1.5-0.4-1.7-1.2c-0.1-0.3,0-0.5,0.1-0.8
	c0-0.1,0-0.1,0-0.1C7.5,20.7,7.1,20,7,19.2c-0.1-0.9,0.3-1.6,1-2.1l0,0c0.1-0.1,0.1-0.1,0-0.2c-0.5-1.1,0.1-2.3,1.2-2.6
	c0.1,0,0.1-0.1,0.1-0.1l0,0l0,0c0.1-0.6,0.4-1.1,0.9-1.5c0.9-0.7,2.1-0.7,3,0c0.2,0.2,0.4,0.4,0.6,0.7c0,0.1,0.1,0.1,0.1,0
	c0.8-0.4,1.5-0.8,2.2-1.3c0.5-0.4,1-0.7,1.6-1c0.9-0.4,1.8-0.5,2.7-0.5c1,0.1,2,0.4,2.8,0.9c0.5,0.3,1,0.7,1.3,1.2
	c0.2,0.3,0.3,0.7,0.3,1C25,14.2,25,14.6,25,15.1z M14.8,24.4c0.1,0,0.2,0,0.3,0l0,0c1-0.2,1.5-1.3,1.1-2.1c-0.1-0.3-0.3-0.5-0.6-0.7
	c-0.2-0.1-0.2-0.2-0.2-0.4c0,0,0,0,0,0c0,0,0,0,0,0c0.1-0.3,0-0.7-0.2-0.9l0,0c0,0-0.1-0.1-0.1-0.1c-0.1-0.2,0-0.3,0.2-0.4
	c0,0,0.1,0,0.1,0c0.4-0.1,0.7-0.3,0.9-0.6c0.5-0.7,0.3-1.6-0.3-2c-0.2-0.2-0.4-0.2-0.7-0.3c-0.2,0-0.2-0.1-0.2-0.3
	c0-0.1,0-0.2,0-0.3c-0.1-0.5-0.6-0.9-1.1-0.9c0,0,0,0,0,0h0c0,0,0,0,0,0c-0.2,0-0.3-0.1-0.3-0.3c0-0.3,0-0.6-0.1-0.9
	c-0.3-0.7-1-1.3-1.9-1.2c-0.7,0.1-1.1,0.5-1.4,1.1C10,14,10,14.2,10,14.5c0,0.2-0.1,0.3-0.3,0.3c0,0-0.1,0-0.1,0
	c-0.6,0-1.1,0.5-1.1,1.2c0,0.3,0.1,0.6,0.3,0.9c0,0.1,0.1,0.1,0.1,0.2c0,0.1,0,0.2-0.2,0.3c-0.2,0.1-0.4,0.2-0.6,0.4
	c-0.5,0.5-0.7,1-0.5,1.6c0.1,0.6,0.5,1.1,1.1,1.3c0,0,0,0,0.1,0c0,0,0.1,0,0.1,0C9,20.8,9.1,21,9,21.1c0,0,0,0.1-0.1,0.1
	c0,0,0,0,0,0c-0.2,0.3-0.2,0.6,0,0.9c0.2,0.3,0.5,0.4,0.8,0.4c0.2,0,0.3-0.1,0.5-0.2c0.1-0.1,0.2-0.1,0.3,0c0.1,0.1,0.1,0.2,0.1,0.3
	c0,0,0,0.1,0,0.1c0,0,0,0,0,0c-0.1,0.2-0.1,0.4,0,0.6c0.2,0.7,0.8,1.1,1.5,0.9c0.4-0.1,0.6-0.4,0.8-0.7c0.1-0.1,0.1-0.2,0.3-0.2
	c0.1,0,0.2,0.1,0.3,0.2C13.8,24.1,14.2,24.4,14.8,24.4z M24.4,15.7L24.4,15.7l0,0.6l0,0v0v0v0l0,0v0v0v0c0,0.5,0,1,0,1.5
	c0,0.2-0.1,0.4-0.2,0.6c-0.2,0.3-0.5,0.5-0.9,0.7c-0.4,0.2-0.8,0.4-1.2,0.6l0,0c-0.2,0.1-0.5,0.2-0.7,0.3l0,0
	c-0.5,0.2-1,0.5-1.5,0.7c-0.6,0.4-1.2,0.7-1.8,1.2c-0.2,0.2-0.5,0.3-0.7,0.4c-0.2,0.1-0.3,0.2-0.5,0.3c-0.1,0-0.1,0-0.1,0l0,0l0,0
	l0,0c0-0.4-0.2-0.8-0.5-1.2c-0.1-0.1-0.2-0.2-0.4-0.3c0,0-0.1,0,0-0.1c0.1-0.3,0-0.6-0.1-0.9c0-0.1,0-0.1,0.1-0.1
	c0.8-0.4,1.2-1,1.3-1.9c0.1-1-0.7-1.8-1.4-2c-0.1,0-0.1-0.1-0.1-0.1c-0.1-0.7-0.7-1.3-1.4-1.5c-0.1,0-0.1,0-0.1-0.1
	c0-0.1,0-0.3,0-0.4c0-0.1,0-0.1,0.1-0.1c0.7-0.3,1.4-0.7,2-1.2c0.1-0.1,0.2-0.2,0.3-0.2c0.3-0.2,0.6-0.4,1-0.6
	c0.5-0.3,1.1-0.5,1.7-0.6c0.4-0.1,0.9-0.1,1.3,0c0.5,0,0.9,0.1,1.3,0.3c0.8,0.3,1.5,0.7,2.1,1.3c0.2,0.2,0.3,0.4,0.4,0.7
	c0,0.1,0,0.1,0,0.2l0,0v0c0,0,0,0,0,0c0,0.4,0,0.9,0,1.3v0L24.4,15.7z M9.1,11.2c1.1,0,2.1-1,2.1-2.1c0-0.9-0.8-2.1-2.1-2.1
	C8,7,7,7.9,7,9.1C7,10.3,8,11.2,9.1,11.2z M7.6,9c0.1-0.8,0.7-1.4,1.6-1.4c0.8,0.1,1.4,0.8,1.4,1.6c0,0.8-0.7,1.5-1.5,1.4
	C8.3,10.6,7.5,9.9,7.6,9L7.6,9z M16.3,9.7c0,1.1-0.9,2.1-2.1,2.1v0c-1.2,0-2.1-0.9-2.1-2.1c0-1.2,1-2.1,2.1-2.1
	C15.5,7.6,16.3,8.7,16.3,9.7z M15.7,9.7c0-0.8-0.7-1.5-1.5-1.5c-0.8,0-1.5,0.7-1.5,1.5c0,0.8,0.7,1.5,1.5,1.5
	C15,11.2,15.7,10.5,15.7,9.7z M18.1,9.4C18.6,9.4,19,9,19,8.5c0-0.5-0.4-0.9-0.9-0.9c-0.5,0-0.9,0.4-0.9,0.9
	C17.2,9,17.6,9.4,18.1,9.4z M18.1,8.2c0.2,0,0.3,0.1,0.3,0.3c0,0.2-0.1,0.3-0.3,0.3c-0.2,0-0.3-0.1-0.3-0.3
	C17.8,8.3,17.9,8.2,18.1,8.2z M8.8,12.4c0,0.5-0.4,0.9-0.9,0.9v0c-0.5,0-0.9-0.4-0.9-0.9c0-0.5,0.4-0.9,0.9-0.9
	C8.4,11.5,8.8,11.9,8.8,12.4z M8.2,12.4c0-0.2-0.1-0.3-0.3-0.3c-0.2,0-0.3,0.1-0.3,0.3c0,0.2,0.1,0.3,0.3,0.3
	C8.1,12.7,8.2,12.6,8.2,12.4z M23.6,14.5c-0.2,0-0.3,0-0.4,0.2c-0.1,0.2-0.1,0.3-0.3,0.4c-0.1,0.1-0.3,0.3-0.4,0.4
	c-0.4,0.3-0.9,0.6-1.4,0.8l0,0L21,16.4c-0.2,0.1-0.4,0.2-0.5,0.3l0,0c-0.4,0.2-0.8,0.4-1.2,0.7c-0.2,0.1-0.4,0.3-0.6,0.4h0l0,0
	c-0.2,0.1-0.4,0.3-0.6,0.4c-0.1,0.1-0.2,0.1-0.2,0.3c0,0.1,0.2,0.4,0.4,0.2c0.1,0,0.2-0.1,0.2-0.1l0,0l0,0v0
	c0.1-0.1,0.3-0.2,0.4-0.3l0.1,0l0,0c0.5-0.3,0.9-0.6,1.4-0.8l0.1,0c0.6-0.3,1.1-0.6,1.7-0.9c0.4-0.2,0.8-0.5,1.1-0.8
	c0.2-0.2,0.4-0.5,0.5-0.8C23.8,14.7,23.7,14.6,23.6,14.5L23.6,14.5z M10.6,17.4c0-0.8,0.6-1.4,1.4-1.4h0c0.2,0,0.3,0.1,0.4,0.2
	c0.1,0.2,0,0.3-0.2,0.4c0,0-0.1,0-0.1,0h0c0,0-0.1,0-0.1,0c-0.4,0.1-0.7,0.4-0.7,0.8c0,0,0,0.1,0,0.1c0,0.2-0.1,0.3-0.3,0.3
	C10.7,17.8,10.6,17.7,10.6,17.4C10.6,17.5,10.6,17.5,10.6,17.4L10.6,17.4L10.6,17.4z M10.6,20.5C10.6,20.5,10.6,20.5,10.6,20.5
	L10.6,20.5c-0.4,0-0.7-0.2-0.8-0.5c-0.1-0.1-0.1-0.3-0.1-0.4c0-0.2-0.2-0.3-0.3-0.3c-0.2,0-0.3,0.1-0.3,0.3c0,0.8,0.6,1.4,1.4,1.5
	c0,0,0,0,0,0l0,0c0,0,0,0,0,0c0.2,0,0.3-0.1,0.3-0.3C10.9,20.7,10.8,20.5,10.6,20.5L10.6,20.5z M14.2,18.4c0-0.2,0.1-0.3,0.3-0.3
	l0,0c0.2,0,0.3,0.1,0.3,0.3c-0.1,0.9-0.7,1.4-1.4,1.5c-0.3,0-0.4-0.2-0.3-0.4c0.1-0.1,0.2-0.2,0.3-0.2c0.3,0,0.5-0.1,0.7-0.3
	C14.1,18.8,14.2,18.6,14.2,18.4z"/>
</svg>
