<?xml version="1.0" encoding="utf-8"?>
<!-- Generator: Adobe Illustrator 28.3.0, SVG Export Plug-In . SVG Version: 6.00 Build 0)  -->
<svg version="1.1" id="Capa_1" xmlns="http://www.w3.org/2000/svg" xmlns:xlink="http://www.w3.org/1999/xlink" x="0px" y="0px"
	 viewBox="0 0 32 32" style="enable-background:new 0 0 32 32;" xml:space="preserve">
<style type="text/css">
	.st0{fill-rule:evenodd;clip-rule:evenodd;fill:#8E5AC6;}
</style>
<path class="st0" d="M0,16C0,7.2,7.2,0,16,0c8.8,0,16,7.2,16,16c0,8.8-7.2,16-16,16C7.2,32,0,24.8,0,16z M17.9,15.4
	c0-0.1,0.1-0.1,0.1-0.1c0.4,0,0.8,0,1.2,0c0.2,0,0.4,0,0.5,0h0h0h0h0h0c0.4,0,0.7,0,1.1,0c1-0.1,1.7-0.8,1.7-1.8c0-0.7,0-1.4,0-2.2
	c0-0.9,0-1.7,0-2.6c0-0.6-0.3-1-0.7-1.4C21.6,7.1,21.2,7,20.7,7H16h-4.7c-0.3,0-0.7,0-1,0.2C9.7,7.6,9.4,8.1,9.4,8.8
	c0,1.4,0,2.8,0,4.2l0,0.4c0,0.4,0.1,0.8,0.4,1.2c0.4,0.4,0.8,0.6,1.4,0.6c0.7,0,1.5,0,2.2,0l0.5,0c0,0,0.1,0,0.1,0.1
	c0.3,0.6,0.6,1.2,0.9,1.8c0.2,0.4,0.4,0.7,0.6,1.1c0.1,0.2,0.3,0.3,0.5,0.3c0.2,0,0.4-0.1,0.5-0.3c0.1-0.2,0.2-0.3,0.3-0.5l0.1-0.2
	l0,0C17.2,16.8,17.6,16.1,17.9,15.4L17.9,15.4z M16,16.6C16,16.6,16,16.6,16,16.6C16,16.7,16,16.7,16,16.6l-0.3-0.4l0,0v0l0,0v0l0,0
	c-0.2-0.3-0.3-0.7-0.5-1c-0.1-0.1-0.1-0.2-0.2-0.3l0,0v0l0,0l0,0v0c-0.1-0.1-0.1-0.3-0.2-0.4c-0.1-0.3-0.3-0.4-0.6-0.4
	c-0.8,0-1.5,0-2.3,0l-0.6,0c0,0-0.1,0-0.1,0c0,0-0.1,0-0.1,0c-0.4,0-0.6-0.3-0.6-0.7c0-0.1,0-0.3,0-0.4c0-0.1,0-0.1,0-0.2l0-1.4v0
	l0,0v0v0v0c0-0.9,0-1.8,0-2.7c0-0.2,0-0.4,0.2-0.6c0.1-0.1,0.2-0.2,0.4-0.2h9.7c0.3,0,0.6,0.3,0.6,0.6c0,0.1,0,0.2,0,0.3l0,0.1v4.2
	c0,0,0,0.1,0,0.1c0,0.1,0,0.2,0,0.3c-0.1,0.3-0.3,0.4-0.6,0.5c-0.1,0-0.2,0-0.3,0l-0.1,0c-0.3,0-0.5,0-0.8,0c-0.7,0-1.4,0-2,0
	c-0.3,0-0.5,0.1-0.7,0.4C16.7,15.2,16.4,15.9,16,16.6L16,16.6z M22.8,21.2c1.1,0.7,1.9,1.6,2.1,2.9l0,0C25,24.6,25,25,25,25.5
	c0,0.3-0.3,0.5-0.6,0.5h0h-7.1c-0.3,0-0.5-0.2-0.6-0.4l0,0c0,0,0,0,0,0c-0.1-0.8,0-1.5,0.3-2.2c0.4-0.9,1-1.6,1.9-2.1l0,0
	c0.1,0,0.1-0.1,0.1-0.1c0,0,0-0.1-0.1-0.1l0,0c-1.1-1.2-0.9-3,0.4-3.9c1.1-0.8,2.6-0.6,3.5,0.3c0.6,0.6,0.8,1.3,0.8,2.1
	c-0.1,0.6-0.3,1.2-0.8,1.7c0,0,0,0,0,0l0,0c0,0,0.1,0,0.1,0.1C22.7,21.2,22.8,21.2,22.8,21.2z M22.4,19.2c0-0.8-0.7-1.5-1.5-1.5h0
	c-1,0-1.6,0.8-1.6,1.5c0,0.9,0.7,1.6,1.5,1.6C21.7,20.7,22.4,20,22.4,19.2z M21.3,24.9L21.3,24.9c0.8,0,1.6,0,2.5,0l0,0
	c0.1,0,0.1,0,0.1-0.1c0-0.5-0.1-0.9-0.4-1.4c-0.5-0.9-1.3-1.4-2.3-1.6c-0.7-0.1-1.4,0-2,0.4c-0.9,0.6-1.4,1.4-1.4,2.5
	c0,0.1,0,0.1,0.1,0.1c0.8,0,1.6,0,2.4,0h0.6H21.3z M14.1,21.9c-0.3-0.3-0.6-0.6-1-0.8c-0.1,0-0.1-0.1,0-0.1c0.6-0.6,0.9-1.4,0.7-2.3
	c-0.2-1.1-1-2-2.3-2.2c-0.8-0.1-1.6,0.1-2.2,0.8c-0.6,0.6-0.8,1.3-0.8,2.1c0.1,0.6,0.3,1.2,0.8,1.6c0.1,0.1,0.1,0.1,0,0.1
	c-0.3,0.1-0.5,0.3-0.7,0.5c-0.7,0.6-1.2,1.3-1.5,2.3C7,24.4,7,24.9,7,25.3C7,25.8,7.2,26,7.7,26h3.5h1h2.6c0.4,0,0.6-0.2,0.6-0.6
	c0-0.4,0-0.7,0-1.1C15.2,23.4,14.8,22.6,14.1,21.9z M11.1,17.7c0.8,0,1.6,0.6,1.6,1.5c0,0.8-0.7,1.5-1.5,1.5c-0.7,0-1.6-0.6-1.6-1.5
	C9.6,18.4,10.3,17.7,11.1,17.7L11.1,17.7z M14.1,24.9h-2.9l-0.6,0h0c-0.8,0-1.6,0-2.4,0c-0.1,0-0.1,0-0.1-0.1c0-1.1,0.5-1.9,1.5-2.5
	c0.6-0.4,1.2-0.5,1.9-0.4c1,0.1,1.8,0.6,2.4,1.5c0.3,0.4,0.4,0.9,0.4,1.4l0,0c0,0.1,0,0.1,0,0.1C14.2,24.9,14.2,24.9,14.1,24.9z
	 M18.2,11.3c0.2,0.2,0.2,0.5,0.1,0.7c-0.2,0.3-0.4,0.5-0.6,0.6c-0.5,0.3-1,0.5-1.6,0.5c-0.5,0-1-0.1-1.4-0.4
	c-0.3-0.2-0.6-0.4-0.8-0.7c-0.2-0.3-0.1-0.6,0.1-0.8c0.3-0.2,0.6-0.2,0.8,0.1c0.3,0.3,0.6,0.6,1,0.6c0.7,0.1,1.2,0,1.7-0.6l0,0
	c0.1-0.1,0.1-0.1,0.2-0.2C17.7,11.1,18,11.1,18.2,11.3z M14.8,10.5c0.3,0,0.6-0.3,0.6-0.6c0-0.3-0.2-0.6-0.6-0.6
	c-0.3,0-0.6,0.3-0.6,0.6C14.2,10.2,14.5,10.5,14.8,10.5L14.8,10.5z M17.8,9.9c0,0.3-0.3,0.6-0.5,0.6c-0.3,0-0.6-0.2-0.6-0.5
	c0-0.3,0.3-0.6,0.5-0.6C17.5,9.4,17.8,9.6,17.8,9.9z"/>
</svg>
