<?xml version="1.0" encoding="utf-8"?>
<!-- Generator: Adobe Illustrator 28.3.0, SVG Export Plug-In . SVG Version: 6.00 Build 0)  -->
<svg version="1.1" id="Capa_1" xmlns="http://www.w3.org/2000/svg" xmlns:xlink="http://www.w3.org/1999/xlink" x="0px" y="0px"
	 viewBox="0 0 32 32" style="enable-background:new 0 0 32 32;" xml:space="preserve">
<style type="text/css">
	.st0{fill-rule:evenodd;clip-rule:evenodd;fill:#FC3286;}
</style>
<path class="st0" d="M0,16C0,7.2,7.2,0,16,0c8.8,0,16,7.2,16,16c0,8.8-7.2,16-16,16C7.2,32,0,24.8,0,16z M25,9.5
	c0-0.4-0.1-0.7-0.2-1c-0.3-0.7-0.8-1.2-1.6-1.4C23,7,22.8,7,22.5,7H9.3C9.1,7,8.9,7,8.8,7.1C7.8,7.3,7,8.4,7,9.4c0,1.6,0,3.1,0,4.7
	v0c0,0.6,0,1.3,0,1.9c0,2.2,0,4.5,0,6.7c0,0.1,0,0.2,0,0.3c0.1,0.4,0.2,0.7,0.5,1c0.3,0.4,0.7,0.6,1.1,0.8C9,25,9.3,25,9.7,25
	c1.4,0,2.7,0,4.1,0h0h0h0h0h0l1,0c0.6,0,1.2,0,1.8,0c1.4,0,2.7,0,4.1,0c0.7,0,1.3,0,2,0c0.2,0,0.4,0,0.6-0.1
	c1.1-0.3,1.7-1.2,1.8-2.3c0-0.5,0-0.9,0-1.4c0-0.2,0-0.4,0-0.6l0-2.8C25,15.1,25,12.3,25,9.5L25,9.5z M15.5,24L15.5,24l-1.6,0
	c-1.5,0-3,0-4.4,0c-0.6,0-1.2-0.4-1.4-1C8,22.8,8,22.6,8,22.4c0-1.3,0-2.6,0-4c0-0.5,0-0.9,0-1.4l0-0.6c0,0,0,0,0,0l0,0h7.5L15.5,24
	L15.5,24z M15.5,15.5h-0.1c-2.4,0-4.8,0-7.3,0c0,0,0,0,0,0c0,0,0,0,0,0l0,0c0,0,0,0,0,0c0,0,0,0,0,0c0,0,0,0,0,0c0,0,0,0,0,0
	c0-0.5,0-0.9,0-1.4c0-1.5,0-3.1,0-4.6c0-0.3,0.1-0.5,0.2-0.7C8.5,8.3,8.8,8.1,9.2,8c0.1,0,0.3,0,0.4,0c0,0,0.1,0,0.1,0
	c1.4,0,2.9,0,4.3,0c0.3,0,0.7,0,1.1,0l0.4,0c0,0,0,0,0,0h0l0,0l0,0V15.5z M24,22.5c0,0.3-0.1,0.6-0.2,0.8c-0.2,0.4-0.6,0.6-1.1,0.7
	c-0.1,0-0.2,0-0.2,0l0,0c0,0-0.1,0-0.1,0c-1.2,0-2.4,0-3.6,0c-0.5,0-1.1,0-1.6,0l-0.6,0c0,0,0,0,0,0l0,0v-0.1c0-1.1,0-2.1,0-3.2
	c0-1.1,0-2.1,0-3.2l0,0c0,0,0,0,0,0v0l0,0v0l0-0.9c0,0,0,0,0,0l0,0c0,0,0.1,0,0.1,0c1.2,0,2.4,0,3.6,0c1.2,0,2.4,0,3.6,0H24v0.1v1.2
	C24,19.3,24,20.9,24,22.5L24,22.5z M24,13.1L24,13.1L24,13.1l0,2.4l0,0c-0.1,0-0.3,0-0.4,0c-0.3,0-0.5,0-0.8,0c-2.1,0-4.1,0-6.2,0h0
	c0,0,0,0-0.1,0c0,0,0,0,0,0c0,0,0-0.1,0-0.1v0c0,0,0-0.1,0-0.1c0-1.5,0-3.1,0-4.6c0-0.5,0-1,0-1.5l0-0.7l0-0.1c0-0.1,0-0.2,0-0.2
	c0-0.1,0-0.1,0.1-0.1c0,0,0,0,0,0l0,0l0,0c0.5,0,1.1,0,1.6,0h0h0l0,0h0h0h0c1.4,0,2.8,0,4.2,0c0.5,0,0.9,0.2,1.3,0.6
	C23.8,8.8,24,9,24,9.3c0,0.2,0,0.3,0,0.5c0,0.6,0,1.3,0,1.9l0,0.5C24,12.4,24,12.8,24,13.1z M21.6,11.2c0,0,0.1,0,0.1,0l0,0
	c0.2,0,0.4,0.2,0.5,0.4c0,0.2-0.1,0.4-0.3,0.5c-0.1,0-0.1,0-0.2,0c-0.4,0-0.7,0-1.1,0l-0.4,0v0c-0.1,0-0.3,0-0.4,0h0l0,0h0h0
	c-0.3,0-0.7,0-1,0c-0.2,0-0.3-0.1-0.4-0.3c-0.1-0.2-0.1-0.3,0-0.5c0.1-0.1,0.2-0.2,0.4-0.2c0.7,0,1.5,0,2.2,0l0.5,0
	C21.5,11.2,21.6,11.2,21.6,11.2z M10.3,20.9c-0.1,0.1-0.2,0.2-0.2,0.4c0,0.3,0.3,0.5,0.6,0.4c0.1,0,0.2-0.1,0.3-0.2
	c0.2-0.2,0.3-0.3,0.5-0.5l0.2-0.2c0,0,0,0,0,0l0,0c0,0,0,0,0,0.1c0.2,0.2,0.4,0.4,0.6,0.6c0.1,0.1,0.3,0.2,0.5,0.1
	c0.2-0.1,0.4-0.3,0.3-0.5c0-0.1-0.1-0.2-0.2-0.3c-0.1-0.1-0.3-0.3-0.4-0.4c-0.1-0.1-0.1-0.1-0.2-0.2c0,0,0,0,0,0c0,0,0,0,0,0
	l0.1-0.1c0.2-0.2,0.4-0.4,0.6-0.6c0.2-0.2,0.2-0.3,0.1-0.5c-0.1-0.3-0.5-0.4-0.8-0.2c-0.2,0.2-0.4,0.4-0.5,0.5c0,0-0.1,0.1-0.1,0.1
	l0,0c0,0,0,0-0.1,0.1c0,0,0,0,0,0c0,0,0,0,0,0l-0.2-0.2c-0.1-0.1-0.3-0.3-0.4-0.4c-0.1-0.1-0.2-0.1-0.3-0.2
	c-0.3-0.1-0.6,0.2-0.6,0.5c0,0.2,0.1,0.3,0.2,0.4c0.2,0.2,0.4,0.4,0.6,0.6c0,0,0.1,0.1,0,0.1C10.8,20.5,10.6,20.7,10.3,20.9
	L10.3,20.9L10.3,20.9z M13.2,11.2c0.1,0,0.3,0,0.4,0.1h0c0.2,0.1,0.2,0.3,0.2,0.6c0,0.2-0.2,0.3-0.4,0.3c-0.1,0-0.3,0-0.4,0
	c0,0-0.1,0-0.1,0c-0.1,0-0.1,0-0.2,0c-0.1,0-0.2,0-0.3,0c0,0,0,0.1,0,0.1c0,0.1,0,0.2,0,0.3c0,0.2,0,0.3,0,0.5c0,0.1,0,0.3-0.1,0.4
	c-0.2,0.2-0.4,0.2-0.5,0.2c-0.2-0.1-0.4-0.3-0.4-0.5c0-0.3,0-0.6,0-0.9v-0.1l-0.3,0c-0.2,0-0.5,0-0.7,0c-0.2,0-0.4-0.2-0.5-0.4
	c-0.1-0.4,0.2-0.6,0.5-0.6c0.2,0,0.5,0,0.7,0h0h0c0.1,0,0.2,0,0.3,0c0,0,0,0,0,0c0,0,0,0,0,0c0-0.1,0-0.2,0-0.2c0-0.2,0-0.4,0-0.6
	c0-0.1,0-0.2,0.1-0.3c0.1-0.2,0.3-0.3,0.5-0.3c0.2,0,0.4,0.1,0.4,0.4c0,0.1,0,0.3,0,0.4l0,0c0,0.2,0,0.4,0,0.6c0,0.1,0,0.1,0.1,0.1
	l0.1,0C12.7,11.2,12.9,11.2,13.2,11.2z M21.7,18.7c-1,0-2,0-3,0c-0.1,0-0.2,0-0.2,0c-0.2,0.1-0.3,0.3-0.3,0.5c0,0.2,0.2,0.4,0.4,0.4
	c0.4,0,0.7,0,1.1,0h0c0.1,0,0.3,0,0.4,0v0h1.5c0.2,0,0.4-0.1,0.5-0.2c0.1-0.2,0.1-0.3,0-0.5C22.1,18.8,21.9,18.8,21.7,18.7
	L21.7,18.7z M21.6,20.7c0.1,0,0.2,0,0.3,0c0.2,0.1,0.3,0.3,0.3,0.4c0,0.2-0.1,0.4-0.3,0.5c-0.1,0-0.2,0-0.3,0c-0.3,0-0.7,0-1,0
	c-0.1,0-0.2,0-0.3,0c-0.2,0-0.4,0-0.6,0c-0.3,0-0.7,0-1,0c-0.3,0-0.5-0.2-0.5-0.5c0-0.2,0.1-0.5,0.4-0.5c0.1,0,0.1,0,0.2,0
	c0.5,0,0.9,0,1.4,0c0.1,0,0.2,0,0.4,0C20.9,20.7,21.3,20.7,21.6,20.7z"/>
</svg>
