<?xml version="1.0" encoding="utf-8"?>
<!-- Generator: Adobe Illustrator 28.3.0, SVG Export Plug-In . SVG Version: 6.00 Build 0)  -->
<svg version="1.1" id="Capa_1" xmlns="http://www.w3.org/2000/svg" xmlns:xlink="http://www.w3.org/1999/xlink" x="0px" y="0px"
	 viewBox="0 0 32 32" style="enable-background:new 0 0 32 32;" xml:space="preserve">
<style type="text/css">
	.st0{fill-rule:evenodd;clip-rule:evenodd;fill:#1773BA;}
</style>
<path class="st0" d="M16,0C7.2,0,0,7.2,0,16c0,8.8,7.2,16,16,16c8.8,0,16-7.2,16-16C32,7.2,24.8,0,16,0z M23,11
	c-0.5,0-1-0.1-1.5-0.4v0c0,0,0,0,0,0c-0.1,0-0.2,0-0.2-0.1c-0.1,0-0.2-0.1-0.3-0.1l0,0l0,0h0l0,0h0v0l0,0c-0.1,0-0.3-0.1-0.4-0.1
	c-1.5-0.5-2.9-0.4-4.3,0.4c-0.2,0.1-0.4,0.1-0.6,0c-1-0.5-2-0.8-3.2-0.7c-0.6,0.1-1.2,0.3-1.8,0.5h0l0,0l0,0h0l0,0h0
	c-0.1,0-0.2,0.1-0.3,0.1c0,0-0.1,0-0.1,0.1h0l0,0h0l0,0C9.9,10.9,9.5,11,9.1,11c-0.4,0-0.5,0.1-0.5,0.4c0,0,0,0,0,0
	c0,0.1,0,0.3-0.2,0.3C8,11.8,8,12,8,12.3c0,2.6,0,5.1,0,7.7c0,0.6,0.1,0.6,0.7,0.6h6.1c0.2,0,0.5,0,0.7,0.2c0.4,0.2,0.8,0.2,1.2,0
	c0.2-0.1,0.4-0.2,0.7-0.2h6.1c0.5,0,0.6-0.1,0.6-0.6v-0.9v-6.8l0-0.1c0-0.2,0-0.5-0.3-0.5c-0.4,0-0.4-0.2-0.3-0.5
	C23.4,11,23.3,11,23,11z M9.5,18.7v-3.3l0,0c0-0.2,0-0.4,0-0.5v0c0-0.9,0-1.8,0-2.7c0-0.3,0.1-0.5,0.4-0.6c0.4-0.1,0.9-0.3,1.3-0.4
	h0l0,0l0,0c0.2-0.1,0.4-0.1,0.6-0.2c1.3-0.4,2.5-0.2,3.6,0.5c0.2,0.1,0.3,0.2,0.3,0.5v6.7l0,0c0,0.2,0,0.3-0.3,0.2
	c-1.4-0.7-2.9-0.7-4.3-0.1c-0.4,0.1-0.7,0.3-1.1,0.4C9.5,19.2,9.5,19.2,9.5,18.7z M22.5,12.1v3.4l0,0c0,0.4,0,0.7,0,1.1v0v0v0v0v0v0
	c0,0.7,0,1.5,0,2.2c0,0.3-0.1,0.4-0.4,0.3c-0.2-0.1-0.4-0.1-0.5-0.2h0v0l0,0l0,0l0,0h0c-0.5-0.2-0.9-0.3-1.4-0.5
	c-1.2-0.3-2.4-0.2-3.5,0.3c-0.3,0.1-0.3,0.1-0.3-0.2c0-1.5,0-3,0-4.4c0-0.7,0-1.5,0-2.2c0-0.2,0.1-0.3,0.2-0.4
	c1.1-0.7,2.4-0.9,3.7-0.5c0.2,0.1,0.5,0.2,0.7,0.3c0.5,0.2,0.9,0.3,1.4,0.4C22.5,11.8,22.5,11.9,22.5,12.1L22.5,12.1L22.5,12.1
	L22.5,12.1C22.5,12.1,22.5,12.1,22.5,12.1L22.5,12.1z M13.1,15.8c0.4,0,0.8,0.1,1.2,0.2c0.2,0.1,0.4,0.3,0.3,0.5
	c-0.1,0.2-0.3,0.4-0.6,0.3c-0.9-0.3-1.8-0.2-2.6,0.2c-0.1,0.1-0.3,0.1-0.4,0.1c-0.2,0.1-0.5,0-0.5-0.2c-0.1-0.2,0-0.4,0.2-0.5
	C11.5,16.1,12.2,15.8,13.1,15.8L13.1,15.8z M14.1,13.3c0,0,0.1,0,0.1,0v0c0.2,0,0.4-0.1,0.4-0.3c0-0.2-0.1-0.4-0.3-0.5
	c-1.2-0.4-2.4-0.1-3.6,0.3c-0.2,0.1-0.3,0.2-0.2,0.4c0,0.2,0.2,0.3,0.3,0.3c0.1,0,0.2,0,0.4-0.1l0,0C12.1,13.1,13.1,12.9,14.1,13.3z
	 M14.2,15.1c0,0-0.1,0-0.1,0c-1-0.3-1.9-0.1-2.9,0.2c-0.3,0.1-0.6,0.1-0.7-0.2c-0.1-0.3,0.1-0.5,0.4-0.6c1.1-0.4,2.1-0.7,3.2-0.3
	c0.1,0,0.2,0.1,0.3,0.1c0.2,0.1,0.2,0.3,0.1,0.4C14.5,15,14.4,15.1,14.2,15.1L14.2,15.1z M21.2,16.4c-0.7-0.3-1.5-0.5-2.5-0.5h0
	c-0.2,0-0.6,0.1-1,0.2c-0.3,0.1-0.5,0.2-0.4,0.6c0.1,0.3,0.3,0.3,0.6,0.2c0.7-0.2,1.3-0.2,2,0c0.1,0,0.3,0.1,0.4,0.2
	c0.1,0.1,0.3,0.1,0.4,0.2c0.3,0.1,0.5,0,0.6-0.2C21.6,16.6,21.5,16.5,21.2,16.4z M19,12.3c0.8,0,1.6,0.2,2.3,0.5
	c0.2,0.1,0.4,0.3,0.3,0.5c-0.1,0.3-0.3,0.3-0.6,0.2c-0.8-0.3-1.5-0.6-2.4-0.4c-0.2,0-0.3,0.1-0.5,0.1c-0.3,0.1-0.5,0-0.6-0.3
	c-0.1-0.3,0.1-0.4,0.4-0.5C18.2,12.3,18.6,12.3,19,12.3L19,12.3z M21.3,14.6c-0.7-0.3-1.5-0.5-2.4-0.5v0c-0.3,0-0.7,0.1-1.1,0.2
	c-0.3,0.1-0.5,0.2-0.4,0.6c0.1,0.3,0.4,0.3,0.7,0.3c0.7-0.2,1.3-0.2,2,0c0.1,0,0.3,0.1,0.4,0.1c0.2,0.1,0.3,0.1,0.5,0.2
	c0.2,0.1,0.5,0,0.5-0.2C21.6,14.9,21.5,14.7,21.3,14.6z"/>
</svg>
