<?xml version="1.0" encoding="utf-8"?>
<!-- Generator: Adobe Illustrator 28.3.0, SVG Export Plug-In . SVG Version: 6.00 Build 0)  -->
<svg version="1.1" id="Capa_1" xmlns="http://www.w3.org/2000/svg" xmlns:xlink="http://www.w3.org/1999/xlink" x="0px" y="0px"
	 viewBox="0 0 32 32" style="enable-background:new 0 0 32 32;" xml:space="preserve">
<style type="text/css">
	.st0{fill-rule:evenodd;clip-rule:evenodd;fill:#73B73B;}
</style>
<path class="st0" d="M16,0C7.2,0,0,7.2,0,16c0,8.8,7.2,16,16,16c8.8,0,16-7.2,16-16C32,7.2,24.8,0,16,0z M11.7,20.1v-0.4
	c0-0.9,0-1.9,0-2.8c0-1.9,0-3.7,0-5.6c0-1,0.8-2.2,1.8-2.5c0.5-0.2,1-0.3,1.4-0.5c2.4-0.8,4.8-1.5,7.2-2.2c1.1-0.3,1.9,0.1,1.9,1.4
	c0,2.3,0,4.6,0,6.9c0,1.8,0,3.7,0,5.5c0,1.3-0.6,2.1-1.6,2.8c-1.1,0.8-2.4,1-3.7,0.7c-2.1-0.5-2.7-2.6-1.3-4.2
	c1.3-1.4,2.9-1.8,4.7-1.4c0.1,0,0.2,0.1,0.3,0.1v-6.2c0-0.4-0.3-0.6-0.8-0.4c-0.7,0.2-1.3,0.4-2,0.6c-1.8,0.6-3.7,1.2-5.5,1.8
	c-0.8,0.2-1,0.6-1,1.3c0,2.4,0,4.8,0,7.2c0,2-1.6,3.6-3.6,3.7c-0.6,0-1.2,0-1.8-0.1c-1.7-0.4-2.3-2.1-1.5-3.5
	c0.8-1.4,2.1-2.1,3.6-2.2c0.4,0,0.7,0,1.1,0C11.3,20,11.5,20.1,11.7,20.1z"/>
</svg>
