<?xml version="1.0" encoding="utf-8"?>
<!-- Generator: Adobe Illustrator 28.3.0, SVG Export Plug-In . SVG Version: 6.00 Build 0)  -->
<svg version="1.1" id="Capa_1" xmlns="http://www.w3.org/2000/svg" xmlns:xlink="http://www.w3.org/1999/xlink" x="0px" y="0px"
	 viewBox="0 0 32 32" style="enable-background:new 0 0 32 32;" xml:space="preserve">
<style type="text/css">
	.st0{fill:#E8501D;}
</style>
<path class="st0" d="M16,0C7.2,0,0,7.2,0,16c0,8.8,7.2,16,16,16c8.8,0,16-7.2,16-16C32,7.2,24.8,0,16,0z M21,10.3
	c0.5-0.6,1.1-1.1,1.6-1.6c0.2-0.2,0.6-0.2,0.8,0c0.2,0.2,0.2,0.5,0,0.8c-0.4,0.4-0.7,0.7-1.1,1.1c-0.1,0.1-0.3,0.3-0.4,0.4
	c-0.1,0.1-0.2,0.2-0.3,0.2c-0.3,0-0.4-0.1-0.5-0.3C20.8,10.6,20.8,10.4,21,10.3L21,10.3z M15.5,6.2c0-0.3,0.2-0.6,0.5-0.6
	c0.3,0,0.5,0.2,0.5,0.6c0,0.3,0,0.7,0,1.1c0,0.3,0,0.7,0,1.1c0,0.4-0.2,0.6-0.6,0.6c-0.3,0-0.5-0.2-0.5-0.6
	C15.4,7.6,15.4,6.9,15.5,6.2L15.5,6.2z M8.6,8.7c0.2-0.2,0.5-0.2,0.7,0c0.6,0.5,1.1,1.1,1.6,1.6c0.1,0.1,0.1,0.2,0.1,0.3
	c0,0.3-0.1,0.4-0.3,0.5c-0.2,0.1-0.4,0.1-0.6-0.1c-0.6-0.5-1.1-1.1-1.6-1.6C8.4,9.2,8.5,8.8,8.6,8.7L8.6,8.7z M7.3,16.5
	c-0.4,0-0.7,0-1.1,0c-0.3,0-0.6-0.2-0.6-0.5c0-0.3,0.2-0.5,0.6-0.5c0.7,0,1.4,0,2.1,0c0.3,0,0.6,0.2,0.6,0.5c0,0.3-0.2,0.5-0.6,0.5
	C8,16.5,7.6,16.5,7.3,16.5L7.3,16.5z M11,21.8c-0.5,0.5-1.1,1.1-1.6,1.6c-0.2,0.2-0.5,0.2-0.7,0c-0.2-0.2-0.2-0.5,0-0.8
	c0.5-0.5,1.1-1.1,1.6-1.6c0.1-0.1,0.2-0.1,0.3-0.1c0.2,0,0.4,0.1,0.5,0.3C11.2,21.4,11.2,21.6,11,21.8z M16.5,25.8
	c0,0.3-0.2,0.6-0.5,0.6c-0.3,0-0.5-0.2-0.5-0.6c0-0.7,0-1.4,0-2.1c0-0.3,0.2-0.6,0.6-0.6c0.3,0,0.5,0.2,0.5,0.6c0,0.4,0,0.7,0,1.1
	C16.5,25.1,16.5,25.4,16.5,25.8L16.5,25.8z M16,22.2c-3.4,0-6.2-2.8-6.2-6.2c0-3.4,2.8-6.2,6.2-6.2s6.2,2.8,6.2,6.2
	C22.2,19.4,19.4,22.2,16,22.2z M23.4,23.3c-0.2,0.2-0.6,0.2-0.8,0c-0.5-0.5-1-1-1.5-1.5c-0.2-0.2-0.2-0.4-0.1-0.6
	c0.1-0.2,0.3-0.3,0.5-0.3c0.2,0,0.3,0.1,0.4,0.2c0.5,0.5,1,1,1.5,1.5C23.6,22.8,23.6,23.1,23.4,23.3z M25.8,16.5c-0.4,0-0.7,0-1.1,0
	c-0.3,0-0.7,0-1,0c-0.4,0-0.6-0.2-0.6-0.6c0-0.3,0.2-0.5,0.6-0.5c0.7,0,1.4,0,2.1,0c0.3,0,0.6,0.2,0.6,0.5
	C26.4,16.3,26.2,16.5,25.8,16.5L25.8,16.5z"/>
</svg>
