<?xml version="1.0" encoding="utf-8"?>
<!-- Generator: Adobe Illustrator 28.3.0, SVG Export Plug-In . SVG Version: 6.00 Build 0)  -->
<svg version="1.1" id="Capa_1" xmlns="http://www.w3.org/2000/svg" xmlns:xlink="http://www.w3.org/1999/xlink" x="0px" y="0px"
	 viewBox="0 0 32 32" style="enable-background:new 0 0 32 32;" xml:space="preserve">
<style type="text/css">
	.st0{fill-rule:evenodd;clip-rule:evenodd;fill:#50BCC0;}
</style>
<path class="st0" d="M0,16C0,7.2,7.2,0,16,0c8.8,0,16,7.2,16,16c0,8.8-7.2,16-16,16C7.2,32,0,24.8,0,16z M18.2,16.2
	c0.1,0,0.1,0,0.2,0c0.1,0,0.2,0,0.3,0l1.4,0h0c1,0,1.9,0,2.9,0c0.3,0,0.5,0.1,0.7,0.3c0.3,0.3,0.3,1,0,1.3c-0.2,0.2-0.4,0.3-0.6,0.3
	c-0.8,0-1.6,0-2.3,0h0c-1.6,0-3.1,0-4.7,0c-0.4,0-0.8-0.3-0.9-0.7c-0.1-0.3,0-0.5,0.1-0.8c0-0.1,0.1-0.1,0.2-0.2h0l0,0
	c1.8-1.8,3.6-3.6,5.4-5.4c0,0,0,0,0,0c0,0,0,0,0,0c0,0,0,0-0.1,0h0l0,0c0,0-0.1,0-0.1,0l-1.1,0c-1.1,0-2.3,0-3.4,0h0
	c-0.2,0-0.4,0-0.6-0.1c-0.3-0.1-0.5-0.4-0.6-0.7c-0.1-0.4,0.1-0.7,0.4-0.9C15.7,9,15.9,9,16,9c2.3,0,4.7,0,7,0c0.2,0,0.4,0,0.6,0.2
	c0.2,0.1,0.3,0.3,0.3,0.5c0.1,0.3,0,0.6-0.3,0.8c-1.8,1.8-3.5,3.5-5.3,5.3c-0.1,0.1-0.1,0.1-0.2,0.2l0,0l0,0
	C18.2,16.1,18.2,16.1,18.2,16.2C18.2,16.2,18.2,16.2,18.2,16.2C18.2,16.2,18.2,16.2,18.2,16.2C18.2,16.2,18.2,16.2,18.2,16.2
	L18.2,16.2z M11.1,17.9L11.1,17.9L11.1,17.9c0-0.1,0.1-0.1,0.1-0.2v0l0,0c0.1-0.1,0.2-0.2,0.3-0.3l0.3-0.3l0,0v0
	c0.7-0.7,1.4-1.4,2.1-2.1c0.4-0.4,0.3-0.9,0-1.3c-0.2-0.2-0.4-0.3-0.7-0.3c-1.2,0-2.4,0-3.7,0h0l-0.6,0c-0.1,0-0.2,0-0.3,0
	c-0.6,0.1-0.9,0.8-0.6,1.3c0.2,0.3,0.4,0.5,0.7,0.5c0.5,0,1.1,0,1.6,0c0.2,0,0.4,0,0.6,0c0,0,0,0,0.1,0l0,0l0,0l0,0l0,0c0,0,0,0,0,0
	L10.4,16l0,0l0,0c-0.7,0.7-1.4,1.4-2.1,2.2C8.1,18.4,7.9,18.7,8,19c0.1,0.4,0.4,0.7,0.8,0.7c1,0,2.1,0,3.1,0h0l0,0
	c0.4,0,0.8,0,1.2,0c0.2,0,0.4,0,0.6-0.1c0.4-0.3,0.5-0.8,0.3-1.2c-0.2-0.3-0.5-0.4-0.8-0.4C12.6,17.9,11.9,17.9,11.1,17.9
	C11.2,17.9,11.1,17.9,11.1,17.9z M15.2,22.4L15.2,22.4L15.2,22.4c-0.3,0-0.6,0-0.9,0c-0.3,0-0.5-0.1-0.7-0.3c-0.3-0.3-0.3-0.9,0-1.2
	c0.2-0.2,0.5-0.3,0.7-0.3c0.5,0,1,0,1.6,0c0.6,0,1.2,0,1.8,0c0.1,0,0.2,0,0.3,0v0c0,0,0.1,0,0.1,0c0.3,0,0.6,0.4,0.6,0.7
	c0.1,0.3-0.1,0.6-0.3,0.8c-0.3,0.3-0.6,0.6-0.9,0.9c-0.3,0.3-0.5,0.5-0.8,0.8c-0.1,0.1-0.1,0.1-0.2,0.2c0,0-0.1,0.1-0.1,0.1l0,0
	c0,0,0.1,0,0.1,0c0.2,0,0.3,0,0.5,0h0c0.2,0,0.5,0,0.7,0c0.2,0,0.4,0.1,0.6,0.2c0.2,0.2,0.3,0.4,0.3,0.7c0,0.4-0.3,0.8-0.7,0.8
	c-0.1,0-0.2,0-0.3,0c-0.4,0-0.8,0-1.3,0h0c-0.7,0-1.5,0-2.2,0c-0.5,0-0.8-0.3-0.9-0.7c-0.1-0.3,0-0.5,0.2-0.7
	c0.1-0.1,0.2-0.2,0.3-0.3h0l0,0c0,0,0.1-0.1,0.1-0.1c0.2-0.2,0.4-0.4,0.6-0.6l0,0c0.3-0.3,0.6-0.6,1-1c0,0,0,0,0.1-0.1l0,0
	c0,0,0,0,0,0h0C15.5,22.4,15.4,22.4,15.2,22.4z"/>
</svg>
