<?xml version="1.0" encoding="utf-8"?>
<!-- Generator: Adobe Illustrator 28.3.0, SVG Export Plug-In . SVG Version: 6.00 Build 0)  -->
<svg version="1.1" id="Capa_1" xmlns="http://www.w3.org/2000/svg" xmlns:xlink="http://www.w3.org/1999/xlink" x="0px" y="0px"
	 viewBox="0 0 32 32" style="enable-background:new 0 0 32 32;" xml:space="preserve">
<style type="text/css">
	.st0{fill-rule:evenodd;clip-rule:evenodd;fill:#84C174;}
</style>
<path class="st0" d="M0,16C0,7.2,7.2,0,16,0c8.8,0,16,7.2,16,16c0,8.8-7.2,16-16,16C7.2,32,0,24.8,0,16z M14.9,19.1
	C14.8,19.1,14.8,19,14.9,19.1c-0.1-0.3-0.1-0.4-0.1-0.6c-0.1-0.7-0.4-1.3-1-1.7c-0.4-0.3-0.9-0.4-1.3-0.4c-0.4,0-0.8,0-1.2,0h0h0h0
	h0h0h0h0h0h0h0h0h0h0h0h0h0h0h0h0h0h0c-0.2,0-0.4,0-0.6,0c-0.2,0-0.4,0-0.6,0h0c-0.4,0-0.8,0-1.2,0C7.9,16.5,7,17,6.7,18
	c-0.1,0.3-0.1,0.7-0.1,1c0,0.1,0,0.1-0.1,0.1c-0.3,0.1-0.4,0.4-0.5,0.7c0,0.1,0,0.2,0,0.3c0,0,0,0.1,0,0.1c0,0.3,0.1,0.5,0.4,0.6
	c0.1,0,0.1,0,0.1,0.1l0,0.1c0,0.2,0,0.3,0,0.5c0,0.1,0,0.1-0.1,0.2C6,22,5.9,22.5,6.2,23c0.3,0.4,0.6,0.6,1.1,0.5
	c0.1,0,0.1,0,0.1,0.1c0.1,0.4,0.3,0.8,0.6,1.1c0.8,0.9,1.8,1.3,3,1.2c0.6-0.1,1.1-0.2,1.5-0.5c0.7-0.4,1.1-1,1.4-1.8
	c0-0.1,0.1-0.1,0.1-0.1c0.1,0,0.3,0,0.4,0c0.6-0.2,0.9-0.6,0.8-1.2c0-0.3-0.2-0.5-0.4-0.7c-0.1-0.1-0.1-0.1-0.1-0.2
	c0-0.2,0-0.3,0-0.5c0-0.1,0-0.1,0.1-0.1c0.2-0.1,0.4-0.2,0.4-0.5c0-0.1,0-0.3,0-0.4C15.4,19.5,15.2,19.2,14.9,19.1L14.9,19.1z
	 M14.2,18.5c0,0.1,0,0.2,0,0.3c0,0.1,0,0.1,0,0.2c0,0.1,0,0.1-0.1,0.1c0,0,0,0,0,0c-0.2,0-0.4,0-0.6,0h0h0c-0.2,0-0.4,0-0.6,0h0
	c-0.2,0-0.2,0-0.2-0.2l0,0c0-0.1,0-0.2,0-0.3v0c0-0.2,0-0.4,0-0.6c0-0.3-0.1-0.6-0.3-0.9c0,0,0,0,0,0v0c0,0,0,0,0-0.1
	C13.5,17,14.1,17.6,14.2,18.5L14.2,18.5z M7.2,18.4C7.3,17.7,8,17.1,8.7,17c0,0,0.1,0,0.1,0h0c0.1,0,0.1,0,0.2,0c0,0,0,0.1,0,0.1
	c0,0,0,0,0,0c-0.2,0.3-0.3,0.7-0.3,1.1c0,0.1,0,0.2,0,0.4c0,0.1,0,0.3,0,0.4c0,0.1,0,0.1-0.1,0.1c-0.4,0-0.8,0-1.3,0
	c-0.1,0-0.1,0-0.1-0.1c0-0.1,0-0.1,0-0.2C7.2,18.6,7.2,18.5,7.2,18.4L7.2,18.4z M7.2,23c-0.3,0-0.6-0.2-0.6-0.5
	c0-0.3,0.2-0.5,0.5-0.5c0,0,0,0,0,0c0,0,0,0,0,0c0.1,0,0.1,0,0.1,0.1c0,0.1,0,0.2,0,0.3l0,0l0,0l0,0l0,0v0l0,0l0,0l0,0l0,0v0l0,0
	l0,0l0,0l0,0l0,0c0,0,0,0.1,0,0.1h0C7.3,22.6,7.3,22.7,7.2,23L7.2,23C7.3,22.9,7.3,23,7.2,23L7.2,23z M7.1,21.3
	C7.1,21.3,7.1,21.3,7.1,21.3c-0.1-0.2-0.1-0.3-0.1-0.5c0-0.1,0-0.1,0.1-0.1c0.2,0,0.4,0,0.6,0l0.2,0c0.1,0,0.1,0,0.2,0h0h0h0h0h0h0
	h0h0h0h0h0h0h0h0h0c0.2,0,0.4,0,0.6,0c0.1,0,0.1,0,0.1,0.1c0,0,0,0.1,0,0.1c0,0,0,0.1,0,0.1c0,0.1-0.1,0.2-0.3,0.2
	c-0.3,0-0.5,0-0.8,0h0h0h0h0h0h0h0h0h0h0h0h0h0h0h0C7.6,21.3,7.4,21.3,7.1,21.3L7.1,21.3z M13.5,23.2c-0.2,0.7-0.5,1.2-1.1,1.7
	c-0.7,0.5-1.5,0.7-2.4,0.4c-1.1-0.3-2-1.2-2.1-2.3c0-0.3,0-0.5,0-0.8c0-0.1,0-0.2,0-0.3c0-0.1,0-0.1,0.1-0.1l0,0c0.1,0,0.2,0,0.3,0
	c0.1,0,0.2,0,0.3,0c0.6,0,0.9-0.4,0.9-1c0-0.1,0-0.2,0.2-0.2h1.1h1.1c0.1,0,0.1,0,0.1,0.1c0,0.3,0,0.5,0.2,0.7
	c0.2,0.2,0.4,0.3,0.7,0.3c0.1,0,0.3,0,0.4,0h0c0.1,0,0.1,0,0.2,0h0c0,0,0.1,0,0.1,0.1l0,0C13.6,22.4,13.6,22.8,13.5,23.2L13.5,23.2z
	 M12.8,21.3c-0.2,0-0.3-0.1-0.3-0.3c0-0.2,0.1-0.3,0.2-0.3h0.7c0.1,0,0.2,0,0.2,0c0.2,0,0.4,0,0.6,0c0.1,0,0.1,0,0.1,0.1
	c0,0.1,0,0.2,0,0.4c0,0.1,0,0.1-0.1,0.1c-0.3,0-0.5,0-0.8,0C13.3,21.3,13,21.3,12.8,21.3L12.8,21.3z M14.3,23L14.3,23
	c-0.1,0-0.1,0-0.2,0c0,0,0-0.1,0-0.2l0,0l0,0c0-0.1,0-0.2,0-0.2v0c0,0,0-0.1,0-0.1h0V22c0,0,0-0.1,0.1-0.1c0.3,0,0.5,0.1,0.6,0.4
	C14.9,22.6,14.7,22.9,14.3,23L14.3,23L14.3,23z M14.6,20.2h-3.9l-0.6,0h0c-1.2,0-2.3,0-3.5,0c-0.1,0-0.1,0-0.1-0.1c0,0,0-0.1,0-0.1
	c0,0,0-0.1,0-0.1c0-0.2,0.1-0.3,0.3-0.3h1.9c0.1,0,0.1,0,0.2,0c0.1,0,0.2-0.2,0.2-0.3c0-0.3,0-0.5,0-0.8v0v0v0v0v0v0l0,0v0v0v0v0v0
	v0l0,0v0l0-0.4c0-0.5,0.4-1,1-1c0.4,0,0.7,0,1.1,0c0.5,0,0.9,0.5,1,1c0,0.2,0,0.3,0,0.5l0,0v0l0,0v0l0,0l0,0v0l0,0v0l0,0l0,0v0l0,0
	v0l0,0v0l0,0v0l0,0v0v0l0,0v0l0,0v0l0,0v0v0l0,0v0c0,0.1,0,0.3,0,0.4c0,0.1,0,0.1-0.1,0.1c-0.6,0-1.2,0-1.7,0c-0.1,0-0.1,0-0.2,0
	c-0.1,0-0.2,0.1-0.2,0.3c0,0.1,0.1,0.3,0.2,0.3c0.1,0,0.1,0,0.2,0c0.3,0,0.7,0,1,0l0,0h0h0h0l0,0h0h0l0,0h0h0h0l0,0h0h0c1,0,2,0,3,0
	c0.3,0,0.4,0.2,0.4,0.4l0,0c0,0.1,0,0.1,0,0.2C14.8,20.2,14.7,20.2,14.6,20.2L14.6,20.2L14.6,20.2z M25.7,21.5L25.7,21.5L25.7,21.5
	c0,0.2,0,0.2,0,0.2c0.4,0.4,0.3,0.9,0,1.4c0,0,0,0.1,0,0.1v1.2c0,0.6-0.5,1.1-1.1,1.1c-0.2,0-0.3,0-0.5,0h0h0l0,0h0h0h0h0h0
	c-0.1,0-0.2,0-0.2,0h-0.1c-0.1,0-0.1,0-0.2,0h0c-0.2,0-0.3,0-0.5,0c-0.1,0-0.3,0.1-0.4,0.1c-0.1,0-0.2,0.1-0.2,0.1
	c-0.9,0.3-1.7,0.2-2.6-0.2c-0.1-0.1-0.3-0.1-0.4-0.1c-0.2,0-0.4,0-0.6,0c-0.2,0-0.5,0-0.7,0c-0.6,0-1.1-0.5-1.1-1.1
	c0-0.2,0-0.5,0-0.7c0-0.1,0-0.3,0-0.4c0-0.1,0-0.1-0.1-0.2c-0.3-0.4-0.3-1,0-1.4c0-0.1,0.1-0.1,0.1-0.2c0-0.6,0-1.2,0.2-1.7
	c0.3-1,0.9-1.8,1.8-2.4c0.1,0,0.1-0.1,0.1-0.1c0-0.2,0.1-0.4,0.2-0.5c0.2-0.4,0.6-0.5,1-0.3c0.1,0.1,0.3,0.2,0.4,0.3v0h0l0,0
	c0,0,0.1,0,0.1,0.1c0.1,0,0.1,0,0.2,0c0.3-0.2,0.6-0.2,1,0c0.1,0,0.1,0,0.2,0c0.1-0.1,0.2-0.1,0.3-0.2l0,0l0,0c0,0,0.1-0.1,0.1-0.1
	c0.4-0.3,0.9-0.1,1,0.3c0.1,0.2,0.1,0.3,0.2,0.5c0,0.1,0,0.1,0.1,0.1c1.1,0.7,1.8,1.8,2,3.1C25.7,20.9,25.7,21.2,25.7,21.5z
	 M22.7,17c-0.1,0.1-0.3,0.2-0.4,0.3c0,0,0,0,0,0.1c0.1,0.2,0.1,0.4,0,0.6c0,0,0,0.1,0,0.1c0.1,0,0.1,0.1,0.2,0.1v0h0l0,0l0,0l0,0
	l0,0h0v0l0,0h0l0,0l0,0c0.1,0.1,0.2,0.1,0.2,0.2c0.1,0.1,0.1,0.1,0.2-0.1c0.1-0.2,0.1-0.4,0.1-0.6c0-0.3-0.1-0.5-0.2-0.7
	C22.8,17,22.8,16.9,22.7,17z M21.3,17.3c-0.2,0-0.4,0.2-0.4,0.4c0,0.2,0.2,0.4,0.4,0.4c0.2,0,0.4-0.2,0.4-0.4
	C21.7,17.5,21.5,17.3,21.3,17.3z M20,17c-0.1-0.1-0.2-0.1-0.2,0.1h0c-0.1,0.2-0.1,0.4-0.1,0.6c0,0.2,0,0.4,0.1,0.6
	c0.1,0.1,0.1,0.1,0.2,0.1c0.1,0,0.1-0.1,0.2-0.1l0,0l0,0h0l0,0l0,0l0,0l0,0l0,0l0,0h0l0,0l0,0l0,0l0,0l0,0l0,0l0,0l0,0l0,0h0v0l0,0
	h0l0,0l0,0l0,0l0,0l0,0c0.1,0,0.1-0.1,0.2-0.1c0,0,0-0.1,0-0.1c-0.1-0.2-0.1-0.4,0-0.6c0,0,0-0.1,0-0.1c-0.1,0-0.1-0.1-0.2-0.1l0,0
	C20.1,17.1,20,17.1,20,17z M18.9,18.2c-0.5,0.4-0.9,1-1.2,1.6v0c-0.2,0.5-0.3,0.9-0.3,1.4v0c0,0.1,0,0.1,0,0.1c0,0,0.1,0,0.1,0h0
	c0,0,0.1,0,0.1,0c0.1,0,0.3,0,0.4,0c0.3,0,0.5,0,0.8,0c0.9,0,1.7-0.6,1.9-1.5c0-0.1,0.1-0.3,0.1-0.4c0,0,0-0.1,0-0.1
	c0-0.1,0-0.2,0.2-0.3c0.2-0.1,0.4,0,0.4,0.3c0,0.3,0.1,0.6,0.2,0.8c0.3,0.7,0.8,1.1,1.6,1.2c0.2,0,0.4,0,0.6,0c0.1,0,0.3,0,0.4,0
	l0.1,0l0,0h0l0,0h0l0,0h0l0,0h0l0,0h0h0l0,0h0h0c0.2,0,0.4,0,0.6,0c0.1,0,0.1,0,0.1-0.1c0-0.3,0-0.6-0.1-0.9
	c-0.2-0.9-0.7-1.7-1.4-2.3c-0.1,0-0.1,0-0.1,0c0,0.1-0.1,0.3-0.1,0.4c-0.1,0.3-0.6,0.5-1,0.3c0,0-0.1-0.1-0.1-0.1
	c-0.1-0.1-0.2-0.1-0.3-0.2c-0.1,0-0.1,0-0.1,0c-0.3,0.2-0.7,0.2-1,0c-0.1,0-0.1,0-0.1,0c0,0-0.1,0-0.1,0.1l0,0l0,0l0,0l0,0l0,0l0,0
	l0,0l0,0h0l0,0l0,0v0l0,0h0l0,0l0,0c-0.1,0.1-0.3,0.2-0.4,0.3c-0.3,0.2-0.7,0.1-0.9-0.3c-0.1-0.1-0.1-0.3-0.2-0.4
	C19.1,18.1,19.1,18.1,18.9,18.2C19,18.2,19,18.2,18.9,18.2L18.9,18.2L18.9,18.2z M17.7,21.9c-0.4,0-0.6,0.4-0.4,0.7l0,0
	c0.1,0.2,0.3,0.3,0.5,0.3c0.1,0,0.1,0,0.1-0.1c0-0.2,0-0.3,0-0.5v-0.3C17.9,22,17.8,21.9,17.7,21.9z M18.4,25h0.5v0c0,0,0,0,0,0
	c0,0,0,0,0-0.1c-0.4-0.4-0.6-0.8-0.8-1.3c0,0,0,0-0.1,0c-0.1,0-0.3,0-0.4,0c0,0-0.1,0-0.1,0.1c0,0.1,0,0.2,0,0.3c0,0.2,0,0.4,0,0.6
	c0,0.3,0.2,0.5,0.5,0.5H18.4z M21,25.4c0.7,0,1.3-0.1,1.8-0.4l0,0c0.6-0.4,1-0.9,1.2-1.5c0.1-0.5,0.1-0.9,0.1-1.4v0l0,0
	c0-0.1,0-0.1-0.1-0.1c-0.1,0-0.2,0-0.3,0h0l0,0h0h0l-0.1,0c-0.6,0-1.2-0.2-1.7-0.6c-0.3-0.2-0.5-0.5-0.7-0.8l0,0c0,0,0,0.1-0.1,0.1
	c-0.4,0.7-1,1.1-1.8,1.3c-0.3,0.1-0.6,0.1-0.9,0.1c-0.1,0-0.1,0-0.1,0.1c0,0.1,0,0.1,0,0.2l0,0c0,0.3,0,0.6,0,0.9
	C18.8,24.5,20,25.3,21,25.4z M24.6,25c0.2,0,0.5-0.2,0.5-0.4v0c0-0.2,0-0.5,0-0.7l0,0v0l0,0v0l0,0v0l0,0l0,0v0l0,0v0l0,0v0l0,0
	c0-0.1,0-0.2,0-0.3c0,0,0-0.1-0.1-0.1c-0.1,0-0.2,0-0.3,0c0,0-0.1,0-0.1,0c0,0-0.1,0-0.1,0.1c-0.1,0.3-0.2,0.6-0.4,0.8
	c-0.1,0.2-0.3,0.4-0.5,0.6l0.2,0l0.1,0h0C24.3,25,24.4,25,24.6,25z M24.8,23L24.8,23L24.8,23L24.8,23c0.4,0,0.7-0.3,0.5-0.7
	c-0.1-0.2-0.3-0.3-0.6-0.3c-0.1,0-0.1,0-0.1,0.1c0,0.1,0,0.2,0,0.3c0,0.2,0,0.4,0,0.6C24.7,22.9,24.7,23,24.8,23
	C24.8,23,24.8,23,24.8,23L24.8,23L24.8,23L24.8,23L24.8,23L24.8,23L24.8,23L24.8,23L24.8,23L24.8,23L24.8,23L24.8,23L24.8,23
	L24.8,23L24.8,23z M16.9,13.2c0,0.2,0,0.5,0,0.7l0,0.3c0,0.7,0.5,1.1,1.1,1.1c0.1,0,0.2,0,0.3,0h0h0c0.3,0,0.6,0,0.9,0
	c0.1,0,0.2,0,0.3,0.1c0.5,0.3,1.1,0.5,1.7,0.5c0.6,0,1.2-0.2,1.8-0.5c0.1,0,0.2-0.1,0.3-0.1c0.4,0,0.9,0,1.3,0c0.2,0,0.3,0,0.5-0.1
	c0.4-0.2,0.6-0.6,0.6-1c0-0.2,0-0.5,0-0.7c0-0.1,0-0.2,0-0.3c0,0,0-0.1,0-0.1c0.4-0.4,0.4-0.9,0-1.4c0-0.1-0.1-0.1-0.1-0.2
	c0-0.2,0-0.4,0-0.5v0v0v0v0v0v0v0v0v0v0v0v0v0l0-0.2c0-0.1,0-0.1,0-0.2v0v0v0v0v0v0l0,0v0v0v0c0-0.1,0-0.2,0-0.4
	c0-0.3,0-0.6-0.1-0.9c-0.4-1.2-1.2-2-2.5-2.2c-0.1,0-0.1-0.1-0.2-0.1c-0.1-0.4-0.4-0.7-0.9-0.9C21.6,6,21.3,6,21,6
	c-0.6,0.1-1.1,0.4-1.2,1c0,0,0,0.1-0.1,0.1c-0.4,0-0.8,0.2-1.1,0.3C17.5,8,17,9,16.9,10.2c0,0.3,0,0.7,0,1l0,0.2
	c0,0.1,0,0.2-0.1,0.2c-0.3,0.4-0.3,0.9,0,1.3C16.9,13,16.9,13.1,16.9,13.2L16.9,13.2z M18.7,14.7C18.7,14.7,18.7,14.7,18.7,14.7
	L18.7,14.7L18.7,14.7c-0.1,0-0.2,0-0.3,0l0,0h0l0,0h0l0,0h0l0,0h0l0,0h0l0,0l0,0h0c-0.2,0-0.3,0-0.5,0c-0.3,0-0.5-0.2-0.5-0.5
	c0-0.1,0-0.2,0-0.3c0,0,0-0.1,0-0.1h0c0,0,0-0.1,0-0.1v0l0,0v0l0,0v0l0,0v0l0,0v0l0,0v0l0,0v0c0-0.1,0-0.2,0-0.3
	c0-0.1,0-0.1,0.1-0.1c0.1,0,0.2,0,0.4,0l0,0c0,0,0.1,0,0.1,0c0.1,0.4,0.3,0.7,0.5,1c0,0.1,0.1,0.1,0.1,0.2v0l0,0h0l0,0v0l0,0l0,0
	l0,0h0v0l0,0l0,0l0,0C18.7,14.6,18.7,14.6,18.7,14.7L18.7,14.7L18.7,14.7C18.7,14.7,18.8,14.7,18.7,14.7L18.7,14.7z M25.1,14.3
	c0,0.3-0.2,0.4-0.4,0.5c-0.2,0-0.4,0-0.5,0c-0.1,0-0.1,0-0.2,0c0,0,0,0,0,0l0,0c0,0-0.1,0-0.1,0c0,0,0,0,0-0.1c0,0,0,0,0,0
	c0.3-0.4,0.5-0.7,0.7-1.2c0,0,0-0.1,0.1-0.1c0,0,0.1,0,0.1,0h0c0.1,0,0.2,0,0.3,0c0,0,0,0,0,0.1v0v0.4c0,0,0,0.1,0,0.1v0l0,0l0,0v0
	l0,0l0,0l0,0l0,0v0l0,0l0,0l0,0v0C25.1,14.1,25.1,14.2,25.1,14.3L25.1,14.3z M25.4,12c0.2,0.4-0.1,0.8-0.5,0.8c0,0,0,0,0,0
	c0,0,0,0-0.1,0c0,0-0.1,0-0.1-0.1c0-0.2,0-0.4,0-0.6l0,0c0-0.1,0-0.2,0-0.3c0-0.1,0-0.1,0.1-0.1C25.1,11.7,25.3,11.8,25.4,12
	L25.4,12z M20.4,7c0.1-0.2,0.3-0.3,0.5-0.4c0.3,0,0.6-0.1,0.9,0c0.2,0,0.4,0.2,0.5,0.4c0,0.1,0,0.1-0.1,0.1c-0.2,0-0.4,0-0.6,0
	l-0.3,0v0h-0.8c0,0,0,0,0,0C20.4,7.1,20.4,7.1,20.4,7C20.4,7,20.4,7,20.4,7L20.4,7z M17.5,10.1c0-1.2,1-2.4,2.4-2.5
	c0.3,0,0.6,0,0.9,0l0,0h0l0,0l0,0l0,0h0l0,0l0,0h0l0,0l0,0l0,0h0l0,0c0.2,0,0.4,0,0.6,0c0.2,0,0.4,0,0.6,0c0.3,0,0.6,0,0.8,0
	c1.2,0.1,2.1,0.8,2.3,1.9c0,0.1,0.1,0.3,0.1,0.4c0,0.1,0,0.3,0,0.4c0,0.2,0,0.4,0,0.6c0,0.1,0,0.1-0.1,0.1c-0.2,0-0.4,0-0.7,0
	c-0.1,0-0.2,0-0.3,0c-0.2,0-0.2,0-0.2-0.2c0-0.1,0-0.2,0-0.3c-0.1-0.3-0.3-0.5-0.6-0.5c-0.1,0-0.3,0-0.4,0c-0.2,0-0.3,0.1-0.3,0.3
	c0,0.2,0.1,0.3,0.3,0.3c0.1,0,0.2,0,0.2,0c0,0,0.1,0,0.1,0c0.1,0,0.1,0,0.1,0.1c0,0.1,0,0.3,0.1,0.4c0.1,0.3,0.4,0.4,0.7,0.4
	c0.1,0,0.1,0,0.1,0.1c0,0.1,0,0.1,0,0.2l0,0l0,0v0l0,0l0,0v0l0,0l0,0v0l0,0l0,0v0l0,0c0,0.3,0,0.6-0.1,0.9c-0.2,0.9-0.7,1.5-1.4,2
	c-0.5,0.3-1.1,0.4-1.6,0.3c-1-0.1-2.1-0.8-2.4-1.9c-0.1-0.3-0.1-0.6-0.2-0.9c0-0.1,0-0.2,0-0.3v0c0-0.1,0-0.2,0-0.2
	c0-0.1,0-0.1,0.1-0.1c0.5,0,0.8-0.4,0.7-0.8c0-0.1,0-0.1,0.2-0.1c0.1,0,0.3,0,0.4,0h0c0.1,0,0.3,0,0.4,0c0.2,0,0.4,0,0.6,0
	c0.2,0,0.4,0,0.6,0c0.1,0,0.2,0,0.2-0.1c0.1-0.1,0.2-0.2,0.1-0.3c0-0.1-0.1-0.2-0.3-0.2c0,0-0.1,0-0.1,0c-0.2,0-0.4,0-0.6,0h0
	c-0.4,0-0.9,0-1.3,0c-0.4,0-0.7,0.3-0.8,0.7c0,0.3,0,0.3-0.2,0.2l-0.1,0c-0.1,0-0.1,0-0.2,0c-0.2,0-0.4,0-0.6,0
	c-0.1,0-0.1,0-0.1-0.1C17.5,10.8,17.5,10.5,17.5,10.1L17.5,10.1z M17.2,12.1c0.1-0.2,0.4-0.4,0.6-0.4c0,0,0,0,0,0.1l0,0c0,0,0,0,0,0
	c0,0.1,0,0.2,0,0.2l0,0.2c0,0.1,0,0.3,0,0.5c0,0.1,0,0.1-0.1,0.1C17.4,12.8,17.1,12.5,17.2,12.1L17.2,12.1z M13.8,6.9
	c0.4-0.1,0.7-0.1,1,0.1l0,0c0.5,0.2,0.8,0.7,0.8,1.2c0.1,0.5-0.1,1-0.5,1.4c-0.1,0.1-0.2,0.2-0.3,0.2l0,0c0,0-0.1,0,0,0.1
	c0.2,0.4,0.2,0.8,0.1,1.2c0,0.2,0,0.3,0.2,0.5c0.3,0.3,0.4,0.7,0.2,1.1c-0.2,0.4-0.5,0.6-1,0.7c-0.1,0-0.1,0-0.2,0
	c-0.1,0-0.1,0-0.1,0.1c-0.2,0.8-0.7,1.4-1.4,1.8c-0.4,0.3-0.9,0.5-1.4,0.5c-1.3,0.2-2.3-0.3-3.1-1.2c-0.3-0.3-0.5-0.7-0.6-1.1
	c0-0.1-0.1-0.1-0.1-0.1c-0.4,0-0.8-0.1-1.1-0.5c-0.3-0.5-0.3-1.1,0.2-1.5c0.1-0.1,0.1-0.1,0.1-0.2c0-0.2,0-0.4,0-0.7l0,0l0,0l0,0
	l0,0l0,0l0,0l0,0v0l0,0l0,0l0,0l0,0c0-0.1,0-0.2,0-0.3c0-0.1,0-0.2,0-0.3v0c0-0.2,0-0.4,0-0.6c0.1-0.6,0.6-1.1,1.2-1.2
	c0,0,0.1,0,0.1,0h0h0c0.1,0,0.1,0,0.2,0c0.2,0,0.3-0.1,0.5-0.3C8.7,7.6,9,7.3,9.3,7.1c0.5-0.4,1-0.6,1.6-0.8
	c0.6-0.2,1.3-0.2,1.9-0.2c0.2,0,0.3,0,0.5,0.1c0.3,0.1,0.4,0.4,0.5,0.7C13.7,6.9,13.8,6.9,13.8,6.9L13.8,6.9z M6.6,12.3
	c0,0.3,0.3,0.6,0.6,0.5v0c0.1,0,0,0,0-0.1l0,0c0-0.1,0-0.1,0-0.2c0-0.1,0-0.1,0-0.2h0v-0.4c0-0.1,0-0.1-0.1-0.1
	C6.8,11.8,6.6,12,6.6,12.3z M12.6,14.6c0.6-0.5,0.9-1.1,1-1.8v0c0-0.2,0-0.4,0-0.7l0,0l0,0v0l0,0l0,0v0l0,0v0l0,0l0,0v0l0,0l0,0
	c0-0.1,0-0.1,0-0.2c0-0.1,0-0.1-0.1-0.1c-0.4,0-0.7-0.3-0.7-0.6c0-0.1,0-0.2,0-0.3c0-0.1,0-0.1-0.1-0.1l-0.1,0c-0.2,0-0.4,0-0.6,0.1
	c-0.4,0-0.7,0-1.1,0h0h0h0h0l0,0h0h0h0h0l0,0h0h0c-0.1,0-0.3,0-0.4,0v0H9.4l-0.1,0c-0.2,0-0.3,0-0.5,0c-0.1,0-0.1,0-0.2,0.2
	c0,0,0,0.1,0,0.1c0,0,0,0.1,0,0.1c0,0.1,0,0.2-0.1,0.3c-0.1,0.2-0.4,0.3-0.6,0.3c0,0,0,0,0,0c0,0-0.1,0-0.1,0.1c0,0.1,0,0.1,0,0.2
	c0,0.3,0,0.7,0.1,1c0.3,1.3,1.4,2.2,2.7,2.3C11.4,15.3,12,15.1,12.6,14.6z M13.4,11.2h0.4v0c0,0,0.1,0,0.1,0h0h0l0,0l0,0l0,0l0,0h0
	l0,0l0,0l0,0l0,0h0l0,0l0,0c0.1,0,0.2,0,0.3,0c0.1,0,0.1,0,0.1-0.1c0-0.1,0-0.1,0-0.2v0c0,0,0-0.1,0-0.1l0,0c0-0.2,0-0.3-0.1-0.5
	c0-0.1-0.1-0.1-0.1-0.1c-0.2,0.1-0.5,0.2-0.8,0.3c0,0-0.1,0-0.1,0.1l0,0l0,0C13.3,10.8,13.3,10.9,13.4,11.2
	C13.3,11.1,13.4,11.2,13.4,11.2z M14.3,12.8c0.3,0,0.5-0.4,0.5-0.6h0c-0.1-0.3-0.3-0.4-0.6-0.4c-0.1,0-0.1,0-0.1,0.1v0.5h0
	c0,0,0,0.1,0,0.1v0l0,0l0,0v0l0,0v0l0,0v0l0,0v0l0,0v0c0,0.1,0,0.1,0,0.2l0,0c0,0.1,0,0.2,0,0.2C14.2,12.8,14.2,12.8,14.3,12.8
	L14.3,12.8z M12.5,10.1c0.9-0.1,1.7-0.5,2.3-1.1l0,0c0.5-0.4,0.4-1.1-0.1-1.5c-0.3-0.2-0.5-0.2-0.8-0.1c-0.4,0.1-0.7-0.1-0.8-0.4
	c0,0,0,0,0-0.1v0c0,0,0,0,0-0.1c0-0.2-0.1-0.2-0.3-0.2c-0.4,0-0.8,0-1.2,0c-1.1,0.2-2.1,0.6-2.8,1.5c-0.2,0.3-0.6,0.5-1,0.5
	C7.4,8.7,7.1,9,7.1,9.5l0,0.3v0c0,0.4,0,0.8,0,1.2c0,0.1,0,0.1,0.1,0.1c0.2,0,0.3,0,0.5,0c0.1,0,0.1,0,0.2,0c0.2,0,0.3-0.1,0.3-0.3
	c0-0.4,0.3-0.7,0.7-0.7h1.6v0c0.1,0,0.2,0,0.3,0h0c0.2,0,0.4,0,0.6,0h0C11.8,10.2,12.1,10.2,12.5,10.1z M11.4,23.8L11.4,23.8
	C11.4,23.8,11.4,23.8,11.4,23.8c-0.4,0.2-0.7,0.3-1,0.2c-0.2,0-0.4-0.1-0.5-0.3c-0.1-0.1-0.2-0.1-0.3-0.1c-0.1,0-0.2,0.1-0.2,0.2
	c0,0.1,0,0.2,0.1,0.3c0.3,0.3,0.7,0.4,1.1,0.4c0.4,0,0.8-0.2,1.2-0.4c0.1-0.1,0.1-0.3,0.1-0.4C11.8,23.7,11.7,23.6,11.4,23.8
	L11.4,23.8C11.5,23.7,11.5,23.7,11.4,23.8z M12.5,22.6L12.5,22.6C12.5,22.6,12.5,22.6,12.5,22.6L12.5,22.6L12.5,22.6
	c0,0.1,0,0.1,0,0.1c0,0,0,0.1,0,0.1c0,0.2-0.1,0.3-0.3,0.3c-0.2,0-0.3-0.1-0.3-0.3c0-0.1,0-0.3,0-0.4c0-0.2,0.1-0.3,0.3-0.3
	c0.2,0,0.3,0.1,0.3,0.3C12.5,22.5,12.5,22.5,12.5,22.6z M9.5,22.4c0-0.1-0.2-0.2-0.3-0.2c-0.1,0-0.3,0.1-0.3,0.3c0,0,0,0.1,0,0.1
	c0,0,0,0,0,0.1c0,0,0,0,0,0.1l0,0v0l0,0l0,0l0,0v0l0,0l0,0l0,0c0,0.1,0,0.1,0,0.2c0,0.2,0.1,0.3,0.3,0.3c0.2,0,0.3-0.1,0.3-0.3
	C9.5,22.7,9.5,22.5,9.5,22.4L9.5,22.4z M22,23.8c0,0,0.1,0,0.1-0.1v0c0.1-0.1,0.3-0.1,0.4,0.1c0.1,0.1,0.1,0.3-0.1,0.4
	c-0.3,0.2-0.6,0.4-0.9,0.4l0,0l0,0c-0.1,0-0.1,0-0.2,0c-0.4,0-0.8-0.2-1.1-0.4c-0.1-0.1-0.1-0.2-0.1-0.3c0-0.1,0.1-0.2,0.2-0.2
	c0.1,0,0.2,0,0.2,0.1c0.2,0.1,0.3,0.2,0.5,0.3C21.4,24.1,21.7,24,22,23.8z M23.1,22.3c0-0.1-0.2-0.2-0.3-0.2c-0.1,0-0.2,0.1-0.3,0.2
	c0,0.2,0,0.3,0,0.5c0,0.2,0.1,0.3,0.3,0.3c0.2,0,0.3-0.1,0.3-0.3c0-0.1,0-0.1,0-0.2l0,0l0,0l0,0v0l0,0l0,0l0,0l0,0c0,0,0,0,0,0
	c0,0,0,0,0,0h0c0,0,0,0,0,0c0,0,0-0.1,0-0.1C23.1,22.5,23.1,22.4,23.1,22.3L23.1,22.3z M20.1,22.6L20.1,22.6
	C20.1,22.7,20.1,22.7,20.1,22.6L20.1,22.6L20.1,22.6L20.1,22.6L20.1,22.6L20.1,22.6L20.1,22.6c0,0.1,0,0.2,0,0.2
	c0,0.2-0.1,0.3-0.3,0.3c-0.1,0-0.3-0.1-0.3-0.3c0-0.2,0-0.3,0-0.5c0-0.2,0.1-0.3,0.3-0.3c0.2,0,0.3,0.1,0.3,0.3
	C20.1,22.5,20.1,22.5,20.1,22.6C20.1,22.6,20.1,22.6,20.1,22.6z M20.5,13.6c-0.2-0.1-0.3-0.1-0.4,0C20,13.7,20,13.9,20.2,14
	c0.3,0.3,0.7,0.4,1.2,0.4c0.3,0,0.7-0.2,1-0.4c0.1-0.1,0.2-0.3,0.1-0.4c-0.1-0.1-0.3-0.1-0.4,0c0,0,0,0-0.1,0l0,0h0v0h0
	c0,0-0.1,0.1-0.1,0.1C21.5,14,21,13.9,20.5,13.6L20.5,13.6z M23.1,12.7c0,0.1-0.1,0.2-0.3,0.2c-0.1,0-0.3-0.1-0.3-0.2
	c0-0.2,0-0.3,0-0.5c0-0.1,0.1-0.2,0.3-0.2c0.1,0,0.2,0.1,0.3,0.2c0,0.1,0,0.2,0,0.2c0,0,0,0,0,0.1c0,0,0,0.1,0,0.1
	C23.1,12.6,23.1,12.7,23.1,12.7z M20.1,12.5L20.1,12.5C20.1,12.5,20.1,12.4,20.1,12.5L20.1,12.5L20.1,12.5L20.1,12.5
	c0-0.1,0-0.1,0-0.2c0-0.2-0.1-0.3-0.3-0.3c-0.2,0-0.3,0.1-0.3,0.3c0,0.1,0,0.3,0,0.4c0,0.2,0.1,0.3,0.3,0.3c0.1,0,0.3-0.1,0.3-0.3
	C20.1,12.6,20.1,12.6,20.1,12.5C20.1,12.5,20.1,12.5,20.1,12.5L20.1,12.5z M10.7,13.9c0.3,0,0.6-0.1,0.8-0.3v0
	c0.2-0.1,0.4-0.1,0.5,0.2c0,0.1,0,0.2-0.1,0.3c-0.3,0.3-0.7,0.4-1.1,0.4c-0.5,0-0.9-0.2-1.2-0.4c-0.1-0.1-0.1-0.2-0.1-0.3
	c0-0.1,0.1-0.2,0.3-0.2c0.1,0,0.1,0,0.2,0.1C10.2,13.8,10.4,13.9,10.7,13.9z M12.5,12.5C12.5,12.5,12.5,12.4,12.5,12.5
	c0-0.1,0-0.2,0-0.2c0-0.2-0.1-0.3-0.3-0.3c-0.2,0-0.3,0.1-0.3,0.3c0,0.1,0,0.2,0,0.4c0,0.2,0.1,0.3,0.3,0.3c0.2,0,0.3-0.1,0.3-0.3
	C12.5,12.6,12.5,12.6,12.5,12.5L12.5,12.5C12.5,12.5,12.5,12.5,12.5,12.5L12.5,12.5L12.5,12.5z M9.1,12c0.1,0,0.3,0.1,0.3,0.2l0,0
	c0,0.2,0,0.4,0,0.6c0,0.1-0.2,0.2-0.3,0.2c-0.1,0-0.3-0.1-0.3-0.3c0-0.1,0-0.1,0-0.2c0,0,0,0,0-0.1h0c0,0,0,0,0-0.1c0,0,0-0.1,0-0.1
	C8.9,12.1,9,12,9.1,12z"/>
</svg>
