<?xml version="1.0" encoding="utf-8"?>
<!-- Generator: Adobe Illustrator 28.3.0, SVG Export Plug-In . SVG Version: 6.00 Build 0)  -->
<svg version="1.1" id="Capa_1" xmlns="http://www.w3.org/2000/svg" xmlns:xlink="http://www.w3.org/1999/xlink" x="0px" y="0px"
	 viewBox="0 0 32 32" style="enable-background:new 0 0 32 32;" xml:space="preserve">
<style type="text/css">
	.st0{fill-rule:evenodd;clip-rule:evenodd;fill:#7B61FF;}
</style>
<path class="st0" d="M0,16C0,7.2,7.2,0,16,0c8.8,0,16,7.2,16,16c0,8.8-7.2,16-16,16C7.2,32,0,24.8,0,16z M21.8,12.1
	c-0.1-0.2-0.2-0.4-0.4-0.7c-0.1-0.1-0.3-0.2-0.4-0.1c-0.1,0.1-0.2,0.2-0.1,0.4c0,0.1,0.1,0.1,0.1,0.2l0,0c0.4,0.8,0.7,1.6,0.8,2.5
	c0,0.1,0,0.1-0.1,0.1c-0.4,0-0.9,0-1.3,0c-0.1,0-0.1,0-0.1-0.1c-0.2-0.4-0.4-0.7-0.9-0.8c-0.7-0.2-1.4,0.2-1.6,0.9
	c0,0.1,0,0.1-0.1,0.1c-0.4,0-0.9,0-1.3,0c-0.1,0-0.1,0-0.1-0.1c0-0.3,0-0.7,0-1c0-0.2,0-0.3,0-0.5c0-0.3-0.1-0.4-0.3-0.4
	c-0.3,0-0.5-0.2-0.6-0.4c-0.2-0.5,0.1-1,0.6-1c0.2,0,0.3-0.1,0.3-0.4c0-0.2,0-0.4,0-0.6c0-0.3,0-0.6,0-0.9c0-0.1,0-0.1,0.1-0.1
	c0.6,0,1.2,0.2,1.7,0.4c0.6,0.3,1.2,0.6,1.7,1.1c0.1,0.1,0.1,0.1,0.2,0.2l0,0l0,0v0h0l0,0l0,0c0,0,0.1,0.1,0.1,0.1
	c0.1,0.1,0.1,0.1,0.2,0.1c0.1,0,0.2-0.1,0.3-0.2c0.1-0.1,0-0.2-0.1-0.3c-0.4-0.4-0.8-0.8-1.3-1.1c-0.8-0.5-1.7-0.8-2.7-0.9
	c-0.9-0.1-1.8,0-2.7,0.3c-0.7,0.3-1.4,0.7-2,1.2c0,0-0.1,0-0.1,0.1c-0.1,0.1-0.1,0.2,0,0.4c0.1,0.1,0.2,0.1,0.3,0.1
	c0,0,0.1-0.1,0.1-0.1c0.4-0.4,0.9-0.7,1.4-0.9C14.3,9.2,15,9.1,15.6,9c0.1,0,0.1,0,0.1,0.1c0,0.2,0,0.5,0,0.7v0v0v0v0v0v0v0v0v0
	c0,0.2,0,0.3,0,0.5c0,0.1-0.1,0.2-0.2,0.3c-0.5,0.2-0.8,0.7-0.8,1.2c0,0.5,0.4,1.1,0.9,1.2c0.1,0,0.1,0.1,0.1,0.1c0,0.4,0,0.8,0,1.3
	c0,0.1,0,0.1-0.1,0.1c-0.5,0-1,0-1.6,0c-0.2,0-0.3,0.1-0.4,0.3c0,0.2-0.1,0.4-0.2,0.5c-0.2,0.2-0.5,0.3-0.8,0.2
	c-0.3-0.1-0.4-0.3-0.5-0.6c0-0.2-0.1-0.3-0.4-0.3c0,0-0.1,0-0.1,0l0,0h-0.3c-0.4,0-0.8,0-1.2,0c-0.1,0-0.1,0-0.1-0.1
	c0-0.3,0.1-0.6,0.1-0.9c0.2-0.7,0.5-1.4,0.9-2c0,0,0,0,0-0.1c0-0.1,0.1-0.1,0.1-0.2c0.1-0.2,0-0.4-0.2-0.4c-0.1,0-0.2,0.1-0.3,0.2
	c-0.3,0.4-0.5,0.8-0.7,1.2c-0.5,1.1-0.6,2.3-0.4,3.4c0.1,0.9,0.5,1.8,1,2.5c0.5,0.7,1.1,1.3,1.8,1.8c0.2,0.2,0.5,0.3,0.8,0.4
	c0.2,0.1,0.4,0.3,0.4,0.5c0,0.1,0,0.3,0,0.4l0,0c0,0.1,0,0.2,0,0.2c0,0,0,0.1-0.1,0.1l0,0l0,0l0,0l0,0h0l0,0h0l0,0l0,0h0l0,0h0
	c-0.1,0-0.1,0-0.2,0c-0.4,0.1-0.7,0.4-0.7,0.8c0,0.4,0.2,0.8,0.6,0.9c0.1,0,0.2,0.1,0.3,0.1c0.1,0,0.1,0,0.1,0.1c0,0.3,0,0.6,0,0.8
	v0l0,0v0v0v0l0,0v0v0v0l0,0.3c0,0.1,0,0.2,0,0.3c0.1,0.5,0.6,0.9,1.1,0.9c0.3,0,0.5,0,0.8,0h0h0h0h0h0h0c0.1,0,0.3,0,0.4,0h1
	c0.1,0,0.2,0,0.3,0c0.5-0.1,0.9-0.5,1-1c0-0.3,0-0.6,0-0.9l0,0v0v0v0v0v0v0v0v0v0v0c0-0.1,0-0.3,0-0.4c0-0.1,0-0.1,0.1-0.1
	c0.1,0,0.2,0,0.3-0.1c0.4-0.1,0.6-0.5,0.6-1c-0.1-0.4-0.2-0.6-0.6-0.7c-0.1,0-0.2-0.1-0.3,0c-0.1,0-0.1,0-0.1-0.1c0-0.1,0-0.2,0-0.3
	c0-0.4,0.1-0.7,0.5-0.8c0.4-0.2,0.8-0.4,1.1-0.7c0.9-0.8,1.6-1.7,2-2.8c0.3-0.9,0.5-1.7,0.4-2.6C22.3,13.5,22.1,12.8,21.8,12.1
	L21.8,12.1z M13.6,20L13.4,20l0,0c-0.3-0.2-0.7-0.4-1-0.6c-1.1-0.9-1.8-2-2.1-3.4c-0.1-0.2-0.1-0.5-0.1-0.8c0-0.1,0-0.1,0.1-0.1
	c0.4,0,0.9,0,1.3,0c0.1,0,0.1,0,0.1,0.1l0,0c0.1,0.3,0.2,0.5,0.4,0.7c0.5,0.4,1.5,0.5,2-0.4c0-0.1,0.1-0.2,0.1-0.2
	c0-0.1,0-0.1,0.1-0.1c0.4,0,0.9,0,1.3,0c0.1,0,0.1,0,0.1,0.1c0,0.2,0,0.4,0,0.6l0,0.2h0v0.8c0,0.1,0,0.3,0.2,0.3c0.1,0,0.1,0,0.2,0
	c0,0,0,0,0.1,0c0.4,0,0.6,0.4,0.6,0.7c0,0.4-0.3,0.7-0.6,0.7c-0.3,0-0.4,0.1-0.4,0.4c0,0.9,0,1.8,0,2.7c0,0.1,0,0.1,0,0.1
	c0,0,0,0-0.1,0h0l-0.3,0c-0.3,0-0.6,0-1,0c-0.1,0-0.1,0-0.1-0.1c0,0,0,0,0,0c0-0.1,0-0.1,0-0.2l0,0c0-0.1,0-0.3,0-0.4
	C14.2,20.6,14,20.3,13.6,20L13.6,20z M17.7,24.9L17.7,24.9c0,0.1,0,0.1,0,0.2c-0.1,0.3-0.2,0.4-0.5,0.4c-0.6,0-1.1,0-1.7,0h0h-0.2
	l-0.1,0c-0.2,0-0.3,0-0.5,0c-0.3,0-0.5-0.3-0.5-0.6c0-0.1,0-0.1,0.1-0.1c0,0,0,0,0,0c0.2,0,0.5,0,0.7,0h0c0.2,0,0.5,0,0.7,0H16v0
	l0.4,0l0,0l0,0h0l0,0l0,0h0l0,0h0l0,0C16.8,24.8,17.2,24.8,17.7,24.9C17.7,24.8,17.7,24.8,17.7,24.9z M18.4,22.4
	c0.2,0,0.3,0.1,0.4,0.3c0,0.2-0.1,0.3-0.3,0.3c-0.2,0-0.4,0-0.6,0c-0.1,0-0.1,0-0.2,0c-0.1,0-0.3,0-0.4,0h0c-0.2,0-0.4,0-0.6,0
	c-0.1,0-0.1,0-0.2,0c-0.1,0-0.2,0.1-0.2,0.3c0,0.2,0.1,0.3,0.2,0.3c0.1,0,0.1,0,0.2,0c0.1,0,0.2,0,0.2,0c0.2,0,0.5,0,0.7,0
	c0.1,0,0.1,0,0.1,0.1c0,0.1,0,0.3,0,0.4c0,0.1,0,0.1-0.1,0.1c-0.5,0-1,0-1.6,0h0h0l0,0h0l0,0h0l0,0h0h0h-0.4l-0.3,0h0
	c-0.3,0-0.6,0-1,0c-0.1,0-0.1,0-0.1-0.1c0-0.1,0-0.3,0-0.4c0-0.1,0-0.1,0.1-0.1c0.2,0,0.3,0,0.5,0c0.1,0,0.3,0,0.4,0
	c0.1,0,0.2,0,0.2-0.1c0.1-0.1,0.1-0.2,0.1-0.3c0-0.1-0.1-0.2-0.2-0.2c-0.1,0-0.2,0-0.2,0h0c-0.3,0-0.5,0-0.8,0c-0.3,0-0.5,0-0.8,0
	c-0.1,0-0.1,0-0.2,0c-0.1,0-0.3-0.1-0.3-0.3c0-0.1,0.1-0.3,0.2-0.3c0.1,0,0.1,0,0.2,0c0.5,0,1.1,0,1.6,0l0.8,0L18.4,22.4L18.4,22.4z
	 M21.8,15.2c-0.1,0.8-0.3,1.6-0.6,2.3c-0.6,1.1-1.5,2-2.6,2.5c-0.5,0.3-0.8,0.7-0.8,1.3c0,0.1,0,0.3,0,0.4l0,0.1
	c0,0.1,0,0.1-0.1,0.1c-0.4,0-0.8,0-1.3,0c-0.1,0-0.1,0-0.1-0.1c0-0.3,0-0.6,0-0.9v0v0l0,0v0v0v0l0,0v0v0l0-0.3l0-0.3
	c0-0.3,0-0.6,0-0.9c0-0.1,0-0.1,0.1-0.1c0.5-0.2,0.9-0.7,0.9-1.2c0-0.6-0.4-1.1-0.9-1.3c-0.1,0-0.1,0-0.1-0.1c0-0.4,0-0.9,0-1.3
	c0-0.1,0-0.1,0.1-0.1c0.4,0,0.7,0,1.1,0l0.4,0l0.1,0l0,0c0.1,0,0.1,0,0.2,0c0.2,0,0.3-0.1,0.3-0.3c0-0.2,0.1-0.4,0.3-0.6
	c0.2-0.2,0.5-0.2,0.8-0.1c0.2,0.1,0.4,0.3,0.4,0.6c0,0.2,0.1,0.3,0.4,0.3c0.2,0,0.3,0,0.5,0h0h0h0h0l0,0h0h0h0h0h0
	c0.4,0,0.7,0,1.1,0C21.8,15.1,21.8,15.1,21.8,15.2L21.8,15.2z M25.7,15.7c0.1,0,0.2,0.1,0.3,0.2l0,0c0,0.1,0,0.2-0.1,0.3
	c-0.1,0.1-0.1,0.1-0.2,0.1l-0.1,0c-0.4,0-0.7,0-1.1,0c-0.2,0-0.3-0.1-0.3-0.3c0-0.2,0.1-0.3,0.3-0.3c0.1,0,0.1,0,0.2,0l0.1,0h0.3v0
	c0.1,0,0.1,0,0.2,0h0C25.4,15.7,25.6,15.7,25.7,15.7z M7.6,16.3c0.1,0,0.2-0.1,0.2-0.2c0.1-0.2-0.1-0.4-0.3-0.4c-0.1,0-0.3,0-0.4,0
	h0h0h0h0h0h0h0c-0.1,0-0.1,0-0.2,0v0c-0.1,0-0.1,0-0.2,0h0h0h0h0h0h0h0c-0.1,0-0.3,0-0.4,0c-0.1,0-0.2,0.1-0.3,0.2
	c0,0.1,0,0.2,0.1,0.3c0.1,0.1,0.2,0.1,0.3,0.1c0.3,0,0.7,0,1,0C7.4,16.3,7.5,16.3,7.6,16.3z M16,7.8c-0.2,0-0.3-0.1-0.3-0.3h0
	c0-0.1,0-0.2,0-0.2l0-0.1c0-0.3,0-0.5,0-0.8c0-0.1,0-0.1,0-0.2C15.7,6.1,15.9,6,16,6c0.1,0,0.2,0.1,0.3,0.2c0,0.1,0,0.1,0,0.2v0v0
	v0.5h0l0,0.2c0,0.1,0,0.2,0,0.4C16.3,7.7,16.2,7.8,16,7.8z M8.5,20c0,0-0.1,0-0.1,0.1l-0.2,0.1l0,0c-0.2,0.1-0.5,0.3-0.7,0.4
	c0,0-0.1,0.1-0.1,0.1c-0.1,0.1-0.1,0.2-0.1,0.3c0,0.1,0.1,0.2,0.2,0.2c0.1,0,0.1,0,0.2-0.1C7.9,21,8,21,8.1,20.9
	c0.1,0,0.2-0.1,0.2-0.1c0.1,0,0.1-0.1,0.2-0.1h0l0,0h0l0,0h0c0.1-0.1,0.2-0.1,0.3-0.2c0.1-0.1,0.2-0.3,0.1-0.4
	C8.8,20,8.7,19.9,8.5,20z M24.6,11.4c-0.4,0.2-0.7,0.4-1.1,0.6v0c-0.1,0.1-0.3,0-0.4-0.1c-0.1-0.1,0-0.3,0.1-0.4
	c0.4-0.2,0.7-0.4,1.1-0.6c0.2-0.1,0.4,0.1,0.4,0.3C24.7,11.2,24.6,11.3,24.6,11.4z M20.5,8.8c0.1-0.2,0.3-0.4,0.4-0.7v0
	C21,8,21,7.9,21.1,7.7c0,0,0-0.1,0-0.1c0-0.2-0.2-0.3-0.4-0.3c-0.1,0-0.2,0.1-0.2,0.2c-0.1,0.1-0.1,0.2-0.2,0.4l0,0l0,0l-0.1,0.2
	l-0.1,0.1c-0.1,0.1-0.1,0.2-0.2,0.3c0,0.1-0.1,0.2,0,0.3C20.1,9,20.4,9,20.5,8.8z M8,11.1c0.3,0.1,0.5,0.3,0.8,0.5h0
	c0.1,0.1,0.2,0.2,0.1,0.3c0,0.1-0.2,0.2-0.3,0.2c0,0-0.1,0-0.1-0.1c-0.3-0.2-0.7-0.4-1-0.6c-0.1-0.1-0.2-0.2-0.2-0.3
	c0-0.1,0.1-0.2,0.2-0.2c0.1,0,0.1,0,0.2,0C7.8,10.9,7.9,11,8,11.1z M24.5,20.6L24.5,20.6c-0.4-0.2-0.7-0.4-1-0.6
	c-0.1-0.1-0.3,0-0.4,0.1c-0.1,0.1-0.1,0.3,0.1,0.4c0.4,0.2,0.7,0.4,1.1,0.6c0.2,0.1,0.4-0.1,0.4-0.3C24.7,20.7,24.6,20.6,24.5,20.6z
	 M11.3,8.4c0,0,0-0.1-0.1-0.1h0c0,0,0-0.1-0.1-0.1C11.1,8,11,7.9,10.9,7.7c-0.1-0.2,0-0.4,0.3-0.4c0.1,0,0.1,0,0.2,0.1
	c0.2,0.4,0.4,0.7,0.6,1.1c0.1,0.1,0,0.3-0.1,0.4c-0.1,0.1-0.3,0-0.4-0.1C11.4,8.7,11.4,8.5,11.3,8.4z"/>
</svg>
