<svg width="16" height="16" viewBox="0 0 16 16" fill="none" xmlns="http://www.w3.org/2000/svg">
<g clip-path="url(#clip0_1423:24389)">
<path d="M6.16393 10.3008L5.91844 11.7588C5.88498 11.9582 5.96677 12.159 6.12995 12.278C6.2934 12.3967 6.51043 12.4126 6.689 12.319L7.99989 11.6347L9.31078 12.3191C9.38833 12.3594 9.47332 12.3796 9.55742 12.3796C9.66753 12.3796 9.77739 12.3452 9.87008 12.2781C10.0334 12.1592 10.1154 11.9583 10.0817 11.7589L9.83649 10.3009L10.892 9.26549C11.0364 9.12409 11.0878 8.91309 11.0259 8.72105C10.9637 8.52915 10.7973 8.38865 10.5976 8.35917L9.1349 8.14227L8.47612 6.81818C8.38677 6.63742 8.20166 6.52295 7.99976 6.52295C7.79824 6.52295 7.61326 6.63742 7.52314 6.81818L6.86501 8.14227L5.40234 8.35904C5.20223 8.38853 5.03661 8.52902 4.97431 8.72093C4.91201 8.91296 4.96328 9.12422 5.10788 9.26536L6.16393 10.3008Z" fill="#0CB5C3"/>
<path d="M14.2863 1.70098H12.6115V0.771971C12.6115 0.345605 12.2659 0 11.8394 0H11.717C11.2906 0 10.9451 0.345605 10.9451 0.771971V1.70098H5.03587V0.771971C5.03587 0.345605 4.69027 0 4.26403 0H4.14148C3.71511 0 3.36964 0.345605 3.36964 0.771971V1.70098H1.7143C0.838363 1.70098 0.125488 2.41359 0.125488 3.28979V14.4113C0.125488 15.287 0.838363 16.0001 1.7143 16.0001H14.2864C15.1623 16.0001 15.8753 15.2871 15.8753 14.4113V3.28979C15.8751 2.41359 15.1621 1.70098 14.2863 1.70098ZM14.079 14.204H1.92158V5.5466H14.079V14.204Z" fill="#0CB5C3"/>
</g>
<defs>
<clipPath id="clip0_1423:24389">
<rect width="16" height="16" fill="white"/>
</clipPath>
</defs>
</svg>
