<svg width="16" height="16" viewBox="0 0 16 16" fill="none" xmlns="http://www.w3.org/2000/svg">
<path d="M5.08 10.9773L5.315 10.7133C5.14331 10.1645 5.14284 9.56045 5.32625 9.00264C3.97563 9.74467 2.26572 9.44898 1.245 8.2417C0.486875 8.84295 0 9.77201 0 10.8126V15.5001C0 15.7589 0.21 15.9689 0.46875 15.9689H4.33063C4.27844 15.8223 4.25 15.6645 4.25 15.5001V13.1564C4.25 12.3526 4.54469 11.5786 5.08 10.9773V10.9773Z" fill="#0CB5C3"/>
<path d="M3.75 8.46874C5.04442 8.46874 6.09375 7.41941 6.09375 6.125C6.09375 4.83058 5.04442 3.78125 3.75 3.78125C2.45558 3.78125 1.40625 4.83058 1.40625 6.125C1.40625 7.41941 2.45558 8.46874 3.75 8.46874Z" fill="#0CB5C3"/>
<path d="M14.7551 8.2417C13.7325 9.45117 12.0214 9.74361 10.6738 9.00232C10.857 9.56126 10.857 10.1638 10.6851 10.7133L10.9201 10.9773C11.4554 11.5786 11.7501 12.3526 11.7501 13.1564V15.5001C11.7501 15.6645 11.7216 15.8223 11.6695 15.9689H15.5313C15.7901 15.9689 16.0001 15.7589 16.0001 15.5001V10.8126C16.0001 9.77201 15.5132 8.84295 14.7551 8.2417V8.2417Z" fill="#0CB5C3"/>
<path d="M12.25 8.46874C13.5444 8.46874 14.5938 7.41941 14.5938 6.125C14.5938 4.83058 13.5444 3.78125 12.25 3.78125C10.9556 3.78125 9.90625 4.83058 9.90625 6.125C9.90625 7.41941 10.9556 8.46874 12.25 8.46874Z" fill="#0CB5C3"/>
<path d="M8 12.6873C7.09875 12.6873 6.29531 12.2613 5.78031 11.6001C5.41156 12.0145 5.1875 12.5595 5.1875 13.156V15.4998C5.1875 15.7585 5.3975 15.9685 5.65625 15.9685H10.3438C10.6025 15.9685 10.8125 15.7585 10.8125 15.4998V13.156C10.8125 12.5595 10.5884 12.0145 10.2197 11.6001C9.70469 12.2613 8.90125 12.6873 8 12.6873V12.6873Z" fill="#0CB5C3"/>
<path d="M8 11.75C9.03553 11.75 9.875 10.9105 9.875 9.875C9.875 8.83946 9.03553 8 8 8C6.96447 8 6.125 8.83946 6.125 9.875C6.125 10.9105 6.96447 11.75 8 11.75Z" fill="#0CB5C3"/>
<path d="M6.66622 3.81218C7.20141 4.30681 7.73194 4.63531 7.75425 4.64906C7.90497 4.74181 8.095 4.74181 8.24572 4.64906C8.26806 4.63531 8.79856 4.30681 9.33375 3.81218C10.1076 3.09699 10.5 2.40171 10.5 1.74568C10.5 0.255806 9.01844 -0.443538 8 0.384118C6.97928 -0.445382 5.5 0.259743 5.5 1.74568C5.5 2.40171 5.89237 3.09699 6.66622 3.81218V3.81218Z" fill="#0CB5C3"/>
</svg>
