<svg width="16" height="16" viewBox="0 0 16 16" fill="none" xmlns="http://www.w3.org/2000/svg">
<path d="M7.43483 8.90092C7.56789 9.03829 7.79055 9.12545 8.02844 9.12514C8.26602 9.12701 8.48931 9.03673 8.61582 8.90648L14.4844 2.99821C14.8771 2.60309 14.7437 2.28271 14.1864 2.28271H1.91232C1.35535 2.28271 1.22105 2.60403 1.61211 3.00034L7.43483 8.90092Z" fill="#0CB5C3"/>
<path d="M0.705256 12.0614L4.69973 7.97724L0.708635 3.9325C0.317259 3.53614 0 3.66639 0 4.22341V11.7742C0 12.3309 0.3157 12.4596 0.705256 12.0614Z" fill="#0CB5C3"/>
<path d="M1.90764 13.717H14.0921C14.6491 13.717 14.7852 13.3938 14.396 12.9956L10.422 8.92638L9.53568 9.8202C9.12008 10.2361 8.56743 10.4216 8.02782 10.4225C7.49003 10.4219 6.93337 10.2355 6.51252 9.81371L5.61158 8.90039L1.60468 12.9963C1.21512 13.3941 1.35067 13.717 1.90764 13.717Z" fill="#0CB5C3"/>
<path d="M15.9998 11.7725V4.32193C15.9998 3.76496 15.6816 3.63377 15.289 4.02884L11.3379 8.00596L15.2955 12.0594C15.6843 12.4579 15.9998 12.3295 15.9998 11.7725Z" fill="#0CB5C3"/>
</svg>
