<svg width="16" height="16" viewBox="0 0 16 16" fill="none" xmlns="http://www.w3.org/2000/svg">
<path d="M7.9502 5.5C9.46898 5.5 10.7002 4.26878 10.7002 2.75C10.7002 1.23122 9.46898 0 7.9502 0C6.43141 0 5.2002 1.23122 5.2002 2.75C5.2002 4.26878 6.43141 5.5 7.9502 5.5Z" fill="#0CB5C3"/>
<path d="M12.05 5.5498C11.3 5.5498 9.95 7.1498 8 7.1498C6.05 7.1498 4.65 5.5498 3.95 5.5498C3.25 5.5498 2 5.9498 2 7.0998C2 8.2498 2.8 8.7998 2.8 8.7998L4.4 9.5998V10.2998C4.4 10.2998 2.8 12.7998 2.8 13.5998C2.8 14.3498 3.6 15.9998 4.8 15.9998C5.95 15.9998 6.4 15.1998 6.4 15.1998L7.6 12.7998H8.35L9.6 15.1998C9.6 15.1998 9.95 15.9998 11.1 15.9998C12.25 15.9998 13.15 14.3998 13.15 13.5998C13.15 12.7998 11.55 10.3998 11.55 10.3998V9.5998L13.15 8.7998C13.15 8.7998 13.95 8.2998 13.95 7.0998C13.9 5.9498 12.75 5.5498 12.05 5.5498Z" fill="#0CB5C3"/>
</svg>
