<svg width="27" height="33" viewBox="0 0 27 33" fill="none" xmlns="http://www.w3.org/2000/svg">
<g clip-path="url(#clip0_2428_5963)">
<path d="M19.3822 2.95702C21.5942 3.02105 22.5838 3.92914 22.9796 6.21103C23.0087 6.37402 23.1892 6.5894 23.3405 6.64179C26.5247 7.6896 27.3804 12.0904 24.4815 14.3664C24.1555 14.6226 24.0565 14.8321 24.138 15.2687C24.3418 16.3805 24.0449 17.3876 23.3173 18.2841C23.1252 18.5169 23.0029 18.8836 23.0146 19.1863C23.1077 21.8175 21.2217 23.4532 18.608 22.9817C18.4159 22.9468 18.1365 23.0225 17.9909 23.1563C17.0188 24.0295 15.9186 24.0412 14.7544 23.6919C14.2247 23.5347 13.986 23.2204 13.9918 22.6208C14.0151 18.3306 14.0035 14.0405 14.0035 9.75028C14.0035 7.22391 14.0209 4.70335 13.9918 2.17698C13.986 1.60651 14.213 1.26307 14.6496 0.97783C16.5997 -0.285356 18.6836 0.587814 19.3822 2.95702Z" fill="#3C5DA8"/>
<path d="M11.646 25.9214C11.646 22.4985 11.646 19.1863 11.6343 15.8741C11.6343 15.6762 11.5354 15.4433 11.4073 15.2862C10.668 14.3664 9.91126 13.47 9.11959 12.5095C8.3512 12.8122 7.58281 13.1032 6.82024 13.4176C6.41858 13.5864 6.02274 13.6621 5.819 13.1905C5.60944 12.7074 5.94125 12.4862 6.34873 12.3232C7.19279 11.9972 8.01939 11.613 8.88092 11.3394C9.15451 11.2521 9.64349 11.3394 9.82394 11.5315C10.7903 12.6026 11.71 13.7261 12.6064 14.8612C12.7811 15.0824 12.8218 15.4491 12.8218 15.746C12.8393 18.837 12.8335 21.9281 12.8335 25.0191C12.8335 25.2869 12.8335 25.5488 12.8335 25.9097C13.6834 25.9097 14.4867 25.9097 15.2842 25.9097C16.5706 25.9214 17.1877 26.7829 16.8209 28.0053C16.7627 28.1916 16.7977 28.4245 16.85 28.6107C17.0829 29.3791 16.9083 30.0078 16.2388 30.3862C15.8896 30.5841 15.7673 30.7762 15.7615 31.1778C15.7557 32.2664 15.0397 32.9591 13.9628 32.9708C12.8335 32.9824 11.7042 32.9824 10.5749 32.9708C9.43975 32.9591 8.77614 32.2897 8.68882 31.1604C8.67136 30.9101 8.47926 30.6016 8.2697 30.4502C7.64102 29.9903 7.40235 29.3966 7.60027 28.6631C7.67012 28.4128 7.60027 28.1218 7.60027 27.8482C7.61191 27.1962 7.29757 26.7596 6.82024 26.323C6.535 26.0611 6.34873 25.5313 6.36619 25.1355C6.50008 22.8071 5.55123 21.0374 3.96206 19.3784C-1.84743 13.3477 0.55088 3.46926 8.47344 0.686755C9.56781 0.302561 10.7611 0.215244 11.9196 0.0173251C12.362 -0.0583496 12.8102 0.0347885 12.8102 0.611081C12.8102 1.13498 12.3969 1.18155 11.9719 1.19902C7.09965 1.39693 3.05397 4.8023 2.13423 9.58727C1.48226 12.9868 2.38454 16.0196 4.7712 18.5285C6.08678 19.9081 7.2219 21.3343 7.46056 23.2902C7.5246 23.849 7.51295 24.4137 7.53042 24.9783C7.54206 25.5255 7.79237 25.8981 8.3512 25.9097C9.42229 25.9388 10.4992 25.9214 11.6518 25.9214H11.646ZM12.164 27.691C13.1478 27.691 14.1258 27.7085 15.1095 27.6793C15.1561 27.6793 15.1968 27.6677 15.2434 27.6561C15.5054 27.5687 15.4763 27.1729 15.2085 27.1263C15.191 27.1263 15.1677 27.1263 15.1503 27.1263C13.2118 27.1089 11.2734 27.1089 9.33497 27.1263C9.31168 27.1263 9.29422 27.1263 9.27094 27.1263C9.00316 27.1729 8.97406 27.5687 9.23601 27.6561C9.28258 27.6735 9.32333 27.6793 9.36989 27.6793C10.3013 27.7143 11.2327 27.691 12.164 27.691ZM12.164 29.4548C13.1478 29.4548 14.1258 29.4723 15.1037 29.4432C15.1503 29.4432 15.191 29.4315 15.2318 29.4199C15.4937 29.3325 15.4646 28.9367 15.1968 28.8901C15.1794 28.8901 15.1561 28.8901 15.1386 28.8901C13.2002 28.8727 11.2618 28.8727 9.32915 28.8901C9.32915 28.8901 9.32915 28.8901 9.32333 28.8901C9.00898 28.896 8.97406 29.3617 9.27676 29.4373C9.30586 29.4431 9.33497 29.449 9.36407 29.449C10.2955 29.4839 11.2268 29.4606 12.1582 29.4606L12.164 29.4548Z" fill="#3C5DA8"/>
<path d="M4.47431 8.83089C4.20653 9.05792 3.79323 8.95896 3.62442 8.65044C3.54292 8.50491 3.49636 8.38849 3.5371 8.31281C4.06683 7.33486 4.66058 6.39184 5.28926 5.4721C5.37076 5.34986 5.87138 5.33821 5.97616 5.45464C6.12751 5.62345 6.21482 6.02511 6.11587 6.20556C5.63271 7.07873 5.09135 7.91697 4.54416 8.7494C4.5267 8.7785 4.50341 8.80179 4.47431 8.82507V8.83089Z" fill="#3C5DA8"/>
<path d="M9.74823 3.64414C9.64927 3.7431 9.50957 3.97012 9.30583 4.08655C8.78192 4.38924 8.24638 4.69776 7.67591 4.9015C7.62934 4.91897 7.58277 4.92479 7.53038 4.92479C7.08215 4.93643 6.77363 4.44163 6.98902 4.05162C7.01812 3.99923 7.05305 3.95848 7.0938 3.92937C7.62934 3.55682 8.23474 3.27159 8.83432 3.01546C9.34657 2.79425 9.73077 3.0271 9.74823 3.64414Z" fill="#3C5DA8"/>
</g>
<defs>
<clipPath id="clip0_2428_5963">
<rect width="25.5024" height="33" fill="white" transform="translate(0.748779)"/>
</clipPath>
</defs>
</svg>
