<svg width="25" height="33" viewBox="0 0 25 33" fill="none" xmlns="http://www.w3.org/2000/svg">
<g clip-path="url(#clip0_2428_5992)">
<path d="M23.9909 9.91944C22.9664 3.39395 17.2908 -0.727415 10.7245 0.105007C5.39821 0.78608 0.950861 5.71658 0.846081 11.0837C0.782048 14.262 1.69597 17.0445 4.17577 19.21C5.91629 20.7293 7.38903 22.4465 7.65098 24.8856C7.69755 25.3222 7.95951 25.392 8.3437 25.3862C9.70584 25.3687 11.0738 25.3804 12.436 25.3804C13.769 25.3804 15.1079 25.3454 16.4409 25.392C17.0521 25.4153 17.2908 25.2057 17.3723 24.612C17.5993 22.9297 18.4026 21.5268 19.6134 20.3509C20.1373 19.8445 20.6379 19.3147 21.1735 18.82C23.8104 16.3925 24.5148 13.2899 23.9851 9.93108L23.9909 9.91944ZM22.4949 14.3319C22.1805 15.5194 21.5402 16.6021 20.6787 17.4753C20.0791 18.0807 19.4679 18.6802 18.8567 19.274C17.6575 20.4324 16.732 21.7654 16.3187 23.4012C16.1964 23.8902 15.9694 24.0764 15.4455 24.0939C13.152 24.1579 13.152 24.1754 13.152 21.8993C13.152 21.7072 13.1287 20.2228 13.117 19.3846C13.117 19.0237 13.2509 18.6744 13.5129 18.4183C14.5723 17.3588 17.4072 14.5356 17.9893 13.9302C19.5203 12.3352 19.6251 9.98347 18.2571 8.49908C16.9473 7.07872 14.6713 6.97976 12.9773 8.32445C12.5873 8.63297 12.3777 8.62132 11.9935 8.32445C10.2821 6.96812 7.9595 7.09619 6.65557 8.58058C5.33999 10.0766 5.46806 12.376 6.98738 13.936C8.38445 15.3738 9.79898 16.7884 11.2426 18.1796C11.7491 18.6686 11.9004 19.1867 11.8073 19.9434L11.7898 22.918C11.7665 23.7912 11.7782 24.0764 11.0971 24.0997C9.06552 24.1696 9.06552 24.187 8.26802 22.3243C7.83144 21.3056 7.20276 20.4208 6.44019 19.6291C6.06182 19.2391 5.69508 18.8258 5.27014 18.4823C1.57372 15.4437 1.62029 10.6471 2.89512 7.52113C4.44936 3.69665 8.2331 1.25177 12.5233 1.27505C19.4795 1.30998 24.282 7.57934 22.4949 14.3319Z" fill="#E45990"/>
<path d="M17.1162 27.3882C15.5736 27.394 14.0252 27.3882 12.4826 27.3882C10.94 27.3882 9.39155 27.394 7.84895 27.3882C7.40072 27.3882 6.92339 27.4173 6.9001 27.9761C6.87682 28.5815 7.35997 28.6572 7.85477 28.6572C10.9458 28.6514 14.031 28.6514 17.122 28.6572C17.6226 28.6572 18.0941 28.5757 18.065 27.9703C18.0359 27.4173 17.5644 27.3824 17.1104 27.3882H17.1162Z" fill="#E45990"/>
<path d="M16.272 30.4444C15.4163 30.3978 14.5781 30.2232 13.8621 31.0498C13.0704 31.9578 11.8712 31.9113 11.0796 31.0265C10.6197 30.5084 10.1191 30.3338 9.58353 30.4094C9.39144 30.4094 9.2983 30.4094 9.21098 30.4094C8.73365 30.4385 8.13989 30.3629 8.15154 31.073C8.16318 31.7599 8.73947 31.7599 9.22262 31.7192C9.76399 31.6784 10.1249 31.9346 10.5149 32.2431C11.65 33.1337 12.8958 33.256 14.0483 32.5167C14.7352 32.0743 15.3465 31.5795 16.2546 31.6901C16.5922 31.7308 16.86 31.4456 16.8425 31.0323C16.825 30.6656 16.598 30.4618 16.272 30.4444Z" fill="#E45990"/>
</g>
<defs>
<clipPath id="clip0_2428_5992">
<rect width="23.3078" height="33" fill="white" transform="translate(0.846069)"/>
</clipPath>
</defs>
</svg>
