<svg width="33" height="33" viewBox="0 0 33 33" fill="none" xmlns="http://www.w3.org/2000/svg">
<g clip-path="url(#clip0_2428_6072)">
<path d="M28.4246 31.0732V21.7186C28.4246 21.1831 28.8553 20.7523 29.3909 20.7523C29.9264 20.7523 30.3572 21.1831 30.3572 21.7186C30.3572 23.8492 30.3572 28.9776 30.3572 31.7659C30.3572 32.6798 30.0312 33 29.1114 33C21.3635 33 13.6156 33 5.86766 33C4.03983 33 2.63693 31.8882 2.34006 30.1476C2.2411 29.583 2.29349 28.9892 2.28767 28.4129C2.28185 27.9182 2.28767 27.9182 1.81033 27.9182C1.53092 27.9182 1.25151 27.9182 0.972091 27.9182C0.442368 27.9182 0.0174252 27.4874 0.0174252 26.9635H0.00578289C0.00578289 26.4338 0.436547 26.0088 0.960449 26.0088H2.25274C2.26438 25.8808 2.28185 25.7876 2.28185 25.6945C2.28185 24.8038 2.27602 23.9074 2.28185 23.0168C2.28185 22.7723 2.21781 22.6791 1.95586 22.685C1.62406 22.6966 1.29225 22.6966 0.954628 22.6966C0.424904 22.6966 -3.82424e-05 22.2658 -3.82424e-05 21.7419C-3.82424e-05 21.2122 0.430726 20.7814 0.954628 20.7814H2.23528C2.25274 20.6708 2.27602 20.601 2.27602 20.5253C2.27602 19.5998 2.27602 18.6742 2.28185 17.7545C2.28185 17.5274 2.21199 17.4576 1.98497 17.4634C1.64152 17.4692 1.3039 17.4692 0.954628 17.4692C0.424904 17.4692 -0.00585938 17.0385 -0.00585938 16.5087H0.00578289C0.00578289 15.979 0.436547 15.5482 0.96627 15.5482H2.25856V12.2418H0.972091C0.436547 12.2418 0.00578289 11.8111 0.00578289 11.2755C0.00578289 10.74 0.436547 10.3092 0.972091 10.3092C1.19329 10.3092 1.4145 10.3092 1.6357 10.3092C2.07034 10.3092 2.28767 10.0958 2.28767 9.6689C2.28767 8.83066 2.28767 7.99241 2.28767 7.15417C2.28767 7.12507 2.27602 7.09014 2.25856 7.02029H0.977912C0.442368 7.02029 0.00578289 6.5837 0.00578289 6.04816C0.00578289 5.51261 0.442368 5.07603 0.977912 5.07603C1.19912 5.07603 1.42032 5.07603 1.64152 5.07603C2.28767 5.07603 2.28185 5.07603 2.29349 4.42988C2.30513 3.87105 2.2702 3.30058 2.36916 2.75922C2.6544 1.18751 3.96997 0.0814959 5.57079 0C5.68721 0 5.80945 0 5.92588 0C12.4979 0 24.862 0 28.3896 0C28.9193 0 29.3501 0.430764 29.3501 0.960487C29.3501 1.49603 28.9193 1.92679 28.3896 1.92679C25.3917 1.92679 16.1478 1.92679 11.2231 1.92679C10.6759 1.92679 10.74 1.88023 10.74 2.40995C10.74 11.8227 10.74 21.2413 10.74 30.6541C10.74 30.9335 10.8797 31.0732 11.1591 31.0732C16.7357 31.0732 22.3124 31.0732 27.889 31.0732C28.0462 31.0732 28.2092 31.0732 28.4187 31.0732H28.4246ZM4.24357 12.2418V15.5482H5.69303C6.22275 15.5482 6.65352 15.979 6.65352 16.5087V16.5204C6.65352 17.0501 6.22275 17.4809 5.69303 17.4809H4.23775V20.7756H5.69303C6.22275 20.7756 6.6477 21.2064 6.6477 21.7303V21.7478C6.6477 22.2775 6.21693 22.7024 5.69303 22.7024H4.24357V26.0088H5.68721C6.21693 26.0088 6.64187 26.4396 6.64187 26.9635V26.9809C6.64187 27.5107 6.21111 27.9356 5.68721 27.9356H4.22028C4.22028 28.4653 4.22028 28.9601 4.22028 29.4491C4.22028 30.4503 4.84314 31.0674 5.8502 31.0732C6.72337 31.0732 7.59072 31.0732 8.46389 31.0732C8.64434 31.0732 8.78987 30.9219 8.78987 30.7414V2.27024C8.78987 2.08397 8.64434 1.93844 8.45807 1.93844C7.48012 1.93844 6.52545 1.90933 5.57661 1.95008C4.89553 1.97919 4.33671 2.46816 4.26103 3.12013C4.18536 3.75463 4.24357 4.40078 4.24357 5.08767H5.68721C6.21693 5.08767 6.6477 5.51843 6.6477 6.04816V6.0598C6.6477 6.58952 6.21693 7.02029 5.68721 7.02029H4.23775V10.3267H5.68139C6.21111 10.3267 6.64187 10.7575 6.64187 11.2872C6.64187 11.8169 6.21111 12.2477 5.68139 12.2477H4.24357V12.2418Z" fill="#56A5A2"/>
<path d="M29.4491 3.07373C30.7414 3.14358 31.8939 3.71988 32.5634 5.02381C33.2444 6.35685 33.0931 7.6666 32.2374 8.88322C30.0312 12.0208 27.825 15.1526 25.6129 18.2902C24.4836 19.8968 23.3543 21.5093 22.2134 23.1042C22.0446 23.3429 21.8117 23.5583 21.5673 23.7096C19.7511 24.8389 17.9232 25.945 16.107 27.0626C15.8276 27.2373 15.5366 27.3188 15.2164 27.2489C14.6983 27.1325 14.3898 26.6435 14.512 26.0847C14.9661 23.9367 15.4318 21.7887 15.9033 19.6407C15.9499 19.4195 16.0605 19.1924 16.1943 19.0062C19.5531 14.227 22.9236 9.45369 26.2824 4.67454C27.0217 3.62092 28.0229 3.08537 29.4549 3.07373H29.4491ZM22.0213 20.0365C23.139 18.4532 24.245 16.8756 25.3568 15.2981C25.8982 14.5297 25.7119 13.4645 24.9377 12.9231L24.9086 12.9056C24.1402 12.3701 23.0866 12.5564 22.551 13.3247C21.4334 14.9081 20.3274 16.4856 19.2155 18.0631C18.6683 18.8374 18.8604 19.9084 19.6405 20.444L19.6696 20.4615C20.438 20.9854 21.4858 20.7991 22.0213 20.0365ZM29.1871 6.88075L29.158 6.86329C28.3896 6.32774 27.336 6.51984 26.7946 7.28241C26.4163 7.82377 25.9971 8.42335 25.6188 8.96472C25.0774 9.73311 25.2695 10.7984 26.0379 11.3339C26.0495 11.3397 26.0553 11.3456 26.067 11.3514C26.8354 11.8869 27.889 11.7006 28.4304 10.9323C28.8087 10.3909 29.2279 9.79132 29.6062 9.24995C30.1476 8.48156 29.9555 7.4163 29.1813 6.88075H29.1871Z" fill="#56A5A2"/>
</g>
<defs>
<clipPath id="clip0_2428_6072">
<rect width="32.9884" height="33" fill="white" transform="translate(0.00579834)"/>
</clipPath>
</defs>
</svg>
