<svg width="34" height="33" viewBox="0 0 34 33" fill="none" xmlns="http://www.w3.org/2000/svg">
<g clip-path="url(#clip0_2428_6170)">
<path d="M8.22752 8.7143C8.2508 3.52767 12.7098 -0.0173992 17.0174 6.4232e-05C21.2436 0.0175276 25.6385 3.41125 25.7724 8.70848C26.0693 8.60952 26.3487 8.5222 26.6281 8.42906C29.1487 7.59082 31.5295 9.29641 31.547 11.945C31.547 12.1429 31.5586 12.3409 31.547 12.533C31.4888 13.2839 31.5295 13.8951 32.3736 14.3259C33.1361 14.7159 33.4505 15.5716 33.4679 16.4564C33.4912 17.8069 33.4971 19.1516 33.4679 20.5021C33.4388 21.6198 32.8975 22.4696 31.9079 22.9877C31.611 23.1391 31.5586 23.3137 31.5412 23.6106C31.4888 24.4081 31.5004 25.2289 31.2967 25.9856C30.8484 27.6621 29.7308 28.8205 28.1009 29.3793C24.5442 30.6018 20.97 31.7718 17.3958 32.9419C17.1455 33.0233 16.8195 33.0175 16.5634 32.936C13.0067 31.766 9.44996 30.5901 5.90489 29.391C3.88496 28.7041 2.5461 26.8471 2.45878 24.7166C2.45878 24.6235 2.44132 24.5361 2.45878 24.443C2.5461 23.6746 2.45878 23.0634 1.62054 22.6559C0.968569 22.3416 0.596016 21.6256 0.572732 20.8863C0.520341 19.3146 0.491236 17.7371 0.561089 16.1712C0.607658 15.1467 1.2247 14.4015 2.14444 13.9533C2.39475 13.8311 2.45296 13.6914 2.45878 13.4352C2.47624 12.6203 2.40639 11.782 2.5752 10.9962C3.01761 8.92386 5.11904 7.75381 7.15061 8.37085C7.49406 8.47563 7.8375 8.58624 8.22752 8.70848V8.7143ZM17.0058 1.98507C16.5692 2.03164 16.1326 2.05492 15.7019 2.1306C12.5584 2.67196 10.1077 5.68149 10.1951 8.85401C10.2067 9.2382 10.3231 9.44194 10.7131 9.57001C12.6981 10.2045 14.6657 10.8798 16.6449 11.5259C16.8428 11.5899 17.0989 11.6016 17.291 11.5375C19.311 10.8798 21.3251 10.1929 23.345 9.52926C23.6419 9.4303 23.735 9.29641 23.7525 8.98789C23.9213 5.22162 20.8361 2.02582 17 1.98507H17.0058ZM16.0162 22.3998C16.0162 24.9262 16.0162 27.4583 16.0162 29.9847C16.0162 30.4504 16.1734 30.823 16.61 31.0092C17.291 31.3061 17.9605 30.7415 17.9546 29.9847C17.9255 24.9145 17.943 19.8443 17.943 14.7741C17.943 14.6693 17.943 14.5587 17.9313 14.4539C17.8731 14.0115 17.5239 13.6855 17.0815 13.6564C16.447 13.6099 16.022 14.029 16.022 14.7217C16.022 17.2772 16.022 19.8385 16.022 22.394L16.0162 22.3998ZM31.5353 18.4822C31.5353 18.1969 31.5353 17.9059 31.5353 17.6206C31.5353 17.3179 31.5353 17.0152 31.5353 16.7125C31.5237 15.915 31.0813 15.5134 30.2954 15.5832C28.8169 15.7171 27.6526 16.9978 27.6526 18.488C27.6526 19.984 28.8169 21.2588 30.3013 21.3869C31.0813 21.4568 31.5295 21.0551 31.5353 20.2518C31.5412 19.6639 31.5353 19.0701 31.5353 18.4822ZM6.30655 18.488C6.30655 16.9803 5.17725 15.7229 3.68122 15.5832C2.91283 15.5076 2.45878 15.9034 2.45878 16.666C2.45878 17.8768 2.45878 19.0876 2.45878 20.2925C2.45878 21.0784 2.91865 21.4684 3.71614 21.3811C5.20635 21.2123 6.30073 19.984 6.30655 18.488ZM20.9525 27.8484C21.0282 27.8309 21.1912 27.796 21.3484 27.7494C23.182 27.144 25.0098 26.5328 26.8435 25.9216C27.4955 25.7004 27.7923 25.1939 27.5944 24.6467C27.3907 24.0763 26.8959 23.8725 26.2206 24.0937C25.3591 24.3731 24.5034 24.6642 23.6477 24.9494C22.6348 25.2871 21.6161 25.6189 20.6032 25.9623C20.0735 26.1428 19.8349 26.5735 19.928 27.0974C20.0037 27.534 20.4053 27.86 20.9525 27.86V27.8484ZM20.9351 16.2119C20.97 16.2061 21.0748 16.2003 21.1737 16.1653C22.1458 15.8452 23.1238 15.5308 24.0843 15.1932C24.5849 15.0186 24.841 14.5063 24.7071 14.0348C24.5733 13.5633 24.0785 13.1908 23.6419 13.3246C22.565 13.6506 21.4939 14.0115 20.4344 14.3957C19.9979 14.5529 19.8232 15.0302 19.928 15.4901C20.027 15.9034 20.417 16.2061 20.9292 16.2061L20.9351 16.2119ZM19.9105 19.1167C19.9105 19.7628 20.4868 20.2401 21.1039 20.0539C22.0993 19.7512 23.0889 19.4194 24.0726 19.0759C24.6082 18.8896 24.8585 18.3716 24.7013 17.8826C24.5325 17.3645 24.0144 17.0734 23.4731 17.2481C22.4951 17.5566 21.523 17.8826 20.5509 18.226C20.1434 18.3716 19.9222 18.6801 19.9105 19.1225V19.1167Z" fill="#8FA33A"/>
<path d="M21.3775 8.41752C21.36 8.56887 21.36 8.83083 21.296 9.07531C21.1854 9.50026 20.8245 9.75639 20.3995 9.76221C19.9513 9.76803 19.5438 9.5119 19.4682 9.06367C19.3925 8.60962 19.3867 8.13229 19.4332 7.67242C19.4798 7.17762 19.8873 6.86328 20.3646 6.85164C20.8594 6.84582 21.2494 7.16598 21.3426 7.67824C21.3775 7.88198 21.3658 8.09736 21.3833 8.4117L21.3775 8.41752Z" fill="#8FA33A"/>
<path d="M14.5609 8.2836C14.5609 8.46405 14.5725 8.64451 14.5609 8.83079C14.5318 9.37215 14.1127 9.76799 13.583 9.76217C13.0765 9.76217 12.6632 9.37797 12.6399 8.85407C12.6225 8.49316 12.6225 8.12643 12.6399 7.76552C12.669 7.2358 13.0707 6.86324 13.583 6.85742C14.1069 6.85742 14.526 7.24744 14.5609 7.7888C14.5725 7.95179 14.5609 8.12061 14.5609 8.28942V8.2836Z" fill="#8FA33A"/>
</g>
<defs>
<clipPath id="clip0_2428_6170">
<rect width="32.9709" height="33" fill="white" transform="translate(0.514526)"/>
</clipPath>
</defs>
</svg>
