<svg width="30" height="33" viewBox="0 0 30 33" fill="none" xmlns="http://www.w3.org/2000/svg">
<g clip-path="url(#clip0_2428_6212)">
<path d="M25.1928 6.8982C26.2231 7.21254 27.0613 7.74809 27.69 8.58051C28.5457 9.70399 28.8426 10.9614 28.5865 12.3468C28.5399 12.5913 28.569 12.7659 28.7378 12.9696C29.9835 14.4657 30.1407 16.5613 29.1744 18.2552C29.1162 18.3542 29.1104 18.5405 29.1628 18.6394C30.3677 20.898 29.8206 23.3313 27.7657 24.8797C27.6493 24.967 27.562 25.1591 27.5561 25.3046C27.5328 27.732 26.3977 29.4143 24.1915 30.3923C24.0635 30.4505 23.9412 30.5495 23.8597 30.6659C21.5953 33.7627 17.4506 33.786 15.1455 30.7183C15.1047 30.6659 15.0582 30.6193 14.9941 30.5495C14.901 30.6717 14.8195 30.7707 14.7438 30.8754C12.6715 33.658 8.49774 33.7045 6.37303 30.9628C6.1169 30.6368 5.82584 30.4156 5.45911 30.2293C3.50321 29.2281 2.47869 27.6156 2.46123 25.4036C2.46123 25.13 2.38556 24.9728 2.15853 24.8098C0.231736 23.4069 -0.344556 20.8806 0.773102 18.7617C0.889525 18.5463 0.883703 18.3891 0.773102 18.1737C-0.152458 16.3343 0.0396392 14.5937 1.2679 12.9464C1.3785 12.8008 1.43671 12.5505 1.40761 12.3642C1.1573 10.8042 1.54149 9.44786 2.60676 8.27199C3.21216 7.60256 3.95726 7.18926 4.73729 6.92149C4.73729 6.35684 4.69072 5.83293 4.74894 5.32067C4.85954 4.34855 5.33105 3.55105 6.13436 2.99804C7.08321 2.34026 8.03788 1.67082 9.06239 1.14692C9.93556 0.698695 10.8961 0.378533 11.8507 0.128224C13.0149 -0.174474 14.0977 0.0932977 14.965 0.960646C15.0116 0.954825 15.0465 0.960646 15.064 0.943183C16.3155 -0.238507 17.765 -0.15119 19.2144 0.395997C20.204 0.768549 21.1412 1.28081 22.0726 1.78725C22.6722 2.11323 23.231 2.52071 23.784 2.92237C24.9657 3.77807 25.4663 4.9423 25.2859 6.39758C25.2742 6.47908 25.2626 6.55475 25.251 6.63625C25.2393 6.71193 25.2219 6.79342 25.2044 6.90984L25.1928 6.8982ZM2.07121 19.7513C2.013 19.9026 1.96061 20.019 1.91987 20.1471C1.52403 21.5092 2.10614 23.0053 3.40425 23.698C4.00965 24.024 4.17264 24.4023 4.08533 25.0601C3.86412 26.7133 4.81297 28.2967 6.37303 28.8788C6.86783 29.0651 7.21127 29.3212 7.49651 29.7753C8.29983 31.0443 9.83078 31.6089 11.3385 31.312C12.7006 31.0443 14.1093 29.5832 14.1501 28.3316C14.1675 27.8194 14.2025 27.3129 14.2025 26.8007C14.2025 21.16 14.2025 15.5193 14.2025 9.87862C14.2025 8.94724 13.7484 8.46409 12.8287 8.35349C12.2466 8.28363 11.938 7.96929 11.9846 7.48614C12.0312 6.98552 12.4154 6.70028 13.0033 6.77596C13.3991 6.82835 13.7833 6.93895 14.1908 7.02627C14.1908 5.62919 14.2141 4.24377 14.1792 2.86416C14.1617 2.25876 13.6029 1.70575 12.9975 1.65336C11.8274 1.54858 10.8146 2.02009 9.74929 2.54982C9.94721 2.67206 10.0695 2.75356 10.1917 2.82923C10.7854 3.2076 11.257 3.69658 11.5364 4.34855C11.7052 4.73274 11.5364 5.16933 11.1813 5.3556C10.8204 5.5477 10.3838 5.4371 10.1451 5.09947C10.0927 5.0238 10.052 4.93648 10.0054 4.85498C9.53973 4.09824 8.70148 3.73733 7.85742 3.9236C7.03664 4.10406 6.42542 4.78513 6.30318 5.63502C6.19258 6.42669 6.39632 6.72357 7.15306 6.89238C9.23121 7.36971 10.8204 9.37218 10.7563 11.4445C10.7389 11.9277 10.442 12.2595 9.9996 12.2828C9.56883 12.3002 9.22539 11.9859 9.173 11.5144C9.14971 11.3281 9.15553 11.136 9.12061 10.9497C8.8994 9.78548 8.22997 8.97635 7.12396 8.55722C6.02376 8.14392 4.9585 8.3302 4.07951 9.05202C3.03752 9.90191 2.65333 11.2 3.11902 12.5156C3.27619 12.9638 3.21216 13.3073 2.86289 13.6391C1.86747 14.5763 1.53567 15.7289 2.013 17.0212C2.49034 18.3193 3.48575 19.0003 4.87118 19.0877C5.38926 19.1226 5.75017 19.4602 5.72689 19.9084C5.70942 20.3625 5.32523 20.7409 4.82461 20.671C4.17846 20.5779 3.54396 20.4032 2.9211 20.2111C2.63586 20.1238 2.37973 19.9317 2.07704 19.7687L2.07121 19.7513ZM20.2099 2.5731C19.6976 2.17144 18.3762 1.69993 17.602 1.63008C16.4611 1.53112 15.8091 2.12487 15.8091 3.27164C15.8091 4.77931 15.8091 6.28698 15.8091 7.79466C15.8091 8.28363 15.8091 8.77261 15.8091 9.32561C16.0885 9.22083 16.2981 9.12187 16.5134 9.06948C16.7346 9.01709 16.9675 9.00545 17.1945 8.99963C17.6311 8.98799 18.0095 9.33144 18.0386 9.73891C18.0677 10.158 17.7417 10.5189 17.276 10.5655C16.2922 10.6703 15.8091 11.2058 15.8091 12.1838C15.8091 15.9151 15.8091 19.6407 15.8091 23.372C15.8091 23.5117 15.8266 23.6514 15.8324 23.8552C15.9954 23.7271 16.1001 23.6223 16.2224 23.5525C16.8511 23.2323 17.4681 22.8714 18.1259 22.6211C18.5567 22.4523 18.9816 22.755 19.0922 23.1799C19.197 23.5757 18.97 23.9774 18.545 24.1346C18.3937 24.1928 18.2365 24.2335 18.091 24.2976C15.8091 25.2581 15.0465 28.0522 16.5891 29.9848C18.2598 32.0688 21.3042 31.7894 22.6955 29.5075C22.8294 29.2863 23.0797 29.0825 23.3242 29.001C25.1578 28.3607 26.1474 26.8123 25.9088 24.8913C25.8273 24.2277 25.9088 24.0764 26.4909 23.762C27.3582 23.2963 27.9229 22.5862 28.1266 21.6198C28.2663 20.9853 28.2256 20.3567 27.917 19.728C27.7541 19.8269 27.6434 19.8968 27.527 19.9666C26.7994 20.409 26.0019 20.6303 25.1578 20.6535C24.8202 20.6652 24.5524 20.5371 24.3894 20.2344C24.0693 19.6407 24.5 19.0702 25.2568 19.0469C26.0543 19.0236 26.7761 18.7326 27.2942 18.1388C28.6039 16.6311 28.5108 14.943 27.0846 13.5401C26.8052 13.2607 26.7179 12.958 26.8576 12.5913C26.8983 12.4923 26.9275 12.3875 26.9566 12.2828C27.5736 10.1406 25.7341 8.05079 23.5279 8.35349C22.2298 8.53394 20.8502 9.69817 20.8327 11.4154C20.8269 11.9451 20.4485 12.2769 19.9887 12.2478C19.5404 12.2187 19.2494 11.8694 19.2552 11.3514C19.2668 9.99504 19.8315 8.88321 20.7862 7.95765C21.4672 7.30568 22.2997 6.95059 23.2194 6.77014C23.3649 6.74103 23.557 6.5955 23.6036 6.46162C24.0285 5.26828 23.1554 3.94107 21.8922 3.85375C21.0132 3.79554 20.3612 4.16809 19.9305 4.9423C19.6743 5.40217 19.2144 5.5477 18.807 5.31485C18.417 5.09365 18.3005 4.64542 18.5217 4.1972C18.8186 3.60344 19.2552 3.13775 19.8198 2.7943C19.9421 2.71863 20.0643 2.64295 20.1982 2.55564L20.2099 2.5731Z" fill="#8F2371"/>
<path d="M7.86908 16.0142C7.75848 15.9792 7.64206 15.9385 7.53146 15.9036C5.59302 15.3331 4.23669 13.6159 4.13774 11.5959C4.10863 11.008 4.36476 10.6354 4.83045 10.583C5.33689 10.5307 5.70362 10.8625 5.7269 11.4329C5.77347 12.4516 6.1926 13.2724 7.00755 13.8836C8.1485 14.7335 9.70274 14.6928 10.8262 13.7847C10.931 13.7032 11.0241 13.6042 11.1289 13.5169C11.4724 13.2433 11.9381 13.2666 12.2233 13.5635C12.5085 13.8662 12.5202 14.3493 12.2233 14.6637C11.6062 15.3098 10.8553 15.7522 9.97633 15.9443C9.69692 16.0083 9.55721 16.1248 9.46407 16.4042C8.95181 17.8944 7.8458 18.657 6.3323 18.8782C6.12274 18.9073 5.87243 18.8491 5.68616 18.7559C5.36599 18.5929 5.15061 18.3019 5.2845 17.9293C5.40674 17.5742 5.65705 17.3239 6.08199 17.2948C6.99591 17.225 7.62459 16.7767 7.88072 16.0142H7.86908Z" fill="#8F2371"/>
<path d="M7.10073 23.4067C7.1473 23.1506 7.1764 22.8944 7.23461 22.6499C7.60717 21.0899 8.53273 19.9722 9.99965 19.361C10.541 19.134 11.1639 19.0583 11.7576 19.0234C12.3165 18.9884 12.6424 19.3435 12.625 19.7976C12.6075 20.2516 12.2524 20.5543 11.7169 20.5776C10.7622 20.6242 9.98801 21.02 9.38261 21.7593C8.98677 22.2425 8.79468 22.8071 8.71318 23.4183C8.66661 23.7268 8.77139 23.8957 9.05081 24.0528C10.5701 24.9144 11.3793 26.2358 11.4957 27.9763C11.519 28.3488 11.4433 28.6806 11.0824 28.8727C10.5468 29.1638 9.93562 28.8087 9.90651 28.1684C9.87159 27.4291 9.66203 26.7713 9.19051 26.2008C8.6084 25.4965 7.85165 25.1356 6.9552 25.0541C6.3207 25.0017 5.98889 24.7455 5.98307 24.2682C5.97143 23.7851 6.3207 23.4998 6.97266 23.4474C6.99595 23.4474 7.02505 23.43 7.09491 23.4125L7.10073 23.4067Z" fill="#8F2371"/>
<path d="M21.0307 16.1012C21.2112 16.7707 21.8806 17.2946 22.6141 17.3761C22.7887 17.3935 22.9691 17.4052 23.1263 17.475C23.5105 17.6438 23.7026 17.9931 23.6269 18.3016C23.5047 18.7848 23.2253 19.0118 22.7247 18.9827C21.1471 18.8954 19.9189 17.9465 19.4532 16.532C19.3542 16.2351 19.232 16.1012 18.9235 16.0372C18.0852 15.8626 17.3692 15.4435 16.7638 14.8439C16.3913 14.4772 16.3563 13.994 16.6765 13.6622C17.0025 13.3246 17.4682 13.3246 17.864 13.6855C18.8653 14.611 20.0178 14.8381 21.2636 14.3258C22.4802 13.8252 23.0972 12.8414 23.1787 11.5258C23.2136 10.9903 23.5338 10.6468 23.9937 10.6585C24.4652 10.6701 24.7912 11.0601 24.7795 11.5957C24.7446 13.5749 23.3417 15.4027 21.4207 15.979C21.2927 16.0139 21.1704 16.0547 21.0424 16.0954L21.0307 16.1012Z" fill="#8F2371"/>
<path d="M23.6385 24.0822C23.8015 24.0938 23.9063 24.0938 24.0111 24.1113C24.4768 24.1753 24.7853 24.5304 24.7562 24.9612C24.7271 25.3803 24.4127 25.683 23.947 25.7005C22.8527 25.747 21.9795 26.2069 21.3566 27.1092C21.0016 27.6273 20.8327 28.2152 20.792 28.8497C20.7571 29.3794 20.4253 29.6647 19.9654 29.6239C19.5521 29.589 19.2378 29.2222 19.2494 28.7507C19.3076 26.952 20.1226 25.5899 21.6884 24.7109C21.9795 24.5479 22.0435 24.3732 22.0203 24.0764C21.8922 22.5862 20.6697 21.3637 19.1737 21.2531C19.0689 21.2473 18.9583 21.2531 18.8536 21.2357C18.3937 21.1716 18.091 20.8165 18.1201 20.3799C18.1492 19.9666 18.481 19.6465 18.9351 19.6465C20.4369 19.6639 21.6652 20.2693 22.614 21.4336C23.2369 22.1961 23.5396 23.0926 23.6269 24.0938L23.6385 24.0822Z" fill="#8F2371"/>
</g>
<defs>
<clipPath id="clip0_2428_6212">
<rect width="29.6063" height="33" fill="white" transform="translate(0.196838)"/>
</clipPath>
</defs>
</svg>
