<svg width="674" height="675" viewBox="0 0 674 675" fill="none" xmlns="http://www.w3.org/2000/svg">
<path fill-rule="evenodd" clip-rule="evenodd" d="M254.308 122.405C262.062 117.012 271.281 114.121 280.726 114.121C290.17 114.121 299.389 117.012 307.143 122.405C314.897 127.797 320.815 135.434 324.101 144.288L324.12 144.339L379.641 294.998C379.655 295.037 379.679 295.074 379.708 295.103C379.738 295.133 379.774 295.156 379.813 295.17L530.523 350.71C539.378 353.997 547.014 359.915 552.407 367.669C557.8 375.423 560.69 384.641 560.69 394.086C560.69 403.531 557.8 412.75 552.407 420.503C547.014 428.257 539.378 434.175 530.523 437.462L530.472 437.481L379.814 493.002C379.775 493.016 379.738 493.039 379.708 493.069C379.679 493.099 379.656 493.134 379.641 493.173L324.12 643.833L324.101 643.884C320.815 652.738 314.897 660.375 307.143 665.768C299.389 671.16 290.17 674.051 280.726 674.051C271.281 674.051 262.062 671.16 254.308 665.768C246.554 660.375 240.636 652.738 237.35 643.884L237.331 643.833L181.81 493.175C181.796 493.135 181.772 493.099 181.743 493.069C181.728 493.055 181.712 493.042 181.695 493.031C181.678 493.019 181.658 493.009 181.638 493.002L30.9786 437.481L30.9278 437.462C22.0733 434.175 14.4367 428.257 9.04398 420.503C3.65126 412.75 0.760742 403.531 0.760742 394.086C0.760742 384.641 3.65126 375.423 9.04398 367.669C14.4367 359.915 22.0733 353.997 30.9278 350.71L30.9786 350.692L181.637 295.171C181.676 295.156 181.713 295.133 181.743 295.103C181.772 295.074 181.795 295.038 181.81 294.999L237.331 144.339L237.35 144.288C240.636 135.434 246.554 127.797 254.308 122.405ZM336.228 477.176C336.228 477.175 336.228 477.176 336.228 477.176C338.557 470.855 342.229 465.116 346.992 460.353C351.755 455.59 357.495 451.917 363.815 449.588C363.816 449.588 363.815 449.588 363.815 449.588L514.423 394.086L363.816 338.584C363.816 338.584 363.817 338.585 363.816 338.584C357.496 336.255 351.755 332.582 346.992 327.819C342.229 323.057 338.557 317.317 336.228 310.996C336.228 310.996 336.228 310.997 336.228 310.996L280.726 160.389L225.224 310.995C225.224 310.996 225.224 310.995 225.224 310.995C222.895 317.316 219.222 323.056 214.459 327.819C209.696 332.582 203.956 336.255 197.636 338.584C197.635 338.584 197.636 338.584 197.636 338.584L47.0282 394.086L197.635 449.588C197.635 449.588 197.634 449.588 197.635 449.588C203.955 451.917 209.696 455.59 214.459 460.353C219.222 465.116 222.894 470.855 225.223 477.176C225.224 477.176 225.223 477.175 225.223 477.176L280.726 627.783L336.228 477.176Z" fill="#00C5D0"/>
<path fill-rule="evenodd" clip-rule="evenodd" d="M465.797 0.8125C478.573 0.8125 488.931 11.1698 488.931 23.9462V162.749C488.931 175.525 478.573 185.882 465.797 185.882C453.02 185.882 442.663 175.525 442.663 162.749V23.9462C442.663 11.1698 453.02 0.8125 465.797 0.8125Z" fill="#30F67E"/>
<path fill-rule="evenodd" clip-rule="evenodd" d="M373.261 93.3475C373.261 80.5711 383.618 70.2137 396.394 70.2137H535.197C547.973 70.2137 558.331 80.5711 558.331 93.3475C558.331 106.124 547.973 116.481 535.197 116.481H396.394C383.618 116.481 373.261 106.124 373.261 93.3475Z" fill="#30F67E"/>
<path fill-rule="evenodd" clip-rule="evenodd" d="M604.599 162.749C617.375 162.749 627.732 173.106 627.732 185.882V278.417C627.732 291.194 617.375 301.551 604.599 301.551C591.822 301.551 581.465 291.194 581.465 278.417V185.882C581.465 173.106 591.822 162.749 604.599 162.749Z" fill="#30F67E"/>
<path fill-rule="evenodd" clip-rule="evenodd" d="M535.197 232.15C535.197 219.373 545.555 209.016 558.331 209.016H650.866C663.642 209.016 674 219.373 674 232.15C674 244.926 663.642 255.283 650.866 255.283H558.331C545.555 255.283 535.197 244.926 535.197 232.15Z" fill="#30F67E"/>
</svg>
