<svg width="1043" height="529" viewBox="0 0 1043 529" fill="none" xmlns="http://www.w3.org/2000/svg">
<path d="M1026.73 396.169L1026.73 390.536L1014.17 390.536L1014.17 378L1008.56 378L1008.56 390.536L996 390.536L996 396.169L1008.56 396.169L1008.56 408.705L1014.17 408.705L1014.17 396.169L1026.73 396.169Z" fill="#FCCB1F"/>
<path d="M1011.37 441.764L1006.68 441.764L1009.02 437.72L1011.37 433.675L1013.71 437.72L1016.04 441.764L1011.37 441.764Z" fill="#FCCB1F"/>
<path d="M1011.37 457.861L1006.68 457.861L1009.02 453.817L1011.37 449.772L1013.71 453.817L1016.04 457.861L1011.37 457.861Z" fill="#FCCB1F"/>
<path d="M1011.37 473.958L1006.68 473.958L1009.02 469.913L1011.37 465.869L1013.71 469.913L1016.04 473.958L1011.37 473.958Z" fill="#FCCB1F"/>
<path d="M2.48341 513.918L12.2143 523.649L21.9452 513.918L24.4287 516.401L12.2143 528.615L0 516.401L2.48341 513.918Z" fill="#53BDC2"/>
<path d="M2.48341 502.945L12.2143 512.676L21.9452 502.945L24.4287 505.429L12.2143 517.643L0 505.429L2.48341 502.945Z" fill="#53BDC2"/>
<path d="M2.48341 491.972L12.2143 501.703L21.9452 491.972L24.4287 494.456L12.2143 506.67L0 494.456L2.48341 491.972Z" fill="#53BDC2"/>
<path d="M2.48341 481L12.2143 490.731L21.9452 481L24.4287 483.483L12.2143 495.698L0 483.483L2.48341 481Z" fill="#53BDC2"/>
<path d="M663.141 104.78L673.262 104.78L668.191 113.553L663.141 122.326L658.07 113.553L653 104.78L663.141 104.78Z" fill="#FCCB1F"/>
<path d="M663.141 69.8904L673.262 69.8904L668.191 78.6632L663.141 87.4361L658.07 78.6632L653 69.8904L663.141 69.8904Z" fill="#FCCB1F"/>
<path d="M663.141 35L673.262 35L668.192 43.7729L663.141 52.5457L658.071 43.7729L653 35L663.141 35Z" fill="#FCCB1F"/>
<path d="M1042.72 19.9602L1042.72 13.783L1028.96 13.783L1028.96 -5.07943e-05L1022.76 -5.1336e-05L1022.76 13.783L1009 13.783L1009 19.9602L1022.76 19.9602L1022.76 33.7231L1028.96 33.7231L1028.96 19.9602L1042.72 19.9602Z" fill="#ED72A7"/>
<path d="M1025.86 70.0421L1020.73 70.0421L1023.31 65.5953L1025.86 61.1485L1028.44 65.5953L1030.99 70.0421L1025.86 70.0421Z" fill="#434193"/>
<path d="M1025.86 87.7085L1020.73 87.7085L1023.31 83.2617L1025.86 78.8149L1028.44 83.2617L1030.99 87.7085L1025.86 87.7085Z" fill="#434193"/>
<path d="M1025.86 105.375L1020.73 105.375L1023.31 100.948L1025.86 96.5016L1028.44 100.948L1030.99 105.375L1025.86 105.375Z" fill="#434193"/>
<path d="M670.928 427.877C670.928 432.425 666.602 434.336 663.121 435.845C661.592 436.509 658.755 437.757 658.755 438.562C658.755 439.367 661.592 440.614 663.121 441.278C666.602 442.807 670.928 444.699 670.928 449.246C670.928 453.793 666.602 455.705 663.121 457.214C661.592 457.878 658.755 459.126 658.755 459.93C658.755 460.735 661.592 461.983 663.121 462.647C666.602 464.176 670.928 466.067 670.928 470.615C670.928 475.162 666.602 477.074 663.121 478.583C661.592 479.247 658.755 480.494 658.755 481.299C658.755 482.889 657.467 484.177 655.877 484.177C654.288 484.177 653 482.889 653 481.299C653 476.752 657.326 474.84 660.807 473.331C662.336 472.667 665.173 471.42 665.173 470.615C665.173 469.81 662.336 468.562 660.807 467.898C657.326 466.369 653 464.478 653 459.93C653 455.383 657.326 453.492 660.807 451.962C662.336 451.298 665.173 450.051 665.173 449.246C665.173 448.441 662.336 447.194 660.807 446.53C657.326 445.001 653 443.109 653 438.562C653 434.014 657.326 432.103 660.807 430.594C662.336 429.93 665.173 428.682 665.173 427.877C665.173 426.288 666.461 425 668.051 425C669.64 425 670.928 426.288 670.928 427.877Z" fill="#E0DCE6"/>
<path d="M692.217 448.059C692.217 452.606 687.89 454.518 684.41 456.027C682.88 456.691 680.043 457.939 680.043 458.743C680.043 459.548 682.88 460.796 684.41 461.46C687.89 462.989 692.217 464.88 692.217 469.428C692.217 473.975 687.89 475.887 684.41 477.396C682.88 478.06 680.043 479.307 680.043 480.112C680.043 480.917 682.88 482.164 684.41 482.828C687.89 484.358 692.217 486.249 692.217 490.796C692.217 495.344 687.89 497.255 684.41 498.765C682.88 499.429 680.043 500.676 680.043 501.481C680.043 503.07 678.755 504.358 677.166 504.358C675.576 504.358 674.289 503.07 674.289 501.481C674.289 496.933 678.615 495.022 682.096 493.513C683.625 492.849 686.462 491.601 686.462 490.796C686.462 489.992 683.625 488.744 682.096 488.08C678.615 486.551 674.289 484.66 674.289 480.112C674.289 475.565 678.615 473.673 682.096 472.144C683.625 471.48 686.462 470.233 686.462 469.428C686.462 468.623 683.625 467.375 682.096 466.711C678.615 465.182 674.289 463.291 674.289 458.743C674.289 454.196 678.615 452.284 682.096 450.775C683.625 450.111 686.462 448.864 686.462 448.059C686.462 446.469 687.75 445.182 689.339 445.182C690.929 445.182 692.217 446.469 692.217 448.059Z" fill="#53BDC2"/>
</svg>
