<svg width="692" height="158" viewBox="0 0 692 158" fill="none" xmlns="http://www.w3.org/2000/svg">
<path d="M435.678 112.301L422.896 96.9999L422.775 97.1162L422.674 96.9999L409.893 112.301L397.111 96.9999L396.99 97.1162L396.889 96.9999L384.107 112.301L371.306 96.9999L371.205 97.1162L371.104 96.9999L358.302 112.301L356 115.074L359.836 118.041L371.104 104.563L371.205 104.699L383.986 120L384.107 119.884L384.208 120L396.99 104.699L409.771 120L409.893 119.884L409.994 120L422.795 104.699L422.896 104.563L434.143 118.041L438 115.074L435.678 112.301Z" fill="#E0DCE6"/>
<path d="M251.595 35.1385C254.271 35.1385 256.444 37.3115 256.444 39.9675C256.444 42.6235 254.271 44.8168 251.595 44.8168C248.919 44.8168 246.766 42.6437 246.766 39.9675C246.766 37.2914 248.939 35.1385 251.595 35.1385ZM251.595 43.529C253.567 43.529 255.157 41.9394 255.157 39.9675C255.157 37.9957 253.567 36.4061 251.595 36.4061C249.623 36.4061 248.034 37.9957 248.034 39.9675C248.034 41.9394 249.623 43.529 251.595 43.529Z" fill="#E0DCE6"/>
<path d="M236.404 35.1386C239.08 35.1386 241.253 37.3117 241.253 39.9677C241.253 42.6237 239.08 44.8169 236.404 44.8169C233.727 44.8169 231.574 42.6438 231.574 39.9677C231.574 37.2915 233.748 35.1386 236.404 35.1386ZM236.404 43.5291C238.375 43.5291 239.965 41.9395 239.965 39.9677C239.965 37.9958 238.375 36.4062 236.404 36.4062C234.432 36.4062 232.842 37.9958 232.842 39.9677C232.842 41.9395 234.432 43.5291 236.404 43.5291Z" fill="#E0DCE6"/>
<path d="M221.212 35.1386C223.888 35.1386 226.041 37.3117 226.041 39.9677C226.041 42.6237 223.868 44.8169 221.212 44.8169C218.556 44.8169 216.363 42.6438 216.363 39.9677C216.363 37.2915 218.536 35.1386 221.212 35.1386ZM221.212 43.5291C223.184 43.5291 224.774 41.9395 224.774 39.9677C224.774 37.9958 223.184 36.4062 221.212 36.4062C219.24 36.4062 217.651 37.9958 217.651 39.9677C217.651 41.9395 219.24 43.5291 221.212 43.5291Z" fill="#E0DCE6"/>
<path d="M206.021 35.1386C208.697 35.1386 210.85 37.3117 210.85 39.9677C210.85 42.6237 208.677 44.8169 206.021 44.8169C203.365 44.8169 201.172 42.6438 201.172 39.9677C201.172 37.2915 203.345 35.1386 206.021 35.1386ZM206.021 43.5291C207.993 43.5291 209.582 41.9395 209.582 39.9677C209.582 37.9958 207.993 36.4062 206.021 36.4062C204.049 36.4062 202.459 37.9958 202.459 39.9677C202.459 41.9395 204.049 43.5291 206.021 43.5291Z" fill="#E0DCE6"/>
<path d="M190.829 35.1386C193.505 35.1386 195.678 37.3117 195.678 39.9677C195.678 42.6237 193.505 44.8169 190.829 44.8169C188.153 44.8169 186 42.6438 186 39.9677C186 37.2915 188.173 35.1386 190.829 35.1386ZM190.829 43.5291C192.801 43.5291 194.391 41.9395 194.391 39.9677C194.391 37.9958 192.801 36.4062 190.829 36.4062C188.857 36.4062 187.268 37.9958 187.268 39.9677C187.268 41.9395 188.857 43.5291 190.829 43.5291Z" fill="#E0DCE6"/>
<path d="M251.595 21.9187C254.271 21.9187 256.444 24.0918 256.444 26.7478C256.444 29.4038 254.271 31.597 251.595 31.597C248.919 31.597 246.766 29.4239 246.766 26.7478C246.766 24.0717 248.939 21.9187 251.595 21.9187ZM251.595 30.3093C253.567 30.3093 255.157 28.7197 255.157 26.7478C255.157 24.7759 253.567 23.1864 251.595 23.1864C249.623 23.1864 248.034 24.7759 248.034 26.7478C248.034 28.7197 249.623 30.3093 251.595 30.3093Z" fill="#E0DCE6"/>
<path d="M236.404 21.9189C239.08 21.9189 241.253 24.0919 241.253 26.7479C241.253 29.4039 239.08 31.5972 236.404 31.5972C233.727 31.5972 231.574 29.4241 231.574 26.7479C231.574 24.0718 233.748 21.9189 236.404 21.9189ZM236.404 30.3094C238.375 30.3094 239.965 28.7198 239.965 26.7479C239.965 24.7761 238.375 23.1865 236.404 23.1865C234.432 23.1865 232.842 24.7761 232.842 26.7479C232.842 28.7198 234.432 30.3094 236.404 30.3094Z" fill="#E0DCE6"/>
<path d="M221.212 21.9189C223.888 21.9189 226.041 24.0919 226.041 26.7479C226.041 29.4039 223.868 31.5972 221.212 31.5972C218.556 31.5972 216.363 29.4241 216.363 26.7479C216.363 24.0718 218.536 21.9189 221.212 21.9189ZM221.212 30.3094C223.184 30.3094 224.774 28.7198 224.774 26.7479C224.774 24.7761 223.184 23.1865 221.212 23.1865C219.24 23.1865 217.651 24.7761 217.651 26.7479C217.651 28.7198 219.24 30.3094 221.212 30.3094Z" fill="#E0DCE6"/>
<path d="M206.021 21.9189C208.697 21.9189 210.85 24.0919 210.85 26.7479C210.85 29.4039 208.677 31.5972 206.021 31.5972C203.365 31.5972 201.172 29.4241 201.172 26.7479C201.172 24.0718 203.345 21.9189 206.021 21.9189ZM206.021 30.3094C207.993 30.3094 209.582 28.7198 209.582 26.7479C209.582 24.7761 207.993 23.1865 206.021 23.1865C204.049 23.1865 202.459 24.7761 202.459 26.7479C202.459 28.7198 204.049 30.3094 206.021 30.3094Z" fill="#E0DCE6"/>
<path d="M190.829 21.9189C193.505 21.9189 195.678 24.0919 195.678 26.7479C195.678 29.4039 193.505 31.5972 190.829 31.5972C188.153 31.5972 186 29.4241 186 26.7479C186 24.0718 188.173 21.9189 190.829 21.9189ZM190.829 30.3094C192.801 30.3094 194.391 28.7198 194.391 26.7479C194.391 24.7761 192.801 23.1865 190.829 23.1865C188.857 23.1865 187.268 24.7761 187.268 26.7479C187.268 28.7198 188.857 30.3094 190.829 30.3094Z" fill="#E0DCE6"/>
<path d="M251.595 8.67923C254.271 8.67923 256.444 10.8523 256.444 13.5284C256.444 16.2045 254.271 18.3575 251.595 18.3575C248.919 18.3575 246.766 16.1844 246.766 13.5284C246.766 10.8724 248.939 8.67923 251.595 8.67923ZM251.595 17.0698C253.567 17.0698 255.157 15.4802 255.157 13.5083C255.157 11.5364 253.567 9.94682 251.595 9.94682C249.623 9.94682 248.034 11.5364 248.034 13.5083C248.034 15.4802 249.623 17.0698 251.595 17.0698Z" fill="#E0DCE6"/>
<path d="M236.404 8.67935C239.08 8.67935 241.253 10.8524 241.253 13.5285C241.253 16.2046 239.08 18.3577 236.404 18.3577C233.727 18.3577 231.574 16.1845 231.574 13.5285C231.574 10.8725 233.748 8.67935 236.404 8.67935ZM236.404 17.0699C238.375 17.0699 239.965 15.4803 239.965 13.5084C239.965 11.5366 238.375 9.94694 236.404 9.94694C234.432 9.94694 232.842 11.5366 232.842 13.5084C232.842 15.4803 234.432 17.0699 236.404 17.0699Z" fill="#E0DCE6"/>
<path d="M221.212 8.67935C223.888 8.67935 226.041 10.8524 226.041 13.5285C226.041 16.2046 223.868 18.3577 221.212 18.3577C218.556 18.3577 216.363 16.1845 216.363 13.5285C216.363 10.8725 218.536 8.67935 221.212 8.67935ZM221.212 17.0699C223.184 17.0699 224.774 15.4803 224.774 13.5084C224.774 11.5366 223.184 9.94694 221.212 9.94694C219.24 9.94694 217.651 11.5366 217.651 13.5084C217.651 15.4803 219.24 17.0699 221.212 17.0699Z" fill="#E0DCE6"/>
<path d="M206.021 8.67935C208.697 8.67935 210.85 10.8524 210.85 13.5285C210.85 16.2046 208.677 18.3577 206.021 18.3577C203.365 18.3577 201.172 16.1845 201.172 13.5285C201.172 10.8725 203.345 8.67935 206.021 8.67935ZM206.021 17.0699C207.993 17.0699 209.582 15.4803 209.582 13.5084C209.582 11.5366 207.993 9.94694 206.021 9.94694C204.049 9.94694 202.459 11.5366 202.459 13.5084C202.459 15.4803 204.049 17.0699 206.021 17.0699Z" fill="#E0DCE6"/>
<path d="M190.829 8.67935C193.505 8.67935 195.678 10.8524 195.678 13.5285C195.678 16.2046 193.505 18.3577 190.829 18.3577C188.153 18.3577 186 16.1845 186 13.5285C186 10.8725 188.173 8.67935 190.829 8.67935ZM190.829 17.0699C192.801 17.0699 194.391 15.4803 194.391 13.5084C194.391 11.5366 192.801 9.94694 190.829 9.94694C188.857 9.94694 187.268 11.5366 187.268 13.5084C187.268 15.4803 188.857 17.0699 190.829 17.0699Z" fill="#E0DCE6"/>
<path d="M251.595 -4.5405C254.271 -4.5405 256.444 -2.36739 256.444 0.308731C256.444 2.98486 254.271 5.13782 251.595 5.13782C248.919 5.13782 246.766 2.96473 246.766 0.30873C246.766 -2.34727 248.939 -4.5405 251.595 -4.5405ZM251.595 3.85003C253.567 3.85003 255.157 2.26047 255.157 0.28859C255.157 -1.68329 253.567 -3.27285 251.595 -3.27285C249.623 -3.27285 248.034 -1.68329 248.034 0.28859C248.034 2.26047 249.623 3.85003 251.595 3.85003Z" fill="#E0DCE6"/>
<path d="M236.404 -4.54037C239.08 -4.54037 241.253 -2.36727 241.253 0.308853C241.253 2.98498 239.08 5.13794 236.404 5.13794C233.727 5.13794 231.574 2.96486 231.574 0.308853C231.574 -2.34715 233.748 -4.54037 236.404 -4.54037ZM236.404 3.85015C238.375 3.85015 239.965 2.26059 239.965 0.288712C239.965 -1.68317 238.375 -3.27273 236.404 -3.27273C234.432 -3.27273 232.842 -1.68317 232.842 0.288712C232.842 2.26059 234.432 3.85015 236.404 3.85015Z" fill="#E0DCE6"/>
<path d="M221.212 -4.54037C223.888 -4.54037 226.041 -2.36727 226.041 0.308853C226.041 2.98498 223.868 5.13794 221.212 5.13794C218.556 5.13794 216.363 2.96486 216.363 0.308853C216.363 -2.34715 218.536 -4.54037 221.212 -4.54037ZM221.212 3.85015C223.184 3.85015 224.774 2.26059 224.774 0.288712C224.774 -1.68317 223.184 -3.27273 221.212 -3.27273C219.24 -3.27273 217.651 -1.68317 217.651 0.288712C217.651 2.26059 219.24 3.85015 221.212 3.85015Z" fill="#E0DCE6"/>
<path d="M206.021 -4.54037C208.697 -4.54037 210.85 -2.36727 210.85 0.308853C210.85 2.98498 208.677 5.13794 206.021 5.13794C203.365 5.13794 201.172 2.96486 201.172 0.308853C201.172 -2.34715 203.345 -4.54037 206.021 -4.54037ZM206.021 3.85015C207.993 3.85015 209.582 2.26059 209.582 0.288712C209.582 -1.68317 207.993 -3.27273 206.021 -3.27273C204.049 -3.27273 202.459 -1.68317 202.459 0.288712C202.459 2.26059 204.049 3.85015 206.021 3.85015Z" fill="#E0DCE6"/>
<path d="M190.829 -4.54037C193.505 -4.54037 195.678 -2.36727 195.678 0.308853C195.678 2.98498 193.505 5.13794 190.829 5.13794C188.153 5.13794 186 2.96486 186 0.308853C186 -2.34715 188.173 -4.54037 190.829 -4.54037ZM190.829 3.85015C192.801 3.85015 194.391 2.26059 194.391 0.288712C194.391 -1.68317 192.801 -3.27273 190.829 -3.27273C188.857 -3.27273 187.268 -1.68317 187.268 0.288712C187.268 2.26059 188.857 3.85015 190.829 3.85015Z" fill="#E0DCE6"/>
<path d="M328.72 35.1385C331.396 35.1385 333.569 37.3116 333.569 39.9877C333.569 42.6638 331.396 44.8168 328.72 44.8168C326.044 44.8168 323.891 42.6437 323.891 39.9877C323.891 37.3317 326.064 35.1385 328.72 35.1385ZM328.72 43.529C330.692 43.529 332.282 41.9394 332.282 39.9675C332.282 37.9957 330.692 36.4061 328.72 36.4061C326.748 36.4061 325.159 37.9957 325.159 39.9675C325.159 41.9394 326.748 43.529 328.72 43.529Z" fill="#E0DCE6"/>
<path d="M313.287 35.1386C315.963 35.1386 318.136 37.3117 318.136 39.9878C318.136 42.6639 315.963 44.8169 313.287 44.8169C310.611 44.8169 308.458 42.6438 308.458 39.9878C308.458 37.3318 310.631 35.1386 313.287 35.1386ZM313.287 43.5291C315.259 43.5291 316.849 41.9395 316.849 39.9677C316.849 37.9958 315.259 36.4062 313.287 36.4062C311.315 36.4062 309.726 37.9958 309.726 39.9677C309.726 41.9395 311.315 43.5291 313.287 43.5291Z" fill="#E0DCE6"/>
<path d="M297.874 35.1386C300.55 35.1386 302.703 37.3117 302.703 39.9878C302.703 42.6639 300.53 44.8169 297.874 44.8169C295.218 44.8169 293.025 42.6438 293.025 39.9878C293.025 37.3318 295.198 35.1386 297.874 35.1386ZM297.874 43.5291C299.846 43.5291 301.435 41.9395 301.435 39.9677C301.435 37.9958 299.846 36.4062 297.874 36.4062C295.902 36.4062 294.313 37.9958 294.313 39.9677C294.313 41.9395 295.902 43.5291 297.874 43.5291Z" fill="#E0DCE6"/>
<path d="M282.441 35.1386C285.117 35.1386 287.27 37.3117 287.27 39.9878C287.27 42.6639 285.097 44.8169 282.441 44.8169C279.785 44.8169 277.592 42.6438 277.592 39.9878C277.592 37.3318 279.765 35.1386 282.441 35.1386ZM282.441 43.5291C284.413 43.5291 286.002 41.9395 286.002 39.9677C286.002 37.9958 284.413 36.4062 282.441 36.4062C280.469 36.4062 278.88 37.9958 278.88 39.9677C278.88 41.9395 280.469 43.5291 282.441 43.5291Z" fill="#E0DCE6"/>
<path d="M267.028 35.1386C269.705 35.1386 271.878 37.3117 271.878 39.9878C271.878 42.6639 269.705 44.8169 267.028 44.8169C264.352 44.8169 262.199 42.6438 262.199 39.9878C262.199 37.3318 264.372 35.1386 267.028 35.1386ZM267.028 43.5291C269 43.5291 270.59 41.9395 270.59 39.9677C270.59 37.9958 269 36.4062 267.028 36.4062C265.057 36.4062 263.467 37.9958 263.467 39.9677C263.467 41.9395 265.057 43.5291 267.028 43.5291Z" fill="#E0DCE6"/>
<path d="M328.72 21.9187C331.396 21.9187 333.569 24.0918 333.569 26.768C333.569 29.4441 331.396 31.597 328.72 31.597C326.044 31.597 323.891 29.424 323.891 26.768C323.891 24.112 326.064 21.9187 328.72 21.9187ZM328.72 30.3093C330.692 30.3093 332.282 28.7197 332.282 26.7478C332.282 24.7759 330.692 23.1864 328.72 23.1864C326.748 23.1864 325.159 24.7759 325.159 26.7478C325.159 28.7197 326.748 30.3093 328.72 30.3093Z" fill="#E0DCE6"/>
<path d="M313.287 21.9189C315.963 21.9189 318.136 24.092 318.136 26.7681C318.136 29.4442 315.963 31.5972 313.287 31.5972C310.611 31.5972 308.458 29.4241 308.458 26.7681C308.458 24.1121 310.631 21.9189 313.287 21.9189ZM313.287 30.3094C315.259 30.3094 316.849 28.7198 316.849 26.7479C316.849 24.7761 315.259 23.1865 313.287 23.1865C311.315 23.1865 309.726 24.7761 309.726 26.7479C309.726 28.7198 311.315 30.3094 313.287 30.3094Z" fill="#E0DCE6"/>
<path d="M297.874 21.9189C300.55 21.9189 302.703 24.092 302.703 26.7681C302.703 29.4442 300.53 31.5972 297.874 31.5972C295.218 31.5972 293.025 29.4241 293.025 26.7681C293.025 24.1121 295.198 21.9189 297.874 21.9189ZM297.874 30.3094C299.846 30.3094 301.435 28.7198 301.435 26.7479C301.435 24.7761 299.846 23.1865 297.874 23.1865C295.902 23.1865 294.313 24.7761 294.313 26.7479C294.313 28.7198 295.902 30.3094 297.874 30.3094Z" fill="#E0DCE6"/>
<path d="M282.441 21.9189C285.117 21.9189 287.27 24.092 287.27 26.7681C287.27 29.4442 285.097 31.5972 282.441 31.5972C279.785 31.5972 277.592 29.4241 277.592 26.7681C277.592 24.1121 279.765 21.9189 282.441 21.9189ZM282.441 30.3094C284.413 30.3094 286.002 28.7198 286.002 26.7479C286.002 24.7761 284.413 23.1865 282.441 23.1865C280.469 23.1865 278.88 24.7761 278.88 26.7479C278.88 28.7198 280.469 30.3094 282.441 30.3094Z" fill="#E0DCE6"/>
<path d="M267.028 21.9189C269.705 21.9189 271.878 24.092 271.878 26.7681C271.878 29.4442 269.705 31.5972 267.028 31.5972C264.352 31.5972 262.199 29.4241 262.199 26.7681C262.199 24.1121 264.372 21.9189 267.028 21.9189ZM267.028 30.3094C269 30.3094 270.59 28.7198 270.59 26.7479C270.59 24.7761 269 23.1865 267.028 23.1865C265.057 23.1865 263.467 24.7761 263.467 26.7479C263.467 28.7198 265.057 30.3094 267.028 30.3094Z" fill="#E0DCE6"/>
<path d="M328.72 8.67923C331.396 8.67923 333.569 10.8523 333.569 13.5284C333.569 16.2045 331.396 18.3575 328.72 18.3575C326.044 18.3575 323.891 16.1844 323.891 13.5284C323.891 10.8724 326.064 8.67923 328.72 8.67923ZM328.72 17.0698C330.692 17.0698 332.282 15.4802 332.282 13.5083C332.282 11.5364 330.692 9.94682 328.72 9.94682C326.748 9.94682 325.159 11.5364 325.159 13.5083C325.159 15.4802 326.748 17.0698 328.72 17.0698Z" fill="#E0DCE6"/>
<path d="M313.287 8.67935C315.963 8.67935 318.136 10.8524 318.136 13.5285C318.136 16.2046 315.963 18.3577 313.287 18.3577C310.611 18.3577 308.458 16.1845 308.458 13.5285C308.458 10.8725 310.631 8.67935 313.287 8.67935ZM313.287 17.0699C315.259 17.0699 316.849 15.4803 316.849 13.5084C316.849 11.5366 315.259 9.94694 313.287 9.94694C311.315 9.94694 309.726 11.5366 309.726 13.5084C309.726 15.4803 311.315 17.0699 313.287 17.0699Z" fill="#E0DCE6"/>
<path d="M297.874 8.67935C300.55 8.67935 302.703 10.8524 302.703 13.5285C302.703 16.2046 300.53 18.3577 297.874 18.3577C295.218 18.3577 293.025 16.1845 293.025 13.5285C293.025 10.8725 295.198 8.67935 297.874 8.67935ZM297.874 17.0699C299.846 17.0699 301.435 15.4803 301.435 13.5084C301.435 11.5366 299.846 9.94694 297.874 9.94694C295.902 9.94694 294.313 11.5366 294.313 13.5084C294.313 15.4803 295.902 17.0699 297.874 17.0699Z" fill="#E0DCE6"/>
<path d="M282.441 8.67935C285.117 8.67935 287.27 10.8524 287.27 13.5285C287.27 16.2046 285.097 18.3577 282.441 18.3577C279.785 18.3577 277.592 16.1845 277.592 13.5285C277.592 10.8725 279.765 8.67935 282.441 8.67935ZM282.441 17.0699C284.413 17.0699 286.002 15.4803 286.002 13.5084C286.002 11.5366 284.413 9.94694 282.441 9.94694C280.469 9.94694 278.88 11.5366 278.88 13.5084C278.88 15.4803 280.469 17.0699 282.441 17.0699Z" fill="#E0DCE6"/>
<path d="M267.028 8.67935C269.705 8.67935 271.878 10.8524 271.878 13.5285C271.878 16.2046 269.705 18.3577 267.028 18.3577C264.352 18.3577 262.199 16.1845 262.199 13.5285C262.199 10.8725 264.372 8.67935 267.028 8.67935ZM267.028 17.0699C269 17.0699 270.59 15.4803 270.59 13.5084C270.59 11.5366 269 9.94694 267.028 9.94694C265.057 9.94694 263.467 11.5366 263.467 13.5084C263.467 15.4803 265.057 17.0699 267.028 17.0699Z" fill="#E0DCE6"/>
<path d="M328.72 -4.5405C331.396 -4.5405 333.569 -2.36739 333.569 0.308731C333.569 2.98486 331.396 5.13782 328.72 5.13782C326.044 5.13782 323.891 2.96473 323.891 0.30873C323.891 -2.34727 326.064 -4.5405 328.72 -4.5405ZM328.72 3.85003C330.692 3.85003 332.282 2.26047 332.282 0.28859C332.282 -1.68329 330.692 -3.27285 328.72 -3.27285C326.748 -3.27285 325.159 -1.68329 325.159 0.28859C325.159 2.26047 326.748 3.85003 328.72 3.85003Z" fill="#E0DCE6"/>
<path d="M313.287 -4.54037C315.963 -4.54037 318.136 -2.36727 318.136 0.308853C318.136 2.98498 315.963 5.13794 313.287 5.13794C310.611 5.13794 308.458 2.96486 308.458 0.308853C308.458 -2.34715 310.631 -4.54037 313.287 -4.54037ZM313.287 3.85015C315.259 3.85015 316.849 2.26059 316.849 0.288712C316.849 -1.68317 315.259 -3.27273 313.287 -3.27273C311.315 -3.27273 309.726 -1.68317 309.726 0.288712C309.726 2.26059 311.315 3.85015 313.287 3.85015Z" fill="#E0DCE6"/>
<path d="M297.874 -4.54037C300.55 -4.54037 302.703 -2.36727 302.703 0.308853C302.703 2.98498 300.53 5.13794 297.874 5.13794C295.218 5.13794 293.025 2.96486 293.025 0.308853C293.025 -2.34715 295.198 -4.54037 297.874 -4.54037ZM297.874 3.85015C299.846 3.85015 301.435 2.26059 301.435 0.288712C301.435 -1.68317 299.846 -3.27273 297.874 -3.27273C295.902 -3.27273 294.313 -1.68317 294.313 0.288712C294.313 2.26059 295.902 3.85015 297.874 3.85015Z" fill="#E0DCE6"/>
<path d="M282.441 -4.54037C285.117 -4.54037 287.27 -2.36727 287.27 0.308853C287.27 2.98498 285.097 5.13794 282.441 5.13794C279.785 5.13794 277.592 2.96486 277.592 0.308853C277.592 -2.34715 279.765 -4.54037 282.441 -4.54037ZM282.441 3.85015C284.413 3.85015 286.002 2.26059 286.002 0.288712C286.002 -1.68317 284.413 -3.27273 282.441 -3.27273C280.469 -3.27273 278.88 -1.68317 278.88 0.288712C278.88 2.26059 280.469 3.85015 282.441 3.85015Z" fill="#E0DCE6"/>
<path d="M267.028 -4.54037C269.705 -4.54037 271.878 -2.36727 271.878 0.308853C271.878 2.98498 269.705 5.13794 267.028 5.13794C264.352 5.13794 262.199 2.96486 262.199 0.308853C262.199 -2.34715 264.372 -4.54037 267.028 -4.54037ZM267.028 3.85015C269 3.85015 270.59 2.26059 270.59 0.288712C270.59 -1.68317 269 -3.27273 267.028 -3.27273C265.057 -3.27273 263.467 -1.68317 263.467 0.288712C263.467 2.26059 265.057 3.85015 267.028 3.85015Z" fill="#E0DCE6"/>
<path d="M55.0035 -12.7126C59.5782 -11.6663 62.543 -7.56916 61.6273 -3.53604C56.7476 17.8423 35.6285 31.3287 14.5347 26.5173C9.95992 25.471 6.99512 21.3739 7.91081 17.3408C8.82837 13.3253 13.2782 10.9047 17.853 11.9511C29.8071 14.6777 42.0088 6.03435 45.0534 -7.31315C45.9709 -11.3286 50.4208 -13.7492 54.9956 -12.7029L55.0035 -12.7126Z" fill="#434193"/>
<path d="M7.77584 13.8658L28.2279 18.5302L27.2211 18.6545C22.6927 19.2315 18.1332 19.0067 13.6604 17.9943C11.3132 17.4551 9.30233 16.1199 8.02932 14.2326L7.77584 13.8658ZM26.0946 18.4068L8.63943 14.4186C9.85505 16.0168 11.6567 17.1504 13.7371 17.6194C17.8075 18.549 21.9502 18.809 26.0927 18.3891L26.0946 18.4068Z" fill="#53BDC2"/>
<path d="M6.89238 8.55596L38.0247 15.6612L37.5187 15.8668C36.1479 16.4411 34.7698 16.9446 33.3901 17.3498L33.3291 17.3652L6.8088 11.3202L6.78591 11.1885C6.65284 10.3526 6.673 9.52747 6.83844 8.72271L6.87282 8.54014L6.89238 8.55596ZM36.8178 15.753L7.21622 8.9959C7.09868 9.66139 7.08127 10.3431 7.18168 11.0393L33.2996 17.0015C34.4707 16.6541 35.6519 16.2341 36.8099 15.7628L36.8178 15.753Z" fill="#53BDC2"/>
<path d="M10.1053 4.16376L44.5465 12.0197L44.2035 12.2438C43.251 12.8813 42.2849 13.4754 41.3212 14.0067L41.2542 14.0495L7.79415 6.42093L7.96031 6.2155C8.49317 5.41665 9.20024 4.74252 10.0382 4.20664L10.1132 4.15398L10.1053 4.16376ZM43.6143 12.1719L10.2093 4.55536C9.52307 5.00362 8.92861 5.55848 8.4497 6.1906L41.1678 13.6561C41.9877 13.2026 42.8117 12.704 43.6143 12.1719Z" fill="#53BDC2"/>
<path d="M26.7771 2.85804L49.4842 8.03566L49.2394 8.25838C48.556 8.90316 47.8098 9.54563 47.0263 10.1742L46.9435 10.2366L17.7462 3.57989L17.8168 3.23249C20.7652 3.78867 23.7664 3.65933 26.7162 2.87343L26.7771 2.85804ZM48.6992 8.226L26.8085 3.23943C24.8506 3.75948 22.8529 3.98849 20.8785 3.92878L46.8218 9.84687C47.4809 9.312 48.1126 8.77109 48.6992 8.226Z" fill="#53BDC2"/>
<path d="M33.9878 -0.614806L53.3486 3.7982L53.1745 4.01342C52.6444 4.66885 52.0789 5.32801 51.4384 6.03983L51.3672 6.12787L30.6483 1.39319L31.072 1.16948C32.0474 0.663819 33.0055 0.0794738 33.9207 -0.571922L33.9957 -0.624591L33.9878 -0.614806ZM52.6558 4.01456L34.1016 -0.215287C33.3362 0.330803 32.522 0.837318 31.7002 1.27307L51.1808 5.71815C51.7263 5.12372 52.2127 4.56238 52.6558 4.01456Z" fill="#53BDC2"/>
<path d="M38.4114 -4.72364L56.3788 -0.628582L56.2579 -0.418984C55.8237 0.29787 55.3718 1.0166 54.8985 1.70181L54.8194 1.79963L36.2377 -2.43628L36.4727 -2.66689C37.0988 -3.26089 37.7272 -3.91773 38.3402 -4.63559L38.4114 -4.72364ZM55.7684 -0.394103L38.5802 -4.31206C38.0621 -3.71159 37.5403 -3.14651 37.005 -2.62473L54.6152 1.39177C55.0192 0.812301 55.3938 0.209104 55.7605 -0.384319L55.7684 -0.394103Z" fill="#53BDC2"/>
<path d="M41.4317 -9.15811L58.7122 -5.2141L58.6345 -5.01804C58.2744 -4.19271 57.9385 -3.47728 57.6049 -2.82473L57.5374 -2.7013L39.937 -6.7099L40.0756 -6.92137C40.5392 -7.61448 40.9752 -8.31365 41.3563 -9.0249L41.4238 -9.14832L41.4317 -9.15811ZM58.1567 -4.96753L41.6652 -8.72653C41.3357 -8.11916 40.9611 -7.51595 40.5748 -6.93835L57.296 -3.12311C57.578 -3.6718 57.8622 -4.28333 58.1567 -4.96753Z" fill="#53BDC2"/>
<path d="M683.746 134.961L660.313 134.947L660.299 111.513L645.729 111.513L645.729 134.961H622.282L622.267 149.545H645.715V172.992L660.313 172.992L660.313 149.545H683.76L683.746 134.961Z" fill="#ED72A7"/>
<path d="M641.077 111.585C640.792 111.3 640.621 110.902 640.621 110.475C640.621 109.621 641.333 108.91 642.186 108.91C643.04 108.91 643.751 109.621 643.751 110.475C643.751 111.329 643.04 112.04 642.186 112.04C641.759 112.04 641.361 111.869 641.077 111.585ZM643.04 109.621C642.827 109.408 642.514 109.265 642.172 109.265C641.518 109.265 640.963 109.82 640.963 110.475C640.963 111.129 641.518 111.684 642.172 111.684C642.827 111.684 643.381 111.129 643.381 110.475C643.381 110.133 643.253 109.835 643.026 109.607L643.04 109.621Z" fill="#FCCB1F"/>
<path d="M650.723 111.585C650.439 111.3 650.268 110.902 650.268 110.475C650.268 110.048 650.424 109.664 650.723 109.365C651.022 109.066 651.406 108.91 651.833 108.91C652.658 108.91 653.398 109.65 653.398 110.475C653.398 110.902 653.242 111.286 652.943 111.585C652.644 111.883 652.26 112.04 651.833 112.04C651.406 112.04 651.008 111.869 650.723 111.585ZM652.687 109.621C652.459 109.393 652.16 109.265 651.819 109.265C651.506 109.265 651.193 109.379 650.951 109.621C650.709 109.863 650.595 110.148 650.595 110.489C650.595 111.143 651.15 111.698 651.805 111.698C652.118 111.698 652.431 111.585 652.672 111.343C652.914 111.101 653.028 110.816 653.028 110.475C653.028 110.162 652.914 109.849 652.672 109.607L652.687 109.621Z" fill="#FCCB1F"/>
<path d="M641.077 120.662C640.793 120.377 640.622 119.979 640.622 119.552C640.622 118.698 641.333 117.987 642.187 117.987C643.041 117.987 643.752 118.698 643.752 119.552C643.752 120.406 643.041 121.117 642.187 121.117C641.76 121.117 641.362 120.946 641.077 120.662ZM643.041 118.698C642.813 118.471 642.514 118.343 642.173 118.343C641.518 118.343 640.964 118.898 640.964 119.552C640.964 120.207 641.518 120.761 642.173 120.761C642.827 120.761 643.382 120.207 643.382 119.552C643.382 119.239 643.268 118.926 643.027 118.684L643.041 118.698Z" fill="#FCCB1F"/>
<path d="M650.723 120.662C650.439 120.377 650.268 119.979 650.268 119.552C650.268 118.698 650.98 117.987 651.833 117.987C652.687 117.987 653.398 118.698 653.398 119.552C653.398 120.406 652.687 121.117 651.833 121.117C651.406 121.117 651.008 120.946 650.723 120.662ZM652.687 118.698C652.473 118.485 652.16 118.343 651.819 118.343C651.478 118.343 651.193 118.457 650.951 118.698C650.709 118.94 650.595 119.225 650.595 119.566C650.595 120.221 651.15 120.776 651.805 120.776C652.118 120.776 652.431 120.662 652.673 120.42C652.915 120.178 653.028 119.894 653.028 119.552C653.028 119.211 652.9 118.912 652.673 118.684L652.687 118.698Z" fill="#FCCB1F"/>
<path d="M641.062 129.754C640.778 129.469 640.607 129.071 640.607 128.644C640.607 128.217 640.764 127.833 641.062 127.534C641.361 127.235 641.745 127.079 642.172 127.079C642.997 127.079 643.737 127.819 643.737 128.644C643.737 129.071 643.581 129.455 643.282 129.754C642.983 130.052 642.599 130.209 642.172 130.209C641.745 130.209 641.347 130.038 641.062 129.754ZM643.026 127.79C642.798 127.563 642.499 127.434 642.158 127.434C641.845 127.434 641.532 127.548 641.29 127.79C641.048 128.032 640.934 128.317 640.934 128.658C640.934 129.313 641.489 129.867 642.144 129.867C642.457 129.867 642.77 129.754 643.012 129.512C643.253 129.27 643.367 128.985 643.367 128.644C643.367 128.331 643.253 128.018 643.012 127.776L643.026 127.79Z" fill="#FCCB1F"/>
<path d="M650.723 129.739C650.439 129.455 650.268 129.056 650.268 128.63C650.268 127.776 650.979 127.064 651.833 127.064C652.687 127.064 653.398 127.776 653.398 128.63C653.398 129.483 652.687 130.195 651.833 130.195C651.406 130.195 651.008 130.024 650.723 129.739ZM652.687 127.776C652.459 127.548 652.16 127.42 651.819 127.42C651.164 127.42 650.609 127.975 650.609 128.63C650.609 129.284 651.164 129.839 651.819 129.839C652.473 129.839 653.028 129.284 653.028 128.63C653.028 128.317 652.914 128.003 652.672 127.762L652.687 127.776Z" fill="#FCCB1F"/>
<path d="M641.063 138.831C640.778 138.547 640.607 138.148 640.607 137.721C640.607 136.868 641.319 136.156 642.172 136.156C643.026 136.156 643.737 136.868 643.737 137.721C643.737 138.575 643.026 139.286 642.172 139.286C641.745 139.286 641.347 139.116 641.063 138.831ZM643.026 136.868C642.813 136.654 642.5 136.512 642.158 136.512C641.817 136.512 641.532 136.626 641.29 136.868C641.048 137.11 640.934 137.394 640.934 137.736C640.934 138.39 641.489 138.945 642.144 138.945C642.798 138.945 643.353 138.39 643.353 137.736C643.353 137.394 643.225 137.095 642.997 136.868L643.026 136.868Z" fill="#FCCB1F"/>
<path d="M650.738 138.831C650.439 138.532 650.282 138.148 650.282 137.721C650.282 136.868 650.994 136.156 651.847 136.156C652.673 136.156 653.412 136.896 653.412 137.721C653.412 138.148 653.256 138.532 652.957 138.831C652.658 139.13 652.274 139.286 651.847 139.286C651.42 139.286 651.036 139.13 650.738 138.831ZM652.701 136.868C652.473 136.64 652.175 136.512 651.833 136.512C651.179 136.512 650.624 137.067 650.624 137.721C650.624 138.376 651.179 138.931 651.833 138.931C652.146 138.931 652.459 138.817 652.701 138.575C652.943 138.333 653.057 138.049 653.057 137.707C653.057 137.394 652.943 137.081 652.701 136.839V136.868Z" fill="#FCCB1F"/>
<path d="M641.062 148.051C640.778 147.766 640.607 147.368 640.607 146.941C640.607 146.087 641.318 145.376 642.172 145.376C643.026 145.376 643.737 146.087 643.737 146.941C643.737 147.795 643.026 148.506 642.172 148.506C641.745 148.506 641.347 148.335 641.062 148.051ZM643.026 146.087C642.812 145.874 642.499 145.732 642.158 145.732C641.503 145.732 640.948 146.287 640.948 146.941C640.948 147.596 641.503 148.151 642.158 148.151C642.812 148.151 643.367 147.596 643.367 146.941C643.367 146.6 643.239 146.301 643.011 146.073L643.026 146.087Z" fill="#FCCB1F"/>
<path d="M650.723 148.037C650.438 147.752 650.268 147.354 650.268 146.927C650.268 146.5 650.424 146.116 650.723 145.817C651.022 145.518 651.406 145.362 651.833 145.362C652.658 145.362 653.398 146.102 653.398 146.927C653.398 147.354 653.241 147.738 652.943 148.037C652.644 148.335 652.26 148.492 651.833 148.492C651.406 148.492 651.008 148.321 650.723 148.037ZM652.686 146.073C652.459 145.845 652.16 145.717 651.819 145.717C651.506 145.717 651.193 145.831 650.951 146.073C650.709 146.315 650.595 146.6 650.595 146.941C650.595 147.596 651.15 148.15 651.804 148.15C652.117 148.15 652.43 148.037 652.672 147.795C652.914 147.553 653.028 147.268 653.028 146.927C653.028 146.614 652.914 146.301 652.672 146.059L652.686 146.073Z" fill="#FCCB1F"/>
<path d="M641.063 157.128C640.764 156.829 640.607 156.445 640.607 156.018C640.607 155.165 641.319 154.453 642.172 154.453C642.998 154.453 643.737 155.193 643.737 156.018C643.737 156.445 643.581 156.829 643.282 157.128C642.983 157.427 642.599 157.583 642.172 157.583C641.746 157.583 641.361 157.427 641.063 157.128ZM643.026 155.165C642.798 154.937 642.5 154.809 642.158 154.809C641.504 154.809 640.949 155.364 640.949 156.018C640.949 156.673 641.504 157.228 642.158 157.228C642.471 157.228 642.784 157.114 643.026 156.872C643.268 156.63 643.382 156.346 643.382 156.004C643.382 155.691 643.268 155.378 643.026 155.136V155.165Z" fill="#FCCB1F"/>
<path d="M650.738 157.128C650.453 156.844 650.282 156.445 650.282 156.018C650.282 155.165 650.994 154.453 651.848 154.453C652.701 154.453 653.413 155.165 653.413 156.018C653.413 156.872 652.701 157.583 651.848 157.583C651.421 157.583 651.022 157.413 650.738 157.128ZM652.701 155.165C652.488 154.951 652.175 154.809 651.833 154.809C651.52 154.809 651.207 154.923 650.965 155.165C650.724 155.407 650.61 155.691 650.61 156.033C650.61 156.687 651.165 157.242 651.819 157.242C652.132 157.242 652.445 157.128 652.687 156.886C652.929 156.644 653.043 156.36 653.043 156.018C653.043 155.677 652.915 155.378 652.687 155.15L652.701 155.165Z" fill="#FCCB1F"/>
<path d="M614.94 143.725C614.642 143.426 614.485 143.042 614.485 142.615C614.485 142.188 614.642 141.804 614.94 141.505C615.239 141.206 615.623 141.05 616.05 141.05C616.875 141.05 617.615 141.79 617.615 142.615C617.615 143.042 617.459 143.426 617.16 143.725C616.861 144.023 616.477 144.18 616.05 144.18C615.623 144.18 615.239 144.023 614.94 143.725ZM616.904 141.761C616.676 141.534 616.377 141.406 616.036 141.406C615.723 141.406 615.41 141.519 615.168 141.761C614.926 142.003 614.812 142.288 614.812 142.629C614.812 143.284 615.367 143.839 616.022 143.839C616.335 143.839 616.648 143.725 616.89 143.483C617.132 143.241 617.245 142.956 617.245 142.615C617.245 142.302 617.132 141.989 616.89 141.747L616.904 141.761Z" fill="#FCCB1F"/>
<path d="M614.941 134.05C614.656 133.765 614.485 133.367 614.485 132.94C614.485 132.086 615.197 131.375 616.05 131.375C616.904 131.375 617.615 132.086 617.615 132.94C617.615 133.794 616.904 134.505 616.05 134.505C615.623 134.505 615.225 134.334 614.941 134.05ZM616.036 131.731C615.723 131.731 615.41 131.844 615.168 132.086C614.926 132.328 614.813 132.613 614.813 132.954C614.813 133.609 615.367 134.164 616.022 134.164C616.335 134.164 616.648 134.05 616.89 133.808C617.132 133.566 617.245 133.281 617.245 132.94C617.245 132.285 616.691 131.731 616.036 131.731Z" fill="#FCCB1F"/>
<path d="M624.018 143.725C623.733 143.44 623.562 143.042 623.562 142.615C623.562 141.762 624.274 141.05 625.127 141.05C625.981 141.05 626.692 141.762 626.692 142.615C626.692 143.469 625.981 144.18 625.127 144.18C624.7 144.18 624.302 144.01 624.018 143.725ZM625.113 141.406C624.459 141.406 623.904 141.961 623.904 142.615C623.904 143.27 624.459 143.825 625.113 143.825C625.768 143.825 626.322 143.27 626.322 142.615C626.322 141.961 625.768 141.406 625.113 141.406Z" fill="#FCCB1F"/>
<path d="M624.032 134.064C623.733 133.765 623.577 133.381 623.577 132.954C623.577 132.528 623.733 132.143 624.032 131.845C624.331 131.546 624.715 131.389 625.142 131.389C625.967 131.389 626.707 132.129 626.707 132.954C626.707 133.381 626.55 133.765 626.251 134.064C625.953 134.363 625.568 134.519 625.142 134.519C624.715 134.519 624.331 134.363 624.032 134.064ZM625.995 132.101C625.768 131.873 625.469 131.745 625.127 131.745C624.814 131.745 624.501 131.859 624.26 132.101C624.018 132.343 623.904 132.627 623.904 132.969C623.904 133.623 624.459 134.178 625.113 134.178C625.426 134.178 625.739 134.064 625.981 133.822C626.223 133.58 626.337 133.296 626.337 132.954C626.337 132.641 626.223 132.328 625.981 132.087L625.995 132.101Z" fill="#FCCB1F"/>
<path d="M633.095 143.725C632.811 143.44 632.64 143.042 632.64 142.615C632.64 142.188 632.796 141.804 633.095 141.505C633.394 141.207 633.778 141.05 634.205 141.05C635.03 141.05 635.77 141.79 635.77 142.615C635.77 143.042 635.614 143.426 635.315 143.725C635.016 144.024 634.632 144.18 634.205 144.18C633.778 144.18 633.38 144.009 633.095 143.725ZM635.059 141.761C634.831 141.534 634.532 141.406 634.191 141.406C633.878 141.406 633.565 141.52 633.323 141.761C633.081 142.003 632.967 142.288 632.967 142.629C632.967 143.284 633.522 143.839 634.177 143.839C634.49 143.839 634.803 143.725 635.044 143.483C635.286 143.241 635.4 142.957 635.4 142.615C635.4 142.302 635.286 141.989 635.044 141.747L635.059 141.761Z" fill="#FCCB1F"/>
<path d="M633.109 134.064C632.825 133.78 632.654 133.381 632.654 132.954C632.654 132.101 633.366 131.389 634.219 131.389C635.073 131.389 635.784 132.101 635.784 132.954C635.784 133.808 635.073 134.52 634.219 134.52C633.792 134.52 633.394 134.349 633.109 134.064ZM634.205 131.745C633.551 131.745 632.996 132.3 632.996 132.954C632.996 133.609 633.551 134.164 634.205 134.164C634.86 134.164 635.414 133.609 635.414 132.954C635.414 132.3 634.859 131.745 634.205 131.745Z" fill="#FCCB1F"/>
<path d="M659.388 143.725C659.104 143.441 658.933 143.042 658.933 142.615C658.933 141.762 659.644 141.05 660.498 141.05C661.352 141.05 662.063 141.762 662.063 142.615C662.063 143.469 661.352 144.181 660.498 144.181C660.071 144.181 659.673 144.01 659.388 143.725ZM660.484 141.406C659.829 141.406 659.274 141.961 659.274 142.615C659.274 143.27 659.829 143.825 660.484 143.825C661.138 143.825 661.693 143.27 661.693 142.615C661.693 141.961 661.138 141.406 660.484 141.406Z" fill="#FCCB1F"/>
<path d="M659.374 134.065C659.075 133.766 658.919 133.382 658.919 132.955C658.919 132.528 659.075 132.144 659.374 131.845C659.673 131.546 660.057 131.39 660.484 131.39C661.309 131.39 662.049 132.13 662.049 132.955C662.049 133.382 661.892 133.766 661.594 134.065C661.295 134.363 660.911 134.52 660.484 134.52C660.057 134.52 659.673 134.363 659.374 134.065ZM661.337 132.101C661.11 131.873 660.811 131.745 660.47 131.745C660.157 131.745 659.844 131.859 659.602 132.101C659.36 132.343 659.246 132.627 659.246 132.969C659.246 133.623 659.801 134.178 660.455 134.178C660.768 134.178 661.081 134.065 661.323 133.823C661.565 133.581 661.679 133.296 661.679 132.955C661.679 132.642 661.565 132.329 661.323 132.087L661.337 132.101Z" fill="#FCCB1F"/>
<path d="M668.465 143.725C668.181 143.441 668.01 143.042 668.01 142.615C668.01 141.762 668.722 141.05 669.575 141.05C670.429 141.05 671.14 141.762 671.14 142.615C671.14 143.469 670.429 144.181 669.575 144.181C669.148 144.181 668.75 144.01 668.465 143.725ZM669.561 141.406C669.248 141.406 668.935 141.52 668.693 141.762C668.451 142.004 668.337 142.288 668.337 142.63C668.337 143.284 668.892 143.839 669.547 143.839C669.86 143.839 670.173 143.725 670.415 143.483C670.657 143.242 670.77 142.957 670.77 142.615C670.77 141.961 670.215 141.406 669.561 141.406Z" fill="#FCCB1F"/>
<path d="M668.451 134.065C668.153 133.766 667.996 133.382 667.996 132.955C667.996 132.528 668.153 132.144 668.451 131.845C668.75 131.546 669.134 131.39 669.561 131.39C670.386 131.39 671.126 132.13 671.126 132.955C671.126 133.808 670.415 134.52 669.561 134.52C669.134 134.52 668.75 134.363 668.451 134.065ZM670.415 132.101C670.187 131.873 669.888 131.745 669.547 131.745C669.234 131.745 668.921 131.859 668.679 132.101C668.437 132.343 668.323 132.628 668.323 132.969C668.323 133.623 668.878 134.178 669.533 134.178C670.187 134.178 670.742 133.623 670.742 132.969C670.742 132.656 670.628 132.343 670.386 132.101L670.415 132.101Z" fill="#FCCB1F"/>
<path d="M677.543 143.725C677.244 143.426 677.088 143.042 677.088 142.615C677.088 142.188 677.244 141.804 677.543 141.506C677.842 141.207 678.226 141.05 678.653 141.05C679.478 141.05 680.218 141.79 680.218 142.615C680.218 143.042 680.061 143.426 679.762 143.725C679.464 144.024 679.08 144.18 678.653 144.18C678.226 144.18 677.842 144.024 677.543 143.725ZM679.506 141.762C679.279 141.534 678.98 141.406 678.639 141.406C678.325 141.406 678.012 141.52 677.771 141.762C677.529 142.003 677.415 142.288 677.415 142.63C677.415 143.284 677.97 143.839 678.624 143.839C678.937 143.839 679.25 143.725 679.492 143.483C679.734 143.241 679.848 142.957 679.848 142.615C679.848 142.302 679.734 141.989 679.492 141.747L679.506 141.762Z" fill="#FCCB1F"/>
<path d="M677.543 134.05C677.259 133.766 677.088 133.367 677.088 132.94C677.088 132.087 677.799 131.375 678.653 131.375C679.507 131.375 680.218 132.087 680.218 132.94C680.218 133.794 679.507 134.505 678.653 134.505C678.226 134.505 677.828 134.335 677.543 134.05ZM678.639 131.731C677.984 131.731 677.429 132.286 677.429 132.94C677.429 133.595 677.984 134.15 678.639 134.15C679.293 134.15 679.848 133.595 679.848 132.94C679.848 132.286 679.293 131.731 678.639 131.731Z" fill="#FCCB1F"/>
<path d="M499 -1.72371C499 -17.8609 512.139 -31.0001 528.276 -31.0001L528.276 -21.4425C517.411 -21.4425 508.558 -12.5892 508.558 -1.72371C508.558 9.14176 517.411 17.9951 528.276 17.9951L528.276 27.5527C512.139 27.5527 499 14.4135 499 -1.72371Z" fill="#50BCC0"/>
<path d="M559.786 -1.72371C559.786 -17.8609 546.647 -31.0001 530.51 -31.0001L530.51 -21.4425C541.375 -21.4425 550.229 -12.5892 550.229 -1.72371C550.229 9.14176 541.375 17.9951 530.51 17.9951L530.51 27.5527C546.647 27.5527 559.786 14.4135 559.786 -1.72371Z" stroke="#50BCC0" stroke-width="0.49" stroke-miterlimit="10"/>
<path d="M528.804 13.9049C537.414 14.0793 544.536 7.24041 544.71 -1.37013C544.885 -9.98068 538.046 -17.1022 529.435 -17.2766C520.825 -17.4509 513.703 -10.6121 513.529 -2.00152C513.354 6.60903 520.193 13.7306 528.804 13.9049Z" fill="#E0DCE6"/>
</svg>
