<svg width="259" height="130" viewBox="0 0 259 130" fill="none" xmlns="http://www.w3.org/2000/svg">
<g clip-path="url(#clip0_1_3)">
<path d="M68.89 72.2C72.56 66.46 75.04 60.28 76.03 53.62C76.65 49.46 77.39 45.22 76.39 40.96C75.55 41.1 75.49 41.68 75.29 42.12C72.62 48.32 68.82 53.81 64.6 59.08C63.03 61.06 61.77 61.22 59.55 60.15C50.55 55.83 41 54.37 30.47 55.03C30.08 55.06 29.96 55.56 30.3 55.75C41.21 61.66 46.29 66.43 50.1 73.97C53.52 80.77 52.27 87.43 46.57 92.73C41.55 97.39 34.36 98.14 27.98 94.65C9.68 84.64 -0.499995 62.48 3.95 42.36C9.41 17.72 30.89 1.65999 56.65 2.95999C77.24 4.00999 96.84 20.27 101.5 39.83C103.81 49.55 103.55 59.02 100.24 68.44C99.96 69.22 99.09 70.37 100.33 70.91C101.64 71.48 102.5 70.54 103 69.36C103.24 68.78 103.44 68.19 103.61 67.59C108.74 49.93 105.76 33.76 94.12 19.31C75.04 -4.37001 38.16 -6.62001 16.1 14.49C-6.94 36.54 -5 73.63 20.32 93.08C25.43 97 30.82 100.64 37.64 101.11C46.09 101.7 54.32 96.47 57.48 88.6C60.77 80.4 58.34 71.79 51.06 65.85C49.93 64.93 48.79 64.02 47.34 62.85C47.12 62.67 47.28 62.31 47.56 62.35C54.04 63.29 60.49 67.08 64.63 72.45C66.48 74.86 67.42 74.47 68.88 72.19L68.89 72.2ZM66.34 70.19C63.87 70.14 61.93 68.16 61.99 65.75C62.05 63.55 64.03 61.67 66.33 61.62C68.86 61.56 70.78 63.42 70.77 65.9C70.76 68.41 68.88 70.23 66.34 70.19Z" fill="white"/>
<path d="M56.67 54.17C60.75 54.09 64.06 50.76 64.07 46.71C64.09 42.66 60.76 39.47 56.56 39.48C52.44 39.5 49.11 42.77 49.11 46.81C49.11 50.69 52.76 54.24 56.66 54.16L56.67 54.17Z" fill="white"/>
<path d="M43.37 26.38C44.42 25.19 44.37 24.22 44.22 23.3C43.41 18.58 40.02 15.74 36.3 13.23C35.03 12.38 34.6 13.54 34.5 14.51C34.17 17.63 34.14 20.76 35.27 23.77C35.96 25.61 37.21 26.97 39.14 27.66C40.68 28.22 41.46 27.7 41.22 26.11C40.98 24.56 40.55 23.03 40.2 21.49C40.37 21.44 40.53 21.38 40.69 21.33C41.54 22.94 42.39 24.55 43.36 26.38H43.37Z" fill="white"/>
<path d="M58.83 26.4C60.14 26.52 60.99 25.28 61.63 24.16C63.29 21.26 62.27 13.65 59.92 11.07C59.21 10.29 58.71 10.36 58.17 11.11C55.61 14.63 53.39 18.28 54.07 22.89C54.23 23.96 54.28 25.19 55.89 25.63C56.92 23.39 55.85 20.72 57.6 17.98C57.6 20.31 57.43 21.96 57.66 23.57C57.8 24.57 57.27 26.26 58.84 26.41L58.83 26.4Z" fill="white"/>
<path d="M31.65 36.61C32.09 35.87 31.52 35.19 31.1 34.63C30.23 33.45 29.27 32.33 27.89 30.62C30.76 31.5 31.55 33.81 33.8 34.77C33.59 30.57 31.1 28.45 27.86 27.13C25.61 26.21 22.45 24.15 20.92 25.93C19.53 27.54 21.75 30.53 22.97 32.7C24.36 35.16 26.32 36.99 29.36 37.3C30.21 37.38 31.15 37.47 31.65 36.62V36.61Z" fill="white"/>
<path d="M70.95 35.98C71.74 36.54 72.83 36.13 73.64 35.61C74.43 35.11 75.28 34.59 75.83 33.87C78.37 30.57 78.3 26.71 78.04 22.85C77.95 21.55 77.05 21.74 76.21 22.22C73.15 23.94 70.37 25.99 68.62 29.09C67.6 30.9 67.29 32.82 68.43 35.33C69.73 32.66 70.6 30.45 72.57 28.84C72.01 30.36 71.41 31.86 70.91 33.4C70.64 34.25 70.04 35.34 70.96 35.99L70.95 35.98Z" fill="white"/>
<path d="M16.67 45.87C14.84 46.04 12.08 45.59 11.5 47.32C10.93 49.01 13.33 50.38 14.73 51.55C17.12 53.55 19.79 55.07 23.13 53.67C23.79 53.39 24.66 53.18 24.64 52.29C24.62 51.6 23.93 51.28 23.37 51.01C21.79 50.23 20.18 49.51 17.92 48.45C20.96 48.46 22.91 49.6 25.81 50.45C23.53 46.34 20.3 45.55 16.66 45.88L16.67 45.87Z" fill="white"/>
<path d="M92.86 33.13C88.77 32.14 82.77 35.84 81.5 40.43C83.59 39.97 84.59 37.76 87.15 37.39C85.96 38.67 85.14 39.47 84.44 40.36C83.91 41.05 82.67 41.65 83.39 42.68C83.96 43.5 85.14 43.24 86.07 43.17C89.28 42.91 94.04 37.54 93.97 34.35C93.95 33.56 93.56 33.3 92.86 33.13Z" fill="white"/>
<path d="M42.35 48.13C40.92 44.56 34.57 42.06 32.01 43.47C31.48 43.76 31.18 44.17 31.5 44.72C33.03 47.34 34.59 49.95 37.86 50.81C39.12 51.14 40.66 51.28 41.29 50.09C41.9 48.92 40.25 48.56 39.61 47.83C39.32 47.5 38.57 47.4 39.05 46.55C39.96 46.99 40.87 47.43 42.35 48.14V48.13Z" fill="white"/>
<path d="M51.71 37.07C53.62 33.72 52.63 28.75 49.83 26.5C49.04 25.87 48.53 25.94 48.07 26.75C46.52 29.46 45.74 32.34 46.76 35.39C47.1 36.41 47.9 37.66 49.23 37.43C50.38 37.23 49.98 35.91 50.14 35.03C50.26 34.38 49.9 33.63 50.57 33.04C51.41 34.21 50.54 35.77 51.71 37.08V37.07Z" fill="white"/>
<path d="M33.17 62.43C30.5 61.32 24.88 63.15 23.14 65.63C22.78 66.14 22.71 66.47 23.16 66.96C24.91 68.84 31.36 69.18 33.36 67.45C33.92 66.97 34.6 66.46 34.43 65.66C34.23 64.71 33.25 65.03 32.59 64.84C31.6 64.56 30.51 65.25 29.48 64.57C30.76 63.28 32.58 64.15 33.9 63.39C33.95 62.8 33.55 62.59 33.17 62.43Z" fill="white"/>
<path d="M80.47 57.92C80.62 58.97 81.7 59.29 82.67 59.42C84.75 59.7 86.74 59.33 88.41 58.07C89.64 57.15 91.81 56.34 91.49 54.85C91.16 53.35 88.83 53.5 87.35 53.23C83.44 52.5 81.77 53.1 80.35 55.42C81.83 55.63 83.24 54.6 85.01 55.38C83.93 55.78 83.03 56.04 82.23 56.43C81.53 56.78 80.31 56.84 80.48 57.92H80.47Z" fill="white"/>
<path d="M104.41 104.01C103.96 103.81 103.48 103.65 103 103.49C104.92 102.48 106.48 101.14 107.63 99.43C108.89 97.5 109.52 95.25 109.52 92.67C109.52 88.82 107.96 85.72 104.83 83.37C101.75 81.02 97.12 79.85 90.96 79.85H67V129.16H92.36C98.8 129.16 103.68 127.99 107 125.64C110.32 123.24 111.97 119.93 111.97 115.71C111.97 112.85 111.29 110.43 109.94 108.45C108.63 106.48 106.79 105 104.41 104.01ZM78.28 88.44H89.56C92.32 88.44 94.42 88.93 95.86 89.92C97.35 90.86 98.1 92.29 98.1 94.22C98.1 96.15 97.35 97.67 95.86 98.66C94.41 99.6 92.31 100.07 89.56 100.07H78.28V88.45V88.44ZM98.17 119.15C96.68 120.09 94.46 120.56 91.52 120.56H78.28V108.37H91.52C94.46 108.37 96.68 108.89 98.17 109.92C99.71 110.91 100.48 112.43 100.48 114.5C100.48 116.57 99.71 118.16 98.17 119.15Z" fill="white"/>
<path d="M133.38 93.09C134.78 91.68 136.44 90.6 138.35 89.85C140.26 89.1 142.37 88.72 144.65 88.72C147.08 88.72 149.32 89.21 151.37 90.2C153.42 91.14 155.29 92.57 156.97 94.5L164.26 87.74C161.93 84.88 159.03 82.72 155.57 81.26C152.16 79.76 148.33 79.01 144.08 79.01C140.25 79.01 136.72 79.64 133.5 80.91C130.28 82.13 127.45 83.89 125.02 86.19C122.64 88.49 120.77 91.19 119.42 94.29C118.11 97.39 117.46 100.79 117.46 104.5C117.46 108.21 118.11 111.61 119.42 114.71C120.77 117.81 122.64 120.51 125.02 122.81C127.4 125.11 130.2 126.9 133.43 128.16C136.7 129.38 140.22 129.99 144.01 129.99C148.31 129.99 152.16 129.24 155.57 127.74C159.03 126.24 161.92 124.05 164.26 121.19L156.97 114.43C155.29 116.4 153.42 117.88 151.37 118.87C149.32 119.81 147.07 120.28 144.65 120.28C142.36 120.28 140.26 119.9 138.35 119.15C136.44 118.4 134.78 117.32 133.38 115.91C131.98 114.5 130.88 112.83 130.09 110.91C129.34 108.98 128.97 106.85 128.97 104.5C128.97 102.15 129.34 100.02 130.09 98.09C130.88 96.16 131.98 94.5 133.38 93.09Z" fill="white"/>
<path d="M183.73 93.09C185.13 91.68 186.79 90.6 188.7 89.85C190.61 89.1 192.72 88.72 195 88.72C197.43 88.72 199.67 89.21 201.72 90.2C203.77 91.14 205.64 92.57 207.32 94.5L214.61 87.74C212.28 84.88 209.38 82.72 205.92 81.26C202.51 79.76 198.68 79.01 194.43 79.01C190.6 79.01 187.07 79.64 183.85 80.91C180.63 82.13 177.8 83.89 175.37 86.19C172.99 88.49 171.12 91.19 169.77 94.29C168.46 97.39 167.81 100.79 167.81 104.5C167.81 108.21 168.46 111.61 169.77 114.71C171.12 117.81 172.99 120.51 175.37 122.81C177.75 125.11 180.55 126.9 183.78 128.16C187.05 129.38 190.57 129.99 194.36 129.99C198.66 129.99 202.51 129.24 205.92 127.74C209.38 126.24 212.27 124.05 214.61 121.19L207.32 114.43C205.64 116.4 203.77 117.88 201.72 118.87C199.67 119.81 197.42 120.28 195 120.28C192.71 120.28 190.61 119.9 188.7 119.15C186.79 118.4 185.13 117.32 183.73 115.91C182.33 114.5 181.23 112.83 180.44 110.91C179.69 108.98 179.32 106.85 179.32 104.5C179.32 102.15 179.69 100.02 180.44 98.09C181.23 96.16 182.33 94.5 183.73 93.09Z" fill="white"/>
<path d="M216.27 79.85V89.14H231.96V129.15H243.31V89.14H259V79.85H216.27Z" fill="white"/>
</g>
<defs>
<clipPath id="clip0_1_3">
<rect width="259" height="130" fill="white"/>
</clipPath>
</defs>
</svg>
