<svg width="160" height="66" viewBox="0 0 160 66" fill="none" xmlns="http://www.w3.org/2000/svg">
<path d="M15.1575 27.8793C14.9866 27.7876 15.0454 27.5334 15.2404 27.5203C20.5024 27.1901 25.2784 27.916 29.7792 30.0778C30.8904 30.6124 31.5181 30.5311 32.3034 29.5432C34.4109 26.9045 36.3127 24.1609 37.6483 21.061C37.7444 20.8383 37.7738 20.55 38.1958 20.4793C38.6953 22.6097 38.3267 24.7269 38.0169 26.8075C37.5201 30.1407 36.2807 33.2301 34.4456 36.0995C33.7191 37.2367 33.249 37.4307 32.3221 36.2279C30.252 33.5394 27.0253 31.6474 23.7852 31.1758C23.641 31.1548 23.5608 31.333 23.673 31.4247C24.3996 32.0117 24.9685 32.4676 25.5321 32.9262C29.1702 35.8925 30.3855 40.2004 28.7401 44.2987C27.1615 48.232 23.0427 50.8471 18.8196 50.5536C15.4113 50.3178 12.7135 48.4992 10.1599 46.5392C-2.50114 36.8149 -3.47075 18.2729 8.04973 7.24623C19.0787 -3.30876 37.5201 -2.18723 47.0612 9.65962C52.8789 16.8841 54.3721 24.9706 51.8051 33.8014C51.717 34.1001 51.6182 34.3988 51.498 34.6871C51.2522 35.2741 50.8195 35.7457 50.1651 35.4601C49.5454 35.1876 49.9808 34.6137 50.1197 34.2233C51.7731 29.5118 51.9066 24.7793 50.75 19.9185C48.4182 10.1339 38.6179 2.00542 28.3234 1.48134C15.446 0.828857 4.70284 8.85777 1.97564 21.1789C-0.252066 31.2386 4.84173 42.3177 13.9983 47.3279C17.1876 49.0731 20.7829 48.701 23.2911 46.3689C26.1411 43.717 26.7662 40.3891 25.0567 36.9878C23.1548 33.217 20.6119 30.8325 15.1575 27.8793ZM35.3832 32.9498C35.3885 31.7103 34.4269 30.7827 33.1635 30.8115C32.0149 30.8351 31.0239 31.7784 30.9945 32.8764C30.9625 34.0818 31.9321 35.0723 33.1688 35.0959C34.4376 35.1168 35.3778 34.2049 35.3832 32.9498Z" fill="#00A099"/>
<path d="M32.0382 23.3573C32.0302 25.3802 30.3767 27.0468 28.336 27.0861C26.3834 27.1254 24.5591 25.3488 24.5591 23.4097C24.5618 21.3894 26.2232 19.7516 28.2853 19.7437C30.3848 19.7359 32.0462 21.3343 32.0382 23.3573Z" fill="#00A099"/>
<path d="M21.685 13.1901C21.2015 12.2782 20.7768 11.4738 20.3494 10.6667C20.2666 10.6929 20.1865 10.7217 20.1037 10.7479C20.2773 11.5157 20.4937 12.2808 20.6112 13.0565C20.7314 13.8478 20.3441 14.1099 19.5721 13.8295C18.6079 13.481 17.9828 12.8049 17.6356 11.8825C17.0666 10.381 17.0853 8.81666 17.2483 7.2549C17.299 6.77275 17.5127 6.1884 18.1484 6.61552C20.0075 7.8707 21.7037 9.29095 22.1097 11.6519C22.1845 12.1105 22.2112 12.5953 21.685 13.1901Z" fill="#73B73B"/>
<path d="M27.9407 12.8101C27.1394 12.5926 27.1127 11.9794 27.0326 11.4423C26.6933 9.14155 27.8045 7.31513 29.084 5.55422C29.3564 5.17688 29.6075 5.14544 29.9601 5.53326C31.1354 6.8225 31.6482 10.6247 30.8175 12.0764C30.4943 12.6398 30.0696 13.2582 29.4152 13.1979C28.6299 13.1246 28.8943 12.2782 28.8249 11.7803C28.7127 10.9758 28.7955 10.1478 28.7955 8.98433C27.922 10.3548 28.4563 11.6912 27.9407 12.8101Z" fill="#73B73B"/>
<path d="M16.9008 17.3802C15.7789 16.9006 15.3836 15.745 13.9465 15.3048C14.6357 16.1617 15.1138 16.7224 15.5492 17.312C15.7575 17.595 16.0434 17.9331 15.8243 18.3025C15.5759 18.727 15.1058 18.6851 14.6811 18.6432C13.1612 18.4886 12.1809 17.5767 11.4838 16.3451C10.8721 15.2629 9.76091 13.7692 10.4581 12.9622C11.2247 12.0712 12.8033 13.1037 13.9305 13.5622C15.5492 14.2199 16.7966 15.2786 16.9008 17.3802Z" fill="#73B73B"/>
<path d="M36.2798 14.4139C35.2941 15.2183 34.8614 16.3241 34.2097 17.6605C33.6381 16.4028 33.793 15.4463 34.3032 14.5396C35.1766 12.9936 36.5683 11.969 38.0988 11.1069C38.5208 10.8685 38.9696 10.7741 39.015 11.424C39.1486 13.3526 39.1806 15.2838 37.9118 16.9347C37.6367 17.2937 37.212 17.5557 36.8167 17.8047C36.4107 18.0615 35.8684 18.2685 35.4731 17.9881C35.0163 17.6658 35.3128 17.1207 35.4491 16.6936C35.7002 15.9258 36.002 15.1738 36.2798 14.4139Z" fill="#73B73B"/>
<path d="M12.913 25.2178C11.4626 24.7932 10.4877 24.2246 8.96781 24.2194C10.1004 24.7487 10.9044 25.1103 11.695 25.5008C11.9728 25.637 12.32 25.7969 12.3281 26.1428C12.3361 26.5908 11.9034 26.6957 11.5721 26.8345C9.90002 27.5368 8.56714 26.7769 7.37048 25.7759C6.66798 25.1889 5.47133 24.5024 5.75446 23.6586C6.04294 22.7939 7.42123 23.0166 8.33742 22.9328C10.1591 22.7677 11.7725 23.1607 12.913 25.2178Z" fill="#73B73B"/>
<path d="M40.7485 20.2154C41.3843 17.9226 44.3839 16.0726 46.43 16.5652C46.7799 16.6491 46.9749 16.7775 46.9856 17.1732C47.0203 18.7664 44.6403 21.4549 43.035 21.5833C42.5702 21.62 41.9799 21.7484 41.6941 21.3396C41.3335 20.826 41.9505 20.5247 42.2176 20.1814C42.5676 19.7359 42.9789 19.3376 43.5719 18.6956C42.2924 18.879 41.7929 19.9875 40.7485 20.2154Z" fill="#73B73B"/>
<path d="M21.1748 24.0674C20.4322 23.711 19.9808 23.4935 19.524 23.2734C19.2809 23.6979 19.6549 23.7503 19.8018 23.9154C20.1223 24.2797 20.9504 24.4605 20.6432 25.0448C20.328 25.6423 19.5587 25.5715 18.9284 25.4064C17.2936 24.9767 16.5137 23.6691 15.7497 22.3615C15.5895 22.089 15.7364 21.8846 16.0035 21.7379C17.2856 21.0304 20.4616 22.2829 21.1748 24.0674Z" fill="#73B73B"/>
<path d="M25.8571 18.5357C25.2721 17.8806 25.7075 17.105 25.2881 16.518C24.9516 16.8115 25.1306 17.1888 25.0718 17.5138C24.9917 17.9514 25.1893 18.6091 24.615 18.7113C23.9526 18.8292 23.5519 18.2029 23.381 17.692C22.8735 16.1695 23.2635 14.7309 24.0381 13.3735C24.2678 12.97 24.5215 12.9333 24.9169 13.2504C26.3165 14.3745 26.8133 16.8613 25.8571 18.5357Z" fill="#73B73B"/>
<path d="M16.9493 31.6954C16.2895 32.0753 15.376 31.6403 14.7376 32.2876C15.2504 32.6282 15.7954 32.2823 16.2922 32.4238C16.6234 32.5182 17.1122 32.3557 17.2137 32.8326C17.2992 33.2335 16.96 33.4877 16.6795 33.7262C15.6778 34.5883 12.4538 34.4206 11.5777 33.4799C11.3506 33.2362 11.388 33.0711 11.567 32.8169C12.4378 31.5775 15.2478 30.6629 16.5833 31.2158C16.7756 31.2971 16.976 31.3993 16.9493 31.6954Z" fill="#73B73B"/>
<path d="M42.5036 27.6888C41.6195 27.2983 40.9143 27.8119 40.1744 27.7071C40.8823 26.5463 41.721 26.2449 43.6736 26.6118C44.4162 26.7507 45.5808 26.6721 45.7437 27.4241C45.904 28.1709 44.8195 28.5745 44.2051 29.0357C43.3664 29.6646 42.3728 29.848 41.3337 29.7091C40.8529 29.6436 40.3133 29.4864 40.2359 28.9597C40.1531 28.4172 40.7621 28.3884 41.112 28.2129C41.5153 28.0163 41.9614 27.8905 42.5036 27.6888Z" fill="#73B73B"/>
<path d="M34.9683 51.8018V39.0692H37.3963C38.6544 39.0692 39.5759 39.1164 40.1582 39.2133C40.7405 39.3103 41.2454 39.4675 41.6701 39.6876C42.1722 39.9706 42.5622 40.3454 42.8347 40.8092C43.1098 41.273 43.246 41.7971 43.246 42.384C43.246 43.1387 43.019 43.7414 42.5622 44.1973C42.1081 44.6533 41.427 44.9546 40.5242 45.1066C41.5712 45.2586 42.3619 45.5914 42.8961 46.1076C43.4303 46.6238 43.6974 47.3104 43.6974 48.1699C43.6974 48.7962 43.5425 49.37 43.2353 49.8889C42.9282 50.4077 42.5061 50.8086 41.9666 51.0942C41.4884 51.3484 40.9275 51.5319 40.2811 51.6419C39.6374 51.752 38.5689 51.807 37.0811 51.807H36.798H34.9683V51.8018ZM37.7435 44.158H38.3632C39.202 44.158 39.7976 44.0427 40.1449 43.8095C40.4921 43.5763 40.6684 43.1885 40.6684 42.6434C40.6684 42.1089 40.5001 41.7315 40.1662 41.5036C39.8323 41.2782 39.2474 41.1655 38.414 41.1655H37.7409V44.158H37.7435ZM37.7435 49.6792H38.8334C39.5305 49.6792 40.0594 49.5299 40.42 49.2311C40.7806 48.9324 40.9596 48.4974 40.9596 47.9209C40.9596 47.3811 40.7806 46.9697 40.4227 46.6867C40.0647 46.4037 39.5465 46.2596 38.8681 46.2596H37.7409V49.6792H37.7435Z" fill="#9D9D9C"/>
<path d="M49.4966 51.8017V39.0692H52.2719V51.8017H49.4966Z" fill="#9D9D9C"/>
<path d="M58.864 51.8017V39.0692H61.6393V49.4879H66.0734V51.8017H58.864Z" fill="#9D9D9C"/>
<path d="M71.5037 51.8017V39.0692H74.279V51.8017H71.5037Z" fill="#9D9D9C"/>
<path d="M80.8711 51.8018V39.0692H83.7532L89.4988 46.4797C89.6644 46.6893 89.846 46.9828 90.0437 47.3628C90.2413 47.7428 90.447 48.1908 90.6607 48.7071C90.5966 48.3297 90.5485 47.955 90.5191 47.5855C90.4898 47.2134 90.4737 46.7496 90.4737 46.1941V39.0718H93.1261V51.8044H90.4043L84.5011 44.255C84.3355 44.0454 84.1566 43.7519 83.9616 43.3719C83.7666 42.992 83.5609 42.5386 83.3419 42.0119C83.406 42.3762 83.4541 42.7456 83.4834 43.1204C83.5128 43.4951 83.5289 43.9641 83.5289 44.5328V51.8044H80.8711V51.8018Z" fill="#9D9D9C"/>
<path d="M106.089 45.0882H112.003C112.014 45.1642 112.022 45.2454 112.024 45.3319C112.027 45.4184 112.03 45.552 112.03 45.7328C112.03 47.6405 111.474 49.1865 110.363 50.3683C109.252 51.5501 107.815 52.1423 106.055 52.1423C104.038 52.1423 102.379 51.5108 101.073 50.2504C99.7667 48.99 99.115 47.3889 99.115 45.4446C99.115 43.5186 99.7721 41.928 101.084 40.6702C102.395 39.4124 104.054 38.7835 106.057 38.7835C107.115 38.7835 108.085 39.001 108.966 39.436C109.848 39.871 110.633 40.5208 111.325 41.3829L109.455 42.7403C108.987 42.1717 108.499 41.7629 107.983 41.5087C107.47 41.2572 106.875 41.1314 106.201 41.1314C104.919 41.1314 103.894 41.5218 103.124 42.3053C102.355 43.0888 101.973 44.1344 101.973 45.4446C101.973 46.7312 102.358 47.7715 103.13 48.5629C103.902 49.3542 104.906 49.7499 106.148 49.7499C107.059 49.7499 107.796 49.5403 108.365 49.1184C108.931 48.6991 109.217 48.1488 109.217 47.4701V47.3313H106.097V45.0882H106.089Z" fill="#9D9D9C"/>
<path d="M129.02 39.0692V46.9933C129.02 48.7202 128.556 50.012 127.629 50.8637C126.702 51.7153 125.302 52.1424 123.435 52.1424C121.539 52.1424 120.126 51.7153 119.196 50.8637C118.269 50.012 117.804 48.7202 117.804 46.9933V39.0692H120.561V46.5662C120.561 47.6144 120.796 48.4057 121.271 48.935C121.747 49.4644 122.449 49.7316 123.39 49.7316C124.335 49.7316 125.051 49.4644 125.534 48.9324C126.018 48.3979 126.261 47.6117 126.261 46.5662V39.0692H129.02V39.0692Z" fill="#9D9D9C"/>
<path d="M133.663 51.8017L138.602 39.0692H141.775L146.783 51.8017H143.626L142.571 49.0975H137.544L136.638 51.8017H133.663ZM141.925 46.9592L140.472 42.8452C140.431 42.7247 140.378 42.515 140.311 42.2189C140.247 41.9228 140.178 41.5612 140.108 41.1315C140.031 41.5429 139.959 41.9124 139.887 42.2399C139.814 42.5675 139.764 42.7876 139.726 42.8976L138.327 46.9592H141.925Z" fill="#9D9D9C"/>
<path d="M151.781 51.8017V39.0692H154.556V49.4879H158.99V51.8017H151.781Z" fill="#9D9D9C"/>
<path d="M40.2917 60.6378C40.0165 60.4151 39.7334 60.2526 39.4423 60.1478C39.1511 60.043 38.8413 59.9932 38.51 59.9932C37.8316 59.9932 37.2893 60.1766 36.886 60.5435C36.4827 60.9103 36.2823 61.403 36.2823 62.0214C36.2823 62.6267 36.4693 63.1088 36.8433 63.4626C37.2172 63.819 37.7274 63.9945 38.3738 63.9945C38.7424 63.9945 39.0843 63.9395 39.3995 63.8268C39.7147 63.7168 40.0085 63.5491 40.2783 63.3263L40.2703 64.5894C39.9792 64.744 39.6773 64.8593 39.3595 64.9353C39.0416 65.0112 38.7077 65.0479 38.3578 65.0479C37.3428 65.0479 36.5094 64.7623 35.8576 64.1937C35.2059 63.6224 34.88 62.8992 34.88 62.0214C34.88 61.1462 35.2059 60.4229 35.8603 59.8543C36.5121 59.2857 37.3535 59.0001 38.3845 59.0001C38.7291 59.0001 39.063 59.0341 39.3862 59.0996C39.7094 59.1651 40.0246 59.2673 40.3398 59.4036L40.2917 60.6378Z" fill="#00A099"/>
<path d="M42.984 64.8986V59.1415H44.3463V61.4501H47.1082V59.1415H48.4705V64.8986H47.1082V62.4904H44.3463V64.8986H42.984Z" fill="#00A099"/>
<path d="M51.3419 64.8986V59.1415H52.7042V64.8986H51.3419Z" fill="#00A099"/>
<path d="M55.5837 64.8986V59.1415H56.946V63.853H59.123V64.8986H55.5837Z" fill="#00A099"/>
<path d="M61.4041 64.8986V59.1415H63.1403C63.8241 59.1415 64.3636 59.1861 64.759 59.2726C65.1543 59.359 65.4989 59.5032 65.798 59.7049C66.1827 59.9643 66.4765 60.2919 66.6742 60.6876C66.8718 61.0833 66.9733 61.5313 66.9733 62.0345C66.9733 62.5454 66.8718 62.9988 66.6688 63.3945C66.4658 63.7901 66.1693 64.1151 65.7767 64.3719C65.4855 64.5605 65.165 64.6968 64.8097 64.778C64.4545 64.8619 63.9336 64.9012 63.2498 64.9012H62.7663H61.4041V64.8986ZM62.7663 63.8609H63.5222C64.2354 63.8609 64.7563 63.7141 65.0822 63.4207C65.408 63.1272 65.571 62.6607 65.571 62.024C65.571 61.3898 65.408 60.9234 65.0822 60.6299C64.7563 60.3338 64.2354 60.1871 63.5222 60.1871H62.7663V63.8609Z" fill="#00A099"/>
<path d="M78.833 60.6378C78.5579 60.4151 78.2748 60.2526 77.9836 60.1478C77.6925 60.043 77.3826 59.9932 77.0514 59.9932C76.373 59.9932 75.8307 60.1766 75.4274 60.5435C75.0241 60.9103 74.8237 61.403 74.8237 62.0214C74.8237 62.6267 75.0107 63.1088 75.3847 63.4626C75.7586 63.819 76.2688 63.9945 76.9152 63.9945C77.2838 63.9945 77.6257 63.9395 77.9409 63.8268C78.2561 63.7168 78.5499 63.5491 78.8197 63.3263L78.8117 64.5894C78.5205 64.744 78.2187 64.8593 77.9008 64.9353C77.583 65.0113 77.2491 65.0479 76.8992 65.0479C75.8841 65.0479 75.0508 64.7623 74.399 64.1937C73.7473 63.6224 73.4214 62.8992 73.4214 62.0214C73.4214 61.1462 73.7473 60.4229 74.4017 59.8543C75.0534 59.2857 75.8948 59.0001 76.9259 59.0001C77.2704 59.0001 77.6043 59.0341 77.9275 59.0996C78.2507 59.1651 78.5659 59.2673 78.8811 59.4036L78.833 60.6378Z" fill="#00A099"/>
<path d="M80.7695 64.8986L83.1922 59.1415H84.7495L87.2069 64.8986H85.6576L85.1395 63.6748H82.6714L82.228 64.8986H80.7695ZM84.8243 62.7079L84.1111 60.8474C84.0897 60.7924 84.0657 60.6981 84.0336 60.5644C84.0016 60.4308 83.9695 60.2657 83.9348 60.0718C83.8974 60.2578 83.86 60.4255 83.8253 60.5723C83.7905 60.719 83.7638 60.8186 83.7478 60.8684L83.0613 62.7053H84.8243V62.7079Z" fill="#00A099"/>
<path d="M93.9141 64.8986H92.3434L90.6687 62.2074V64.8986H89.3064V59.1415H91.2563C92.0309 59.1415 92.6106 59.2778 92.9979 59.5477C93.3825 59.8202 93.5775 60.2264 93.5775 60.774C93.5775 61.1697 93.4439 61.5078 93.1822 61.7881C92.9177 62.0685 92.5785 62.2336 92.1591 62.2808L93.9141 64.8986ZM90.666 61.5942H90.8717C91.4219 61.5942 91.7878 61.5392 91.9641 61.4318C92.1404 61.3217 92.2286 61.133 92.2286 60.8631C92.2286 60.5801 92.1324 60.3784 91.9428 60.2605C91.7531 60.1399 91.3952 60.0823 90.869 60.0823H90.6633V61.5942H90.666Z" fill="#00A099"/>
<path d="M96.1311 64.8986V59.1415H99.8813V60.1792H97.4934V61.3636H99.8813V62.4092H97.4934V63.853H99.8813V64.8986H96.1311V64.8986Z" fill="#00A099"/>
<path d="M109.187 60.1871V64.8986H107.82V60.1871H106.263V59.1415H110.745V60.1871H109.187Z" fill="#00A099"/>
<path d="M117.671 64.8986H116.1L114.426 62.2074V64.8986H113.063V59.1415H115.013C115.788 59.1415 116.368 59.2778 116.755 59.5477C117.139 59.8202 117.334 60.2264 117.334 60.774C117.334 61.1697 117.201 61.5078 116.939 61.7881C116.675 62.0685 116.335 62.2336 115.916 62.2808L117.671 64.8986ZM114.426 61.5942H114.631C115.182 61.5942 115.547 61.5392 115.724 61.4318C115.9 61.3217 115.988 61.133 115.988 60.8631C115.988 60.5801 115.892 60.3784 115.702 60.2605C115.513 60.1399 115.155 60.0823 114.629 60.0823H114.423V61.5942H114.426Z" fill="#00A099"/>
<path d="M119.132 64.8986L121.555 59.1415H123.112L125.57 64.8986H124.02L123.502 63.6748H121.034L120.591 64.8986H119.132ZM123.187 62.7079L122.474 60.8474C122.453 60.7924 122.428 60.6981 122.396 60.5644C122.364 60.4308 122.33 60.2657 122.295 60.0718C122.258 60.2578 122.22 60.4255 122.185 60.5723C122.151 60.7216 122.124 60.8186 122.108 60.8684L121.421 62.7053H123.187V62.7079Z" fill="#00A099"/>
<path d="M127.693 64.8986V59.1415H129.055V64.8986H127.693Z" fill="#00A099"/>
<path d="M131.934 64.8986V59.1415H133.347L136.168 62.493C136.248 62.5874 136.339 62.721 136.435 62.8913C136.531 63.0617 136.633 63.2661 136.737 63.4993C136.705 63.3289 136.681 63.1586 136.668 62.9909C136.654 62.8232 136.646 62.6136 136.646 62.362V59.1415H137.947V64.8986H136.612L133.713 61.4842C133.633 61.3898 133.542 61.2562 133.449 61.0859C133.355 60.9156 133.251 60.7085 133.144 60.4701C133.177 60.6352 133.201 60.8029 133.214 60.9706C133.227 61.1383 133.235 61.3532 133.235 61.61V64.8986H131.934Z" fill="#00A099"/>
<path d="M140.819 64.8986V59.1415H142.181V64.8986H140.819Z" fill="#00A099"/>
<path d="M145.061 64.8986V59.1415H146.474L149.294 62.493C149.374 62.5874 149.465 62.721 149.561 62.8913C149.658 63.0617 149.759 63.2661 149.863 63.4993C149.831 63.3289 149.807 63.1586 149.794 62.9909C149.78 62.8232 149.772 62.6136 149.772 62.362V59.1415H151.073V64.8986H149.738L146.84 61.4842C146.759 61.3898 146.669 61.2562 146.575 61.0859C146.482 60.9156 146.377 60.7085 146.271 60.4701C146.303 60.6352 146.327 60.8029 146.34 60.9706C146.353 61.1383 146.361 61.3532 146.361 61.61V64.8986H145.061Z" fill="#00A099"/>
<path d="M157.083 61.8615H159.987C159.992 61.8956 159.997 61.9323 159.997 61.9716C159.997 62.0109 160 62.0711 160 62.1524C160 63.0145 159.728 63.7141 159.183 64.2487C158.638 64.7833 157.933 65.0505 157.067 65.0505C156.079 65.0505 155.262 64.7649 154.621 64.1963C153.979 63.625 153.659 62.9018 153.659 62.024C153.659 61.154 153.982 60.4334 154.626 59.8647C155.27 59.2961 156.084 59.0105 157.067 59.0105C157.585 59.0105 158.061 59.1101 158.494 59.3066C158.926 59.5031 159.311 59.7966 159.65 60.1871L158.731 60.8002C158.502 60.5434 158.261 60.3574 158.01 60.2447C157.756 60.1294 157.465 60.0744 157.137 60.0744C156.506 60.0744 156.004 60.2526 155.628 60.6063C155.251 60.9601 155.061 61.4344 155.061 62.0266C155.061 62.6083 155.251 63.0774 155.63 63.4364C156.009 63.7954 156.504 63.9735 157.113 63.9735C157.559 63.9735 157.922 63.8792 158.2 63.6879C158.478 63.4966 158.616 63.2503 158.616 62.9437V62.8808H157.086V61.8615H157.083Z" fill="#00A099"/>
</svg>
