<svg width="48" height="48" viewBox="0 0 48 48" fill="none" xmlns="http://www.w3.org/2000/svg">
<path d="M40.2072 12.4012C40.2885 11.7408 40.3309 11.0683 40.3309 10.3859C40.3309 4.65 35.681 0 29.945 0H12.588C11.4962 0 10.564 0.788437 10.3829 1.86506L3.98724 39.8783C3.75774 41.2424 4.80924 42.4854 6.19234 42.4854H12.5402C13.6321 42.4854 14.5817 41.6976 14.7628 40.6208C14.7628 40.6208 14.7734 40.5577 14.7925 40.4441H14.7926L13.908 45.7022C13.7058 46.9043 14.6326 48 15.8516 48H21.4051C22.3674 48 23.189 47.305 23.3486 46.3561L24.9263 36.9792C25.1983 35.3628 26.5977 34.1792 28.2367 34.1792H29.6957C37.6203 34.1792 44.0445 27.755 44.0445 19.8304C44.0445 16.7639 42.5287 14.0533 40.2072 12.4012Z" fill="#002987"/>
<path d="M40.2072 12.4012C39.214 20.4805 32.328 26.7366 23.9804 26.7366H19.1368C18.0435 26.7366 17.0994 27.4647 16.8032 28.4943L13.908 45.702C13.7058 46.9042 14.6325 48 15.8516 48H21.405C22.3674 48 23.189 47.305 23.3486 46.3561L24.9263 36.9792C25.1983 35.3628 26.5977 34.1792 28.2367 34.1792H29.6956C37.6203 34.1792 44.0445 27.755 44.0445 19.8304C44.0445 16.7639 42.5287 14.0533 40.2072 12.4012Z" fill="#0085CC"/>
<path d="M19.1367 26.7366H23.9803C32.3281 26.7366 39.214 20.4805 40.2071 12.4013C38.7176 11.3414 36.8974 10.7159 34.9299 10.7159H22.2878C20.8484 10.7159 19.6194 11.7553 19.3806 13.1747L16.8031 28.4942C17.0993 27.4646 18.0435 26.7366 19.1367 26.7366Z" fill="#00186A"/>
</svg>
